<svg width="33" height="33" viewBox="0 0 33 33" fill="none" xmlns="http://www.w3.org/2000/svg">
<path d="M16.5 28.1875H9.625C5.5 28.1875 2.75 26.125 2.75 21.3125V11.6875C2.75 6.875 5.5 4.8125 9.625 4.8125H23.375C27.5 4.8125 30.25 6.875 30.25 11.6875V15.8125" stroke="#49C8F5" stroke-width="2.5" stroke-miterlimit="10" stroke-linecap="round" stroke-linejoin="round"/>
<path d="M23.375 12.375L19.0712 15.8125C17.655 16.94 15.3312 16.94 13.915 15.8125L9.625 12.375" stroke="#49C8F5" stroke-width="2.5" stroke-miterlimit="10" stroke-linecap="round" stroke-linejoin="round"/>
<path d="M26.4132 20.3089L21.5457 25.1764C21.3532 25.3689 21.1744 25.7264 21.1332 25.9876L20.8719 27.8439C20.7757 28.5177 21.2432 28.9852 21.9169 28.8889L23.7732 28.6277C24.0345 28.5864 24.4057 28.4076 24.5844 28.2151L29.452 23.3477C30.2907 22.5089 30.6895 21.5327 29.452 20.2952C28.2282 19.0714 27.2519 19.4701 26.4132 20.3089Z" stroke="#49C8F5" stroke-width="2.5" stroke-miterlimit="10" stroke-linecap="round" stroke-linejoin="round"/>
<path d="M25.7129 21.0103C26.1254 22.4953 27.2804 23.6503 28.7654 24.0628" stroke="#49C8F5" stroke-width="2.5" stroke-miterlimit="10" stroke-linecap="round" stroke-linejoin="round"/>
</svg>
