<svg width="32" height="262" viewBox="0 0 32 262" fill="none" xmlns="http://www.w3.org/2000/svg">
<g clip-path="url(#clip0_183_1592)">
<rect y="262" width="262" height="32" rx="13" transform="rotate(-90 0 262)" fill="#49C8F5"/>
<path d="M22.24 247.216C22.24 248.363 21.9867 249.331 21.48 250.12C20.968 250.909 20.2613 251.507 19.36 251.912C18.4587 252.317 17.4187 252.52 16.24 252.52C15.0613 252.52 14.0213 252.317 13.12 251.912C12.2187 251.507 11.5147 250.909 11.008 250.12C10.496 249.331 10.24 248.363 10.24 247.216C10.24 246.064 10.496 245.096 11.008 244.312C11.5147 243.523 12.2187 242.925 13.12 242.52C14.0213 242.109 15.0613 241.904 16.24 241.904C17.4187 241.904 18.4587 242.109 19.36 242.52C20.2613 242.925 20.968 243.523 21.48 244.312C21.9867 245.096 22.24 246.064 22.24 247.216ZM21.112 247.216C21.112 246.315 20.9067 245.563 20.496 244.96C20.0853 244.357 19.5147 243.907 18.784 243.608C18.048 243.304 17.2 243.152 16.24 243.152C15.28 243.152 14.4347 243.304 13.704 243.608C12.9733 243.907 12.4027 244.357 11.992 244.96C11.5813 245.563 11.3733 246.315 11.368 247.216C11.368 248.117 11.5733 248.867 11.984 249.464C12.3947 250.061 12.968 250.512 13.704 250.816C14.4347 251.115 15.28 251.267 16.24 251.272C17.2 251.277 18.0453 251.131 18.776 250.832C19.5013 250.528 20.072 250.075 20.488 249.472C20.8987 248.869 21.1067 248.117 21.112 247.216ZM22 239.446L12.72 239.446C12.496 239.446 12.2747 239.435 12.056 239.414C11.8373 239.387 11.6293 239.337 11.432 239.262C11.2293 239.187 11.0427 239.07 10.872 238.91C10.68 238.734 10.5413 238.542 10.456 238.334C10.3653 238.126 10.3067 237.91 10.28 237.686C10.2533 237.457 10.24 237.233 10.24 237.014L10.24 235.91L11.232 235.91L11.232 236.934C11.232 237.382 11.3413 237.718 11.56 237.942C11.7787 238.161 12.1227 238.27 12.592 238.27L22 238.27L22 239.446ZM14.368 240.942L13.36 240.942L13.36 235.91L14.368 235.91L14.368 240.942ZM22 234.518L12.72 234.518C12.496 234.518 12.2747 234.507 12.056 234.486C11.8373 234.459 11.6293 234.409 11.432 234.334C11.2293 234.259 11.0427 234.142 10.872 233.982C10.68 233.806 10.5413 233.614 10.456 233.406C10.3653 233.198 10.3067 232.982 10.28 232.758C10.2533 232.529 10.24 232.305 10.24 232.086L10.24 230.982L11.232 230.982L11.232 232.006C11.232 232.454 11.3413 232.79 11.56 233.014C11.7787 233.233 12.1227 233.342 12.592 233.342L22 233.342L22 234.518ZM14.368 236.014L13.36 236.014L13.36 230.982L14.368 230.982L14.368 236.014ZM22.24 226.365C22.24 227.207 22.0533 227.938 21.68 228.557C21.3067 229.17 20.7813 229.647 20.104 229.989C19.4267 230.33 18.632 230.501 17.72 230.501C16.776 230.501 15.96 230.333 15.272 229.997C14.584 229.661 14.0533 229.189 13.68 228.581C13.3067 227.967 13.12 227.245 13.12 226.413C13.12 225.559 13.3173 224.831 13.712 224.229C14.1013 223.626 14.6613 223.17 15.392 222.861C16.1227 222.551 16.9947 222.41 18.008 222.437L18.008 223.637L17.592 223.637C16.472 223.658 15.6267 223.901 15.056 224.365C14.4853 224.823 14.2 225.495 14.2 226.381C14.2 227.309 14.5013 228.021 15.104 228.517C15.7067 229.007 16.5653 229.253 17.68 229.253C18.768 229.253 19.6133 229.007 20.216 228.517C20.8133 228.021 21.112 227.319 21.112 226.413C21.112 225.794 20.9707 225.255 20.688 224.797C20.4 224.333 19.9867 223.967 19.448 223.701L19.872 222.605C20.624 222.946 21.208 223.45 21.624 224.117C22.0347 224.778 22.24 225.527 22.24 226.365ZM18.008 229.669L17.024 229.669L17.024 223.069L18.008 223.069L18.008 229.669ZM22 220.661L13.36 220.661L13.36 219.605L15.44 219.605L15.168 219.813C14.912 219.717 14.6773 219.592 14.464 219.437C14.2453 219.283 14.0667 219.115 13.928 218.933C13.7307 218.709 13.5813 218.448 13.48 218.149C13.3733 217.851 13.312 217.549 13.296 217.245C13.2747 216.941 13.296 216.664 13.36 216.413L14.464 216.413C14.384 216.728 14.3653 217.072 14.408 217.445C14.4507 217.819 14.6 218.163 14.856 218.477C15.08 218.765 15.3493 218.981 15.664 219.125C15.9733 219.269 16.304 219.365 16.656 219.413C17.0027 219.461 17.3467 219.485 17.688 219.485L22 219.485L22 220.661ZM22.232 211.984C22.232 212.997 22.0133 213.832 21.576 214.488C21.1387 215.139 20.5307 215.539 19.752 215.688L19.552 214.488C20.0427 214.36 20.4347 214.069 20.728 213.616C21.016 213.157 21.16 212.592 21.16 211.92C21.16 211.264 21.024 210.747 20.752 210.368C20.4747 209.989 20.0987 209.8 19.624 209.8C19.3573 209.8 19.1413 209.861 18.976 209.984C18.8053 210.101 18.648 210.344 18.504 210.712C18.36 211.08 18.1893 211.629 17.992 212.36C17.7787 213.144 17.5653 213.757 17.352 214.2C17.1387 214.643 16.8933 214.957 16.616 215.144C16.3333 215.331 15.9893 215.424 15.584 215.424C15.0933 215.424 14.664 215.285 14.296 215.008C13.9227 214.731 13.6347 214.347 13.432 213.856C13.224 213.365 13.12 212.795 13.12 212.144C13.12 211.493 13.2267 210.912 13.44 210.4C13.648 209.883 13.9413 209.467 14.32 209.152C14.6987 208.837 15.1387 208.651 15.64 208.592L15.856 209.792C15.3493 209.872 14.9493 210.125 14.656 210.552C14.3573 210.973 14.2027 211.509 14.192 212.16C14.176 212.773 14.2933 213.272 14.544 213.656C14.7893 214.04 15.1173 214.232 15.528 214.232C15.7573 214.232 15.9547 214.163 16.12 214.024C16.28 213.885 16.432 213.635 16.576 213.272C16.72 212.904 16.8773 212.381 17.048 211.704C17.2507 210.909 17.464 210.285 17.688 209.832C17.912 209.379 18.176 209.056 18.48 208.864C18.784 208.672 19.16 208.576 19.608 208.576C20.424 208.576 21.0667 208.88 21.536 209.488C22 210.091 22.232 210.923 22.232 211.984ZM22 201.263L13.36 204.399L13.36 203.207L20.464 200.655L13.36 198.119L13.36 196.911L22 200.047L22 201.263ZM22.24 193.486C22.24 194.137 22.1227 194.683 21.888 195.126C21.6533 195.563 21.3413 195.891 20.952 196.11C20.5627 196.329 20.1387 196.438 19.68 196.438C19.2107 196.438 18.8107 196.345 18.48 196.158C18.144 195.966 17.8693 195.707 17.656 195.382C17.4427 195.051 17.28 194.67 17.168 194.238C17.0613 193.801 16.968 193.318 16.888 192.79C16.8027 192.257 16.7307 191.737 16.672 191.23C16.608 190.718 16.5467 190.27 16.488 189.886L16.744 190.302C15.8907 190.286 15.2587 190.451 14.848 190.798C14.4373 191.145 14.232 191.747 14.232 192.606C14.232 193.198 14.3653 193.699 14.632 194.11C14.8987 194.515 15.32 194.801 15.896 194.966L15.56 196.11C14.7867 195.913 14.1867 195.515 13.76 194.918C13.3333 194.321 13.12 193.545 13.12 192.59C13.12 191.801 13.2693 191.131 13.568 190.582C13.8613 190.027 14.288 189.635 14.848 189.406C15.0987 189.299 15.3787 189.23 15.688 189.198C15.9973 189.166 16.312 189.15 16.632 189.15L22 189.15L22 190.198L19.832 190.198L19.96 189.894C20.7013 190.187 21.2667 190.643 21.656 191.262C22.0453 191.881 22.24 192.622 22.24 193.486ZM21.224 193.35C21.224 192.801 21.1253 192.321 20.928 191.91C20.7307 191.499 20.4613 191.169 20.12 190.918C19.7733 190.667 19.384 190.505 18.952 190.43C18.6747 190.366 18.3707 190.331 18.04 190.326C17.704 190.321 17.4533 190.318 17.288 190.318L17.52 189.87C17.5733 190.27 17.6267 190.705 17.68 191.174C17.7333 191.638 17.7947 192.097 17.864 192.55C17.9333 192.998 18.016 193.403 18.112 193.766C18.1813 194.011 18.28 194.249 18.408 194.478C18.5307 194.707 18.696 194.897 18.904 195.046C19.112 195.19 19.3707 195.262 19.68 195.262C19.9307 195.262 20.1733 195.201 20.408 195.078C20.6427 194.95 20.8373 194.747 20.992 194.47C21.1467 194.187 21.224 193.814 21.224 193.35ZM22 187.067L13.36 187.067L13.36 186.011L15.44 186.011L15.168 186.219C14.912 186.123 14.6773 185.998 14.464 185.843C14.2453 185.689 14.0667 185.521 13.928 185.339C13.7307 185.115 13.5813 184.854 13.48 184.555C13.3733 184.257 13.312 183.955 13.296 183.651C13.2747 183.347 13.296 183.07 13.36 182.819L14.464 182.819C14.384 183.134 14.3653 183.478 14.408 183.851C14.4507 184.225 14.6 184.569 14.856 184.883C15.08 185.171 15.3493 185.387 15.664 185.531C15.9733 185.675 16.304 185.771 16.656 185.819C17.0027 185.867 17.3467 185.891 17.688 185.891L22 185.891L22 187.067ZM25.84 180.179L21.304 178.507L22.648 178.483L13.36 182.267L13.36 181.019L21.128 177.915L21.128 178.427L13.36 175.563L13.36 174.363L25.84 179.003L25.84 180.179ZM22.24 165.891C22.24 166.685 22.04 167.357 21.64 167.907C21.2347 168.456 20.688 168.872 20 169.155C19.3067 169.437 18.5307 169.579 17.672 169.579C16.7973 169.579 16.0187 169.437 15.336 169.155C14.648 168.867 14.1067 168.445 13.712 167.891C13.3173 167.336 13.12 166.653 13.12 165.843C13.12 165.053 13.32 164.376 13.72 163.811C14.12 163.245 14.664 162.813 15.352 162.515C16.04 162.211 16.8133 162.059 17.672 162.059C18.536 162.059 19.312 162.211 20 162.515C20.688 162.819 21.2347 163.256 21.64 163.827C22.04 164.397 22.24 165.085 22.24 165.891ZM22 169.779L10.48 169.779L10.48 168.595L15.496 168.595L15.496 168.723L22 168.723L22 169.779ZM21.144 166.011C21.144 165.408 20.992 164.907 20.688 164.507C20.384 164.107 19.9707 163.808 19.448 163.611C18.92 163.408 18.328 163.307 17.672 163.307C17.0213 163.307 16.4347 163.405 15.912 163.603C15.3893 163.8 14.976 164.101 14.672 164.507C14.368 164.907 14.216 165.416 14.216 166.035C14.216 166.637 14.3627 167.139 14.656 167.539C14.9493 167.933 15.3573 168.229 15.88 168.427C16.3973 168.624 16.9947 168.723 17.672 168.723C18.3387 168.723 18.936 168.624 19.464 168.427C19.9867 168.229 20.3973 167.931 20.696 167.531C20.9947 167.131 21.144 166.624 21.144 166.011ZM22.24 157.83C22.24 158.481 22.1227 159.027 21.888 159.47C21.6533 159.907 21.3413 160.235 20.952 160.454C20.5627 160.673 20.1387 160.782 19.68 160.782C19.2107 160.782 18.8107 160.689 18.48 160.502C18.144 160.31 17.8693 160.051 17.656 159.726C17.4427 159.395 17.28 159.014 17.168 158.582C17.0613 158.145 16.968 157.662 16.888 157.134C16.8027 156.601 16.7307 156.081 16.672 155.574C16.608 155.062 16.5467 154.614 16.488 154.23L16.744 154.646C15.8907 154.63 15.2587 154.795 14.848 155.142C14.4373 155.489 14.232 156.091 14.232 156.95C14.232 157.542 14.3653 158.043 14.632 158.454C14.8987 158.859 15.32 159.145 15.896 159.31L15.56 160.454C14.7867 160.257 14.1867 159.859 13.76 159.262C13.3333 158.665 13.12 157.889 13.12 156.934C13.12 156.145 13.2693 155.475 13.568 154.926C13.8613 154.371 14.288 153.979 14.848 153.75C15.0987 153.643 15.3787 153.574 15.688 153.542C15.9973 153.51 16.312 153.494 16.632 153.494L22 153.494L22 154.542L19.832 154.542L19.96 154.238C20.7013 154.531 21.2667 154.987 21.656 155.606C22.0453 156.225 22.24 156.966 22.24 157.83ZM21.224 157.694C21.224 157.145 21.1253 156.665 20.928 156.254C20.7307 155.843 20.4613 155.513 20.12 155.262C19.7733 155.011 19.384 154.849 18.952 154.774C18.6747 154.71 18.3707 154.675 18.04 154.67C17.704 154.665 17.4533 154.662 17.288 154.662L17.52 154.214C17.5733 154.614 17.6267 155.049 17.68 155.518C17.7333 155.982 17.7947 156.441 17.864 156.894C17.9333 157.342 18.016 157.747 18.112 158.11C18.1813 158.355 18.28 158.593 18.408 158.822C18.5307 159.051 18.696 159.241 18.904 159.39C19.112 159.534 19.3707 159.606 19.68 159.606C19.9307 159.606 20.1733 159.545 20.408 159.422C20.6427 159.294 20.8373 159.091 20.992 158.814C21.1467 158.531 21.224 158.158 21.224 157.694ZM22.232 148.187C22.232 149.201 22.0133 150.035 21.576 150.691C21.1387 151.342 20.5307 151.742 19.752 151.891L19.552 150.691C20.0427 150.563 20.4347 150.273 20.728 149.819C21.016 149.361 21.16 148.795 21.16 148.123C21.16 147.467 21.024 146.95 20.752 146.571C20.4747 146.193 20.0987 146.003 19.624 146.003C19.3573 146.003 19.1413 146.065 18.976 146.187C18.8053 146.305 18.648 146.547 18.504 146.915C18.36 147.283 18.1893 147.833 17.992 148.563C17.7787 149.347 17.5653 149.961 17.352 150.403C17.1387 150.846 16.8933 151.161 16.616 151.347C16.3333 151.534 15.9893 151.627 15.584 151.627C15.0933 151.627 14.664 151.489 14.296 151.211C13.9227 150.934 13.6347 150.55 13.432 150.059C13.224 149.569 13.12 148.998 13.12 148.347C13.12 147.697 13.2267 147.115 13.44 146.603C13.648 146.086 13.9413 145.67 14.32 145.355C14.6987 145.041 15.1387 144.854 15.64 144.795L15.856 145.995C15.3493 146.075 14.9493 146.329 14.656 146.755C14.3573 147.177 14.2027 147.713 14.192 148.363C14.176 148.977 14.2933 149.475 14.544 149.859C14.7893 150.243 15.1173 150.435 15.528 150.435C15.7573 150.435 15.9547 150.366 16.12 150.227C16.28 150.089 16.432 149.838 16.576 149.475C16.72 149.107 16.8773 148.585 17.048 147.907C17.2507 147.113 17.464 146.489 17.688 146.035C17.912 145.582 18.176 145.259 18.48 145.067C18.784 144.875 19.16 144.779 19.608 144.779C20.424 144.779 21.0667 145.083 21.536 145.691C22 146.294 22.232 147.126 22.232 148.187ZM11.72 142.845L10.4 142.845L10.4 141.669L11.72 141.669L11.72 142.845ZM22 142.845L13.36 142.845L13.36 141.669L22 141.669L22 142.845ZM22.232 136.047C22.232 137.06 22.0133 137.895 21.576 138.551C21.1387 139.201 20.5307 139.601 19.752 139.751L19.552 138.551C20.0427 138.423 20.4347 138.132 20.728 137.679C21.016 137.22 21.16 136.655 21.16 135.983C21.16 135.327 21.024 134.809 20.752 134.431C20.4747 134.052 20.0987 133.863 19.624 133.863C19.3573 133.863 19.1413 133.924 18.976 134.047C18.8053 134.164 18.648 134.407 18.504 134.775C18.36 135.143 18.1893 135.692 17.992 136.423C17.7787 137.207 17.5653 137.82 17.352 138.263C17.1387 138.705 16.8933 139.02 16.616 139.207C16.3333 139.393 15.9893 139.487 15.584 139.487C15.0933 139.487 14.664 139.348 14.296 139.071C13.9227 138.793 13.6347 138.409 13.432 137.919C13.224 137.428 13.12 136.857 13.12 136.207C13.12 135.556 13.2267 134.975 13.44 134.463C13.648 133.945 13.9413 133.529 14.32 133.215C14.6987 132.9 15.1387 132.713 15.64 132.655L15.856 133.855C15.3493 133.935 14.9493 134.188 14.656 134.615C14.3573 135.036 14.2027 135.572 14.192 136.223C14.176 136.836 14.2933 137.335 14.544 137.719C14.7893 138.103 15.1173 138.295 15.528 138.295C15.7573 138.295 15.9547 138.225 16.12 138.087C16.28 137.948 16.432 137.697 16.576 137.335C16.72 136.967 16.8773 136.444 17.048 135.767C17.2507 134.972 17.464 134.348 17.688 133.895C17.912 133.441 18.176 133.119 18.48 132.927C18.784 132.735 19.16 132.639 19.608 132.639C20.424 132.639 21.0667 132.943 21.536 133.551C22 134.153 22.232 134.985 22.232 136.047ZM22.24 124.309C22.24 125.115 22.04 125.803 21.64 126.373C21.2347 126.944 20.688 127.381 20 127.685C19.312 127.989 18.536 128.141 17.672 128.141C16.8133 128.141 16.04 127.992 15.352 127.693C14.664 127.389 14.12 126.955 13.72 126.389C13.32 125.824 13.12 125.147 13.12 124.357C13.12 123.547 13.3173 122.864 13.712 122.309C14.1067 121.755 14.648 121.336 15.336 121.053C16.0187 120.765 16.7973 120.621 17.672 120.621C18.5307 120.621 19.3067 120.763 20 121.045C20.688 121.328 21.2347 121.744 21.64 122.293C22.04 122.843 22.24 123.515 22.24 124.309ZM21.144 124.189C21.144 123.576 20.9947 123.069 20.696 122.669C20.3973 122.269 19.9867 121.971 19.464 121.773C18.936 121.576 18.3387 121.477 17.672 121.477C16.9947 121.477 16.3973 121.576 15.88 121.773C15.3573 121.971 14.9493 122.269 14.656 122.669C14.3627 123.064 14.216 123.563 14.216 124.165C14.216 124.784 14.368 125.296 14.672 125.701C14.976 126.107 15.3893 126.408 15.912 126.605C16.4347 126.797 17.0213 126.893 17.672 126.893C18.328 126.893 18.92 126.795 19.448 126.597C19.9707 126.395 20.384 126.093 20.688 125.693C20.992 125.293 21.144 124.792 21.144 124.189ZM22 121.477L15.496 121.477L15.496 121.605L10.48 121.605L10.48 120.421L22 120.421L22 121.477ZM11.72 118.017L10.4 118.017L10.4 116.841L11.72 116.841L11.72 118.017ZM22 118.017L13.36 118.017L13.36 116.841L22 116.841L22 118.017ZM22.232 111.218C22.232 112.232 22.0133 113.066 21.576 113.722C21.1387 114.373 20.5307 114.773 19.752 114.922L19.552 113.722C20.0427 113.594 20.4347 113.304 20.728 112.85C21.016 112.392 21.16 111.826 21.16 111.154C21.16 110.498 21.024 109.981 20.752 109.602C20.4747 109.224 20.0987 109.034 19.624 109.034C19.3573 109.034 19.1413 109.096 18.976 109.218C18.8053 109.336 18.648 109.578 18.504 109.946C18.36 110.314 18.1893 110.864 17.992 111.594C17.7787 112.378 17.5653 112.992 17.352 113.434C17.1387 113.877 16.8933 114.192 16.616 114.378C16.3333 114.565 15.9893 114.658 15.584 114.658C15.0933 114.658 14.664 114.52 14.296 114.242C13.9227 113.965 13.6347 113.581 13.432 113.09C13.224 112.6 13.12 112.029 13.12 111.378C13.12 110.728 13.2267 110.146 13.44 109.634C13.648 109.117 13.9413 108.701 14.32 108.386C14.6987 108.072 15.1387 107.885 15.64 107.826L15.856 109.026C15.3493 109.106 14.9493 109.36 14.656 109.786C14.3573 110.208 14.2027 110.744 14.192 111.394C14.176 112.008 14.2933 112.506 14.544 112.89C14.7893 113.274 15.1173 113.466 15.528 113.466C15.7573 113.466 15.9547 113.397 16.12 113.258C16.28 113.12 16.432 112.869 16.576 112.506C16.72 112.138 16.8773 111.616 17.048 110.938C17.2507 110.144 17.464 109.52 17.688 109.066C17.912 108.613 18.176 108.29 18.48 108.098C18.784 107.906 19.16 107.81 19.608 107.81C20.424 107.81 21.0667 108.114 21.536 108.722C22 109.325 22.232 110.157 22.232 111.218ZM22.24 102.452C22.24 103.322 22.0453 104.058 21.656 104.66C21.2667 105.263 20.7307 105.722 20.048 106.036C19.36 106.346 18.5707 106.506 17.68 106.516C16.7733 106.506 15.9787 106.34 15.296 106.02C14.608 105.7 14.0747 105.239 13.696 104.636C13.312 104.034 13.12 103.303 13.12 102.444C13.12 101.57 13.3333 100.81 13.76 100.164C14.1867 99.5136 14.7707 99.0682 15.512 98.8282L15.88 99.9802C15.3627 100.183 14.9627 100.506 14.68 100.948C14.392 101.386 14.248 101.887 14.248 102.452C14.248 103.087 14.3947 103.612 14.688 104.028C14.976 104.444 15.3787 104.754 15.896 104.956C16.4133 105.159 17.008 105.263 17.68 105.268C18.7147 105.258 19.5467 105.018 20.176 104.548C20.8 104.079 21.112 103.38 21.112 102.452C21.112 101.866 20.9787 101.367 20.712 100.956C20.44 100.54 20.0453 100.226 19.528 100.012L19.88 98.8282C20.648 99.1482 21.2347 99.6176 21.64 100.236C22.04 100.855 22.24 101.594 22.24 102.452ZM22.24 93.8032C22.24 94.6619 22.0453 95.3952 21.656 96.0032C21.2667 96.6112 20.728 97.0779 20.04 97.4032C19.352 97.7286 18.5627 97.8912 17.672 97.8912C16.7653 97.8912 15.9707 97.7259 15.288 97.3952C14.6053 97.0646 14.0747 96.5952 13.696 95.9872C13.312 95.3739 13.12 94.6459 13.12 93.8032C13.12 92.9392 13.3147 92.2032 13.704 91.5952C14.088 90.9819 14.624 90.5152 15.312 90.1952C15.9947 89.8699 16.7813 89.7072 17.672 89.7072C18.5787 89.7072 19.376 89.8699 20.064 90.1952C20.7467 90.5206 21.28 90.9899 21.664 91.6032C22.048 92.2166 22.24 92.9499 22.24 93.8032ZM21.112 93.8032C21.112 92.8432 20.7947 92.1286 20.16 91.6592C19.52 91.1899 18.6907 90.9552 17.672 90.9552C16.6267 90.9552 15.7947 91.1926 15.176 91.6672C14.5573 92.1366 14.248 92.8486 14.248 93.8032C14.248 94.4486 14.3947 94.9819 14.688 95.4032C14.976 95.8192 15.3787 96.1312 15.896 96.3392C16.408 96.5419 17 96.6432 17.672 96.6432C18.712 96.6432 19.5467 96.4032 20.176 95.9232C20.8 95.4432 21.112 94.7366 21.112 93.8032ZM22.216 84.6385C22.216 85.1558 22.136 85.6092 21.976 85.9985C21.816 86.3825 21.6 86.7105 21.328 86.9825C21.056 87.2492 20.7467 87.4652 20.4 87.6305C20.048 87.7958 19.6773 87.9158 19.288 87.9905C18.8933 88.0652 18.5013 88.1025 18.112 88.1025L13.36 88.1025L13.36 86.9185L17.768 86.9185C18.2427 86.9185 18.6827 86.8732 19.088 86.7825C19.4933 86.6918 19.848 86.5478 20.152 86.3505C20.4507 86.1478 20.6827 85.8892 20.848 85.5745C21.0133 85.2545 21.096 84.8678 21.096 84.4145C21.096 83.9985 21.024 83.6332 20.88 83.3185C20.736 82.9985 20.5307 82.7318 20.264 82.5185C19.992 82.2998 19.664 82.1345 19.28 82.0225C18.8907 81.9105 18.4533 81.8545 17.968 81.8545L18.152 81.0225C19.0373 81.0225 19.7813 81.1772 20.384 81.4865C20.9867 81.7958 21.4427 82.2225 21.752 82.7665C22.0613 83.3105 22.216 83.9345 22.216 84.6385ZM22 81.7345L19.872 81.7345L19.872 81.8545L13.36 81.8545L13.36 80.6785L22 80.6785L22 81.7345ZM22 72.2025L17.592 72.2025C17.112 72.2025 16.672 72.2478 16.272 72.3385C15.8667 72.4292 15.5147 72.5758 15.216 72.7785C14.912 72.9758 14.6773 73.2345 14.512 73.5545C14.3467 73.8692 14.264 74.2532 14.264 74.7065C14.264 75.1225 14.336 75.4905 14.48 75.8105C14.624 76.1252 14.832 76.3918 15.104 76.6105C15.3707 76.8238 15.696 76.9865 16.08 77.0985C16.464 77.2105 16.9013 77.2665 17.392 77.2665L17.208 78.0985C16.3227 78.0985 15.5787 77.9438 14.976 77.6345C14.3733 77.3252 13.9173 76.8985 13.608 76.3545C13.2987 75.8105 13.144 75.1865 13.144 74.4825C13.144 73.9652 13.224 73.5145 13.384 73.1305C13.544 72.7412 13.76 72.4132 14.032 72.1465C14.304 71.8745 14.616 71.6558 14.968 71.4905C15.3147 71.3252 15.6853 71.2052 16.08 71.1305C16.4693 71.0558 16.8587 71.0185 17.248 71.0185L22 71.0185L22 72.2025ZM22 78.4505L13.36 78.4505L13.36 77.3865L15.488 77.3865L15.488 77.2665L22 77.2665L22 78.4505ZM22 64.2385C22.1013 64.7238 22.1413 65.2038 22.12 65.6785C22.0987 66.1478 21.9973 66.5692 21.816 66.9425C21.6347 67.3105 21.352 67.5905 20.968 67.7825C20.648 67.9372 20.3253 68.0225 20 68.0385C19.6693 68.0492 19.2933 68.0545 18.872 68.0545L10.96 68.0545L10.96 66.8865L18.824 66.8865C19.1867 66.8865 19.4907 66.8838 19.736 66.8785C19.976 66.8678 20.1893 66.8118 20.376 66.7105C20.7333 66.5185 20.9467 66.2145 21.016 65.7985C21.0853 65.3772 21.0693 64.8572 20.968 64.2385L22 64.2385ZM14.368 69.9025L13.36 69.9025L13.36 64.2385L14.368 64.2385L14.368 69.9025ZM22.24 56.8611C22.24 57.5118 22.1227 58.0585 21.888 58.5011C21.6533 58.9385 21.3413 59.2665 20.952 59.4851C20.5627 59.7038 20.1387 59.8131 19.68 59.8131C19.2107 59.8131 18.8107 59.7198 18.48 59.5331C18.144 59.3411 17.8693 59.0825 17.656 58.7571C17.4427 58.4265 17.28 58.0451 17.168 57.6131C17.0613 57.1758 16.968 56.6931 16.888 56.1651C16.8027 55.6318 16.7307 55.1118 16.672 54.6051C16.608 54.0931 16.5467 53.6451 16.488 53.2611L16.744 53.6771C15.8907 53.6611 15.2587 53.8265 14.848 54.1731C14.4373 54.5198 14.232 55.1225 14.232 55.9811C14.232 56.5731 14.3653 57.0745 14.632 57.4851C14.8987 57.8905 15.32 58.1758 15.896 58.3411L15.56 59.4851C14.7867 59.2878 14.1867 58.8905 13.76 58.2931C13.3333 57.6958 13.12 56.9198 13.12 55.9651C13.12 55.1758 13.2693 54.5065 13.568 53.9571C13.8613 53.4025 14.288 53.0105 14.848 52.7811C15.0987 52.6745 15.3787 52.6051 15.688 52.5731C15.9973 52.5411 16.312 52.5251 16.632 52.5251L22 52.5251L22 53.5731L19.832 53.5731L19.96 53.2691C20.7013 53.5625 21.2667 54.0185 21.656 54.6371C22.0453 55.2558 22.24 55.9971 22.24 56.8611ZM21.224 56.7251C21.224 56.1758 21.1253 55.6958 20.928 55.2851C20.7307 54.8745 20.4613 54.5438 20.12 54.2931C19.7733 54.0425 19.384 53.8798 18.952 53.8051C18.6747 53.7411 18.3707 53.7065 18.04 53.7011C17.704 53.6958 17.4533 53.6931 17.288 53.6931L17.52 53.2451C17.5733 53.6451 17.6267 54.0798 17.68 54.5491C17.7333 55.0131 17.7947 55.4718 17.864 55.9251C17.9333 56.3731 18.016 56.7785 18.112 57.1411C18.1813 57.3865 18.28 57.6238 18.408 57.8531C18.5307 58.0825 18.696 58.2718 18.904 58.4211C19.112 58.5651 19.3707 58.6371 19.68 58.6371C19.9307 58.6371 20.1733 58.5758 20.408 58.4531C20.6427 58.3251 20.8373 58.1225 20.992 57.8451C21.1467 57.5625 21.224 57.1891 21.224 56.7251ZM22 49.5865L12.72 49.5865C12.496 49.5865 12.2747 49.5758 12.056 49.5545C11.8373 49.5278 11.6293 49.4772 11.432 49.4025C11.2293 49.3278 11.0427 49.2105 10.872 49.0505C10.68 48.8745 10.5413 48.6825 10.456 48.4745C10.3653 48.2665 10.3067 48.0505 10.28 47.8265C10.2533 47.5972 10.24 47.3732 10.24 47.1545L10.24 46.0505L11.232 46.0505L11.232 47.0745C11.232 47.5225 11.3413 47.8585 11.56 48.0825C11.7787 48.3012 12.1227 48.4105 12.592 48.4105L22 48.4105L22 49.5865ZM14.368 51.0825L13.36 51.0825L13.36 46.0505L14.368 46.0505L14.368 51.0825ZM22 44.6585L12.72 44.6585C12.496 44.6585 12.2747 44.6478 12.056 44.6265C11.8373 44.5998 11.6293 44.5492 11.432 44.4745C11.2293 44.3998 11.0427 44.2825 10.872 44.1225C10.68 43.9465 10.5413 43.7545 10.456 43.5465C10.3653 43.3385 10.3067 43.1225 10.28 42.8985C10.2533 42.6692 10.24 42.4452 10.24 42.2265L10.24 41.1225L11.232 41.1225L11.232 42.1465C11.232 42.5945 11.3413 42.9305 11.56 43.1545C11.7787 43.3732 12.1227 43.4825 12.592 43.4825L22 43.4825L22 44.6585ZM14.368 46.1545L13.36 46.1545L13.36 41.1225L14.368 41.1225L14.368 46.1545ZM11.72 39.4544L10.4 39.4544L10.4 38.2784L11.72 38.2784L11.72 39.4544ZM22 39.4544L13.36 39.4544L13.36 38.2784L22 38.2784L22 39.4544ZM22 29.64L17.592 29.64C17.112 29.64 16.672 29.6853 16.272 29.776C15.8667 29.8667 15.5147 30.0133 15.216 30.216C14.912 30.4133 14.6773 30.672 14.512 30.992C14.3467 31.3067 14.264 31.6907 14.264 32.144C14.264 32.56 14.336 32.928 14.48 33.248C14.624 33.5627 14.832 33.8293 15.104 34.048C15.3707 34.2613 15.696 34.424 16.08 34.536C16.464 34.648 16.9013 34.704 17.392 34.704L17.208 35.536C16.3227 35.536 15.5787 35.3813 14.976 35.072C14.3733 34.7627 13.9173 34.336 13.608 33.792C13.2987 33.248 13.144 32.624 13.144 31.92C13.144 31.4027 13.224 30.952 13.384 30.568C13.544 30.1787 13.76 29.8507 14.032 29.584C14.304 29.312 14.616 29.0933 14.968 28.928C15.3147 28.7627 15.6853 28.6427 16.08 28.568C16.4693 28.4933 16.8587 28.456 17.248 28.456L22 28.456L22 29.64ZM22 35.888L13.36 35.888L13.36 34.824L15.488 34.824L15.488 34.704L22 34.704L22 35.888ZM11.72 26.22L10.4 26.22L10.4 25.044L11.72 25.044L11.72 26.22ZM22 26.22L13.36 26.22L13.36 25.044L22 25.044L22 26.22ZM22 17.9416C22.1013 18.427 22.1413 18.907 22.12 19.3816C22.0987 19.851 21.9973 20.2723 21.816 20.6456C21.6347 21.0136 21.352 21.2936 20.968 21.4856C20.648 21.6403 20.3253 21.7256 20 21.7416C19.6693 21.7523 19.2933 21.7576 18.872 21.7576L10.96 21.7576L10.96 20.5896L18.824 20.5896C19.1867 20.5896 19.4907 20.587 19.736 20.5816C19.976 20.571 20.1893 20.515 20.376 20.4136C20.7333 20.2216 20.9467 19.9176 21.016 19.5016C21.0853 19.0803 21.0693 18.5603 20.968 17.9416L22 17.9416ZM14.368 23.6056L13.36 23.6056L13.36 17.9416L14.368 17.9416L14.368 23.6056ZM25.84 15.2417L21.304 13.5697L22.648 13.5457L13.36 17.3297L13.36 16.0817L21.128 12.9777L21.128 13.4897L13.36 10.6257L13.36 9.42575L25.84 14.0657L25.84 15.2417Z" fill="#001625"/>
</g>
<defs>
<clipPath id="clip0_183_1592">
<rect y="262" width="262" height="32" rx="13" transform="rotate(-90 0 262)" fill="white"/>
</clipPath>
</defs>
</svg>
