<svg width="32" height="285" viewBox="0 0 32 285" fill="none" xmlns="http://www.w3.org/2000/svg">
<g clip-path="url(#clip0_183_1590)">
<rect y="285" width="285" height="32" rx="13" transform="rotate(-90 0 285)" fill="#49C8F5"/>
<path d="M22 274.88L10.48 274.88L10.48 273.8L20.168 269.272L10.48 264.768L10.48 263.672L21.992 263.672L21.992 264.792L13.104 264.792L22 268.896L22 269.656L13.104 273.752L22 273.752L22 274.88ZM22.24 257.771C22.24 258.614 22.0533 259.344 21.68 259.963C21.3067 260.576 20.7813 261.054 20.104 261.395C19.4267 261.736 18.632 261.907 17.72 261.907C16.776 261.907 15.96 261.739 15.272 261.403C14.584 261.067 14.0533 260.595 13.68 259.987C13.3067 259.374 13.12 258.651 13.12 257.819C13.12 256.966 13.3173 256.238 13.712 255.635C14.1013 255.032 14.6613 254.576 15.392 254.267C16.1227 253.958 16.9947 253.816 18.008 253.843L18.008 255.043L17.592 255.043C16.472 255.064 15.6267 255.307 15.056 255.771C14.4853 256.23 14.2 256.902 14.2 257.787C14.2 258.715 14.5013 259.427 15.104 259.923C15.7067 260.414 16.5653 260.659 17.68 260.659C18.768 260.659 19.6133 260.414 20.216 259.923C20.8133 259.427 21.112 258.726 21.112 257.819C21.112 257.2 20.9707 256.662 20.688 256.203C20.4 255.739 19.9867 255.374 19.448 255.107L19.872 254.011C20.624 254.352 21.208 254.856 21.624 255.523C22.0347 256.184 22.24 256.934 22.24 257.771ZM18.008 261.075L17.024 261.075L17.024 254.475L18.008 254.475L18.008 261.075ZM22 246.062L17.592 246.062C17.112 246.062 16.672 246.107 16.272 246.198C15.8667 246.289 15.5147 246.435 15.216 246.638C14.912 246.835 14.6773 247.094 14.512 247.414C14.3467 247.729 14.264 248.113 14.264 248.566C14.264 248.982 14.336 249.35 14.48 249.67C14.624 249.985 14.832 250.251 15.104 250.47C15.3707 250.683 15.696 250.846 16.08 250.958C16.464 251.07 16.9013 251.126 17.392 251.126L17.208 251.958C16.3227 251.958 15.5787 251.803 14.976 251.494C14.3733 251.185 13.9173 250.758 13.608 250.214C13.2987 249.67 13.144 249.046 13.144 248.342C13.144 247.825 13.224 247.374 13.384 246.99C13.544 246.601 13.76 246.273 14.032 246.006C14.304 245.734 14.616 245.515 14.968 245.35C15.3147 245.185 15.6853 245.065 16.08 244.99C16.4693 244.915 16.8587 244.878 17.248 244.878L22 244.878L22 246.062ZM22 252.31L13.36 252.31L13.36 251.246L15.488 251.246L15.488 251.126L22 251.126L22 252.31ZM22.216 239.498C22.216 240.015 22.136 240.469 21.976 240.858C21.816 241.242 21.6 241.57 21.328 241.842C21.056 242.109 20.7467 242.325 20.4 242.49C20.048 242.655 19.6773 242.775 19.288 242.85C18.8933 242.925 18.5013 242.962 18.112 242.962L13.36 242.962L13.36 241.778L17.768 241.778C18.2427 241.778 18.6827 241.733 19.088 241.642C19.4933 241.551 19.848 241.407 20.152 241.21C20.4507 241.007 20.6827 240.749 20.848 240.434C21.0133 240.114 21.096 239.727 21.096 239.274C21.096 238.858 21.024 238.493 20.88 238.178C20.736 237.858 20.5307 237.591 20.264 237.378C19.992 237.159 19.664 236.994 19.28 236.882C18.8907 236.77 18.4533 236.714 17.968 236.714L18.152 235.882C19.0373 235.882 19.7813 236.037 20.384 236.346C20.9867 236.655 21.4427 237.082 21.752 237.626C22.0613 238.17 22.216 238.794 22.216 239.498ZM22 236.594L19.872 236.594L19.872 236.714L13.36 236.714L13.36 235.538L22 235.538L22 236.594ZM22.24 226.099C22.24 226.904 22.1067 227.629 21.84 228.275C21.568 228.915 21.184 229.445 20.688 229.867C20.192 230.283 19.6027 230.555 18.92 230.683L18.72 229.483C19.4667 229.291 20.0533 228.885 20.48 228.267C20.9013 227.648 21.112 226.909 21.112 226.051C21.112 225.485 21.024 224.979 20.848 224.531C20.6667 224.083 20.4107 223.731 20.08 223.475C19.7493 223.219 19.3573 223.091 18.904 223.091C18.6053 223.091 18.352 223.144 18.144 223.251C17.9307 223.357 17.7547 223.499 17.616 223.675C17.4773 223.851 17.3627 224.043 17.272 224.251C17.176 224.459 17.0987 224.661 17.04 224.859L16.168 227.779C16.0667 228.131 15.9387 228.456 15.784 228.755C15.624 229.053 15.4347 229.315 15.216 229.539C14.992 229.757 14.7307 229.928 14.432 230.051C14.1333 230.173 13.792 230.235 13.408 230.235C12.7573 230.235 12.1947 230.064 11.72 229.723C11.2453 229.381 10.88 228.915 10.624 228.323C10.368 227.731 10.2427 227.056 10.248 226.299C10.248 225.531 10.384 224.845 10.656 224.243C10.928 223.635 11.3173 223.133 11.824 222.739C12.3253 222.344 12.92 222.083 13.608 221.955L13.832 223.187C13.3307 223.267 12.896 223.451 12.528 223.739C12.16 224.027 11.8773 224.395 11.68 224.843C11.4773 225.285 11.3733 225.773 11.368 226.307C11.368 226.824 11.456 227.285 11.632 227.691C11.8027 228.091 12.0373 228.408 12.336 228.643C12.6347 228.877 12.976 228.995 13.36 228.995C13.7493 228.995 14.0613 228.888 14.296 228.675C14.5307 228.456 14.7147 228.189 14.848 227.875C14.9813 227.555 15.0907 227.245 15.176 226.947L15.84 224.691C15.904 224.456 15.9973 224.181 16.12 223.867C16.2373 223.547 16.408 223.237 16.632 222.939C16.8507 222.635 17.1387 222.384 17.496 222.187C17.8533 221.989 18.3067 221.891 18.856 221.891C19.3893 221.891 19.8667 221.997 20.288 222.211C20.7093 222.419 21.064 222.715 21.352 223.099C21.64 223.477 21.8587 223.923 22.008 224.435C22.1627 224.941 22.24 225.496 22.24 226.099ZM22.24 216.583C22.24 217.426 22.0533 218.157 21.68 218.775C21.3067 219.389 20.7813 219.866 20.104 220.207C19.4267 220.549 18.632 220.719 17.72 220.719C16.776 220.719 15.96 220.551 15.272 220.215C14.584 219.879 14.0533 219.407 13.68 218.799C13.3067 218.186 13.12 217.463 13.12 216.631C13.12 215.778 13.3173 215.05 13.712 214.447C14.1013 213.845 14.6613 213.389 15.392 213.079C16.1227 212.77 16.9947 212.629 18.008 212.655L18.008 213.855L17.592 213.855C16.472 213.877 15.6267 214.119 15.056 214.583C14.4853 215.042 14.2 215.714 14.2 216.599C14.2 217.527 14.5013 218.239 15.104 218.735C15.7067 219.226 16.5653 219.471 17.68 219.471C18.768 219.471 19.6133 219.226 20.216 218.735C20.8133 218.239 21.112 217.538 21.112 216.631C21.112 216.013 20.9707 215.474 20.688 215.015C20.4 214.551 19.9867 214.186 19.448 213.919L19.872 212.823C20.624 213.165 21.208 213.669 21.624 214.335C22.0347 214.997 22.24 215.746 22.24 216.583ZM18.008 219.887L17.024 219.887L17.024 213.287L18.008 213.287L18.008 219.887ZM22.24 207.528C22.24 208.333 22.04 209.021 21.64 209.592C21.2347 210.163 20.688 210.6 20 210.904C19.312 211.208 18.536 211.36 17.672 211.36C16.8133 211.36 16.04 211.211 15.352 210.912C14.664 210.608 14.12 210.173 13.72 209.608C13.32 209.043 13.12 208.365 13.12 207.576C13.12 206.765 13.3173 206.083 13.712 205.528C14.1067 204.973 14.648 204.555 15.336 204.272C16.0187 203.984 16.7973 203.84 17.672 203.84C18.5307 203.84 19.3067 203.981 20 204.264C20.688 204.547 21.2347 204.963 21.64 205.512C22.04 206.061 22.24 206.733 22.24 207.528ZM21.144 207.408C21.144 206.795 20.9947 206.288 20.696 205.888C20.3973 205.488 19.9867 205.189 19.464 204.992C18.936 204.795 18.3387 204.696 17.672 204.696C16.9947 204.696 16.3973 204.795 15.88 204.992C15.3573 205.189 14.9493 205.488 14.656 205.888C14.3627 206.283 14.216 206.781 14.216 207.384C14.216 208.003 14.368 208.515 14.672 208.92C14.976 209.325 15.3893 209.627 15.912 209.824C16.4347 210.016 17.0213 210.112 17.672 210.112C18.328 210.112 18.92 210.013 19.448 209.816C19.9707 209.613 20.384 209.312 20.688 208.912C20.992 208.512 21.144 208.011 21.144 207.408ZM25.84 204.824L19.864 204.824L19.864 204.696L13.36 204.696L13.36 203.64L25.84 203.64L25.84 204.824ZM22.216 198.092C22.216 198.609 22.136 199.062 21.976 199.452C21.816 199.836 21.6 200.164 21.328 200.436C21.056 200.702 20.7467 200.918 20.4 201.084C20.048 201.249 19.6773 201.369 19.288 201.444C18.8933 201.518 18.5013 201.556 18.112 201.556L13.36 201.556L13.36 200.372L17.768 200.372C18.2427 200.372 18.6827 200.326 19.088 200.236C19.4933 200.145 19.848 200.001 20.152 199.804C20.4507 199.601 20.6827 199.342 20.848 199.028C21.0133 198.708 21.096 198.321 21.096 197.868C21.096 197.452 21.024 197.086 20.88 196.772C20.736 196.452 20.5307 196.185 20.264 195.972C19.992 195.753 19.664 195.588 19.28 195.476C18.8907 195.364 18.4533 195.308 17.968 195.308L18.152 194.476C19.0373 194.476 19.7813 194.63 20.384 194.94C20.9867 195.249 21.4427 195.676 21.752 196.22C22.0613 196.764 22.216 197.388 22.216 198.092ZM22 195.188L19.872 195.188L19.872 195.308L13.36 195.308L13.36 194.132L22 194.132L22 195.188ZM22.24 188.24C22.24 189.082 22.0533 189.813 21.68 190.432C21.3067 191.045 20.7813 191.522 20.104 191.864C19.4267 192.205 18.632 192.376 17.72 192.376C16.776 192.376 15.96 192.208 15.272 191.872C14.584 191.536 14.0533 191.064 13.68 190.456C13.3067 189.842 13.12 189.12 13.12 188.288C13.12 187.434 13.3173 186.706 13.712 186.104C14.1013 185.501 14.6613 185.045 15.392 184.736C16.1227 184.426 16.9947 184.285 18.008 184.312L18.008 185.512L17.592 185.512C16.472 185.533 15.6267 185.776 15.056 186.24C14.4853 186.698 14.2 187.37 14.2 188.256C14.2 189.184 14.5013 189.896 15.104 190.392C15.7067 190.882 16.5653 191.128 17.68 191.128C18.768 191.128 19.6133 190.882 20.216 190.392C20.8133 189.896 21.112 189.194 21.112 188.288C21.112 187.669 20.9707 187.13 20.688 186.672C20.4 186.208 19.9867 185.842 19.448 185.576L19.872 184.48C20.624 184.821 21.208 185.325 21.624 185.992C22.0347 186.653 22.24 187.402 22.24 188.24ZM18.008 191.544L17.024 191.544L17.024 184.944L18.008 184.944L18.008 191.544ZM22 176.531L17.592 176.531C17.112 176.531 16.672 176.576 16.272 176.667C15.8667 176.757 15.5147 176.904 15.216 177.107C14.912 177.304 14.6773 177.563 14.512 177.883C14.3467 178.197 14.264 178.581 14.264 179.035C14.264 179.451 14.336 179.819 14.48 180.139C14.624 180.453 14.832 180.72 15.104 180.939C15.3707 181.152 15.696 181.315 16.08 181.427C16.464 181.539 16.9013 181.595 17.392 181.595L17.208 182.427C16.3227 182.427 15.5787 182.272 14.976 181.963C14.3733 181.653 13.9173 181.227 13.608 180.683C13.2987 180.139 13.144 179.515 13.144 178.811C13.144 178.293 13.224 177.843 13.384 177.459C13.544 177.069 13.76 176.741 14.032 176.475C14.304 176.203 14.616 175.984 14.968 175.819C15.3147 175.653 15.6853 175.533 16.08 175.459C16.4693 175.384 16.8587 175.347 17.248 175.347L22 175.347L22 176.531ZM22 182.779L13.36 182.779L13.36 181.715L15.488 181.715L15.488 181.595L22 181.595L22 182.779ZM22.24 169.733C22.24 170.603 22.0453 171.339 21.656 171.941C21.2667 172.544 20.7307 173.003 20.048 173.317C19.36 173.627 18.5707 173.787 17.68 173.797C16.7733 173.787 15.9787 173.621 15.296 173.301C14.608 172.981 14.0747 172.52 13.696 171.917C13.312 171.315 13.12 170.584 13.12 169.725C13.12 168.851 13.3333 168.091 13.76 167.445C14.1867 166.795 14.7707 166.349 15.512 166.109L15.88 167.261C15.3627 167.464 14.9627 167.787 14.68 168.229C14.392 168.667 14.248 169.168 14.248 169.733C14.248 170.368 14.3947 170.893 14.688 171.309C14.976 171.725 15.3787 172.035 15.896 172.237C16.4133 172.44 17.008 172.544 17.68 172.549C18.7147 172.539 19.5467 172.299 20.176 171.829C20.8 171.36 21.112 170.661 21.112 169.733C21.112 169.147 20.9787 168.648 20.712 168.237C20.44 167.821 20.0453 167.507 19.528 167.293L19.88 166.109C20.648 166.429 21.2347 166.899 21.64 167.517C22.04 168.136 22.24 168.875 22.24 169.733ZM22.24 161.036C22.24 161.879 22.0533 162.61 21.68 163.228C21.3067 163.842 20.7813 164.319 20.104 164.66C19.4267 165.002 18.632 165.172 17.72 165.172C16.776 165.172 15.96 165.004 15.272 164.668C14.584 164.332 14.0533 163.86 13.68 163.252C13.3067 162.639 13.12 161.916 13.12 161.084C13.12 160.231 13.3173 159.503 13.712 158.9C14.1013 158.298 14.6613 157.842 15.392 157.532C16.1227 157.223 16.9947 157.082 18.008 157.108L18.008 158.308L17.592 158.308C16.472 158.33 15.6267 158.572 15.056 159.036C14.4853 159.495 14.2 160.167 14.2 161.052C14.2 161.98 14.5013 162.692 15.104 163.188C15.7067 163.679 16.5653 163.924 17.68 163.924C18.768 163.924 19.6133 163.679 20.216 163.188C20.8133 162.692 21.112 161.991 21.112 161.084C21.112 160.466 20.9707 159.927 20.688 159.468C20.4 159.004 19.9867 158.639 19.448 158.372L19.872 157.276C20.624 157.618 21.208 158.122 21.624 158.788C22.0347 159.45 22.24 160.199 22.24 161.036ZM18.008 164.34L17.024 164.34L17.024 157.74L18.008 157.74L18.008 164.34ZM22 149.794L13.36 152.93L13.36 151.738L20.464 149.186L13.36 146.65L13.36 145.442L22 148.578L22 149.794ZM22.24 142.017C22.24 142.668 22.1227 143.215 21.888 143.657C21.6533 144.095 21.3413 144.423 20.952 144.641C20.5627 144.86 20.1387 144.969 19.68 144.969C19.2107 144.969 18.8107 144.876 18.48 144.689C18.144 144.497 17.8693 144.239 17.656 143.913C17.4427 143.583 17.28 143.201 17.168 142.769C17.0613 142.332 16.968 141.849 16.888 141.321C16.8027 140.788 16.7307 140.268 16.672 139.761C16.608 139.249 16.5467 138.801 16.488 138.417L16.744 138.833C15.8907 138.817 15.2587 138.983 14.848 139.329C14.4373 139.676 14.232 140.279 14.232 141.137C14.232 141.729 14.3653 142.231 14.632 142.641C14.8987 143.047 15.32 143.332 15.896 143.497L15.56 144.641C14.7867 144.444 14.1867 144.047 13.76 143.449C13.3333 142.852 13.12 142.076 13.12 141.121C13.12 140.332 13.2693 139.663 13.568 139.113C13.8613 138.559 14.288 138.167 14.848 137.937C15.0987 137.831 15.3787 137.761 15.688 137.729C15.9973 137.697 16.312 137.681 16.632 137.681L22 137.681L22 138.729L19.832 138.729L19.96 138.425C20.7013 138.719 21.2667 139.175 21.656 139.793C22.0453 140.412 22.24 141.153 22.24 142.017ZM21.224 141.881C21.224 141.332 21.1253 140.852 20.928 140.441C20.7307 140.031 20.4613 139.7 20.12 139.449C19.7733 139.199 19.384 139.036 18.952 138.961C18.6747 138.897 18.3707 138.863 18.04 138.857C17.704 138.852 17.4533 138.849 17.288 138.849L17.52 138.401C17.5733 138.801 17.6267 139.236 17.68 139.705C17.7333 140.169 17.7947 140.628 17.864 141.081C17.9333 141.529 18.016 141.935 18.112 142.297C18.1813 142.543 18.28 142.78 18.408 143.009C18.5307 143.239 18.696 143.428 18.904 143.577C19.112 143.721 19.3707 143.793 19.68 143.793C19.9307 143.793 20.1733 143.732 20.408 143.609C20.6427 143.481 20.8373 143.279 20.992 143.001C21.1467 142.719 21.224 142.345 21.224 141.881ZM22 135.599L13.36 135.599L13.36 134.543L15.44 134.543L15.168 134.751C14.912 134.655 14.6773 134.529 14.464 134.375C14.2453 134.22 14.0667 134.052 13.928 133.871C13.7307 133.647 13.5813 133.385 13.48 133.087C13.3733 132.788 13.312 132.487 13.296 132.183C13.2747 131.879 13.296 131.601 13.36 131.351L14.464 131.351C14.384 131.665 14.3653 132.009 14.408 132.383C14.4507 132.756 14.6 133.1 14.856 133.415C15.08 133.703 15.3493 133.919 15.664 134.063C15.9733 134.207 16.304 134.303 16.656 134.351C17.0027 134.399 17.3467 134.423 17.688 134.423L22 134.423L22 135.599ZM11.72 129.673L10.4 129.673L10.4 128.497L11.72 128.497L11.72 129.673ZM22 129.673L13.36 129.673L13.36 128.497L22 128.497L22 129.673ZM22.24 122.443C22.24 123.285 22.0533 124.016 21.68 124.635C21.3067 125.248 20.7813 125.725 20.104 126.067C19.4267 126.408 18.632 126.579 17.72 126.579C16.776 126.579 15.96 126.411 15.272 126.075C14.584 125.739 14.0533 125.267 13.68 124.659C13.3067 124.045 13.12 123.323 13.12 122.491C13.12 121.637 13.3173 120.909 13.712 120.307C14.1013 119.704 14.6613 119.248 15.392 118.939C16.1227 118.629 16.9947 118.488 18.008 118.515L18.008 119.715L17.592 119.715C16.472 119.736 15.6267 119.979 15.056 120.443C14.4853 120.901 14.2 121.573 14.2 122.459C14.2 123.387 14.5013 124.099 15.104 124.595C15.7067 125.085 16.5653 125.331 17.68 125.331C18.768 125.331 19.6133 125.085 20.216 124.595C20.8133 124.099 21.112 123.397 21.112 122.491C21.112 121.872 20.9707 121.333 20.688 120.875C20.4 120.411 19.9867 120.045 19.448 119.779L19.872 118.683C20.624 119.024 21.208 119.528 21.624 120.195C22.0347 120.856 22.24 121.605 22.24 122.443ZM18.008 125.747L17.024 125.747L17.024 119.147L18.008 119.147L18.008 125.747ZM22.232 113.515C22.232 114.529 22.0133 115.363 21.576 116.019C21.1387 116.67 20.5307 117.07 19.752 117.219L19.552 116.019C20.0427 115.891 20.4347 115.601 20.728 115.147C21.016 114.689 21.16 114.123 21.16 113.451C21.16 112.795 21.024 112.278 20.752 111.899C20.4747 111.521 20.0987 111.331 19.624 111.331C19.3573 111.331 19.1413 111.393 18.976 111.515C18.8053 111.633 18.648 111.875 18.504 112.243C18.36 112.611 18.1893 113.161 17.992 113.891C17.7787 114.675 17.5653 115.289 17.352 115.731C17.1387 116.174 16.8933 116.489 16.616 116.675C16.3333 116.862 15.9893 116.955 15.584 116.955C15.0933 116.955 14.664 116.817 14.296 116.539C13.9227 116.262 13.6347 115.878 13.432 115.387C13.224 114.897 13.12 114.326 13.12 113.675C13.12 113.025 13.2267 112.443 13.44 111.931C13.648 111.414 13.9413 110.998 14.32 110.683C14.6987 110.369 15.1387 110.182 15.64 110.123L15.856 111.323C15.3493 111.403 14.9493 111.657 14.656 112.083C14.3573 112.505 14.2027 113.041 14.192 113.691C14.176 114.305 14.2933 114.803 14.544 115.187C14.7893 115.571 15.1173 115.763 15.528 115.763C15.7573 115.763 15.9547 115.694 16.12 115.555C16.28 115.417 16.432 115.166 16.576 114.803C16.72 114.435 16.8773 113.913 17.048 113.235C17.2507 112.441 17.464 111.817 17.688 111.363C17.912 110.91 18.176 110.587 18.48 110.395C18.784 110.203 19.16 110.107 19.608 110.107C20.424 110.107 21.0667 110.411 21.536 111.019C22 111.622 22.232 112.454 22.232 113.515ZM22 104.274L12.72 104.274C12.496 104.274 12.2747 104.263 12.056 104.242C11.8373 104.215 11.6293 104.165 11.432 104.09C11.2293 104.015 11.0427 103.898 10.872 103.738C10.68 103.562 10.5413 103.37 10.456 103.162C10.3653 102.954 10.3067 102.738 10.28 102.514C10.2533 102.285 10.24 102.061 10.24 101.842L10.24 100.738L11.232 100.738L11.232 101.762C11.232 102.21 11.3413 102.546 11.56 102.77C11.7787 102.989 12.1227 103.098 12.592 103.098L22 103.098L22 104.274ZM14.368 105.77L13.36 105.77L13.36 100.738L14.368 100.738L14.368 105.77ZM22.24 96.1626C22.24 97.0213 22.0453 97.7546 21.656 98.3626C21.2667 98.9706 20.728 99.4373 20.04 99.7626C19.352 100.088 18.5627 100.251 17.672 100.251C16.7653 100.251 15.9707 100.085 15.288 99.7546C14.6053 99.424 14.0747 98.9546 13.696 98.3466C13.312 97.7333 13.12 97.0053 13.12 96.1626C13.12 95.2986 13.3147 94.5626 13.704 93.9546C14.088 93.3413 14.624 92.8746 15.312 92.5546C15.9947 92.2293 16.7813 92.0666 17.672 92.0666C18.5787 92.0666 19.376 92.2293 20.064 92.5546C20.7467 92.88 21.28 93.3493 21.664 93.9626C22.048 94.576 22.24 95.3093 22.24 96.1626ZM21.112 96.1626C21.112 95.2026 20.7947 94.488 20.16 94.0186C19.52 93.5493 18.6907 93.3146 17.672 93.3146C16.6267 93.3146 15.7947 93.552 15.176 94.0266C14.5573 94.496 14.248 95.208 14.248 96.1626C14.248 96.808 14.3947 97.3413 14.688 97.7626C14.976 98.1786 15.3787 98.4906 15.896 98.6986C16.408 98.9013 17 99.0026 17.672 99.0026C18.712 99.0026 19.5467 98.7626 20.176 98.2826C20.8 97.8026 21.112 97.096 21.112 96.1626ZM22 90.3019L13.36 90.3019L13.36 89.2459L15.44 89.2459L15.168 89.4539C14.912 89.3579 14.6773 89.2325 14.464 89.0779C14.2453 88.9232 14.0667 88.7552 13.928 88.5739C13.7307 88.3499 13.5813 88.0885 13.48 87.7899C13.3733 87.4912 13.312 87.1899 13.296 86.8859C13.2747 86.5819 13.296 86.3045 13.36 86.0539L14.464 86.0539C14.384 86.3685 14.3653 86.7125 14.408 87.0859C14.4507 87.4592 14.6 87.8032 14.856 88.1179C15.08 88.4059 15.3493 88.6219 15.664 88.7659C15.9733 88.9099 16.304 89.0059 16.656 89.0539C17.0027 89.1019 17.3467 89.1259 17.688 89.1259L22 89.1259L22 90.3019ZM22.24 77.6771C22.24 78.5198 22.0533 79.2505 21.68 79.8691C21.3067 80.4825 20.7813 80.9598 20.104 81.3011C19.4267 81.6425 18.632 81.8131 17.72 81.8131C16.776 81.8131 15.96 81.6451 15.272 81.3091C14.584 80.9731 14.0533 80.5011 13.68 79.8931C13.3067 79.2798 13.12 78.5571 13.12 77.7251C13.12 76.8718 13.3173 76.1438 13.712 75.5411C14.1013 74.9385 14.6613 74.4825 15.392 74.1731C16.1227 73.8638 16.9947 73.7225 18.008 73.7491L18.008 74.9491L17.592 74.9491C16.472 74.9705 15.6267 75.2131 15.056 75.6771C14.4853 76.1358 14.2 76.8078 14.2 77.6931C14.2 78.6211 14.5013 79.3331 15.104 79.8291C15.7067 80.3198 16.5653 80.5651 17.68 80.5651C18.768 80.5651 19.6133 80.3198 20.216 79.8291C20.8133 79.3331 21.112 78.6318 21.112 77.7251C21.112 77.1065 20.9707 76.5678 20.688 76.1091C20.4 75.6451 19.9867 75.2798 19.448 75.0131L19.872 73.9171C20.624 74.2585 21.208 74.7625 21.624 75.4291C22.0347 76.0905 22.24 76.8398 22.24 77.6771ZM18.008 80.9811L17.024 80.9811L17.024 74.3811L18.008 74.3811L18.008 80.9811ZM22.24 69.658C22.24 70.3087 22.1227 70.8553 21.888 71.298C21.6533 71.7353 21.3413 72.0633 20.952 72.282C20.5627 72.5007 20.1387 72.61 19.68 72.61C19.2107 72.61 18.8107 72.5167 18.48 72.33C18.144 72.138 17.8693 71.8793 17.656 71.554C17.4427 71.2233 17.28 70.842 17.168 70.41C17.0613 69.9727 16.968 69.49 16.888 68.962C16.8027 68.4287 16.7307 67.9087 16.672 67.402C16.608 66.89 16.5467 66.442 16.488 66.058L16.744 66.474C15.8907 66.458 15.2587 66.6233 14.848 66.97C14.4373 67.3167 14.232 67.9193 14.232 68.778C14.232 69.37 14.3653 69.8713 14.632 70.282C14.8987 70.6873 15.32 70.9727 15.896 71.138L15.56 72.282C14.7867 72.0847 14.1867 71.6873 13.76 71.09C13.3333 70.4927 13.12 69.7167 13.12 68.762C13.12 67.9727 13.2693 67.3033 13.568 66.754C13.8613 66.1993 14.288 65.8073 14.848 65.578C15.0987 65.4713 15.3787 65.402 15.688 65.37C15.9973 65.338 16.312 65.322 16.632 65.322L22 65.322L22 66.37L19.832 66.37L19.96 66.066C20.7013 66.3593 21.2667 66.8153 21.656 67.434C22.0453 68.0527 22.24 68.794 22.24 69.658ZM21.224 69.522C21.224 68.9727 21.1253 68.4927 20.928 68.082C20.7307 67.6713 20.4613 67.3407 20.12 67.09C19.7733 66.8393 19.384 66.6767 18.952 66.602C18.6747 66.538 18.3707 66.5033 18.04 66.498C17.704 66.4927 17.4533 66.49 17.288 66.49L17.52 66.042C17.5733 66.442 17.6267 66.8767 17.68 67.346C17.7333 67.81 17.7947 68.2687 17.864 68.722C17.9333 69.17 18.016 69.5753 18.112 69.938C18.1813 70.1833 18.28 70.4207 18.408 70.65C18.5307 70.8793 18.696 71.0687 18.904 71.218C19.112 71.362 19.3707 71.434 19.68 71.434C19.9307 71.434 20.1733 71.3727 20.408 71.25C20.6427 71.122 20.8373 70.9193 20.992 70.642C21.1467 70.3593 21.224 69.986 21.224 69.522ZM22.24 59.6554C22.24 60.5247 22.0453 61.2607 21.656 61.8634C21.2667 62.466 20.7307 62.9247 20.048 63.2394C19.36 63.5487 18.5707 63.7087 17.68 63.7194C16.7733 63.7087 15.9787 63.5434 15.296 63.2234C14.608 62.9034 14.0747 62.442 13.696 61.8394C13.312 61.2367 13.12 60.506 13.12 59.6474C13.12 58.7727 13.3333 58.0127 13.76 57.3674C14.1867 56.7167 14.7707 56.2714 15.512 56.0314L15.88 57.1834C15.3627 57.386 14.9627 57.7087 14.68 58.1514C14.392 58.5887 14.248 59.09 14.248 59.6554C14.248 60.29 14.3947 60.8154 14.688 61.2314C14.976 61.6474 15.3787 61.9567 15.896 62.1594C16.4133 62.362 17.008 62.466 17.68 62.4714C18.7147 62.4607 19.5467 62.2207 20.176 61.7514C20.8 61.282 21.112 60.5834 21.112 59.6554C21.112 59.0687 20.9787 58.57 20.712 58.1594C20.44 57.7434 20.0453 57.4287 19.528 57.2154L19.88 56.0314C20.648 56.3514 21.2347 56.8207 21.64 57.4394C22.04 58.058 22.24 58.7967 22.24 59.6554ZM22 48.14L17.592 48.14C17.112 48.14 16.672 48.1853 16.272 48.276C15.8667 48.3667 15.5147 48.5133 15.216 48.716C14.912 48.9133 14.6773 49.172 14.512 49.492C14.3467 49.8067 14.264 50.1907 14.264 50.644C14.264 51.06 14.336 51.428 14.48 51.748C14.624 52.0627 14.832 52.3293 15.104 52.548C15.3707 52.7613 15.696 52.924 16.08 53.036C16.464 53.148 16.9013 53.204 17.392 53.204L17.208 54.036C16.3227 54.036 15.5787 53.8813 14.976 53.572C14.3733 53.2627 13.9173 52.836 13.608 52.292C13.2987 51.748 13.144 51.124 13.144 50.42C13.144 49.9027 13.224 49.452 13.384 49.068C13.544 48.6787 13.76 48.3507 14.032 48.084C14.304 47.812 14.616 47.5933 14.968 47.428C15.3147 47.2627 15.6853 47.1427 16.08 47.068C16.4693 46.9933 16.8587 46.956 17.248 46.956L22 46.956L22 48.14ZM22 54.388L10.48 54.388L10.48 53.324L16.984 53.324L16.984 53.204L22 53.204L22 54.388ZM22.216 38.3729C22.216 38.8902 22.136 39.3435 21.976 39.7329C21.816 40.1169 21.6 40.4449 21.328 40.7169C21.056 40.9835 20.7467 41.1995 20.4 41.3649C20.048 41.5302 19.6773 41.6502 19.288 41.7249C18.8933 41.7995 18.5013 41.8369 18.112 41.8369L13.36 41.8369L13.36 40.6529L17.768 40.6529C18.2427 40.6529 18.6827 40.6075 19.088 40.5169C19.4933 40.4262 19.848 40.2822 20.152 40.0849C20.4507 39.8822 20.6827 39.6235 20.848 39.3089C21.0133 38.9889 21.096 38.6022 21.096 38.1489C21.096 37.7329 21.024 37.3675 20.88 37.0529C20.736 36.7329 20.5307 36.4662 20.264 36.2529C19.992 36.0342 19.664 35.8689 19.28 35.7569C18.8907 35.6449 18.4533 35.5889 17.968 35.5889L18.152 34.7569C19.0373 34.7569 19.7813 34.9115 20.384 35.2209C20.9867 35.5302 21.4427 35.9569 21.752 36.5009C22.0613 37.0449 22.216 37.6689 22.216 38.3729ZM22 35.4689L19.872 35.4689L19.872 35.5889L13.36 35.5889L13.36 34.4129L22 34.4129L22 35.4689ZM22.232 28.9529C22.232 29.9662 22.0133 30.8009 21.576 31.4569C21.1387 32.1075 20.5307 32.5075 19.752 32.6569L19.552 31.4569C20.0427 31.3289 20.4347 31.0382 20.728 30.5849C21.016 30.1262 21.16 29.5609 21.16 28.8889C21.16 28.2329 21.024 27.7155 20.752 27.3369C20.4747 26.9582 20.0987 26.7689 19.624 26.7689C19.3573 26.7689 19.1413 26.8302 18.976 26.9529C18.8053 27.0702 18.648 27.3129 18.504 27.6809C18.36 28.0489 18.1893 28.5982 17.992 29.3289C17.7787 30.1129 17.5653 30.7262 17.352 31.1689C17.1387 31.6115 16.8933 31.9262 16.616 32.1129C16.3333 32.2995 15.9893 32.3929 15.584 32.3929C15.0933 32.3929 14.664 32.2542 14.296 31.9769C13.9227 31.6995 13.6347 31.3155 13.432 30.8249C13.224 30.3342 13.12 29.7635 13.12 29.1129C13.12 28.4622 13.2267 27.8809 13.44 27.3689C13.648 26.8515 13.9413 26.4355 14.32 26.1209C14.6987 25.8062 15.1387 25.6195 15.64 25.5609L15.856 26.7609C15.3493 26.8409 14.9493 27.0942 14.656 27.5209C14.3573 27.9422 14.2027 28.4782 14.192 29.1289C14.176 29.7422 14.2933 30.2409 14.544 30.6249C14.7893 31.0089 15.1173 31.2009 15.528 31.2009C15.7573 31.2009 15.9547 31.1315 16.12 30.9929C16.28 30.8542 16.432 30.6035 16.576 30.2409C16.72 29.8729 16.8773 29.3502 17.048 28.6729C17.2507 27.8782 17.464 27.2542 17.688 26.8009C17.912 26.3475 18.176 26.0249 18.48 25.8329C18.784 25.6409 19.16 25.5449 19.608 25.5449C20.424 25.5449 21.0667 25.8489 21.536 26.4569C22 27.0595 22.232 27.8915 22.232 28.9529ZM22.24 20.1146C22.24 20.9573 22.0533 21.688 21.68 22.3066C21.3067 22.92 20.7813 23.3973 20.104 23.7386C19.4267 24.08 18.632 24.2506 17.72 24.2506C16.776 24.2506 15.96 24.0826 15.272 23.7466C14.584 23.4106 14.0533 22.9386 13.68 22.3306C13.3067 21.7173 13.12 20.9946 13.12 20.1626C13.12 19.3093 13.3173 18.5813 13.712 17.9786C14.1013 17.376 14.6613 16.92 15.392 16.6106C16.1227 16.3013 16.9947 16.16 18.008 16.1866L18.008 17.3866L17.592 17.3866C16.472 17.408 15.6267 17.6506 15.056 18.1146C14.4853 18.5733 14.2 19.2453 14.2 20.1306C14.2 21.0586 14.5013 21.7706 15.104 22.2666C15.7067 22.7573 16.5653 23.0026 17.68 23.0026C18.768 23.0026 19.6133 22.7573 20.216 22.2666C20.8133 21.7706 21.112 21.0693 21.112 20.1626C21.112 19.544 20.9707 19.0053 20.688 18.5466C20.4 18.0826 19.9867 17.7173 19.448 17.4506L19.872 16.3546C20.624 16.696 21.208 17.2 21.624 17.8666C22.0347 18.528 22.24 19.2773 22.24 20.1146ZM18.008 23.4186L17.024 23.4186L17.024 16.8186L18.008 16.8186L18.008 23.4186ZM22 14.4112L13.36 14.4112L13.36 13.3552L15.44 13.3552L15.168 13.5632C14.912 13.4672 14.6773 13.3419 14.464 13.1872C14.2453 13.0326 14.0667 12.8646 13.928 12.6832C13.7307 12.4592 13.5813 12.1979 13.48 11.8992C13.3733 11.6006 13.312 11.2992 13.296 10.9952C13.2747 10.6912 13.296 10.4139 13.36 10.1632L14.464 10.1632C14.384 10.4779 14.3653 10.8219 14.408 11.1952C14.4507 11.5686 14.6 11.9126 14.856 12.2272C15.08 12.5152 15.3493 12.7312 15.664 12.8752C15.9733 13.0192 16.304 13.1152 16.656 13.1632C17.0027 13.2112 17.3467 13.2352 17.688 13.2352L22 13.2352L22 14.4112Z" fill="#001625"/>
</g>
<defs>
<clipPath id="clip0_183_1590">
<rect y="285" width="285" height="32" rx="13" transform="rotate(-90 0 285)" fill="white"/>
</clipPath>
</defs>
</svg>
