<svg width="53" height="54" viewBox="0 0 53 54" fill="none" xmlns="http://www.w3.org/2000/svg">
<path d="M48.5827 10.9432V37.5978C48.5827 39.7178 46.8602 41.7053 44.7402 41.9703L44.0114 42.0587C39.1973 42.6991 31.7772 45.1503 27.5372 47.4911C26.963 47.8223 26.0135 47.8223 25.4173 47.4911L25.3289 47.447C21.0889 45.1283 13.6911 42.6991 8.899 42.0587L8.25849 41.9703C6.13849 41.7053 4.41602 39.7178 4.41602 37.5978V10.9211C4.41602 8.29317 6.55804 6.3057 9.18596 6.52653C13.8235 6.90195 20.846 9.24284 24.7768 11.6941L25.3289 12.0253C25.9693 12.4228 27.0294 12.4228 27.6698 12.0253L28.0452 11.7824C29.4365 10.9211 31.2031 10.0599 33.1244 9.28695V18.297L37.541 15.3599L41.9577 18.297V6.76955C42.5539 6.65913 43.1281 6.5928 43.6581 6.54863H43.7906C46.4186 6.3278 48.5827 8.2932 48.5827 10.9432Z" stroke="#292D32" stroke-width="1.5" stroke-linecap="round" stroke-linejoin="round"/>
<path d="M26.5 12.7539V45.8789" stroke="#292D32" stroke-width="1.5" stroke-linecap="round" stroke-linejoin="round"/>
<path d="M41.9583 6.76953V18.297L37.5417 15.3598L33.125 18.297V9.28693C36.0179 8.1386 39.2421 7.2112 41.9583 6.76953Z" stroke="#292D32" stroke-width="1.5" stroke-linecap="round" stroke-linejoin="round"/>
</svg>
