<svg width="53" height="53" viewBox="0 0 53 53" fill="none" xmlns="http://www.w3.org/2000/svg">
<path d="M48.5827 10.3133V36.9679C48.5827 39.0879 46.8602 41.0754 44.7402 41.3404L44.0114 41.4288C39.1973 42.0692 31.7772 44.5204 27.5372 46.8612C26.963 47.1925 26.0135 47.1925 25.4173 46.8612L25.3289 46.8171C21.0889 44.4984 13.6911 42.0692 8.899 41.4288L8.25849 41.3404C6.13849 41.0754 4.41602 39.0879 4.41602 36.9679V10.2912C4.41602 7.66329 6.55804 5.67581 9.18596 5.89665C13.8235 6.27206 20.846 8.61296 24.7768 11.0642L25.3289 11.3954C25.9693 11.7929 27.0294 11.7929 27.6698 11.3954L28.0452 11.1525C29.4365 10.2912 31.2031 9.42998 33.1244 8.65706V17.6671L37.541 14.73L41.9577 17.6671V6.13967C42.5539 6.02925 43.1281 5.96292 43.6581 5.91875H43.7906C46.4186 5.69792 48.5827 7.66331 48.5827 10.3133Z" stroke="white" stroke-width="1.5" stroke-linecap="round" stroke-linejoin="round"/>
<path d="M26.5 12.124V45.249" stroke="white" stroke-width="1.5" stroke-linecap="round" stroke-linejoin="round"/>
<path d="M41.9583 6.13965V17.6671L37.5417 14.73L33.125 17.6671V8.65705C36.0179 7.50871 39.2421 6.58132 41.9583 6.13965Z" stroke="white" stroke-width="1.5" stroke-linecap="round" stroke-linejoin="round"/>
</svg>
