<svg width="64" height="64" viewBox="0 0 64 64" fill="none" xmlns="http://www.w3.org/2000/svg">
<path d="M58.6673 34.6663V23.9997C58.6673 10.6663 53.334 5.33301 40.0006 5.33301H24.0006C10.6673 5.33301 5.33398 10.6663 5.33398 23.9997V39.9997C5.33398 53.333 10.6673 58.6663 24.0006 58.6663H34.6673" stroke="black" stroke-width="1.5" stroke-linecap="round" stroke-linejoin="round"/>
<path d="M58.6673 34.6663V23.9997C58.6673 10.6663 53.334 5.33301 40.0006 5.33301H24.0006C10.6673 5.33301 5.33398 10.6663 5.33398 23.9997V39.9997C5.33398 53.333 10.6673 58.6663 24.0006 58.6663H34.6673" stroke="black" stroke-width="1.5" stroke-linecap="round" stroke-linejoin="round"/>
<path d="M58.6673 34.6663V23.9997C58.6673 10.6663 53.334 5.33301 40.0006 5.33301H24.0006C10.6673 5.33301 5.33398 10.6663 5.33398 23.9997V39.9997C5.33398 53.333 10.6673 58.6663 24.0006 58.6663H34.6673" stroke="black" stroke-width="1.5" stroke-linecap="round" stroke-linejoin="round"/>
<path d="M42.666 51.813L46.8793 55.9997L55.9993 45.333" stroke="black" stroke-width="1.5" stroke-linecap="round" stroke-linejoin="round"/>
<path d="M18.666 28V36" stroke="black" stroke-width="1.5" stroke-linecap="round" stroke-linejoin="round"/>
<path d="M32 28V36" stroke="black" stroke-width="1.5" stroke-linecap="round" stroke-linejoin="round"/>
<path d="M45.334 28V36" stroke="black" stroke-width="1.5" stroke-linecap="round" stroke-linejoin="round"/>
</svg>
