<svg width="64" height="65" viewBox="0 0 64 65" fill="none" xmlns="http://www.w3.org/2000/svg">
<path d="M58.6673 35.2962V24.6296C58.6673 11.2962 53.334 5.96289 40.0006 5.96289H24.0006C10.6673 5.96289 5.33398 11.2962 5.33398 24.6296V40.6296C5.33398 53.9629 10.6673 59.2962 24.0006 59.2962H34.6673" stroke="white" stroke-width="1.5" stroke-linecap="round" stroke-linejoin="round"/>
<path d="M58.6673 35.2962V24.6296C58.6673 11.2962 53.334 5.96289 40.0006 5.96289H24.0006C10.6673 5.96289 5.33398 11.2962 5.33398 24.6296V40.6296C5.33398 53.9629 10.6673 59.2962 24.0006 59.2962H34.6673" stroke="white" stroke-width="1.5" stroke-linecap="round" stroke-linejoin="round"/>
<path d="M58.6673 35.2962V24.6296C58.6673 11.2962 53.334 5.96289 40.0006 5.96289H24.0006C10.6673 5.96289 5.33398 11.2962 5.33398 24.6296V40.6296C5.33398 53.9629 10.6673 59.2962 24.0006 59.2962H34.6673" stroke="white" stroke-width="1.5" stroke-linecap="round" stroke-linejoin="round"/>
<path d="M42.666 52.4429L46.8793 56.6296L55.9993 45.9629" stroke="white" stroke-width="1.5" stroke-linecap="round" stroke-linejoin="round"/>
<path d="M18.666 28.6299V36.6299" stroke="white" stroke-width="1.5" stroke-linecap="round" stroke-linejoin="round"/>
<path d="M32 28.6299V36.6299" stroke="white" stroke-width="1.5" stroke-linecap="round" stroke-linejoin="round"/>
<path d="M45.334 28.6299V36.6299" stroke="white" stroke-width="1.5" stroke-linecap="round" stroke-linejoin="round"/>
</svg>
