<svg width="16" height="20" viewBox="0 0 16 20" fill="none" xmlns="http://www.w3.org/2000/svg">
<path d="M7 9.52632H12M12 3.8421H15V19H1V3.8421H4M7 12.3684H12M7 15.2105H12M10 2.89474C10 1.84884 9.104 1 8 1C6.896 1 6 1.84884 6 2.89474H4V5.73684H12V2.89474H10ZM3.5 9.52632C3.5 9.78779 3.724 10 4 10C4.276 10 4.5 9.78779 4.5 9.52632C4.5 9.26484 4.276 9.05263 4 9.05263C3.724 9.05263 3.5 9.26484 3.5 9.52632ZM3.5 12.3684C3.5 12.6299 3.724 12.8421 4 12.8421C4.276 12.8421 4.5 12.6299 4.5 12.3684C4.5 12.1069 4.276 11.8947 4 11.8947C3.724 11.8947 3.5 12.1069 3.5 12.3684ZM3.5 15.2105C3.5 15.472 3.724 15.6842 4 15.6842C4.276 15.6842 4.5 15.472 4.5 15.2105C4.5 14.9491 4.276 14.7368 4 14.7368C3.724 14.7368 3.5 14.9491 3.5 15.2105Z" stroke="white" stroke-linecap="round" stroke-linejoin="round"/>
</svg>
