<svg width="56" height="56" viewBox="0 0 56 56" fill="none" xmlns="http://www.w3.org/2000/svg">
<path d="M12.5996 53.8996C10.7431 53.8996 8.96262 53.1621 7.64986 51.8494C6.33711 50.5366 5.59961 48.7561 5.59961 46.8996V16.0996C5.59961 14.2431 6.33711 12.4626 7.64986 11.1499C8.96262 9.83711 10.7431 9.09961 12.5996 9.09961H17.0341C17.6488 8.03499 18.533 7.15101 19.5977 6.5366C20.6336 5.93887 21.8048 5.61678 22.9996 5.60028C23.0548 5.59951 23.0995 5.55478 23.101 5.49956C23.1265 4.60759 23.492 3.75749 24.1247 3.12474C24.7811 2.46836 25.6714 2.09961 26.5996 2.09961H29.3996C29.8592 2.09961 30.3144 2.19014 30.739 2.36603C31.1636 2.54192 31.5495 2.79973 31.8745 3.12474C32.1995 3.44974 32.4573 3.83558 32.6332 4.26022C32.7963 4.65404 32.886 5.07408 32.8982 5.49962C32.8998 5.55483 32.9444 5.59954 32.9996 5.60033C34.1938 5.61741 35.3643 5.93977 36.3995 6.53748C37.4636 7.15185 38.3472 8.0355 38.9616 9.09961H43.3996C45.2561 9.09961 47.0366 9.83711 48.3494 11.1499C49.6621 12.4626 50.3996 14.2431 50.3996 16.0996V46.8996C50.3996 48.7561 49.6621 50.5366 48.3494 51.8494C47.0366 53.1621 45.2561 53.8996 43.3996 53.8996H12.5996Z" stroke="white" stroke-width="1.5"/>
<path d="M39.8996 9.09961C39.8996 12.9656 36.7656 16.0996 32.8996 16.0996H23.0996C19.2336 16.0996 16.0996 12.9656 16.0996 9.09961" stroke="white" stroke-width="1.5"/>
<path d="M14 28.9545H21L26.25 24.5L31.5 31.5L35 26.4091L36.75 28.9545H42" stroke="white" stroke-width="1.5" stroke-linecap="round" stroke-linejoin="round"/>
<path d="M14 39.9004H35" stroke="white" stroke-width="1.5" stroke-linecap="round" stroke-linejoin="round"/>
<path d="M14 46.9004H28" stroke="white" stroke-width="1.5" stroke-linecap="round" stroke-linejoin="round"/>
</svg>
