<svg width="56" height="57" viewBox="0 0 56 57" fill="none" xmlns="http://www.w3.org/2000/svg">
<path d="M12.5996 54.5295C10.7431 54.5295 8.96262 53.792 7.64986 52.4792C6.33711 51.1665 5.59961 49.386 5.59961 47.5295V16.7295C5.59961 14.873 6.33711 13.0925 7.64986 11.7797C8.96262 10.467 10.7431 9.72949 12.5996 9.72949H17.0341C17.6488 8.66487 18.533 7.78089 19.5977 7.16648C20.6336 6.56875 21.8048 6.24667 22.9996 6.23016C23.0548 6.2294 23.0995 6.18467 23.101 6.12944C23.1265 5.23747 23.492 4.38738 24.1247 3.75462C24.7811 3.09824 25.6714 2.72949 26.5996 2.72949H29.3996C29.8592 2.72949 30.3144 2.82002 30.739 2.99591C31.1636 3.17181 31.5495 3.42961 31.8745 3.75462C32.1995 4.07962 32.4573 4.46546 32.6332 4.8901C32.7963 5.28392 32.886 5.70397 32.8982 6.12951C32.8998 6.18471 32.9444 6.22942 32.9996 6.23021C34.1938 6.2473 35.3643 6.56966 36.3995 7.16736C37.4636 7.78174 38.3472 8.66538 38.9616 9.72949H43.3996C45.2561 9.72949 47.0366 10.467 48.3494 11.7797C49.6621 13.0925 50.3996 14.873 50.3996 16.7295V47.5295C50.3996 49.386 49.6621 51.1665 48.3494 52.4792C47.0366 53.792 45.2561 54.5295 43.3996 54.5295H12.5996Z" stroke="#001625" stroke-width="1.5"/>
<path d="M39.8996 9.72949C39.8996 13.5955 36.7656 16.7295 32.8996 16.7295H23.0996C19.2336 16.7295 16.0996 13.5955 16.0996 9.72949" stroke="#001625" stroke-width="1.5"/>
<path d="M14 29.5844H21L26.25 25.1299L31.5 32.1299L35 27.039L36.75 29.5844H42" stroke="#001625" stroke-width="1.5" stroke-linecap="round" stroke-linejoin="round"/>
<path d="M14 40.5303H35" stroke="#001625" stroke-width="1.5" stroke-linecap="round" stroke-linejoin="round"/>
<path d="M14 47.5303H28" stroke="#001625" stroke-width="1.5" stroke-linecap="round" stroke-linejoin="round"/>
</svg>
