<svg width="20" height="15" viewBox="0 0 20 15" fill="none" xmlns="http://www.w3.org/2000/svg">
<path d="M5.19327 8.08154L4.90621 9.44765C4.83325 9.78968 4.5964 10.0677 4.28091 10.1797L2.84557 10.6837C2.27996 10.8828 1.83657 11.3518 1.64709 11.9488L1 14H12.369L11.721 11.9488C11.5324 11.3518 11.0881 10.8828 10.5225 10.6837L9.08811 10.1797C8.77262 10.0677 8.53482 9.78968 8.46281 9.44765L8.1748 8.07854M12.0526 13.0009H19L18.3018 10.7858C18.1426 10.2837 17.8006 9.86768 17.3505 9.62866L16.6021 9.23363C16.3245 9.08662 16.1322 8.8056 16.0876 8.48158L15.9872 7.73752M13.487 7.73952L13.3865 8.48158C13.343 8.8056 13.1506 9.08762 12.8721 9.23463L12.1236 9.62966C11.6736 9.86668 11.3325 10.2827 11.1734 10.7858L11.1004 11.0148M7.53719 8.69559C7.03316 9.10062 6.33586 9.10062 5.83183 8.69559C4.5784 7.68751 3.84225 6.11839 3.84225 4.45527V4.00023C3.84225 2.3431 5.11464 1 6.68451 1C8.25438 1 9.52676 2.3431 9.52676 4.00023V4.45527C9.52676 6.11839 8.79062 7.68751 7.53719 8.69559ZM15.4481 8.25256C15.0265 8.58358 14.4486 8.58358 14.027 8.25256C12.9839 7.43449 12.369 6.1444 12.369 4.77229V4.50027C12.369 3.11916 13.4292 2.00008 14.7376 2.00008C16.0459 2.00008 17.1061 3.11916 17.1061 4.50027V4.77229C17.1061 6.1444 16.4912 7.43449 15.4481 8.25256Z" stroke="white" stroke-linecap="round" stroke-linejoin="round"/>
</svg>
