<svg width="73" height="26" viewBox="0 0 73 26" fill="none" xmlns="http://www.w3.org/2000/svg">
<g clip-path="url(#clip0_243_2982)">
<path d="M2.96573 0H70.0343C71.6704 0 73 1.3989 73 3.12024V22.8798C73 24.6011 71.6704 26 70.0343 26H2.96573C1.32963 26 0 24.6011 0 22.8798V3.12024C0 1.3989 1.32963 0 2.96573 0Z" fill="#E2E3E8"/>
<path d="M12.1014 7.53244C12.002 6.75897 12.3986 5.93885 12.8406 5.43502C13.3425 4.86401 14.2159 4.42643 14.9108 4.39844C15.0006 5.20456 14.6724 5.9967 14.1908 6.57797C13.6899 7.14897 12.885 7.59029 12.1014 7.53337V7.53244Z" fill="#2E2C2F"/>
<path d="M17.8421 14.3711C17.8324 14.4187 17.5545 15.3555 16.8644 16.3006C16.2834 17.1366 15.6821 17.9521 14.719 17.9661C13.7857 17.9847 13.473 17.4333 12.3998 17.4333C11.3266 17.4333 10.9849 17.9521 10.0912 17.9847C9.17245 18.0183 8.47853 17.0928 7.87726 16.267C6.68052 14.5773 5.75208 11.5058 6.99804 9.41682C7.59931 8.3905 8.7063 7.73179 9.88277 7.71313C10.7958 7.69913 11.6499 8.31306 12.2116 8.31306C12.7733 8.31306 13.8147 7.57318 14.8975 7.68421C15.3501 7.69913 16.6405 7.86148 17.4744 9.03335C17.4097 9.0716 15.9398 9.90758 15.9553 11.6253C15.9746 13.6798 17.817 14.3618 17.8421 14.3711Z" fill="#2E2C2F"/>
<path d="M25.818 11.1006H24.3587L22 18.1906H23.217L23.8665 16.1072H26.2494L26.9346 18.1906H28.1854L25.817 11.1006H25.818ZM24.075 15.2329L24.6859 13.3855C24.8442 12.7996 24.9581 12.3536 25.0334 12.0513H25.0575C25.237 12.752 25.3605 13.1933 25.4252 13.3855L26.0458 15.2329H24.075Z" fill="#2E2C2F"/>
<path d="M33.6151 13.6878C33.1982 13.2129 32.6818 12.9731 32.0564 12.9731C31.2621 12.9731 30.6657 13.2801 30.2739 13.8894H30.2536L30.1889 13.0776H29.1562C29.1862 13.6533 29.2006 14.2103 29.2006 14.758V20.2637H30.3771V17.5804C30.685 18.0656 31.1859 18.3053 31.8866 18.3053C32.5322 18.3053 33.0785 18.0842 33.5157 17.6336C34.0079 17.1297 34.2501 16.443 34.2501 15.5744C34.2501 14.7925 34.0417 14.1674 33.6151 13.6878ZM32.6818 16.9179C32.4338 17.2445 32.0912 17.4124 31.6491 17.4124C31.2718 17.4124 30.9639 17.2827 30.7304 17.029C30.4968 16.7743 30.3781 16.457 30.3781 16.0885V15.2338C30.3781 15.1424 30.3974 15.0276 30.4331 14.8886C30.5026 14.5854 30.6618 14.3456 30.8944 14.159C31.1328 13.9771 31.3963 13.881 31.6839 13.881C32.1114 13.881 32.4531 14.0489 32.7069 14.3848C32.9405 14.7067 33.0543 15.1144 33.0543 15.6136C33.0543 16.1557 32.9299 16.5877 32.6818 16.9189V16.9179Z" fill="#2E2C2F"/>
<path d="M39.6922 13.6878C39.2753 13.2129 38.759 12.9731 38.1336 12.9731C37.3393 12.9731 36.7438 13.2801 36.351 13.8894H36.3317L36.267 13.0776H35.2344C35.2643 13.6533 35.2788 14.2103 35.2788 14.758V20.2637H36.4552V17.5804C36.7631 18.0656 37.265 18.3053 37.9647 18.3053C38.6103 18.3053 39.1566 18.0842 39.5928 17.6336C40.085 17.1297 40.3283 16.443 40.3283 15.5744C40.3283 14.7925 40.1198 14.1674 39.6922 13.6878ZM38.759 16.9179C38.5158 17.2445 38.1674 17.4124 37.7263 17.4124C37.3489 17.4124 37.0411 17.2827 36.8075 17.029C36.574 16.7743 36.4543 16.457 36.4543 16.0885V15.2338C36.4543 15.1424 36.4746 15.0276 36.5093 14.8886C36.5836 14.5854 36.738 14.3456 36.9716 14.159C37.21 13.9771 37.4725 13.881 37.761 13.881C38.1876 13.881 38.5302 14.0489 38.7831 14.3848C39.0167 14.7067 39.1305 15.1144 39.1305 15.6136C39.1305 16.1557 39.0118 16.5877 38.759 16.9189V16.9179Z" fill="#2E2C2F"/>
<path d="M46.6771 14.97C46.9801 15.3012 47.1287 15.7136 47.1287 16.2034C47.1287 16.808 46.9106 17.2979 46.4782 17.6767C46.0015 18.0891 45.3365 18.2962 44.4824 18.2962C43.692 18.2962 43.0627 18.1469 42.5859 17.8549L42.8591 16.9088C43.3754 17.2018 43.9419 17.3501 44.5567 17.3501C44.9987 17.3501 45.3462 17.254 45.5894 17.0627C45.8374 16.8705 45.9619 16.6112 45.9619 16.2902C45.9619 16.0019 45.8577 15.7621 45.6589 15.5653C45.4552 15.3684 45.1174 15.1855 44.6455 15.0176C43.3493 14.552 42.7095 13.8746 42.7095 12.9873C42.7095 12.407 42.9382 11.9312 43.3899 11.557C43.8425 11.1875 44.4428 11 45.1927 11C45.8577 11 46.4136 11.111 46.8556 11.3359L46.5584 12.2577C46.1414 12.0422 45.6743 11.9312 45.1483 11.9312C44.7362 11.9312 44.4081 12.0319 44.1755 12.2241C43.9815 12.4014 43.8821 12.6132 43.8821 12.8679C43.8821 13.1459 43.9969 13.382 44.2199 13.5593C44.4139 13.7272 44.771 13.9091 45.2873 14.106C45.9185 14.3514 46.3798 14.6388 46.678 14.97H46.6771Z" fill="#2E2C2F"/>
<path d="M49.7262 13.0778H51.0224V13.9325H49.7262V16.4143C49.7262 17.0431 49.955 17.3594 50.4115 17.3594C50.6199 17.3594 50.7937 17.3408 50.9326 17.3062L50.9674 18.1702C50.7338 18.2514 50.4317 18.2952 50.0544 18.2952C49.5873 18.2952 49.2302 18.1562 48.9667 17.8819C48.7042 17.6085 48.5739 17.1476 48.5739 16.5048V13.9269H47.8047V13.0769H48.5739V12.1411L49.7262 11.8052V13.0769V13.0778Z" fill="#2E2C2F"/>
<path d="M56.1751 13.7263C55.7041 13.2271 55.0778 12.9771 54.3037 12.9771C53.5297 12.9771 52.859 13.2318 52.3822 13.7356C51.9103 14.2394 51.6719 14.8879 51.6719 15.6791C51.6719 16.4703 51.9006 17.0665 52.3619 17.561C52.8242 18.0555 53.4448 18.3046 54.2188 18.3046C54.9928 18.3046 55.6684 18.0452 56.1548 17.5264C56.6162 17.0226 56.8497 16.3798 56.8497 15.5923C56.8497 14.8048 56.6258 14.2049 56.1741 13.7253L56.1751 13.7263ZM55.3113 16.8369C55.0536 17.2503 54.7004 17.4565 54.2536 17.4565C53.8067 17.4565 53.439 17.2549 53.1861 16.8463C52.9777 16.5151 52.8734 16.112 52.8734 15.6417C52.8734 15.1715 52.9729 14.7498 53.1861 14.413C53.4294 14.0052 53.7922 13.8028 54.2642 13.8028C54.7361 13.8028 55.0729 14.0043 55.3219 14.413C55.5304 14.7489 55.6346 15.1472 55.6346 15.6175C55.6346 16.0877 55.5256 16.4908 55.3123 16.836L55.3113 16.8369Z" fill="#2E2C2F"/>
<path d="M60.6696 12.9923L60.6744 14.0764C60.5605 14.0578 60.436 14.0475 60.3028 14.0475C59.8907 14.0475 59.5684 14.1968 59.3445 14.4991C59.1505 14.7622 59.0511 15.1037 59.0511 15.5067V18.1901H57.8746V14.6866C57.8746 14.096 57.8649 13.5586 57.8398 13.0781H58.8629L58.9073 14.0578H58.942C59.0655 13.7219 59.2595 13.4476 59.5278 13.246C59.7913 13.0641 60.0741 12.9727 60.3771 12.9727C60.4862 12.9727 60.5856 12.982 60.6705 12.9913L60.6696 12.9923Z" fill="#2E2C2F"/>
<path d="M65.9286 15.3918C65.9286 14.7536 65.7703 14.2209 65.4576 13.7786C65.0697 13.2319 64.4896 12.9585 63.7291 12.9585C62.9686 12.9585 62.3393 13.2319 61.8819 13.7786C61.4447 14.2927 61.2266 14.9356 61.2266 15.7044C61.2266 16.4732 61.4601 17.1151 61.9263 17.5807C62.3934 18.0462 63.0381 18.2814 63.8575 18.2814C64.5379 18.2814 65.1285 18.1759 65.6304 17.9641L65.447 17.1776C65.0195 17.3362 64.5427 17.4174 64.0215 17.4174C63.5506 17.4174 63.1674 17.297 62.8702 17.0619C62.542 16.7979 62.3741 16.4088 62.3586 15.905H65.8832C65.9132 15.7659 65.9276 15.5933 65.9276 15.3909L65.9286 15.3918ZM62.3635 15.0942C62.3982 14.7527 62.5179 14.456 62.7109 14.2106C62.9493 13.9036 63.262 13.7497 63.6442 13.7497C64.0611 13.7497 64.3748 13.9083 64.5774 14.2255C64.7357 14.47 64.8158 14.763 64.8062 15.0988L62.3625 15.0942H62.3635Z" fill="#2E2C2F"/>
<path d="M24.6323 4.79102C25.8503 4.79102 26.5712 5.51504 26.5712 6.76435C26.5712 8.01366 25.8531 8.75074 24.6323 8.75074H23.1875V4.79102H24.6323ZM23.8235 8.21799H24.5724C25.441 8.21799 25.9207 7.70483 25.9207 6.76901C25.9207 5.8332 25.4381 5.32004 24.5724 5.32004H23.8235V8.21799Z" fill="#2E2C2F"/>
<path d="M26.9688 7.30715C26.9688 6.37973 27.5333 5.81152 28.3855 5.81152C29.2377 5.81152 29.8023 6.37973 29.8023 7.30715C29.8023 8.23457 29.2406 8.80558 28.3855 8.80558C27.5304 8.80558 26.9688 8.23737 26.9688 7.30715ZM29.1769 7.30715C29.1769 6.66803 28.8642 6.30042 28.3846 6.30042C27.9049 6.30042 27.5922 6.66803 27.5922 7.30715C27.5922 7.94627 27.9049 8.31667 28.3846 8.31667C28.8642 8.31667 29.1769 7.94907 29.1769 7.30715Z" fill="#2E2C2F"/>
<path d="M33.387 8.75101H32.748L32.1207 6.58921H32.1062L31.4847 8.75101H30.8516L30.0312 5.86426H30.6441L31.1894 8.13615H31.201L31.8225 5.86426H32.4132L33.0376 8.13615H33.0521L33.5974 5.86426H34.2044L33.387 8.75101Z" fill="#2E2C2F"/>
<path d="M34.5781 5.8639H35.163V6.34721H35.1775C35.3396 6.01785 35.6571 5.81445 36.1165 5.81445C36.7747 5.81445 37.1521 6.22032 37.1521 6.88182V8.75066H36.5363V6.99752C36.5363 6.56367 36.326 6.32481 35.9003 6.32481C35.4747 6.32481 35.191 6.62151 35.191 7.06843V8.75066H34.5781V5.8639Z" fill="#2E2C2F"/>
<path d="M37.7656 4.79102H38.3785V8.75074H37.7656V4.79102Z" fill="#2E2C2F"/>
<path d="M38.875 7.30715C38.875 6.37973 39.4396 5.81152 40.2918 5.81152C41.144 5.81152 41.7086 6.37973 41.7086 7.30715C41.7086 8.23457 41.1469 8.80558 40.2918 8.80558C39.4367 8.80558 38.875 8.23737 38.875 7.30715ZM41.0832 7.30715C41.0832 6.66803 40.7705 6.30042 40.2908 6.30042C39.8112 6.30042 39.4985 6.66803 39.4985 7.30715C39.4985 7.94627 39.8112 8.31667 40.2908 8.31667C40.7705 8.31667 41.0832 7.94907 41.0832 7.30715Z" fill="#2E2C2F"/>
<path d="M42.0635 7.92943C42.0635 7.42467 42.464 7.1149 43.1733 7.07572L43.9908 7.02907V6.80701C43.9908 6.48605 43.7669 6.29385 43.3915 6.29385C43.0363 6.29385 42.8153 6.45806 42.7612 6.71651H42.1822C42.216 6.19495 42.6763 5.81055 43.4137 5.81055C44.151 5.81055 44.5998 6.18095 44.5998 6.76036V8.74955H44.012V8.27465H43.9976C43.8248 8.5956 43.4465 8.799 43.0556 8.799C42.4707 8.799 42.0625 8.44819 42.0625 7.92943H42.0635ZM43.9908 7.66912V7.44146L43.2554 7.48531C42.8896 7.50957 42.6821 7.66632 42.6821 7.91357C42.6821 8.16082 42.8983 8.33063 43.2274 8.33063C43.6559 8.33063 43.9908 8.04512 43.9908 7.66912Z" fill="#2E2C2F"/>
<path d="M45.0586 7.30736C45.0586 6.39674 45.5585 5.81733 46.3075 5.81733C46.736 5.81733 47.0766 6.02633 47.2446 6.34449H47.2562V4.79102H47.8719V8.75074H47.2755V8.25997H47.2639C47.0882 8.58933 46.7475 8.80019 46.3132 8.80019C45.5585 8.80019 45.0586 8.21892 45.0586 7.30736ZM45.6859 7.30736C45.6859 7.91662 45.9899 8.29823 46.4754 8.29823C46.9608 8.29823 47.262 7.91103 47.262 7.30736C47.262 6.7037 46.9473 6.3165 46.4754 6.3165C46.0034 6.3165 45.6859 6.7009 45.6859 7.30736Z" fill="#2E2C2F"/>
<path d="M49.5469 7.30715C49.5469 6.37973 50.1115 5.81152 50.9637 5.81152C51.8159 5.81152 52.3805 6.37973 52.3805 7.30715C52.3805 8.23457 51.8188 8.80558 50.9637 8.80558C50.1086 8.80558 49.5469 8.23737 49.5469 7.30715ZM51.7551 7.30715C51.7551 6.66803 51.4424 6.30042 50.9627 6.30042C50.483 6.30042 50.1703 6.66803 50.1703 7.30715C50.1703 7.94627 50.483 8.31667 50.9627 8.31667C51.4424 8.31667 51.7551 7.94907 51.7551 7.30715Z" fill="#2E2C2F"/>
<path d="M52.8516 5.8639H53.4364V6.34721H53.4509C53.613 6.01785 53.9306 5.81445 54.39 5.81445C55.0482 5.81445 55.4255 6.22032 55.4255 6.88182V8.75066H54.8098V6.99752C54.8098 6.56367 54.5994 6.32481 54.1738 6.32481C53.7482 6.32481 53.4644 6.62151 53.4644 7.06843V8.75066H52.8516V5.8639Z" fill="#2E2C2F"/>
<path d="M57.9885 5.18018V5.86314H58.556V6.33245H57.9885V7.92418C57.9885 8.17423 58.1024 8.28619 58.3514 8.28619C58.4141 8.28619 58.5135 8.28059 58.5531 8.27219V8.7415C58.4846 8.7583 58.3485 8.76856 58.2124 8.76856C57.6083 8.76856 57.3718 8.5465 57.3718 7.98949V6.33245H56.9375V5.86314H57.3718V5.18018H57.9875H57.9885Z" fill="#2E2C2F"/>
<path d="M59.082 4.79102H59.6891V6.34729H59.7036C59.8686 6.00954 60.1948 5.81454 60.6484 5.81454C61.3037 5.81454 61.6956 6.23719 61.6956 6.8903V8.75074H61.0798V7.006C61.0798 6.58054 60.8588 6.32583 60.4274 6.32583C59.9728 6.32583 59.6949 6.62813 59.6949 7.08344V8.75167H59.082V4.79195V4.79102Z" fill="#2E2C2F"/>
<path d="M64.846 7.90241C64.761 8.42957 64.2447 8.80558 63.5604 8.80558C62.6832 8.80558 62.1523 8.23177 62.1523 7.32115C62.1523 6.41052 62.6918 5.81152 63.5344 5.81152C64.3769 5.81152 64.8798 6.37693 64.8798 7.2521V7.4555H62.771V7.49095C62.771 7.99292 63.0837 8.32507 63.574 8.32507C63.9233 8.32507 64.181 8.15526 64.264 7.90241H64.846ZM62.7739 7.04031H64.2669C64.2524 6.59806 63.9629 6.2883 63.5344 6.2883C63.1059 6.2883 62.8048 6.60365 62.7739 7.04031Z" fill="#2E2C2F"/>
</g>
<defs>
<clipPath id="clip0_243_2982">
<rect width="73" height="26" fill="white"/>
</clipPath>
</defs>
</svg>
