<svg width="23" height="23" viewBox="0 0 23 23" fill="none" xmlns="http://www.w3.org/2000/svg">
<path d="M4.52832 7.4751H17.7533V15.8845C17.7533 16.7804 17.3974 17.6397 16.7639 18.2732C16.1304 18.9067 15.2711 19.2626 14.3752 19.2626H7.90645C7.01052 19.2626 6.15131 18.9067 5.51779 18.2732C4.88426 17.6397 4.52832 16.7804 4.52832 15.8845V7.4751Z" stroke="#F2F6F8" stroke-linecap="round" stroke-linejoin="round"/>
<path d="M2.15625 19.2625H19.9812C19.9812 19.8724 19.7389 20.4575 19.3076 20.8888C18.8763 21.3201 18.2913 21.5624 17.6813 21.5624H4.52812C3.91812 21.5624 3.33314 21.3201 2.9018 20.8888C2.47047 20.4575 2.22815 19.8724 2.22815 19.2625H2.15625Z" stroke="#F2F6F8" stroke-linecap="round" stroke-linejoin="round"/>
<path d="M6.68457 4.95942V2.30005" stroke="#F2F6F8" stroke-linecap="round" stroke-linejoin="round"/>
<path d="M15.4531 5.0313V2.30005" stroke="#F2F6F8" stroke-linecap="round" stroke-linejoin="round"/>
<path d="M11.0693 3.95312V1.4375" stroke="#F2F6F8" stroke-linecap="round" stroke-linejoin="round"/>
<path d="M17.7588 9.05615H21.203V11.7155C21.203 12.6496 20.8319 13.5454 20.1714 14.2059C19.511 14.8664 18.6928 15.2372 17.7588 15.2372L17.7588 9.05615Z" stroke="#F2F6F8" stroke-linecap="round" stroke-linejoin="round"/>
</svg>
