<svg width="20" height="20" viewBox="0 0 20 20" fill="none" xmlns="http://www.w3.org/2000/svg">
<path d="M18.1875 10.875C17.9479 12.9996 16.9164 14.9559 15.2987 16.3538C13.681 17.7518 11.5958 18.4887 9.4589 18.4178C7.32202 18.3468 5.29038 17.4731 3.76896 15.9709C2.24754 14.4687 1.34812 12.4483 1.25 10.3125C1.26061 9.87262 1.30238 9.43401 1.37501 9.00002C1.4142 9.62658 1.66659 10.2209 2.09024 10.6842C2.5139 11.1475 3.08331 11.4518 3.70388 11.5467C4.32445 11.6417 4.95881 11.5214 5.50158 11.2059C6.04434 10.8904 6.46284 10.3987 6.68751 9.81251C6.75698 9.6761 6.79942 9.52755 6.8125 9.37502C7.00604 8.68437 7.43587 8.08357 8.02702 7.67737C8.61817 7.27117 9.33312 7.08534 10.0472 7.15229C10.7614 7.21924 11.4293 7.53471 11.9347 8.04371C12.44 8.55271 12.7507 9.22293 12.8125 9.93752V10.5C12.8904 11.1682 13.2161 11.783 13.7253 12.2227C14.2345 12.6624 14.8901 12.8952 15.5625 12.875C16.1602 12.881 16.7427 12.6876 17.2181 12.3254C17.6935 11.9631 18.0346 11.4528 18.1875 10.875Z" stroke="#F2F6F8" stroke-linecap="round" stroke-linejoin="round"/>
<path d="M12.8125 10.3125V10.5C12.7802 11.2904 12.4433 12.0376 11.8725 12.5852C11.3016 13.1327 10.541 13.4382 9.75 13.4375C8.9212 13.4375 8.12633 13.1083 7.54028 12.5222C6.95423 11.9362 6.625 11.1413 6.625 10.3125C6.625 10.125 6.6875 10 6.6875 9.81251C6.75698 9.6761 6.79942 9.52755 6.81249 9.37502C7.00604 8.68437 7.43587 8.08357 8.02702 7.67737C8.61816 7.27117 9.33312 7.08534 10.0472 7.15229C10.7614 7.21924 11.4293 7.53471 11.9347 8.04371C12.44 8.55271 12.7507 9.22293 12.8125 9.93752V10.3125Z" stroke="#F2F6F8" stroke-linecap="round" stroke-linejoin="round"/>
<path d="M18.1875 10.3125V10.875C18.0346 11.4528 17.6935 11.9631 17.2181 12.3254C16.7427 12.6876 16.1601 12.881 15.5625 12.875C14.89 12.8952 14.2345 12.6624 13.7253 12.2227C13.2161 11.783 12.8904 11.1682 12.8125 10.5V9.93751C12.7507 9.22292 12.44 8.5527 11.9347 8.0437C11.4293 7.5347 10.7614 7.21923 10.0472 7.15228C9.33312 7.08533 8.61816 7.27115 8.02701 7.67735C7.43587 8.08356 7.00604 8.68436 6.81249 9.37501C6.74999 9.50001 6.75 9.6875 6.6875 9.8125C6.46283 10.3987 6.04433 10.8904 5.50157 11.2059C4.95881 11.5214 4.32445 11.6416 3.70387 11.5467C3.0833 11.4518 2.51389 11.1474 2.09024 10.6842C1.66658 10.2209 1.41419 9.62657 1.375 9.00001C1.44253 8.53411 1.54703 8.07432 1.6875 7.625C2.27018 5.94946 3.35888 4.49625 4.80317 3.46622C6.24746 2.43618 7.97604 1.88017 9.75 1.87501C11.7951 1.8719 13.7717 2.61167 15.3122 3.95675C16.8527 5.30183 17.8523 7.16065 18.125 9.1875C18.1769 9.56013 18.1977 9.93643 18.1875 10.3125Z" stroke="#F2F6F8" stroke-linecap="round" stroke-linejoin="round"/>
<path d="M4.3125 8.875L5.06251 8" stroke="#F2F6F8" stroke-linecap="round" stroke-linejoin="round"/>
<path d="M7.31252 6.1875L6.4375 5.5" stroke="#F2F6F8" stroke-linecap="round" stroke-linejoin="round"/>
<path d="M14.1875 6.375L13.3125 5.6875" stroke="#F2F6F8" stroke-linecap="round" stroke-linejoin="round"/>
<path d="M9.8125 5.0625L10.5 4.1875" stroke="#F2F6F8" stroke-linecap="round" stroke-linejoin="round"/>
<path d="M15.1875 9.5L15.9375 8.625" stroke="#F2F6F8" stroke-linecap="round" stroke-linejoin="round"/>
</svg>
