<svg width="232" height="65" viewBox="0 0 232 65" fill="none" xmlns="http://www.w3.org/2000/svg">
<path d="M97.2954 36.366C97.164 36.5619 97.2297 36.7903 97.2297 36.9861V46.4504C97.2297 47.3315 97.1311 48.18 96.8683 49.0286C96.0799 51.7373 93.7804 53.3691 90.9224 53.1733C87.4074 52.9448 85.4036 50.8235 85.1736 47.1357C85.1408 46.7767 85.1408 46.3851 85.1408 46.0261V21.6801C85.1408 19.1346 86.0934 17.1438 88.5243 16.1647C91.021 15.1531 93.3862 15.512 95.4229 17.3396C96.5398 18.3187 97.3282 19.6241 98.2152 20.799C100.942 24.4868 103.833 28.0767 106.395 31.895C106.658 32.2866 106.888 32.6782 107.282 33.0372V32.4172V22.3002C107.282 20.8969 107.512 19.5588 108.234 18.3513C109.549 16.1321 111.618 15.4141 114.049 15.6752C116.907 15.9363 118.812 17.8618 119.206 20.7337C119.305 21.3864 119.338 22.0391 119.338 22.6918V47.1031C119.338 49.616 118.451 51.6068 116.086 52.6511C113.556 53.7281 111.125 53.3364 109.056 51.4762C107.775 50.334 106.822 48.8654 105.738 47.4947C102.88 43.8722 99.8248 40.3802 97.3939 36.4313C97.3939 36.3987 97.3611 36.3987 97.2954 36.366ZM185.892 36.4313V37.1167C185.892 40.5434 185.86 43.9374 185.827 47.3642C185.827 48.3432 185.531 49.257 185.104 50.1055C184.086 52.1616 181.918 53.3364 179.52 53.1406C176.103 52.8795 174.066 50.7582 173.836 47.2989C173.836 47.1031 173.804 46.9073 173.804 46.7115C173.804 38.161 173.771 29.6105 173.804 21.0601C173.804 18.8735 174.855 17.2091 176.826 16.2627C179.06 15.2183 181.228 15.3815 183.33 16.7195C183.954 17.1112 184.48 17.6333 184.907 18.1881C188.225 22.6266 191.641 26.9671 194.795 31.536C195.156 32.0582 195.485 32.5803 195.912 33.2657V32.4172V22.1044C195.912 20.4726 196.273 18.9061 197.357 17.6007C198.967 15.6752 201.135 15.3489 203.434 15.7731C205.603 16.1974 206.949 17.6333 207.574 19.6894C207.869 20.6684 207.935 21.6475 207.935 22.6592V47.1357C207.935 49.616 207.015 51.6068 204.683 52.6185C202.252 53.6628 199.92 53.3364 197.85 51.6394C197.521 51.3783 197.193 51.052 196.93 50.7256C193.645 46.5156 190.13 42.4689 187.075 38.0957C186.681 37.5409 186.32 36.9861 185.958 36.4313C185.991 36.3987 185.958 36.3987 185.892 36.4313ZM23.8751 16.3606C26.0103 16.3932 28.4413 16.1974 30.8393 16.6543C37.5079 17.8944 42.6326 21.2232 44.9649 27.7177C47.363 34.4079 46.5746 40.7718 41.8113 46.3198C38.8876 49.7465 34.9456 51.5415 30.5437 52.1616C26.4702 52.749 22.364 52.3574 18.2905 52.4226C18.0934 52.4226 17.8963 52.3574 17.6992 52.3247C14.4799 51.7699 12.2461 49.1591 12.2461 45.9282V22.8876C12.2461 19.2651 15.0384 16.4258 18.7176 16.3606C20.3273 16.3279 21.9698 16.3606 23.8751 16.3606ZM24.3021 34.4079V40.3476C24.3021 40.6413 24.2693 40.9024 24.7292 40.9024C26.0103 40.8697 27.2587 40.9676 28.5398 40.8045C31.8905 40.4128 34.1244 37.8999 34.1572 34.4406C34.1901 31.0465 31.9562 28.4356 28.6055 28.0114C27.3572 27.8482 26.1089 27.9788 24.8606 27.9135C24.4007 27.8808 24.2693 28.044 24.2693 28.5009C24.3021 30.459 24.3021 32.4498 24.3021 34.4079ZM135.533 26.8691C137.701 24.0951 139.935 21.4517 142.037 18.7103C143.253 17.1438 144.698 16.0342 146.735 15.8058C150.283 15.4468 153.699 18.7103 153.436 22.2349C153.305 23.8667 152.648 25.2374 151.63 26.4775C149.56 28.9252 147.458 31.3402 145.355 33.7552C145.06 34.1142 145.06 34.31 145.355 34.6364C147.622 37.1167 149.823 39.6622 152.057 42.1425C153.272 43.5132 153.962 45.047 153.896 46.8746C153.765 50.7909 149.79 53.826 146.144 52.749C144.895 52.39 143.877 51.6394 143.056 50.6277C140.691 47.7558 138.26 44.9165 135.96 41.9793C135.862 41.8488 135.763 41.7182 135.632 41.5551C135.402 41.6856 135.5 41.8814 135.5 42.012C135.5 43.7416 135.533 45.4387 135.467 47.1683C135.369 50.6603 132.872 53.108 129.456 53.0754C126.006 53.0754 123.444 50.6277 123.444 47.1683C123.411 38.5852 123.411 29.9695 123.444 21.3864C123.477 17.9271 126.072 15.4794 129.489 15.512C132.905 15.5447 135.369 17.9271 135.467 21.3864C135.566 23.2793 135.533 25.0742 135.533 26.8691ZM81.0673 30.9486C81.0345 33.2983 81.1659 36.2355 81.0016 39.14C80.6074 46.3525 75.1872 52.0637 67.9601 52.9774C64.7408 53.3691 61.62 53.2059 58.5978 51.9657C53.2103 49.7792 50.2538 45.6998 49.4326 40.0538C49.334 39.3359 49.3012 38.5852 49.2683 37.8346C49.2683 32.4498 49.2355 27.0976 49.2683 21.7128C49.3012 18.1229 51.8306 15.5773 55.3128 15.6099C58.8277 15.6426 61.3243 18.1881 61.3243 21.8433V37.0514C61.3243 38.7484 61.9157 40.1191 63.4925 40.9024C65.9562 42.1425 68.7157 40.4128 68.9785 37.5735C69.0113 37.2146 69.0113 36.8229 69.0113 36.4639V21.6475C69.0113 18.4166 71.2123 15.9689 74.3987 15.6426C77.5524 15.3162 80.2461 17.2417 80.9031 20.3421C81.0016 20.8316 81.0345 21.3211 81.0345 21.8433C81.0673 24.6826 81.0673 27.5219 81.0673 30.9486ZM157.674 34.3426C157.674 30.0674 157.641 25.8248 157.674 21.5496C157.707 19.0693 158.758 17.1438 161.091 16.1647C163.489 15.1531 165.821 15.4141 167.825 17.1764C169.04 18.2208 169.664 19.6567 169.664 21.2232C169.697 30.0021 169.73 38.7484 169.664 47.5273C169.632 50.8235 166.905 53.2712 163.62 53.1733C160.171 53.0754 157.707 50.693 157.674 47.3315C157.641 42.991 157.674 38.6832 157.674 34.3426Z" fill="#FE6D01"/>
<path d="M210.823 24.7431C210.789 23.1729 210.823 21.6376 211.158 20.1023C211.829 16.892 214.411 15.0776 217.597 15.601C220.649 16.0895 222.595 18.7065 222.293 21.9167C222.025 24.5687 221.32 27.1159 220.314 29.5585C219.71 30.9891 218.805 32.1406 217.329 32.664C214.914 33.5015 212.399 32.2802 211.494 29.7678C210.89 28.1627 210.856 26.4529 210.823 24.7431Z" fill="#F40290"/>
</svg>
