<svg width="25" height="24" viewBox="0 0 25 24" fill="none" xmlns="http://www.w3.org/2000/svg">
<path d="M12.6538 21.5767C18.0567 21.5767 22.4366 17.1969 22.4366 11.794C22.4366 6.39112 18.0567 2.01123 12.6538 2.01123C7.25098 2.01123 2.87109 6.39112 2.87109 11.794C2.87109 17.1969 7.25098 21.5767 12.6538 21.5767Z" stroke="white" stroke-linecap="round" stroke-linejoin="round"/>
<path d="M8.74151 2.98975H9.71979C7.81215 8.70288 7.81215 14.8856 9.71979 20.5987H8.74151" stroke="white" stroke-linecap="round" stroke-linejoin="round"/>
<path d="M15.5898 2.98975C17.4975 8.70288 17.4975 14.8856 15.5898 20.5987" stroke="white" stroke-linecap="round" stroke-linejoin="round"/>
<path d="M3.84766 15.7073V14.729C9.56079 16.6366 15.7435 16.6366 21.4566 14.729V15.7073" stroke="white" stroke-linecap="round" stroke-linejoin="round"/>
<path d="M3.84766 8.85944C9.56079 6.9518 15.7435 6.9518 21.4566 8.85944" stroke="white" stroke-linecap="round" stroke-linejoin="round"/>
</svg>
