<svg width="20" height="20" viewBox="0 0 20 20" fill="none" xmlns="http://www.w3.org/2000/svg">
<path d="M10.0006 5.99423C7.78378 5.99423 5.99472 7.7833 5.99472 10.0001C5.99472 12.2169 7.78378 14.006 10.0006 14.006C12.2174 14.006 14.0064 12.2169 14.0064 10.0001C14.0064 7.7833 12.2174 5.99423 10.0006 5.99423ZM10.0006 12.6036C8.56699 12.6036 7.39707 11.4337 7.39707 10.0001C7.39707 8.5665 8.56699 7.39658 10.0006 7.39658C11.4342 7.39658 12.6041 8.5665 12.6041 10.0001C12.6041 11.4337 11.4342 12.6036 10.0006 12.6036ZM14.1705 4.89658C13.6529 4.89658 13.235 5.31455 13.235 5.83212C13.235 6.3497 13.6529 6.76767 14.1705 6.76767C14.6881 6.76767 15.1061 6.35166 15.1061 5.83212C15.1062 5.70922 15.0821 5.5875 15.0351 5.47392C14.9882 5.36035 14.9193 5.25715 14.8324 5.17025C14.7455 5.08334 14.6423 5.01444 14.5287 4.96748C14.4151 4.92052 14.2934 4.89642 14.1705 4.89658ZM17.8092 10.0001C17.8092 8.92197 17.8189 7.85361 17.7584 6.77744C17.6978 5.52744 17.4127 4.41806 16.4986 3.504C15.5826 2.58798 14.4752 2.30478 13.2252 2.24423C12.1471 2.18369 11.0787 2.19345 10.0025 2.19345C8.92441 2.19345 7.85605 2.18369 6.77988 2.24423C5.52988 2.30478 4.4205 2.58994 3.50644 3.504C2.59042 4.42001 2.30722 5.52744 2.24667 6.77744C2.18613 7.85556 2.19589 8.92392 2.19589 10.0001C2.19589 11.0763 2.18613 12.1466 2.24667 13.2227C2.30722 14.4727 2.59238 15.5821 3.50644 16.4962C4.42246 17.4122 5.52988 17.6954 6.77988 17.756C7.858 17.8165 8.92636 17.8067 10.0025 17.8067C11.0807 17.8067 12.149 17.8165 13.2252 17.756C14.4752 17.6954 15.5846 17.4102 16.4986 16.4962C17.4146 15.5802 17.6978 14.4727 17.7584 13.2227C17.8209 12.1466 17.8092 11.0782 17.8092 10.0001ZM16.0904 14.6056C15.9478 14.961 15.776 15.2267 15.5006 15.5001C15.2252 15.7755 14.9615 15.9474 14.606 16.0899C13.5787 16.4981 11.1393 16.4063 10.0006 16.4063C8.86191 16.4063 6.4205 16.4981 5.39316 16.0919C5.03769 15.9493 4.77207 15.7774 4.49863 15.502C4.22324 15.2267 4.05136 14.963 3.90878 14.6075C3.50253 13.5782 3.59433 11.1388 3.59433 10.0001C3.59433 8.86142 3.50253 6.42001 3.90878 5.39267C4.05136 5.0372 4.22324 4.77158 4.49863 4.49814C4.77402 4.2247 5.03769 4.05087 5.39316 3.9083C6.4205 3.50205 8.86191 3.59384 10.0006 3.59384C11.1393 3.59384 13.5807 3.50205 14.608 3.9083C14.9635 4.05087 15.2291 4.22275 15.5025 4.49814C15.7779 4.77353 15.9498 5.0372 16.0924 5.39267C16.4986 6.42001 16.4068 8.86142 16.4068 10.0001C16.4068 11.1388 16.4986 13.5782 16.0904 14.6056Z" fill="#7F7F8A"/>
<path d="M10.0006 5.99423C7.78378 5.99423 5.99472 7.7833 5.99472 10.0001C5.99472 12.2169 7.78378 14.006 10.0006 14.006C12.2174 14.006 14.0064 12.2169 14.0064 10.0001C14.0064 7.7833 12.2174 5.99423 10.0006 5.99423ZM10.0006 12.6036C8.56699 12.6036 7.39707 11.4337 7.39707 10.0001C7.39707 8.5665 8.56699 7.39658 10.0006 7.39658C11.4342 7.39658 12.6041 8.5665 12.6041 10.0001C12.6041 11.4337 11.4342 12.6036 10.0006 12.6036ZM14.1705 4.89658C13.6529 4.89658 13.235 5.31455 13.235 5.83212C13.235 6.3497 13.6529 6.76767 14.1705 6.76767C14.6881 6.76767 15.1061 6.35166 15.1061 5.83212C15.1062 5.70922 15.0821 5.5875 15.0351 5.47392C14.9882 5.36035 14.9193 5.25715 14.8324 5.17025C14.7455 5.08334 14.6423 5.01444 14.5287 4.96748C14.4151 4.92052 14.2934 4.89642 14.1705 4.89658ZM17.8092 10.0001C17.8092 8.92197 17.8189 7.85361 17.7584 6.77744C17.6978 5.52744 17.4127 4.41806 16.4986 3.504C15.5826 2.58798 14.4752 2.30478 13.2252 2.24423C12.1471 2.18369 11.0787 2.19345 10.0025 2.19345C8.92441 2.19345 7.85605 2.18369 6.77988 2.24423C5.52988 2.30478 4.4205 2.58994 3.50644 3.504C2.59042 4.42001 2.30722 5.52744 2.24667 6.77744C2.18613 7.85556 2.19589 8.92392 2.19589 10.0001C2.19589 11.0763 2.18613 12.1466 2.24667 13.2227C2.30722 14.4727 2.59238 15.5821 3.50644 16.4962C4.42246 17.4122 5.52988 17.6954 6.77988 17.756C7.858 17.8165 8.92636 17.8067 10.0025 17.8067C11.0807 17.8067 12.149 17.8165 13.2252 17.756C14.4752 17.6954 15.5846 17.4102 16.4986 16.4962C17.4146 15.5802 17.6978 14.4727 17.7584 13.2227C17.8209 12.1466 17.8092 11.0782 17.8092 10.0001ZM16.0904 14.6056C15.9478 14.961 15.776 15.2267 15.5006 15.5001C15.2252 15.7755 14.9615 15.9474 14.606 16.0899C13.5787 16.4981 11.1393 16.4063 10.0006 16.4063C8.86191 16.4063 6.4205 16.4981 5.39316 16.0919C5.03769 15.9493 4.77207 15.7774 4.49863 15.502C4.22324 15.2267 4.05136 14.963 3.90878 14.6075C3.50253 13.5782 3.59433 11.1388 3.59433 10.0001C3.59433 8.86142 3.50253 6.42001 3.90878 5.39267C4.05136 5.0372 4.22324 4.77158 4.49863 4.49814C4.77402 4.2247 5.03769 4.05087 5.39316 3.9083C6.4205 3.50205 8.86191 3.59384 10.0006 3.59384C11.1393 3.59384 13.5807 3.50205 14.608 3.9083C14.9635 4.05087 15.2291 4.22275 15.5025 4.49814C15.7779 4.77353 15.9498 5.0372 16.0924 5.39267C16.4986 6.42001 16.4068 8.86142 16.4068 10.0001C16.4068 11.1388 16.4986 13.5782 16.0904 14.6056Z" fill="#7F7F8A"/>
</svg>
