<svg width="133" height="97" viewBox="0 0 133 97" fill="none" xmlns="http://www.w3.org/2000/svg">
<g clip-path="url(#clip0_5828_2410)">
<path d="M29.3287 2.97545C36.5501 -1.69162 57.3008 -0.964282 64.6918 6.58457C60.8623 3.69727 41.9279 -1.28387 28.7871 3.79645" fill="#8DC750"/>
<path d="M64.5938 6.16592C67.3674 2.14905 88.1947 -2.84862 101.248 1.98925C84.6113 -1.81823 69.3971 5.62042 64.5938 6.16592Z" fill="#8DC750"/>
<path d="M43 44.7752C41.9059 41.9706 40.8992 38.7141 38.2787 29.5342C35.1112 18.3763 29.2903 6.14932 28.8745 3.86263C27.742 11.0258 33.7106 19.0871 36.6539 29.975C38.7328 37.6892 40.1552 45.508 42.9344 46.6707H43.011L43.1423 46.7037C43.3173 46.7423 43.4924 46.7754 43.6893 46.8029C44.5975 46.9186 45.5166 46.9186 46.4247 46.8029C58.3565 44.946 74.9931 43.4528 86.3614 46.869C87.8166 40.1357 99.9125 4.84894 101.231 2.01123C94.7098 12.3206 88.1011 33.2425 85.9128 46.004C76.4429 42.8577 53.7774 42.7695 43.0055 44.7862" fill="#8DC750"/>
<path d="M66.6617 11.8081C68.4178 11.6428 70.0973 12.596 70.8687 14.1939C71.0657 14.6292 72.9203 15.296 72.8437 16.3484C72.789 17.1914 70.0809 18.3871 68.5929 21.6161C68.4616 21.8806 68.1771 22.1285 68.095 23.8201C67.7887 25.0544 67.3838 26.2556 66.8751 27.4182C65.3104 30.4047 65.6168 32.7851 65.0916 33.5289C64.1889 34.8073 63.4504 34.5097 63.2644 34.2397C62.8814 33.6887 62.2577 33.7438 62.0115 33.1983C61.9623 32.6859 61.9514 32.1734 61.9678 31.661C61.9678 31.4681 62.0006 31.2643 62.017 31.0659C62.0334 30.8675 62.017 30.6637 62.017 30.4598C62.0772 29.9088 62.1921 29.3578 62.2523 28.8068V27.1537C62.2523 26.9829 62.2523 26.8397 62.203 26.6909C62.1538 26.5421 62.1319 26.4264 62.0991 26.2997C62.0608 26.0903 62.0389 25.8809 61.9897 25.6715C61.9131 25.3795 61.8529 25.0874 61.8091 24.7899C61.8146 24.5805 61.842 24.3656 61.8912 24.1617C61.8912 23.7926 61.8584 23.4399 61.8584 23.0597V22.4371C61.8693 22.2938 61.8693 22.1561 61.8584 22.0128C61.8146 21.864 61.7544 21.7208 61.6778 21.5885C61.5848 21.3902 61.5575 21.1642 61.4809 20.9659L61.3386 20.7345C61.2456 20.5857 61.169 20.4314 61.0979 20.2716C60.9557 19.93 60.4633 18.8335 60.2937 18.2439C60.0858 17.5331 61.2675 17.1419 61.935 16.2657C62.6024 15.3896 62.9361 12.045 66.6015 11.8081" fill="#FFCB0B"/>
<path d="M46.3598 9.70335C47.8916 9.90722 52.5527 11.6649 54.0189 12.6017C54.2541 12.7284 54.4894 12.8717 54.7082 13.0259C55.1349 13.3566 55.5671 13.6927 55.9774 14.0508L56.6941 14.7616C56.9239 14.971 57.2083 15.1143 57.4491 15.3126L57.6788 15.5661C57.9086 15.792 58.1274 16.029 58.3299 16.2769C58.4502 16.4698 58.5651 16.6681 58.6636 16.872L58.8824 17.2026C58.959 17.3128 58.9918 17.4451 59.0684 17.5608C59.145 17.6765 59.2271 17.7977 59.3091 17.9244L59.5006 18.2771C59.5881 18.4038 59.6757 18.5305 59.7687 18.6518C59.8617 18.773 59.9109 18.9603 59.982 19.1201C60.0696 19.2358 60.1516 19.3571 60.2227 19.4838C60.3157 19.6877 60.3705 19.9026 60.447 20.123C60.5236 20.3434 60.5893 20.3985 60.6495 20.5362C60.7096 20.674 60.7753 20.9605 60.8409 21.1699L60.9832 21.528C61.0488 21.7429 61.0762 21.9744 61.1309 22.1893C61.1637 22.2995 61.1965 22.4097 61.2239 22.5254C61.2512 22.6411 61.2786 22.8064 61.3005 22.9441C61.3224 23.0819 61.4318 23.3739 61.4865 23.5943C61.5412 23.8147 61.5357 23.958 61.5631 24.1454C61.5904 24.3327 61.6944 24.5145 61.7436 24.6964C61.7929 24.8782 61.7764 24.9664 61.7983 25.0986C61.8366 25.33 61.9132 25.5449 61.9515 25.7598C61.9898 25.9747 62.0172 26.118 62.0445 26.3108C62.0719 26.5037 62.1539 26.691 62.1758 26.9059C62.1922 27.1759 62.1922 27.4459 62.1758 27.7159C62.1758 27.9308 62.0172 29.7491 61.9187 30.471C61.9187 30.471 61.8585 31.8871 61.853 32.3885C61.7655 32.7356 61.8202 33.0993 62.0007 33.4079C62.0007 33.4354 62.143 33.3638 62.1703 33.4079C62.5478 33.7219 63.1387 33.9589 63.3301 34.3005C63.352 34.328 63.3684 34.3556 63.3794 34.3886C63.5052 34.8074 62.9253 35.9094 62.701 36.2015C62.1102 36.9619 60.9449 37.7829 58.7073 38.3725C54.4565 40.279 52.9521 40.0861 52.6512 40.0255C48.9803 39.0116 46.885 35.1931 46.1957 34.3115C46.4528 34.6421 45.2438 33.7605 45.2875 32.2122C45.3313 30.6638 46.5567 29.8097 46.9288 29.5232C47.8424 28.0961 44.4724 27.6939 40.8617 23.655C39.9262 22.608 39.5487 20.2828 42.7655 19.3571C43.0281 18.5361 37.5956 17.0318 36.2006 13.0866C35.0244 9.86865 37.4971 7.8795 46.3598 9.70335Z" fill="#49C8F5"/>
<path d="M95.7005 4.57348C96.2804 5.6755 94.2672 8.90443 86.9144 16.9216C86.9527 16.8665 84.6003 20.0789 83.9329 21.0763C83.2654 22.0736 83.3092 23.8644 81.8102 26.399C82.97 24.4429 80.7161 27.9694 74.3809 33.8983C73.1117 35.0775 63.0619 46.1473 63.8114 38.929C63.8497 38.5819 64.3584 38.0419 64.5499 37.1162C64.7414 36.1905 63.8114 35.6615 64.9329 33.7385C65.4799 33.1214 65.5347 31.2039 65.7371 30.3057C66.3717 27.4955 68.002 25.0435 69.5666 22.6301C70.059 21.8973 70.6115 21.1975 71.2078 20.5473C77.4719 13.6431 78.763 13.858 84.6878 7.87404C90.6127 1.89006 94.2234 1.92312 95.6294 4.56797" fill="#8DC750"/>
<path d="M40.9545 13.825C42.459 11.9956 45.8782 11.5493 49.4178 11.8248C53.3896 12.1389 57.0769 13.7533 59.2652 16.1006C63.5762 20.6961 63.2917 27.6994 62.5476 32.5318C65.4855 27.198 63.4667 21.5446 69.0141 17.5388C69.3314 17.3129 70.0535 18.0402 69.8347 18.2716C66.6945 21.6989 66.9133 28.7133 63.0455 33.9424C62.9634 34.0581 62.0826 33.6944 62.2632 33.3914C62.0881 33.8652 61.7161 33.5897 61.3386 33.3914C60.983 33.2205 60.797 32.8293 60.8791 32.4436C61.7872 26.1125 60.7915 19.9908 55.4903 15.8527C53.8491 14.5798 50.0196 13.3952 46.2666 13.6156C44.8442 13.6927 43.6352 13.9241 42.9842 14.6129C41.6931 15.9188 49.0841 18.0733 49.1442 20.0238C49.199 21.7816 46.4636 22.0295 46.283 22.6411C46.0368 23.4952 52.9847 25.2419 52.9136 27.0878C52.8151 28.6582 50.4901 29.0825 50.4299 29.7602C50.2931 31.1763 52.9519 31.6336 54.5986 36.0638C54.6369 36.174 54.5986 36.7746 54.3251 36.8903C54.0515 37.006 53.3294 36.4109 53.0176 36.0197C50.222 32.4657 47.9243 32.653 48.0063 31.1212C48.0993 29.2973 50.2439 28.4102 51.0043 27.49C49.757 25.4788 43.6571 24.5366 44.2315 22.1948C44.6801 20.371 46.7207 20.4646 46.8411 19.7593C46.9286 19.2083 45.1998 18.5196 43.5586 17.5553C41.6821 16.4863 39.8822 15.1253 40.96 13.8084" fill="#0751A0"/>
<path d="M67.843 22.2057C68.5706 21.1037 71.9406 17.2466 78.2374 12.6511C80.5352 10.965 87.2806 5.70289 90.5576 7.62592C92.5107 8.77203 85.0212 15.0591 84.0529 16.0784C83.5058 16.6735 82.8329 19.2908 81.4816 21.1477C79.9224 23.3187 70.0532 34.4381 66.1197 37.2979C65.693 37.6009 65.1732 37.937 64.9544 37.7938C64.7903 37.7056 64.6426 37.5844 64.5277 37.4356C64.3089 37.1932 64.845 36.3942 65.1459 35.9644C66.2017 34.3996 77.8381 23.5722 78.2757 21.9522C78.7134 20.3322 79.7966 17.7204 85.5519 12.7338C88.0192 10.6014 89.8628 8.93182 89.0422 8.51305C88.6647 8.3202 87.5159 8.51305 85.9403 9.42222C83.1119 11.0753 79.2495 14.1609 78.3852 14.745C77.0503 15.6597 71.6014 21.1532 69.9875 22.5528C69.1505 23.2691 68.4338 23.6548 68.029 23.5942C67.9196 23.5942 67.9196 23.4124 67.843 23.3573C67.7664 23.3022 67.5585 23.3573 67.5202 23.2195C67.5311 22.8559 67.646 22.5032 67.8594 22.2057" fill="#0751A0"/>
<path d="M66.4917 15.8086C67.7008 15.8086 67.5312 17.3569 66.3714 17.3569C65.4468 17.3569 65.5453 15.8086 66.4917 15.8086Z" fill="#0751A0"/>
<path d="M63.871 17.3128C63.964 16.9767 64.7901 15.0757 66.3 15.1088C67.81 15.1419 67.9413 15.7039 68.2148 16.0786C68.8166 16.7233 69.6208 17.131 70.4906 17.2357C70.9064 17.2357 70.8189 16.8169 70.6274 16.4588C70.4414 16.1116 70.1897 15.8031 69.8888 15.5496C69.6919 15.3898 69.5715 13.5715 67.2902 13.4227C65.9991 13.3401 63.8491 14.2217 63.6084 17.1641C63.6084 17.4561 63.6522 17.7151 63.871 17.2908" fill="#0751A0"/>
<path d="M113.54 53.4535H113.382L110.646 67.2729L104.514 53.3598C103.939 53.4315 103.343 53.4756 102.769 53.5141C102.194 53.5527 101.609 53.5637 101.034 53.5637C100.46 53.5637 99.9073 53.5637 99.393 53.5141C98.8788 53.4645 98.3262 53.4315 97.801 53.3598L97.6424 54.1423C98.2442 54.2249 98.5998 54.3957 98.7365 54.6657C98.8897 55.1947 98.8897 55.7567 98.7365 56.2857L96.499 67.3335L95.4048 72.8436H94.9781C94.8961 72.8491 94.8195 72.8491 94.7374 72.8436C94.3545 72.8491 93.977 72.7058 93.698 72.4414C93.3752 71.9675 93.1728 71.422 93.1016 70.8544L90.224 55.7127L90.0599 54.7043C90.0052 54.3296 89.9505 53.8778 89.9012 53.3654C89.283 53.437 88.6977 53.4811 88.1232 53.5196C87.5488 53.5582 87.0291 53.5692 86.5148 53.5692C86.0006 53.5692 85.3879 53.5692 84.8736 53.5196C84.3593 53.47 83.7794 53.437 83.2816 53.3654L83.1175 54.0982C83.4457 54.0927 83.774 54.1643 84.0694 54.3131C84.2554 54.4233 84.3429 54.6547 84.2718 54.8641C84.2445 54.9964 84.2007 55.1231 84.135 55.2443C84.042 55.4372 83.9326 55.619 83.8177 55.7953C83.8177 55.7953 74.6925 70.0224 74.8293 69.7965C74.8293 69.7965 76.4978 69.8406 77.5045 69.8406C78.5111 69.8406 78.1445 69.7469 78.1445 69.7469L80.2891 66.4849L87.7676 66.529L88.8071 73.582C88.8509 73.5764 88.8946 73.5764 88.9384 73.582C90.1365 73.5103 91.3127 73.4938 92.5108 73.4938C93.7089 73.4938 95.0711 73.5213 96.4224 73.4938C97.6588 73.4387 98.9007 73.4718 100.137 73.5985L100.274 72.8656C99.4477 72.8161 98.9225 72.6232 98.6873 72.3146C98.4521 72.0061 98.4521 71.3448 98.6381 70.4026L101.313 57.2114L108.775 73.604H112.145L115.658 56.1535H121.911L118.442 73.5709H118.552C119.914 73.4332 121.282 73.3946 122.649 73.4662C123.366 73.5269 124.143 73.5158 124.985 73.6095L125.144 72.9207C124.263 72.8767 123.7 72.6838 123.459 72.3201C123.218 71.9565 123.218 71.141 123.459 69.8847L126.244 56.1535H128.7C129.882 56.1535 130.675 56.3959 131.102 56.8643C131.528 57.3326 131.698 58.2198 131.649 59.5036H132.316C132.36 58.6 132.437 57.6577 132.546 56.6659C132.655 55.6741 132.803 54.6106 133 53.4425H113.584M83.0628 64.5729C81.9522 64.8099 80.962 65.4325 80.2617 66.3306L86.4054 56.4731L87.4996 64.4297C87.4996 64.4297 84.2554 64.2919 83.0409 64.5729M80.6228 69.1353C80.4915 69.7579 80.0921 70.2869 79.5286 70.5734C78.6588 70.9702 78.0844 70.8379 77.0285 70.8379H70.573L73.6038 55.9165C73.6749 55.3986 73.9102 54.9192 74.2767 54.5555C74.698 54.2525 75.2122 54.1092 75.7265 54.1423L75.8796 53.3598C75.07 53.448 74.326 53.5086 73.653 53.5582C72.9801 53.6078 72.3893 53.6188 71.8696 53.6188C71.3498 53.6188 70.6605 53.6188 70.0587 53.5582C69.9165 53.5582 69.7907 53.5307 69.6539 53.5252L66.18 71.0363C66.1198 71.5267 65.901 71.9785 65.5672 72.3367C65.2007 72.6397 64.7466 72.8105 64.2707 72.8216L64.1065 73.604H80.0046C80.2836 72.1052 80.6994 70.6396 81.2519 69.2235L80.6228 69.1353ZM63.357 53.5692C62.7224 53.6078 62.1042 53.6298 61.5134 53.6298C60.9226 53.6298 60.3044 53.6298 59.6916 53.5692C59.5658 53.5692 59.4236 53.5417 59.2923 53.5362L55.7964 71.1355C55.7363 71.6259 55.5174 72.0832 55.1837 72.4469C54.8172 72.7499 54.3576 72.9207 53.8817 72.9318L53.7285 73.7087C54.4889 73.615 55.1837 73.5379 55.7964 73.4773C56.4092 73.4167 56.9836 73.4001 57.5088 73.4001C58.034 73.4001 58.6029 73.4001 59.15 73.4773C59.6971 73.5544 60.4247 73.615 61.1633 73.7087L61.3164 72.9318C60.9007 72.9318 60.5013 72.7609 60.2223 72.4469C60.0253 72.0391 59.998 71.5653 60.1402 71.1355L63.2093 55.922C63.2805 55.4372 63.4938 54.9853 63.8275 54.6272C64.1941 54.3186 64.6536 54.1478 65.1296 54.1423L65.2882 53.3598C64.6208 53.448 63.9698 53.5086 63.3406 53.5582M53.3346 58.049C53.6464 56.5061 53.258 55.3545 52.1693 54.5721C51.0806 53.7896 49.3245 53.4149 46.8572 53.4149H39.1379L35.6202 71.0198C35.5546 71.5157 35.3357 71.973 34.9965 72.3367C34.63 72.6397 34.1759 72.8105 33.7 72.8216L33.5413 73.604H42.5736C45.4512 73.604 47.7489 73.1026 49.4832 72.1163C51.1244 71.2347 52.2842 69.6532 52.6398 67.8129C52.9297 66.3747 52.6726 65.2176 51.8739 64.3415C51.0752 63.4654 49.8005 62.953 48.0443 62.8042C49.3628 62.5562 50.5883 61.9611 51.6058 61.085C52.5085 60.2971 53.1158 59.2281 53.3401 58.049M48.0443 67.5704C47.8583 68.5898 47.2675 69.4879 46.4031 70.0555C45.3855 70.6836 44.2039 70.9922 43.0112 70.9316H40.0023L41.3262 64.3966H44.1437C45.6208 64.3966 46.6985 64.6666 47.3605 65.2121C48.0443 65.7851 48.3124 66.7164 48.0443 67.5704ZM48.5094 58.87C48.3343 59.8067 47.7817 60.6277 46.983 61.1346C46.0256 61.7077 44.926 61.9832 43.8154 61.9391H41.8077L43.0112 55.9716H45.1995C46.4852 55.9716 47.3879 56.2141 47.9678 56.71C48.5422 57.2665 48.7555 58.1041 48.5148 58.87M34.8379 53.5252L34.5042 53.5582C33.8696 53.5968 33.2459 53.6188 32.6441 53.6188C32.0423 53.6188 31.4296 53.6188 30.8059 53.5582C30.1823 53.4976 29.5695 53.448 28.9404 53.3598L28.7435 54.1368C29.1592 54.1202 29.5641 54.2966 29.8376 54.6162C30.0346 55.0184 30.0674 55.4868 29.9306 55.9165L28.0158 65.3829C27.5289 67.7908 26.9217 69.3832 26.1941 70.1492C25.4719 70.9151 24.3778 71.3008 22.9116 71.3008C21.4454 71.3008 20.499 70.9151 20.0832 70.1436C19.6674 69.3722 19.6948 67.7853 20.1817 65.3829L22.5615 53.5252L22.2278 53.5582C21.5931 53.5968 20.9749 53.6188 20.3841 53.6188C19.7933 53.6188 19.1641 53.6188 18.5623 53.5582C17.9606 53.4976 17.3314 53.448 16.7077 53.3598L16.5491 54.1423C16.9649 54.1313 17.3697 54.3076 17.6432 54.6272C17.8402 55.0294 17.873 55.4923 17.7417 55.9165L15.8543 65.2011C15.1759 68.5622 15.3072 70.882 16.3084 72.1769C17.3095 73.4718 19.3009 74.1275 22.3262 74.1275C25.3516 74.1275 27.6329 73.4773 29.1373 72.1769C30.6418 70.8765 31.736 68.5622 32.4198 65.2011L34.8379 53.5252ZM12.6922 53.4535C12.0576 53.5141 11.4449 53.5472 10.8431 53.5472C10.3343 53.5472 9.74892 53.5141 9.10884 53.4535L8.72589 53.4149L4.12496 75.9348C3.36453 79.6816 2.71898 82.2549 2.18831 83.2963C1.75065 84.255 0.968327 85.0154 0 85.4177L0.235243 87.0156C2.42355 86.6685 4.37662 85.4397 5.64584 83.6104C6.87676 81.803 7.97092 78.3868 9.04866 73.064L12.3585 56.721C12.4515 56.0763 12.6977 55.4592 13.0752 54.9302C13.4143 54.539 13.8958 54.2966 14.41 54.269L14.6234 53.167C13.9559 53.2827 13.3049 53.3819 12.6703 53.437" fill="#0751A0"/>
<path d="M12.0852 80.5303L11.9539 81.175C12.2876 81.153 12.6104 81.2907 12.8347 81.5387C12.9988 81.8583 13.0262 82.2275 12.9113 82.5691L10.4604 94.6417C10.4057 95.033 10.2361 95.3966 9.96801 95.6831C9.67806 95.9256 9.30605 96.0633 8.92856 96.0633L8.80273 96.697C9.34981 96.6254 9.85859 96.5648 10.3564 96.5262C10.8543 96.4876 11.3466 96.4546 11.8226 96.4546C12.2986 96.4546 12.6979 96.4821 13.2176 96.5262C13.7374 96.5703 14.3118 96.6254 14.9355 96.697L15.0668 96.0633C14.6948 96.1129 14.3173 95.9917 14.0437 95.7272C13.8523 95.3911 13.814 94.9889 13.9453 94.6252L14.93 89.7543H17.7529C18.0648 89.7432 18.3711 89.7763 18.672 89.859C18.869 89.9141 19.0331 90.0628 19.1042 90.2557C19.1699 90.5202 19.1699 90.7957 19.1042 91.0602H19.5911C19.6568 90.5918 19.7279 90.162 19.788 89.7708C19.8482 89.3796 19.9084 89.0159 19.9741 88.7018C20.0397 88.3878 20.1108 88.0572 20.2148 87.6549C20.3187 87.2527 20.4281 86.8064 20.554 86.3215H20.0889C20.0288 86.608 19.9029 86.878 19.7279 87.1149C19.5802 87.3023 19.3723 87.44 19.1425 87.5006C18.8252 87.5723 18.4969 87.6053 18.1742 87.5943H15.3731L16.3688 82.6738H20.8494C21.2159 82.6738 21.5825 82.6903 21.9435 82.7399C22.1897 82.7674 22.425 82.8556 22.6274 82.9989C22.7915 83.1421 22.9009 83.335 22.9392 83.5499C22.9885 83.8695 22.9885 84.2001 22.9392 84.5197H23.4863C23.5519 83.886 23.6449 83.2248 23.7544 82.5526C23.8638 81.8803 23.9896 81.1971 24.1373 80.4918M22.0803 90.0628C21.9381 90.7296 21.8888 91.4128 21.9271 92.0906C21.9599 92.7022 22.0858 93.3083 22.2991 93.8813C22.507 94.4213 22.8024 94.9228 23.1745 95.3636C23.6121 95.8815 24.1647 96.2893 24.7829 96.5593C25.4503 96.8293 26.167 96.9615 26.8836 96.9505C27.7973 96.9505 28.7054 96.7907 29.5589 96.4711C30.3904 96.1625 31.1618 95.7107 31.8347 95.1321C32.5131 94.5646 33.093 93.8868 33.547 93.1265C34.0175 92.3275 34.3512 91.4514 34.5318 90.5367C34.674 89.881 34.7287 89.2088 34.685 88.5365C34.6467 87.9249 34.5208 87.3298 34.3075 86.7568C34.1051 86.2223 33.8042 85.7319 33.4322 85.3021C32.9836 84.7841 32.4201 84.3819 31.7909 84.1174C31.129 83.8529 30.4178 83.7207 29.7066 83.7317C28.7984 83.7317 27.9012 83.8805 27.0478 84.1946C25.3737 84.8117 23.9677 85.9909 23.065 87.5392C22.5891 88.3271 22.2554 89.1977 22.0748 90.1014M29.061 85.495C29.5479 85.4839 30.0239 85.6272 30.4287 85.8917C30.839 86.1892 31.1563 86.597 31.3533 87.0653C31.5885 87.6329 31.7143 88.239 31.7362 88.8561C31.7636 89.6441 31.6979 90.432 31.5338 91.2034C31.3916 91.9693 31.1071 92.7022 30.7022 93.3634C30.3576 93.9254 29.8871 94.3993 29.3291 94.7409C28.7984 95.066 28.1912 95.2313 27.573 95.2313C27.0861 95.2313 26.6101 95.0936 26.2053 94.8291C25.795 94.537 25.4777 94.1348 25.2807 93.6665C25.0345 93.0879 24.9032 92.4707 24.8868 91.8426C24.8595 91.0381 24.9251 90.2392 25.0947 89.4512C25.2369 88.6963 25.5159 87.9745 25.9153 87.3188C26.249 86.7623 26.7195 86.2939 27.2775 85.9633C27.8246 85.6492 28.4428 85.4894 29.072 85.5005M35.9378 90.1069C35.801 90.7736 35.7463 91.4569 35.7846 92.1346C35.8174 92.7463 35.9432 93.3524 36.1621 93.9254C36.3645 94.4654 36.6544 94.9668 37.0265 95.4076C37.4751 95.9256 38.0386 96.3333 38.6677 96.6033C39.3351 96.8733 40.0518 97.0056 40.7685 96.9946C41.6821 96.9946 42.5902 96.8348 43.4491 96.5152C44.2752 96.2066 45.0357 95.7493 45.7031 95.1707C46.3815 94.5921 46.9559 93.9034 47.399 93.1265C47.8695 92.3275 48.2033 91.4514 48.3838 90.5367C48.526 89.881 48.5807 89.2088 48.537 88.5365C48.5041 87.9249 48.3783 87.3243 48.1595 86.7568C47.9571 86.2223 47.6562 85.7319 47.2842 85.3021C46.8356 84.7841 46.2721 84.3819 45.6429 84.1174C44.981 83.8529 44.2698 83.7207 43.5586 83.7317C42.6504 83.7317 41.7532 83.8805 40.8998 84.1946C39.2421 84.8172 37.8471 86.0019 36.9499 87.5392C36.4739 88.3271 36.1402 89.1977 35.9597 90.1014M42.9458 85.495C43.4327 85.4839 43.9087 85.6217 44.3135 85.8917C44.7129 86.1892 45.0193 86.597 45.1998 87.0653C45.4405 87.6329 45.5773 88.239 45.5937 88.8561C45.6156 89.6441 45.5499 90.432 45.3858 91.2034C45.2381 91.9638 44.9591 92.6967 44.5597 93.3634C44.2151 93.9254 43.7446 94.3993 43.1811 94.7409C42.6559 95.0605 42.0486 95.2313 41.4304 95.2313C40.9435 95.2313 40.4621 95.0991 40.0518 94.8291C39.647 94.526 39.3297 94.1183 39.1382 93.6444C38.892 93.0658 38.7552 92.4487 38.7388 91.8206C38.706 91.0161 38.7771 90.2116 38.9467 89.4292C39.0889 88.6743 39.368 87.9525 39.7673 87.2968C40.1065 86.7457 40.577 86.2884 41.1295 85.9633C41.6766 85.6492 42.2948 85.4894 42.924 85.5005M50.8019 83.908L50.6979 84.4095C50.966 84.3929 51.2231 84.5031 51.3982 84.707C51.524 84.955 51.5459 85.2525 51.4584 85.517L49.5326 95.0164C49.4889 95.3195 49.3521 95.606 49.1387 95.8264C48.909 96.0193 48.619 96.1184 48.3236 96.1184L48.2197 96.6254H52.5525C54.1226 96.6584 55.6873 96.3995 57.1644 95.8595C58.3844 95.4076 59.4676 94.6472 60.3155 93.6554C61.1471 92.6416 61.7106 91.4349 61.9568 90.1455C62.1318 89.3575 62.1592 88.5476 62.0334 87.7486C61.924 87.0598 61.6614 86.4041 61.262 85.8366C60.8681 85.2911 60.3484 84.8503 59.7411 84.5637C59.1448 84.2993 58.5102 84.1229 57.8592 84.0458C57.0276 83.9411 56.1906 83.897 55.3535 83.908H50.8019ZM54.1992 85.5611H54.8721C55.7857 85.5225 56.6939 85.7098 57.5145 86.1121C58.1655 86.4647 58.6579 87.0543 58.8877 87.7651C59.1393 88.6082 59.1557 89.5063 58.9424 90.3604C58.729 91.7104 58.0288 92.9336 56.9784 93.7932C55.8131 94.6197 54.4071 95.033 52.9847 94.9668H52.2954L54.1992 85.5611ZM62.8978 80.4697L62.7774 81.0869C63.0564 81.0869 63.3299 81.164 63.5707 81.3128C63.7512 81.445 63.8825 81.6434 63.9372 81.8638C64.0138 82.1779 64.0576 82.503 64.074 82.8281L65.2174 96.6033H68.1661L72.5099 87.7321L73.057 96.6254H75.9127L83.0849 82.2991C83.1943 82.0622 83.3366 81.8417 83.5062 81.6434C83.6429 81.4781 83.818 81.3458 84.0149 81.2577C84.2392 81.1695 84.4745 81.1199 84.7152 81.1199L84.841 80.5028C84.294 80.5524 83.8344 80.5909 83.4132 80.6075C82.9919 80.624 82.6363 80.6075 82.319 80.6075H81.2522C80.8419 80.6075 80.3988 80.5524 79.9119 80.5028L79.786 81.1199C80.1033 81.1309 80.4097 81.2301 80.6723 81.4009C80.8419 81.5607 80.9021 81.8087 80.82 82.0291C80.7872 82.1558 80.7489 82.3046 80.6832 82.4864C80.6176 82.6683 80.5301 82.8887 80.4206 83.1366L76.044 92.5038L75.5352 83.1642C75.5243 83.0154 75.5243 82.8721 75.5352 82.7234C75.5352 82.5746 75.579 82.4148 75.6118 82.255C75.6501 82.0291 75.7377 81.8197 75.8689 81.6324C76.0167 81.4671 76.2027 81.3458 76.416 81.2852C76.7005 81.1971 76.9959 81.142 77.2968 81.1254L77.4227 80.5083C76.8756 80.5744 76.2902 80.6185 75.7048 80.6461C75.1195 80.6736 74.5396 80.6846 73.9542 80.6846C73.3688 80.6846 72.9366 80.6846 72.4224 80.6461C71.9081 80.6075 71.3939 80.5744 70.8687 80.5083L70.7428 81.1254C71.1203 81.1254 71.4923 81.2411 71.7987 81.4671C72.0394 81.7095 72.1762 82.0401 72.1707 82.3817L72.3567 84.5858L68.3083 92.5754L67.5862 82.795C67.5753 82.6132 67.5753 82.4258 67.5862 82.244C67.5862 82.0621 67.6245 81.8913 67.6519 81.726C67.7011 81.5387 67.8214 81.3844 67.991 81.2907C68.2208 81.164 68.4725 81.0979 68.7351 81.0924L68.8554 80.4752C68.3083 80.5414 67.7941 80.5854 67.3181 80.613C66.8422 80.6405 66.3772 80.6516 65.9504 80.6516C65.5237 80.6516 64.9985 80.6516 64.4952 80.613C63.9919 80.5744 63.4612 80.5469 62.9142 80.4752M81.8923 90.0959C81.761 90.7626 81.7063 91.4459 81.7446 92.1236C81.7774 92.7352 81.9032 93.3414 82.1166 93.9144C82.319 94.4544 82.6144 94.9558 82.9864 95.3966C83.4296 95.9146 83.9766 96.3223 84.6003 96.5923C85.2677 96.8623 85.979 96.9946 86.6956 96.9835C87.6092 96.9835 88.5174 96.8237 89.3763 96.5042C90.2079 96.1956 90.9792 95.7438 91.6521 95.1652C92.3305 94.5866 92.9104 93.8924 93.359 93.1209C93.8295 92.322 94.1632 91.4459 94.3438 90.5312C94.4805 89.8755 94.5352 89.2033 94.4915 88.531C94.4586 87.9194 94.3328 87.3188 94.114 86.7513C93.9116 86.2168 93.6161 85.7264 93.2441 85.2966C92.7901 84.7841 92.232 84.3764 91.6029 84.1119C90.9409 83.8474 90.2297 83.7152 89.5185 83.7262C88.6104 83.7262 87.7077 83.8805 86.8543 84.1891C85.1857 84.8117 83.7797 85.9909 82.8715 87.5337C82.4011 88.3271 82.0673 89.1922 81.8813 90.0959M88.873 85.4894C89.3599 85.4784 89.8358 85.6217 90.2407 85.8862C90.6455 86.1782 90.9574 86.5749 91.1488 87.0378C91.3895 87.6053 91.5208 88.2114 91.5373 88.8286C91.5701 89.6165 91.499 90.4045 91.3294 91.1759C91.1817 91.9418 90.9026 92.6691 90.5033 93.3358C90.1586 93.8979 89.6881 94.3717 89.1301 94.7134C88.5994 95.033 87.9922 95.2038 87.374 95.2038C86.8871 95.2038 86.4111 95.066 86.0008 94.8015C85.596 94.504 85.2787 94.1017 85.0817 93.6389C84.8356 93.0603 84.7043 92.4432 84.6878 91.8151C84.6605 91.0106 84.7261 90.2116 84.8957 89.4237C85.038 88.6688 85.3115 87.947 85.7109 87.2912C86.0501 86.7402 86.5206 86.2774 87.0786 85.9523C87.6256 85.6382 88.2438 85.4784 88.873 85.4894ZM97.2816 83.897L97.1721 84.3984C97.4402 84.3819 97.6973 84.4921 97.8779 84.696C98.0037 84.9439 98.0256 85.2415 97.9381 85.506L95.9959 95.0495C95.9522 95.3581 95.8154 95.6446 95.6075 95.876C95.3777 96.0689 95.0878 96.1735 94.7869 96.1791L94.683 96.6805C95.1042 96.6199 95.52 96.5758 95.9193 96.5427C96.3187 96.5097 96.7017 96.4876 97.0737 96.4876C97.4457 96.4876 97.8177 96.4876 98.2007 96.5427C98.5836 96.5978 98.9884 96.6199 99.3988 96.6805L99.5027 96.1791C99.2346 96.1956 98.9775 96.0799 98.8079 95.876C98.6766 95.6225 98.6602 95.3195 98.7532 95.0495L100.668 85.6052H101.959C102.462 85.5886 102.96 85.6768 103.42 85.8752C103.764 86.0184 104.043 86.2939 104.191 86.6355C104.339 87.0157 104.361 87.429 104.257 87.8202C104.158 88.3437 103.912 88.8286 103.557 89.2198C103.185 89.6165 102.725 89.9251 102.216 90.1124C101.647 90.3273 101.045 90.432 100.438 90.421H100.225C100.148 90.421 100.072 90.443 100.001 90.4761C99.9513 90.5092 99.913 90.5587 99.9021 90.6194C99.9075 90.8287 99.9787 91.0326 100.094 91.2089C100.247 91.49 100.455 91.8757 100.723 92.3605C100.991 92.8454 101.27 93.4626 101.582 94.1568C101.943 94.9834 102.26 95.8209 102.539 96.6805L103.704 96.5593C104.038 96.5262 104.328 96.5042 104.558 96.5042C104.787 96.5042 104.952 96.5042 105.269 96.5537C105.586 96.6033 105.986 96.6199 106.467 96.6805L106.565 96.1791H106.472C106.226 96.1846 105.986 96.1019 105.8 95.9421C105.575 95.7548 105.395 95.5289 105.252 95.2754C105.088 94.9889 104.919 94.6252 104.733 94.2064C104.547 93.7877 104.35 93.3028 104.104 92.7683C103.857 92.2338 103.557 91.6332 103.223 90.9885C103.907 90.8343 104.558 90.5753 105.159 90.2171C105.69 89.8975 106.15 89.4788 106.522 88.9829C106.866 88.509 107.107 87.969 107.227 87.3959C107.413 86.7237 107.353 86.0129 107.063 85.3792C106.724 84.8282 106.183 84.437 105.559 84.2772C104.634 84.0072 103.677 83.8915 102.714 83.9246L97.2816 83.897ZM108.223 96.6805C108.65 96.6199 109.06 96.5758 109.46 96.5427C109.859 96.5097 110.242 96.4876 110.614 96.4876C110.986 96.4876 111.358 96.4876 111.746 96.5427C112.135 96.5978 112.529 96.6199 112.939 96.6805L113.043 96.1791C112.775 96.1956 112.518 96.0799 112.348 95.876C112.217 95.6225 112.195 95.3195 112.288 95.0495L114.241 85.4729C114.279 85.1588 114.411 84.8668 114.629 84.6409C114.859 84.4535 115.149 84.3544 115.445 84.3488L115.548 83.8585C114.75 83.9742 113.946 84.0293 113.141 84.0348C112.753 84.0348 112.37 84.0182 111.992 83.9852C111.61 83.9852 111.221 83.9136 110.827 83.8585L110.729 84.3488C110.991 84.3323 111.248 84.4425 111.424 84.6409C111.549 84.8999 111.571 85.1974 111.484 85.4729L109.547 95.055C109.509 95.3636 109.377 95.6556 109.164 95.8815C108.934 96.0744 108.644 96.1791 108.349 96.1846L108.223 96.6805ZM116.506 96.6805C116.883 96.6199 117.217 96.5758 117.518 96.5537C117.775 96.5262 118.038 96.5042 118.295 96.5042C118.65 96.5042 118.995 96.5042 119.334 96.5593C119.673 96.6144 120.013 96.6309 120.352 96.6805L120.45 96.1791C120.264 96.1791 120.078 96.1405 119.903 96.0744C119.75 96.0138 119.608 95.9201 119.498 95.7934C119.373 95.6391 119.269 95.4683 119.197 95.2809C118.65 94.0962 118.174 93.0107 117.715 92.0355C117.299 91.1538 116.84 90.2998 116.331 89.4733L120.538 85.1588C120.768 84.9164 121.036 84.718 121.337 84.5693C121.599 84.4425 121.878 84.3709 122.168 84.3488L122.272 83.8585C121.758 83.908 121.304 83.9466 120.921 83.9742C120.538 84.0017 120.21 84.0127 119.942 84.0127C119.673 84.0127 119.318 84.0127 118.968 83.9742C118.618 83.9356 118.235 83.908 117.841 83.8585L117.737 84.3488C117.895 84.3544 118.054 84.4039 118.191 84.4921C118.284 84.5582 118.322 84.6795 118.284 84.7897C118.262 84.9054 118.218 85.0211 118.158 85.1258C118.087 85.247 118.005 85.3572 117.901 85.4509L113.36 90.0959C113.885 90.8783 114.345 91.7104 114.733 92.5699C115.28 93.672 115.827 95.0385 116.528 96.6805M132.973 84.4866C132.409 84.2276 131.813 84.0458 131.2 83.9356C130.478 83.8033 129.745 83.7372 129.012 83.7427C128.257 83.7372 127.508 83.8309 126.775 84.0182C126.145 84.1891 125.549 84.459 125.002 84.8117C124.515 85.1258 124.094 85.5335 123.76 86.0074C123.437 86.4592 123.213 86.9772 123.104 87.5227C123.016 87.9414 123.016 88.3712 123.104 88.79C123.191 89.1647 123.383 89.5063 123.651 89.7763C123.952 90.0959 124.307 90.3659 124.701 90.5643C125.204 90.8232 125.724 91.0491 126.26 91.231C126.764 91.3963 127.207 91.5561 127.579 91.6993C127.907 91.8095 128.219 91.9528 128.514 92.1346C128.733 92.2614 128.908 92.4542 129.018 92.6857C129.105 92.9501 129.121 93.2311 129.056 93.5011C128.968 93.8593 128.777 94.1789 128.509 94.4268C128.202 94.7134 127.841 94.9338 127.442 95.066C126.95 95.2258 126.435 95.303 125.921 95.303C125.292 95.314 124.668 95.1817 124.099 94.9172C123.612 94.6803 123.213 94.2946 122.956 93.8152C122.682 93.2862 122.567 92.6912 122.617 92.1016H122.234C122.141 92.6526 122.07 93.0824 122.009 93.4185C121.949 93.7546 121.911 93.9695 121.878 94.1128L121.698 95.0054C121.627 95.325 121.55 95.6887 121.462 96.0744C122.102 96.3609 122.775 96.5758 123.465 96.7135C124.198 96.8623 124.942 96.9339 125.686 96.9339C126.501 96.9339 127.311 96.8293 128.093 96.6199C128.771 96.4325 129.411 96.1405 130.002 95.7548C130.522 95.4297 130.976 95.0054 131.337 94.504C131.676 94.0632 131.906 93.5452 132.016 92.9997C132.147 92.4708 132.109 91.9142 131.917 91.4073C131.682 90.9279 131.321 90.5257 130.872 90.2447C130.259 89.8645 129.603 89.5669 128.919 89.352L127.529 88.8726C127.19 88.7569 126.862 88.6082 126.55 88.4318C126.315 88.3106 126.123 88.1178 126.003 87.8808C125.899 87.6384 125.883 87.3684 125.948 87.1149C126.014 86.7623 126.184 86.4317 126.424 86.1672C126.676 85.8862 126.993 85.6713 127.349 85.5445C127.77 85.3903 128.219 85.3186 128.667 85.3241C129.253 85.3241 129.833 85.4343 130.374 85.6658C131.326 86.068 131.939 87.0157 131.923 88.0572H132.338C132.42 87.4345 132.513 86.8229 132.612 86.2278C132.71 85.6327 132.814 85.0486 132.935 84.4811" fill="#0751A0"/>
</g>
<defs>
<clipPath id="clip0_5828_2410">
<rect width="133" height="97" fill="white"/>
</clipPath>
</defs>
</svg>
