<svg width="20" height="20" viewBox="0 0 20 20" fill="none" xmlns="http://www.w3.org/2000/svg">
<path d="M8.00001 13.7478L6.18752 15.5603C6.4576 15.8743 6.61199 16.2713 6.625 16.6853C6.60884 17.1053 6.43052 17.5028 6.12751 17.7942C5.8245 18.0855 5.42036 18.2481 5 18.2478C4.5856 18.2478 4.18818 18.0832 3.89515 17.7901C3.60212 17.4971 3.4375 17.0997 3.4375 16.6853C3.0231 16.6853 2.62568 16.5207 2.33265 16.2276C2.03962 15.9346 1.875 15.5372 1.875 15.1228C1.87469 14.7024 2.03731 14.2983 2.32866 13.9953C2.62002 13.6923 3.01745 13.514 3.4375 13.4978C3.85147 13.5108 4.24851 13.6652 4.56251 13.9353L6.37501 12.1228" stroke="#F2F6F8" stroke-linecap="round" stroke-linejoin="round"/>
<path d="M16.375 3.74767L17.3125 4.68517C17.9118 5.29324 18.2477 6.11271 18.2477 6.96644C18.2477 7.82017 17.9118 8.63959 17.3125 9.24767L16.9375 9.62269C15.1931 11.3252 13.0412 12.5518 10.6875 13.1852L8.06251 13.8102L7.1875 12.9352L6.3125 12.0602L7 9.4352C7.58362 7.07937 8.81814 4.93519 10.5625 3.24768L10.9375 2.81017C11.5456 2.21092 12.365 1.875 13.2188 1.875C14.0725 1.875 14.8919 2.21092 15.5 2.81017L16.375 3.74767Z" stroke="#F2F6F8" stroke-linecap="round" stroke-linejoin="round"/>
</svg>
