<svg width="22" height="22" viewBox="0 0 22 22" fill="none" xmlns="http://www.w3.org/2000/svg">
<path d="M3.16309 11.3896C3.16309 13.5959 4.03952 15.7118 5.59959 17.2719C7.15966 18.832 9.27557 19.7084 11.4818 19.7084C13.6881 19.7084 15.804 18.832 17.3641 17.2719C18.9241 15.7118 19.8006 13.5959 19.8006 11.3896H3.16309Z" stroke="#F2F6F8" stroke-linecap="round" stroke-linejoin="round"/>
<path d="M4.88184 8.57077C5.00366 7.68177 5.44334 6.86698 6.11953 6.27713C6.79572 5.68728 7.66266 5.3623 8.55997 5.3623C9.45727 5.3623 10.3242 5.68728 11.0004 6.27713C11.6766 6.86698 12.1163 7.68177 12.2381 8.57077" stroke="#F2F6F8" stroke-linecap="round" stroke-linejoin="round"/>
<path d="M9.83105 4.9272C10.3302 4.3626 10.9441 3.91106 11.6318 3.6028C12.3194 3.29454 13.065 3.13665 13.8186 3.13969C14.5286 3.13963 15.2316 3.28059 15.8867 3.55437C16.5418 3.82815 17.1361 4.2293 17.6349 4.73456C18.1338 5.23982 18.5274 5.83912 18.7928 6.49768C19.0582 7.15625 19.1902 7.86097 19.1811 8.57095" stroke="#F2F6F8" stroke-linecap="round" stroke-linejoin="round"/>
<path d="M11.6182 6.57693C12.1545 6.12071 12.8391 5.87621 13.5432 5.88943C14.3337 5.88922 15.0929 6.19848 15.6582 6.75099C16.2236 7.30351 16.5502 8.05537 16.5682 8.84568" stroke="#F2F6F8" stroke-linecap="round" stroke-linejoin="round"/>
<path d="M7.42519 5.13325L3.23145 1.14575" stroke="#F2F6F8" stroke-linecap="round" stroke-linejoin="round"/>
<path d="M5.15625 7.19575L2.75 4.927" stroke="#F2F6F8" stroke-linecap="round" stroke-linejoin="round"/>
</svg>
