<svg width="20" height="20" viewBox="0 0 20 20" fill="none" xmlns="http://www.w3.org/2000/svg">
<path d="M18.0515 8.69992L17.2348 12.1833C16.5348 15.1916 15.1515 16.4083 12.5515 16.1583C12.1348 16.1249 11.6848 16.0499 11.2015 15.9333L9.80145 15.5999C6.32645 14.7749 5.25145 13.0583 6.06812 9.57493L6.88479 6.08326C7.05145 5.37493 7.25145 4.75826 7.50145 4.24993C8.47645 2.23326 10.1348 1.69159 12.9181 2.34993L14.3098 2.67493C17.8015 3.49159 18.8681 5.21659 18.0515 8.69992Z" stroke="white" stroke-linecap="round" stroke-linejoin="round"/>
<path d="M12.5513 16.1583C12.0346 16.5083 11.3846 16.8 10.5929 17.0583L9.27626 17.4917C5.96793 18.5583 4.22626 17.6667 3.15126 14.3583L2.08459 11.0667C1.01793 7.75833 1.90126 6.00833 5.20959 4.94167L6.52626 4.50833C6.86793 4.4 7.19293 4.30833 7.50126 4.25C7.25126 4.75833 7.05126 5.375 6.88459 6.08333L6.06793 9.575C5.25126 13.0583 6.32626 14.775 9.80126 15.6L11.2013 15.9333C11.6846 16.05 12.1346 16.125 12.5513 16.1583Z" stroke="white" stroke-linecap="round" stroke-linejoin="round"/>
<path d="M10.5352 7.1084L14.5768 8.1334" stroke="white" stroke-linecap="round" stroke-linejoin="round"/>
<path d="M9.71484 10.3335L12.1315 10.9502" stroke="white" stroke-linecap="round" stroke-linejoin="round"/>
</svg>
