<svg width="23" height="23" viewBox="0 0 23 23" fill="none" xmlns="http://www.w3.org/2000/svg">
<path d="M10.7098 18.5437C9.02126 18.5295 7.37472 18.0158 5.97766 17.0674C4.58059 16.119 3.4955 14.7783 2.85914 13.2142C2.22279 11.6501 2.06363 9.9327 2.40172 8.27832C2.73982 6.62394 3.56004 5.10665 4.75903 3.91765C5.95802 2.72866 7.48212 1.92116 9.13927 1.59692C10.7964 1.27267 12.5125 1.44619 14.0712 2.09562C15.6299 2.74504 16.9615 3.84131 17.8982 5.24627C18.8348 6.65122 19.3347 8.302 19.3348 9.99057" stroke="#FFF7F7" stroke-linecap="round" stroke-linejoin="round"/>
<path d="M10.709 16.1001C9.50067 16.1001 8.31948 15.7418 7.3148 15.0705C6.31012 14.3992 5.52706 13.445 5.06466 12.3287C4.60225 11.2123 4.48127 9.98395 4.717 8.79884C4.95273 7.61374 5.5346 6.52515 6.38901 5.67074C7.24342 4.81633 8.332 4.23447 9.5171 3.99874C10.7022 3.76301 11.9306 3.884 13.0469 4.3464C14.1633 4.80881 15.1174 5.59185 15.7887 6.59653C16.4601 7.60121 16.8184 8.7824 16.8184 9.99072" stroke="#FFF7F7" stroke-linecap="round" stroke-linejoin="round"/>
<path d="M10.709 1.4375V18.5438" stroke="#FFF7F7" stroke-linecap="round" stroke-linejoin="round"/>
<path d="M2.15625 9.99072H19.3344" stroke="#FFF7F7" stroke-linecap="round" stroke-linejoin="round"/>
<path d="M13.2969 12.6499H21.5625C21.0594 17.178 18.1844 20.053 13.3688 20.9155L13.2969 12.6499Z" stroke="#FFF7F7" stroke-linejoin="round"/>
<path d="M15.7402 14.8032C15.861 14.8032 15.959 14.9012 15.959 15.022C15.959 15.1428 15.861 15.2407 15.7402 15.2407C15.6194 15.2407 15.5215 15.1428 15.5215 15.022C15.5215 14.9012 15.6194 14.8032 15.7402 14.8032Z" fill="#FFF7F7" stroke="#FFF7F7"/>
<path d="M8.26562 12.2156C8.38644 12.2156 8.48438 12.3135 8.48438 12.4343C8.48438 12.5551 8.38644 12.6531 8.26562 12.6531C8.14481 12.6531 8.04688 12.5551 8.04688 12.4343C8.04688 12.3135 8.14481 12.2156 8.26562 12.2156Z" fill="#FFF7F7" stroke="#FFF7F7"/>
<path d="M8.26562 7.3999C8.38644 7.3999 8.48438 7.49784 8.48438 7.61865C8.48438 7.73946 8.38644 7.8374 8.26562 7.8374C8.14481 7.8374 8.04688 7.73946 8.04688 7.61865C8.04688 7.49784 8.14481 7.3999 8.26562 7.3999Z" fill="#FFF7F7" stroke="#FFF7F7"/>
<path d="M13.2969 7.3999C13.4177 7.3999 13.5156 7.49784 13.5156 7.61865C13.5156 7.73946 13.4177 7.8374 13.2969 7.8374C13.1761 7.8374 13.0781 7.73946 13.0781 7.61865C13.0781 7.49784 13.1761 7.3999 13.2969 7.3999Z" fill="#FFF7F7" stroke="#FFF7F7"/>
<path d="M21.5629 12.6499C21.0598 17.178 18.1848 20.053 13.3691 20.9155" stroke="#FFF7F7" stroke-linejoin="round"/>
<path d="M19.1902 13.0813C18.6152 16.3157 16.3871 18.2563 12.8652 18.6157" stroke="#FFF7F7" stroke-linejoin="round"/>
</svg>
