<svg width="74" height="26" viewBox="0 0 74 26" fill="none" xmlns="http://www.w3.org/2000/svg">
<g clip-path="url(#clip0_243_3030)">
<path d="M2.97931 0H70.355C71.9986 0 73.3343 1.36303 73.3343 3.04024V22.2931C73.3343 23.9703 71.9986 25.3333 70.355 25.3333H2.97931C1.33572 25.3333 0 23.9703 0 22.2931V3.04024C0 1.36303 1.33572 0 2.97931 0Z" fill="#E2E3E8"/>
<path d="M66.5103 14.3264L65.4169 17.1677H65.3841L64.2433 14.3264H63.2116L64.9208 18.2993L63.9441 20.5084H64.9469L67.5826 14.3264H66.5113H66.5103ZM58.7827 11.9687H57.8272V18.5229H58.7827V11.9687ZM55.1886 11.9687H52.8926V18.5229H53.8548V16.042H55.1924C56.3168 16.0814 57.2597 15.1833 57.2983 14.0349C57.2983 14.0261 57.2983 14.0162 57.2983 14.0073C57.2751 12.857 56.3419 11.9441 55.2146 11.9687C55.2059 11.9687 55.1963 11.9687 55.1876 11.9687H55.1886ZM55.2146 15.1261H53.8548V12.8945H55.2185C55.8227 12.8945 56.312 13.3938 56.312 14.0103C56.312 14.6268 55.8227 15.1261 55.2185 15.1261H55.2146ZM61.1375 14.1856C60.4224 14.1442 59.7516 14.5382 59.4283 15.1902L60.2815 15.5624C60.4542 15.2404 60.7978 15.0533 61.1559 15.0867C61.6606 15.0355 62.1104 15.4108 62.1615 15.9258C62.1615 15.9278 62.1615 15.9288 62.1615 15.9308V15.9977C61.8556 15.8293 61.5139 15.7407 61.1665 15.7407C60.2516 15.7407 59.3183 16.2538 59.3183 17.2288C59.3183 18.1063 60.0653 18.6716 60.9107 18.6716C61.401 18.7031 61.8691 18.4579 62.1278 18.0314H62.1644V18.5377H63.0977V16.0155C63.0977 14.8514 62.2445 14.2043 61.1443 14.2043L61.1366 14.1856H61.1375ZM61.0246 17.7783C60.711 17.7783 60.2738 17.6149 60.2738 17.2199C60.2738 16.7137 60.8171 16.5207 61.291 16.5207C61.5969 16.5128 61.899 16.5886 62.1654 16.7403C62.093 17.3283 61.6056 17.7714 61.0246 17.7783ZM26.4629 18.6637C24.5751 18.6696 23.0338 17.1264 23.0039 15.201C23.0338 13.2756 24.5751 11.7314 26.4629 11.7382C27.3363 11.7235 28.1779 12.0682 28.7994 12.6945L28.1393 13.3603C27.6915 12.9132 27.0892 12.664 26.4629 12.6689C25.1001 12.6689 23.9951 13.7966 23.9951 15.1872C23.9951 16.5778 25.1001 17.7055 26.4629 17.7055C27.1066 17.7321 27.732 17.4799 28.1837 17.0102C28.48 16.6842 28.6595 16.2636 28.6904 15.8195H26.4629V14.9006H29.5976C29.6314 15.0956 29.6478 15.2936 29.6449 15.4925C29.6767 16.3158 29.3862 17.1185 28.839 17.7242C28.2136 18.3683 27.3498 18.711 26.4629 18.6657V18.6637ZM34.4926 16.4321C34.5419 17.6513 33.6125 18.6805 32.4186 18.7307C31.2238 18.7809 30.2152 17.8325 30.166 16.6142C30.1631 16.5542 30.1631 16.4931 30.166 16.433C30.1168 15.2138 31.0462 14.1846 32.2401 14.1344C33.4349 14.0842 34.4434 15.0326 34.4926 16.2508C34.4955 16.3109 34.4955 16.372 34.4926 16.4321ZM33.5449 16.4321C33.6086 15.7466 33.1164 15.1389 32.4447 15.0739C31.7729 15.0089 31.1775 15.5112 31.1138 16.1967C31.106 16.2755 31.106 16.3542 31.1138 16.4321C31.0501 17.1175 31.5423 17.7252 32.214 17.7902C32.8857 17.8552 33.4812 17.3529 33.5449 16.6674C33.5526 16.5886 33.5526 16.5099 33.5449 16.4321ZM39.3404 16.4321C39.3404 17.6503 38.3724 18.6381 37.1786 18.6381C35.9847 18.6381 35.0167 17.6503 35.0167 16.4321C35.0167 15.2138 35.9847 14.226 37.1786 14.226C38.3724 14.226 39.3404 15.2138 39.3404 16.4321ZM38.3965 16.4321C38.4602 15.7466 37.968 15.1389 37.2963 15.0739C36.6246 15.0089 36.0291 15.5112 35.9654 16.1967C35.9577 16.2755 35.9577 16.3542 35.9654 16.4321C35.9017 17.1175 36.3939 17.7252 37.0656 17.7902C37.7374 17.8552 38.3328 17.3529 38.3965 16.6674C38.4043 16.5886 38.4043 16.5099 38.3965 16.4321ZM44.0714 14.3383V18.3446C44.0714 19.9884 43.1131 20.6659 41.9829 20.6659C41.1355 20.6728 40.3683 20.1597 40.0363 19.364L40.8634 18.9917C41.039 19.4555 41.4695 19.7677 41.9568 19.7835C42.6855 19.7835 43.1304 19.3255 43.1304 18.4746V18.1546H43.0937C42.8042 18.4835 42.3902 18.6696 41.9568 18.6637C40.7485 18.6637 39.7699 17.6641 39.7699 16.4321C39.7699 15.2 40.7495 14.2004 41.9568 14.2004C42.3931 14.1905 42.8119 14.3717 43.1082 14.6987H43.1449V14.3264H44.0704V14.3373L44.0714 14.3383ZM43.2221 16.4429C43.2771 15.7486 42.7704 15.1399 42.09 15.0838C42.0775 15.0828 42.064 15.0818 42.0514 15.0808C41.3517 15.1045 40.8026 15.7033 40.8257 16.4173C40.8257 16.4252 40.8257 16.434 40.8267 16.4419C40.7939 17.15 41.3305 17.7508 42.0244 17.7833C42.0331 17.7833 42.0427 17.7833 42.0514 17.7843C42.7251 17.7577 43.2501 17.1786 43.224 16.4911C43.224 16.4744 43.2221 16.4586 43.2211 16.4419L43.2221 16.4429ZM45.7594 11.9756V18.5258H44.7972V11.9756H45.7594ZM49.5504 17.1687L50.3012 17.6749C49.8939 18.2954 49.2097 18.6667 48.4791 18.6647C47.3094 18.6815 46.3481 17.7281 46.3317 16.5345C46.3317 16.501 46.3317 16.4665 46.3317 16.433C46.2362 15.3034 47.0555 14.3077 48.1625 14.2102C49.0958 14.1275 49.9615 14.7135 50.2501 15.6225L50.3485 15.8795L47.4329 17.1106C47.6192 17.5371 48.04 17.8049 48.4974 17.7872C48.9298 17.7803 49.3274 17.5469 49.5504 17.1697V17.1687ZM47.2505 16.3651L49.2116 15.5398C49.0562 15.2295 48.7358 15.0444 48.3951 15.067C47.7331 15.0966 47.2206 15.6678 47.2495 16.3434C47.2495 16.3503 47.2495 16.3582 47.2505 16.3651Z" fill="#2E2C2F"/>
<path d="M11.4838 12.6682L5.75391 18.4384V6.89795L11.4838 12.6682Z" fill="#2E2C2F"/>
<path d="M14.9155 16.1248L8.27455 19.9844C8.15294 20.0563 8.02265 20.1124 7.88657 20.1518C7.13571 20.3675 6.35976 20.0287 5.98047 19.3748L12.0617 13.251L14.9155 16.1248Z" fill="#2E2C2F"/>
<path d="M14.9088 9.22108L12.0636 12.086L5.98047 5.96024C6.27772 5.44516 6.82591 5.11425 7.43393 5.11524C7.73794 5.11622 8.03617 5.19993 8.29868 5.35653L14.9078 9.22108H14.9088Z" fill="#2E2C2F"/>
<path d="M18.2846 14.1689L15.6537 15.7013L12.6406 12.668L15.6392 9.64844L18.2933 11.1996H18.2837C18.5799 11.3581 18.8212 11.6044 18.9766 11.9067C19.3974 12.7261 19.0866 13.7395 18.2837 14.1689H18.2846Z" fill="#2E2C2F"/>
<path d="M24.6224 9.49481C23.6331 9.49481 23 8.75814 23 7.60882C23 6.4595 23.6312 5.76025 24.6224 5.76025C25.3877 5.76025 25.9697 6.22313 26.1019 6.94208H25.6377C25.49 6.45359 25.1194 6.17586 24.6214 6.17586C23.8927 6.17586 23.4536 6.71162 23.4536 7.60587C23.4536 8.50011 23.9005 9.07822 24.6214 9.07822C25.2497 9.07822 25.6821 8.66261 25.6821 8.05594V7.99094H24.6832V7.59503H26.1241V7.93776C26.1241 8.91473 25.5672 9.49284 24.6224 9.49284V9.49481Z" fill="#2E2C2F"/>
<path d="M28.8812 9.43472H26.6875V5.82031H28.8812V6.22607H27.1286V7.38524H28.7905V7.78608H27.1286V9.02797H28.8812V9.43373V9.43472Z" fill="#2E2C2F"/>
<path d="M30.3627 9.43472V6.22607H29.2461V5.82031H31.9214V6.22607H30.8048V9.43472H30.3627Z" fill="#2E2C2F"/>
<path d="M33.418 9.43472V5.82031H33.86V9.43472H33.418Z" fill="#2E2C2F"/>
<path d="M34.5469 9.43472V5.82031H34.9764L36.9153 8.65767H36.9375V5.82031H37.3747V9.43472H36.9452L35.0063 6.60721H34.9841V9.43472H34.5469Z" fill="#2E2C2F"/>
<path d="M42.2171 7.62852C42.2171 8.77587 41.5889 9.49481 40.5851 9.49481C39.5814 9.49481 38.9531 8.77587 38.9531 7.62852C38.9531 6.48116 39.5814 5.76025 40.5851 5.76025C41.5889 5.76025 42.2171 6.48116 42.2171 7.62852ZM39.4067 7.62852C39.4067 8.51784 39.8603 9.07822 40.5851 9.07822C41.3099 9.07822 41.7635 8.51685 41.7635 7.62852C41.7635 6.74018 41.3099 6.17586 40.5851 6.17586C39.8603 6.17586 39.4067 6.73723 39.4067 7.62852Z" fill="#2E2C2F"/>
<path d="M42.7656 9.43472V5.82031H43.1951L45.134 8.65767H45.1562V5.82031H45.5934V9.43472H45.1639L43.225 6.60721H43.2028V9.43472H42.7656Z" fill="#2E2C2F"/>
</g>
<defs>
<clipPath id="clip0_243_3030">
<rect width="73.3333" height="25.3333" fill="white"/>
</clipPath>
</defs>
</svg>
