<svg width="16" height="16" viewBox="0 0 16 16" fill="none" xmlns="http://www.w3.org/2000/svg">
<path d="M15.2583 13.6834L12.425 10.8584C13.3392 9.69378 13.8352 8.25561 13.8333 6.77507C13.8333 5.45653 13.4423 4.16759 12.7098 3.07127C11.9773 1.97494 10.9361 1.12046 9.71789 0.615871C8.49972 0.111287 7.15927 -0.0207352 5.86607 0.2365C4.57286 0.493734 3.38497 1.12867 2.45262 2.06102C1.52027 2.99337 0.885336 4.18126 0.628101 5.47447C0.370866 6.76767 0.502889 8.10812 1.00747 9.32629C1.51206 10.5445 2.36654 11.5857 3.46287 12.3182C4.5592 13.0507 5.84813 13.4417 7.16667 13.4417C8.64722 13.4436 10.0854 12.9476 11.25 12.0334L14.075 14.8667C14.1525 14.9448 14.2446 15.0068 14.3462 15.0491C14.4477 15.0915 14.5567 15.1132 14.6667 15.1132C14.7767 15.1132 14.8856 15.0915 14.9872 15.0491C15.0887 15.0068 15.1809 14.9448 15.2583 14.8667C15.3364 14.7893 15.3984 14.6971 15.4407 14.5955C15.4831 14.494 15.5048 14.3851 15.5048 14.2751C15.5048 14.1651 15.4831 14.0561 15.4407 13.9546C15.3984 13.853 15.3364 13.7609 15.2583 13.6834ZM2.16667 6.77507C2.16667 5.78616 2.45991 4.81946 3.00932 3.99722C3.55873 3.17497 4.33962 2.53411 5.25325 2.15567C6.16688 1.77723 7.17222 1.67822 8.14212 1.87114C9.11203 2.06407 10.0029 2.54027 10.7022 3.23953C11.4015 3.9388 11.8777 4.82971 12.0706 5.79962C12.2635 6.76952 12.1645 7.77485 11.7861 8.68849C11.4076 9.60212 10.7668 10.383 9.94452 10.9324C9.12228 11.4818 8.15558 11.7751 7.16667 11.7751C5.84059 11.7751 4.56882 11.2483 3.63114 10.3106C2.69345 9.37292 2.16667 8.10115 2.16667 6.77507Z" fill="#7F7F8A"/>
</svg>
