<svg width="25" height="24" viewBox="0 0 25 24" fill="none" xmlns="http://www.w3.org/2000/svg">
<path d="M12.6538 20.3055H7.76247C4.82764 20.3055 2.87109 18.8381 2.87109 15.4141V8.56618C2.87109 5.14222 4.82764 3.6748 7.76247 3.6748H17.5452C20.4801 3.6748 22.4366 5.14222 22.4366 8.56618V11.501" stroke="white" stroke-miterlimit="10" stroke-linecap="round" stroke-linejoin="round"/>
<path d="M17.5445 9.05566L14.4825 11.5014C13.4748 12.3035 11.8216 12.3035 10.8139 11.5014L7.76172 9.05566" stroke="white" stroke-miterlimit="10" stroke-linecap="round" stroke-linejoin="round"/>
<path d="M19.7053 14.7002L16.2422 18.1633C16.1053 18.3003 15.9781 18.5546 15.9487 18.7405L15.7628 20.0612C15.6944 20.5405 16.027 20.8731 16.5063 20.8047L17.827 20.6188C18.0129 20.5894 18.277 20.4623 18.4042 20.3253L21.8673 16.8622C22.464 16.2655 22.7477 15.5709 21.8673 14.6904C20.9966 13.8198 20.302 14.1035 19.7053 14.7002Z" stroke="white" stroke-miterlimit="10" stroke-linecap="round" stroke-linejoin="round"/>
<path d="M19.207 15.1992C19.5005 16.2558 20.3223 17.0775 21.3788 17.371" stroke="white" stroke-miterlimit="10" stroke-linecap="round" stroke-linejoin="round"/>
</svg>
