<svg width="20" height="20" viewBox="0 0 20 20" fill="none" xmlns="http://www.w3.org/2000/svg">
<path d="M11.6667 9.99992L8.75 11.6666V8.33325L11.6667 9.99992Z" fill="#7F7F8A" stroke="#7F7F8A" stroke-width="1.25" stroke-linecap="round" stroke-linejoin="round"/>
<path d="M1.66602 10.5891V9.40992C1.66602 6.99742 1.66602 5.79075 2.42018 5.01492C3.17518 4.23825 4.36352 4.20492 6.73935 4.13742C7.86435 4.10575 9.01435 4.08325 9.99935 4.08325C10.9835 4.08325 12.1335 4.10575 13.2593 4.13742C15.6352 4.20492 16.8235 4.23825 17.5777 5.01492C18.3327 5.79075 18.3327 6.99825 18.3327 9.40992V10.5891C18.3327 13.0024 18.3327 14.2083 17.5785 14.9849C16.8235 15.7608 15.636 15.7949 13.2593 15.8616C12.1343 15.8941 10.9843 15.9166 9.99935 15.9166C8.91248 15.9133 7.82571 15.895 6.73935 15.8616C4.36352 15.7949 3.17518 15.7616 2.42018 14.9849C1.66602 14.2083 1.66602 13.0016 1.66602 10.5899V10.5891Z" stroke="#7F7F8A" stroke-width="1.25"/>
<path d="M4.60953 4.33925C6.91911 4.22425 8.71536 4.16675 9.9987 4.16675C11.282 4.16675 13.0791 4.22425 15.3899 4.33966C15.9946 4.36984 16.5678 4.61844 17.0031 5.0393C17.4384 5.46015 17.7061 6.02466 17.7566 6.628C17.8624 7.89216 17.9154 9.0055 17.9154 9.96841C17.9154 10.943 17.8612 12.0717 17.7529 13.3551C17.7026 13.9515 17.44 14.5101 17.0128 14.9293C16.5856 15.3485 16.0222 15.6006 15.4249 15.6397C13.4495 15.7688 11.6408 15.8334 9.9987 15.8334C8.35703 15.8334 6.5487 15.7688 4.57453 15.6397C3.97748 15.6006 3.41423 15.3487 2.98707 14.9298C2.55992 14.5108 2.29719 13.9525 2.24661 13.3563C2.13703 12.0634 2.08203 10.9338 2.08203 9.96841C2.08203 9.01425 2.13578 7.9005 2.24245 6.62675C2.29315 6.02356 2.56098 5.45925 2.99622 5.03857C3.43146 4.61789 4.00455 4.3694 4.60911 4.33925H4.60953Z" stroke="#7F7F8A" stroke-width="1.66667" stroke-linejoin="round"/>
<path d="M8.75 8.17085V11.8358C8.74997 11.9004 8.76744 11.9637 8.80055 12.0191C8.83365 12.0745 8.88115 12.1199 8.938 12.1505C8.99485 12.1811 9.05892 12.1957 9.1234 12.1927C9.18787 12.1898 9.25034 12.1694 9.30417 12.1338L12.0529 10.3171C12.102 10.2847 12.1424 10.2407 12.1704 10.1889C12.1984 10.1372 12.2132 10.0793 12.2134 10.0205C12.2137 9.96163 12.1994 9.90364 12.1718 9.85166C12.1443 9.79968 12.1043 9.75531 12.0554 9.72251L9.30625 7.87418C9.25252 7.83808 9.18999 7.81725 9.12534 7.81394C9.06069 7.81063 8.99636 7.82496 8.93923 7.85539C8.88209 7.88582 8.8343 7.93121 8.80097 7.9867C8.76764 8.04219 8.75002 8.1057 8.75 8.17043V8.17085Z" stroke="#7F7F8A" stroke-width="1.42875" stroke-linejoin="round"/>
</svg>
