<svg width="59" height="52" viewBox="0 0 59 52" fill="none" xmlns="http://www.w3.org/2000/svg">
<g clip-path="url(#clip0_162_2976)">
<path d="M52.6016 28.5099C52.4944 28.5957 52.4852 28.8284 52.4699 28.9754L51.8692 28.8499L37.48 14.4403C36.2204 13.4603 35.4174 13.0101 33.9463 13.987C31.4578 15.6378 28.2857 20.3328 25.6285 21.9039C22.5883 23.7016 19.0546 20.783 20.4705 17.6683C21.0712 16.3483 25.699 12.8876 26.9249 11.4083C27.0598 11.2429 27.7524 10.3793 27.6666 10.318C26.1036 10.1741 24.6049 10.4344 23.2717 11.2828C22.4412 11.8126 19.0822 15.1478 18.4723 15.9808C15.0428 20.6696 18.8462 26.0231 24.4578 25.3279C27.541 24.945 32.1167 19.0832 34.5501 17.0343L35.4205 16.7801C37.9581 19.4507 40.839 21.8243 43.4594 24.3968C44.6087 25.5239 50.0487 30.6262 50.4195 31.5266C51.5811 34.3473 49.2059 37.0944 46.3556 34.9781C44.6669 33.7225 39.7602 27.5973 38.2186 27.4594C36.6771 27.3216 36.7414 28.7335 37.477 29.7656C38.9818 31.8727 44.4003 35.7867 45.2125 37.6549C46.1227 39.7528 43.9957 41.8598 41.9025 40.6562L33.9126 32.7179C32.7266 32.0993 31.3873 32.0993 31.6478 33.7347C31.8807 35.2048 39.3771 40.9441 40.2445 42.947C40.4253 44.6652 35.347 48.2913 34.1088 49.5194C35.2489 47.0816 34.3877 43.8781 31.7796 42.8123C31.139 42.5489 30.0173 42.5305 29.8641 42.4325C29.6373 42.2855 29.4013 39.3822 27.2743 38.1265C26.7686 37.8294 25.0738 37.3486 24.9727 37.2077C24.6478 36.7575 24.6264 34.8771 23.6916 33.7439C22.5791 32.3964 19.9035 31.8727 19.7564 31.7042C19.6859 31.6246 19.4929 30.228 19.214 29.6431C16.7039 24.3815 10.4456 25.9894 8.20836 30.5343C7.72413 30.5343 5.60637 28.2894 5.14359 27.778C-10.9587 10.0179 14.6107 -10.572 29.3921 6.61534C32.0952 4.40414 34.5808 1.65392 38.093 0.673885C54.937 -4.03334 66.9846 17.0803 52.6016 28.5099Z" fill="url(#paint0_linear_162_2976)"/>
<path d="M13.1728 29.3613C15.7871 28.7824 17.7424 31.6245 15.83 33.8633C14.8339 35.0301 12.9215 36.6349 11.334 36.2858C7.20877 35.3793 10.7792 29.8911 13.1728 29.3613Z" fill="url(#paint1_linear_162_2976)"/>
<path d="M18.6864 34.8771C20.6877 34.4238 22.7442 35.7836 22.0883 37.9642C21.9198 38.5246 18.5853 41.6699 17.9386 41.8047C16.2285 42.163 14.5674 40.5215 14.9106 38.785C15.1098 37.7865 17.721 35.0976 18.6895 34.8771H18.6864Z" fill="url(#paint2_linear_162_2976)"/>
<path d="M23.8982 40.0803C26.0803 39.5964 27.6281 41.3421 26.9844 43.4798C26.868 43.8688 24.0484 46.6374 23.5979 46.8334C21.5108 47.7368 19.3899 45.9973 20.1347 43.6789C20.3799 42.9224 23.1167 40.2518 23.8982 40.0803Z" fill="url(#paint3_linear_162_2976)"/>
<path d="M29.1132 44.9712C30.8141 44.6159 32.5396 46.3004 32.132 47.9787C31.8623 49.0812 29.2174 51.7763 28.1018 51.957C26.03 52.2908 24.6815 50.4808 25.2791 48.4993C25.4477 47.9389 28.4726 45.1029 29.1162 44.9681L29.1132 44.9712Z" fill="url(#paint4_linear_162_2976)"/>
</g>
<defs>
<linearGradient id="paint0_linear_162_2976" x1="29.5042" y1="0.000488281" x2="29.5042" y2="49.5194" gradientUnits="userSpaceOnUse">
<stop stop-color="#006491"/>
<stop offset="1" stop-color="#49C8F5"/>
</linearGradient>
<linearGradient id="paint1_linear_162_2976" x1="13.0212" y1="29.2852" x2="13.0212" y2="36.3345" gradientUnits="userSpaceOnUse">
<stop stop-color="#006491"/>
<stop offset="1" stop-color="#49C8F5"/>
</linearGradient>
<linearGradient id="paint2_linear_162_2976" x1="18.539" y1="34.79" x2="18.539" y2="41.8543" gradientUnits="userSpaceOnUse">
<stop stop-color="#006491"/>
<stop offset="1" stop-color="#49C8F5"/>
</linearGradient>
<linearGradient id="paint3_linear_162_2976" x1="23.557" y1="39.999" x2="23.557" y2="47.0765" gradientUnits="userSpaceOnUse">
<stop stop-color="#006491"/>
<stop offset="1" stop-color="#49C8F5"/>
</linearGradient>
<linearGradient id="paint4_linear_162_2976" x1="28.6646" y1="44.9233" x2="28.6646" y2="51.997" gradientUnits="userSpaceOnUse">
<stop stop-color="#006491"/>
<stop offset="1" stop-color="#49C8F5"/>
</linearGradient>
<clipPath id="clip0_162_2976">
<rect width="59" height="52" fill="white"/>
</clipPath>
</defs>
</svg>
