<svg width="65" height="54" viewBox="0 0 65 54" fill="none" xmlns="http://www.w3.org/2000/svg">
<g clip-path="url(#clip0_162_3012)">
<path d="M14.0186 9.58769L22.5302 28.0697C24.6612 28.7912 24.24 30.6634 23.3945 32.3925C20.0251 39.3026 5.34666 39.5825 1.18201 33.3254C0.207634 31.8607 -1.02762 28.757 1.46489 28.3434L9.90106 10.0168C10.1022 9.2767 9.01155 9.71519 8.36721 9.42286C7.30483 8.94705 7.02509 7.29881 7.87374 6.45914C8.87954 5.46087 9.64332 6.17926 10.7057 6.17926C16.7657 6.16682 22.8256 6.15438 28.8824 6.16993L29.9983 4.71761C26.9588 -0.709135 36.0959 -1.77271 35.3887 3.18444C35.2127 4.40662 34.1629 4.82024 35.9136 6.11395L57.0763 6.32542C57.7898 6.83855 57.551 8.47124 57.1015 9.06523C56.4446 9.93288 54.719 9.14919 54.9139 10.0168L63.3312 28.3714C66.1506 28.502 64.7865 31.8544 63.6801 33.3783C59.3205 39.3773 46.1162 39.343 42.0459 33.0175C41.1469 31.6212 40.1003 28.7477 42.3319 28.3496L50.7964 9.58769H36.6523L35.0618 13.1454L35.0807 44.4184H39.9526C41.939 44.4184 44.6861 46.9125 44.1958 49.0832C48.439 47.9978 50.1489 53.3531 45.6259 53.7636C37.2337 54.5224 27.7069 53.1509 19.189 53.7667C15.1847 53.3748 16.5834 48.0476 20.5814 49.0428C20.6914 47.0711 22.8193 44.4153 24.8655 44.4153H30.0517L30.0674 13.1454L28.3104 9.88934C28.1972 9.73074 27.5655 9.58458 27.38 9.58458H14.0217L14.0186 9.58769ZM19.3587 28.869L11.8215 13.3227L4.90662 28.8721H19.3619L19.3587 28.869ZM46.2357 28.558C49.8063 28.0759 55.5928 28.558 59.4368 28.558C59.506 28.558 59.7889 29.0213 59.9052 28.869L52.8363 13.3164L45.7674 28.869C45.8837 29.0245 46.1477 28.5704 46.2357 28.558Z" fill="url(#paint0_linear_162_3012)"/>
</g>
<defs>
<linearGradient id="paint0_linear_162_3012" x1="32.5007" y1="-0.00341797" x2="32.5007" y2="53.9992" gradientUnits="userSpaceOnUse">
<stop stop-color="#006491"/>
<stop offset="1" stop-color="#49C8F5"/>
</linearGradient>
<clipPath id="clip0_162_3012">
<rect width="65" height="54" fill="white"/>
</clipPath>
</defs>
</svg>
