<svg width="50" height="52" viewBox="0 0 50 52" fill="none" xmlns="http://www.w3.org/2000/svg">
<g clip-path="url(#clip0_162_2989)">
<path d="M40.0231 4.66869H45.9877C46.107 4.66869 47.6467 5.39254 47.8852 5.54844C49.4083 6.56183 49.5637 7.8035 49.744 9.5296C49.1059 21.2643 50.5568 33.8313 49.744 45.4658C49.5109 48.7927 48.5566 51.4709 44.878 51.9971L3.7583 51.7799C1.74144 51.0171 0.53187 49.2827 0.340448 47.1362C-0.747052 34.9171 1.17827 21.0916 0.351544 8.70553C0.254446 6.85415 2.68745 4.66869 4.37418 4.66869H9.50651C8.80741 2.74771 9.07928 0.0834027 11.5927 0.186412C14.1534 0.292204 13.2545 2.83402 13.3904 4.66869H36.1391C36.1475 3.25719 35.6675 1.19701 36.9964 0.378509C39.6153 -1.23344 40.8664 2.68925 40.0231 4.66869ZM4.23547 14.1344V46.5683C4.23547 47.0972 5.62814 48.2693 6.3106 48.105L43.2273 48.1134C44.0429 48.4224 45.849 46.9079 45.849 46.2899V14.552L4.23547 14.1344Z" fill="url(#paint0_linear_162_2989)"/>
<path d="M40.0593 31.8548C40.0593 39.3661 33.9921 45.4548 26.5072 45.4548C19.0223 45.4548 12.9551 39.3661 12.9551 31.8548C12.9551 24.3435 19.0223 18.2549 26.5072 18.2549C33.9921 18.2549 40.0593 24.3435 40.0593 31.8548ZM37.0188 31.8381C37.0188 26.0167 32.3164 21.3006 26.5183 21.3006C20.7202 21.3006 16.0178 26.0195 16.0178 31.8381C16.0178 37.6567 20.7202 42.3757 26.5183 42.3757C32.3164 42.3757 37.0188 37.6567 37.0188 31.8381Z" fill="url(#paint1_linear_162_2989)"/>
<path d="M24.7682 31.3984C24.9763 30.0705 24.2633 24.9228 25.3175 24.2964C25.8918 23.954 27.0958 24.0792 27.4037 24.714C27.6201 25.1594 27.6784 32.7737 27.4842 33.428C27.154 34.5499 22.4045 34.3857 21.8275 33.9291C20.0381 32.5065 23.1841 30.6384 24.7682 31.3984Z" fill="url(#paint2_linear_162_2989)"/>
</g>
<defs>
<linearGradient id="paint0_linear_162_2989" x1="24.9983" y1="-0.000976563" x2="24.9983" y2="51.9971" gradientUnits="userSpaceOnUse">
<stop stop-color="#006491"/>
<stop offset="1" stop-color="#49C8F5"/>
</linearGradient>
<linearGradient id="paint1_linear_162_2989" x1="26.5072" y1="18.2549" x2="26.5072" y2="45.4548" gradientUnits="userSpaceOnUse">
<stop stop-color="#006491"/>
<stop offset="1" stop-color="#49C8F5"/>
</linearGradient>
<linearGradient id="paint2_linear_162_2989" x1="24.4476" y1="24.1104" x2="24.4476" y2="34.2774" gradientUnits="userSpaceOnUse">
<stop stop-color="#006491"/>
<stop offset="1" stop-color="#49C8F5"/>
</linearGradient>
<clipPath id="clip0_162_2989">
<rect width="50" height="52" fill="white"/>
</clipPath>
</defs>
</svg>
