<svg width="50" height="47" viewBox="0 0 50 47" fill="none" xmlns="http://www.w3.org/2000/svg">
<g clip-path="url(#clip0_162_2968)">
<path d="M18.1433 44.25C18.8211 44.1281 21.6967 44.571 21.8188 43.8867L21.911 22.2568C22.1179 21.891 22.3322 21.6919 22.7583 21.6098C23.5133 21.4654 30.4009 21.5301 30.847 21.7342C30.9766 21.7939 31.5996 22.4235 31.5996 22.4758V44.25H35.3374V15.0103C35.3374 14.3882 36.3865 13.9527 36.9522 13.8855C38.2903 13.7262 42.6462 13.6964 43.9195 13.9054C44.4279 13.9875 44.8664 14.2239 45.1804 14.637L45.0558 43.6304L45.4196 44.1878C46.2494 43.9613 47.3309 43.8966 48.1782 43.9962C50.528 44.2774 50.6825 46.9774 48.1832 46.9998L1.56965 46.9923C-0.528531 46.7484 -0.600796 44.25 1.82382 44.25H8.05358L8.42736 43.8767V28.9458C8.42736 28.9035 8.81112 28.5078 8.93073 28.4531C9.43907 28.2167 17.1415 28.2192 17.6449 28.4531C17.762 28.5078 18.1483 28.9035 18.1483 28.9458V44.25H18.1433Z" fill="url(#paint0_linear_162_2968)"/>
<path d="M38.0792 4.93218C37.4911 4.7754 37.6581 5.08148 37.5085 5.2507C29.5968 14.1893 18.1888 22.2197 6.48437 25.2681C4.82227 25.7011 1.1218 27.0946 0.503809 24.9271C0.361771 23.3594 4.23169 23.1479 5.48761 22.7796C16.9528 19.4251 27.8699 12.3877 35.5848 3.31466C34.3962 3.07577 31.6551 4.34489 30.9773 2.94388C30.768 2.51337 30.758 1.87632 30.9748 1.44581C31.513 0.368296 37.5883 0.527559 38.9588 0C40.1151 0.121936 40.6932 0.664425 40.8278 1.81659C40.9424 2.82194 40.9897 7.97062 40.7704 8.73707C40.3194 10.3023 38.0817 9.48361 38.0817 8.78933V4.93218H38.0792Z" fill="url(#paint1_linear_162_2968)"/>
</g>
<defs>
<linearGradient id="paint0_linear_162_2968" x1="24.9998" y1="13.7573" x2="24.9998" y2="46.9998" gradientUnits="userSpaceOnUse">
<stop stop-color="#006491"/>
<stop offset="1" stop-color="#49C8F5"/>
</linearGradient>
<linearGradient id="paint1_linear_162_2968" x1="20.7122" y1="0" x2="20.7122" y2="26.109" gradientUnits="userSpaceOnUse">
<stop stop-color="#006491"/>
<stop offset="1" stop-color="#49C8F5"/>
</linearGradient>
<clipPath id="clip0_162_2968">
<rect width="50" height="47" fill="white"/>
</clipPath>
</defs>
</svg>
