<svg width="18" height="18" viewBox="0 0 18 18" fill="none" xmlns="http://www.w3.org/2000/svg">
<path d="M14.25 11.25V15.75M14.25 15.75L12.75 14.25M14.25 15.75L15.75 14.25M9.75 2.25H6.15C5.30992 2.25 4.88988 2.25 4.56901 2.41349C4.28677 2.5573 4.0573 2.78677 3.91349 3.06901C3.75 3.38988 3.75 3.80992 3.75 4.65V13.35C3.75 14.1901 3.75 14.6101 3.91349 14.931C4.0573 15.2132 4.28677 15.4427 4.56901 15.5865C4.88988 15.75 5.30992 15.75 6.15 15.75H10.5M9.75 2.25L14.25 6.75M9.75 2.25V5.55C9.75 5.97004 9.75 6.18006 9.83175 6.34049C9.90365 6.48161 10.0184 6.59635 10.1595 6.66825C10.3199 6.75 10.53 6.75 10.95 6.75H14.25M14.25 6.75V8.25M6.75 12.75H9.75M6.75 9.75H11.25M6.75 6.75H7.5" stroke="#03253E" stroke-linecap="round" stroke-linejoin="round"/>
</svg>
