<svg width="20" height="20" viewBox="0 0 20 20" fill="none" xmlns="http://www.w3.org/2000/svg">
<path d="M1.66699 18.3333H18.3337" stroke="white" stroke-miterlimit="10" stroke-linecap="round" stroke-linejoin="round"/>
<path d="M12.5083 18.325L2.50834 18.3417L2.5 5.89167C2.5 5.33334 2.78335 4.81664 3.24168 4.50831L6.57501 2.28333C7.13335 1.90833 7.86665 1.90833 8.42499 2.28333L11.7583 4.50831C12.225 4.81664 12.5 5.33334 12.5 5.89167L12.5083 18.325Z" stroke="white" stroke-miterlimit="10" stroke-linecap="round" stroke-linejoin="round"/>
<path d="M16.6504 18.3417V15" stroke="white" stroke-miterlimit="10" stroke-linecap="round" stroke-linejoin="round"/>
<path d="M16.6667 10C15.75 10 15 10.75 15 11.6667V13.3333C15 14.25 15.75 15 16.6667 15C17.5833 15 18.3333 14.25 18.3333 13.3333V11.6667C18.3333 10.75 17.5833 10 16.6667 10Z" stroke="white" stroke-miterlimit="10" stroke-linecap="round" stroke-linejoin="round"/>
<path d="M2.5 11.6667H12.5" stroke="white" stroke-miterlimit="10" stroke-linecap="round" stroke-linejoin="round"/>
<path d="M7.5 18.3333V15.2083" stroke="white" stroke-miterlimit="10" stroke-linecap="round" stroke-linejoin="round"/>
<path d="M7.5 8.75C8.19036 8.75 8.75 8.19036 8.75 7.5C8.75 6.80964 8.19036 6.25 7.5 6.25C6.80964 6.25 6.25 6.80964 6.25 7.5C6.25 8.19036 6.80964 8.75 7.5 8.75Z" stroke="white" stroke-miterlimit="10" stroke-linecap="round" stroke-linejoin="round"/>
</svg>
