<svg width="384" height="301" viewBox="0 0 384 301" fill="none" xmlns="http://www.w3.org/2000/svg">
<g clip-path="url(#clip0_1_2864)">
<path d="M227.861 55.7743L227.465 55.2996L162.472 32.822L161.723 32.7749L139 50.1588V84.1117C139.724 85.3541 141.421 85.321 141.771 83.8412L141.87 61.1298L160.553 46.8502V84.0244C160.553 85.239 163.334 85.239 163.334 84.0244V45.805L225.21 67.3089V71.9245L213.882 68.0331C212.391 67.8743 211.71 69.8775 213.171 70.6646C216.28 72.338 221.295 73.0064 224.562 74.5751C224.797 74.6868 225.045 74.7444 225.21 74.9713V78.8888L214.306 75.1004C212.541 74.5368 211.544 76.7529 213.171 77.6289L225.041 81.7577C225.578 82.2846 224.637 84.2827 225.95 84.8516C226.997 85.3053 228.031 84.6561 228 83.5114L227.861 55.7743ZM225.21 64.2621L162.025 42.4877L161.081 42.7652L141.781 57.6449V51.4641L162.369 35.7153L225.21 57.5577V64.2621Z" fill="url(#paint0_linear_1_2864)"/>
<path d="M227.991 5.14793V52.4223L225.203 51.4364L225.212 6.80046L189.058 2.97188V39.0153L186.277 38.1445V4.36441L180.714 8.97825V36.054C180.107 35.9074 178.041 35.5078 177.931 34.925L177.935 18.6422L161.248 16.9006V30.1349C160.111 30.0721 159.398 31.0824 158.467 31.5274V18.2932L152.941 22.9437L152.901 35.6143C152.781 36.2512 150.689 37.471 150.125 37.97V21.8635C150.125 21.6506 150.872 20.9247 151.084 20.7362L159.459 13.9777L177.933 15.8554V7.93298C177.933 7.73928 178.611 7.07443 178.8 6.88597L187.146 0.0105831C187.663 0.0350134 188.194 -0.0225723 188.71 0.0105831C188.757 0.0140731 188.969 0.247906 189.133 0.19032C201.249 1.81145 213.725 2.25817 225.797 4.03809C226.37 4.12185 227.991 4.333 227.991 5.14793Z" fill="url(#paint1_linear_1_2864)"/>
<path d="M212.946 17.4134C212.359 17.5041 209.898 17.5059 209.384 17.3453C208.178 16.9667 208.239 14.9599 209.517 14.6737C210.057 14.5533 212.725 14.5585 213.226 14.7156C214.47 15.1047 214.388 17.1865 212.946 17.4134Z" fill="url(#paint2_linear_1_2864)"/>
<path d="M221.29 17.4134C220.703 17.5041 218.241 17.5059 217.729 17.3453C216.52 16.9667 216.583 14.9599 217.861 14.6737C218.401 14.5533 221.069 14.5585 221.571 14.7156C222.814 15.1047 222.732 17.1865 221.29 17.4134Z" fill="url(#paint3_linear_1_2864)"/>
<path d="M196.261 22.9857C195.674 23.0764 193.212 23.0781 192.7 22.9176C191.491 22.5389 191.554 20.5322 192.832 20.246C193.372 20.1256 196.04 20.1308 196.541 20.2878C197.785 20.677 197.703 22.7588 196.261 22.9857Z" fill="url(#paint4_linear_1_2864)"/>
<path d="M204.604 22.9857C204.018 23.0764 201.555 23.0781 201.041 22.9176C199.834 22.5389 199.895 20.5322 201.175 20.246C201.715 20.1256 204.383 20.1308 204.883 20.2878C206.127 20.677 206.045 22.7588 204.604 22.9857Z" fill="url(#paint5_linear_1_2864)"/>
<path d="M212.946 22.9857C212.359 23.0764 209.898 23.0781 209.384 22.9176C208.178 22.5389 208.239 20.5322 209.517 20.246C210.057 20.1256 212.725 20.1308 213.226 20.2878C214.47 20.677 214.388 22.7588 212.946 22.9857Z" fill="url(#paint6_linear_1_2864)"/>
<path d="M221.29 22.9857C220.703 23.0764 218.241 23.0781 217.729 22.9176C216.52 22.5389 216.583 20.5322 217.861 20.246C218.401 20.1256 221.069 20.1308 221.571 20.2878C222.814 20.677 222.732 22.7588 221.29 22.9857Z" fill="url(#paint7_linear_1_2864)"/>
<path d="M196.261 28.5574C195.674 28.6482 193.212 28.6499 192.7 28.4894C191.491 28.1107 191.554 26.1039 192.832 25.8177C193.372 25.6973 196.04 25.7026 196.541 25.8596C197.785 26.2488 197.703 28.3306 196.261 28.5574Z" fill="url(#paint8_linear_1_2864)"/>
<path d="M204.604 28.5574C204.018 28.6482 201.555 28.6499 201.041 28.4894C199.834 28.1107 199.895 26.1039 201.175 25.8177C201.715 25.6973 204.383 25.7026 204.883 25.8596C206.127 26.2488 206.045 28.3306 204.604 28.5574Z" fill="url(#paint9_linear_1_2864)"/>
<path d="M212.946 28.5574C212.359 28.6482 209.898 28.6499 209.384 28.4894C208.178 28.1107 208.239 26.1039 209.517 25.8177C210.057 25.6973 212.725 25.7026 213.226 25.8596C214.47 26.2488 214.388 28.3306 212.946 28.5574Z" fill="url(#paint10_linear_1_2864)"/>
<path d="M204.604 17.4139C204.018 17.5046 201.555 17.5064 201.041 17.3458C199.834 16.9671 199.895 14.9604 201.175 14.6742C201.715 14.5538 204.383 14.559 204.883 14.7161C206.127 15.1052 206.045 17.187 204.604 17.4139Z" fill="url(#paint11_linear_1_2864)"/>
<path d="M196.261 34.1292C195.674 34.2199 193.212 34.2217 192.7 34.0612C191.491 33.6825 191.554 31.6757 192.832 31.3895C193.372 31.2691 196.04 31.2744 196.541 31.4314C197.785 31.8205 197.703 33.9024 196.261 34.1292Z" fill="url(#paint12_linear_1_2864)"/>
<path d="M204.604 34.1292C204.018 34.2199 201.555 34.2217 201.041 34.0612C199.834 33.6825 199.895 31.6757 201.175 31.3895C201.715 31.2691 204.383 31.2744 204.883 31.4314C206.127 31.8205 206.045 33.9024 204.604 34.1292Z" fill="url(#paint13_linear_1_2864)"/>
<path d="M212.946 34.1292C212.359 34.2199 209.898 34.2217 209.384 34.0612C208.178 33.6825 208.239 31.6757 209.517 31.3895C210.057 31.2691 212.725 31.2744 213.226 31.4314C214.47 31.8205 214.388 33.9024 212.946 34.1292Z" fill="url(#paint14_linear_1_2864)"/>
<path d="M221.29 34.1292C220.703 34.2199 218.241 34.2217 217.729 34.0612C216.52 33.6825 216.583 31.6757 217.861 31.3895C218.401 31.2691 221.069 31.2744 221.571 31.4314C222.814 31.8205 222.732 33.9024 221.29 34.1292Z" fill="url(#paint15_linear_1_2864)"/>
<path d="M196.261 17.4139C195.674 17.5046 193.212 17.5064 192.7 17.3458C191.491 16.9671 191.554 14.9604 192.832 14.6742C193.372 14.5538 196.04 14.559 196.541 14.7161C197.785 15.1052 197.703 17.187 196.261 17.4139Z" fill="url(#paint16_linear_1_2864)"/>
<path d="M196.261 39.7012C195.674 39.7937 193.212 39.7937 192.7 39.6331C191.491 39.2545 191.554 37.2477 192.832 36.9633C193.372 36.8411 196.04 36.8463 196.541 37.0034C197.785 37.3925 197.703 39.4743 196.261 39.7012Z" fill="url(#paint17_linear_1_2864)"/>
<path d="M204.604 39.7012C204.018 39.7937 201.555 39.7937 201.041 39.6331C199.834 39.2545 199.895 37.2477 201.175 36.9633C201.715 36.8411 204.383 36.8463 204.883 37.0034C206.127 37.3925 206.045 39.4743 204.604 39.7012Z" fill="url(#paint18_linear_1_2864)"/>
<path d="M212.946 39.7012C212.359 39.7937 209.898 39.7937 209.384 39.6331C208.178 39.2545 208.239 37.2477 209.517 36.9633C210.057 36.8411 212.725 36.8463 213.226 37.0034C214.47 37.3925 214.388 39.4743 212.946 39.7012Z" fill="url(#paint19_linear_1_2864)"/>
<path d="M221.29 39.7012C220.703 39.7937 218.241 39.7937 217.729 39.6331C216.52 39.2545 216.583 37.2477 217.861 36.9633C218.401 36.8411 221.069 36.8463 221.571 37.0034C222.814 37.3925 222.732 39.4743 221.29 39.7012Z" fill="url(#paint20_linear_1_2864)"/>
<path d="M221.29 11.8421C220.703 11.9328 218.241 11.9346 217.729 11.774C216.52 11.3954 216.583 9.3886 217.861 9.10241C218.401 8.98201 221.069 8.98724 221.571 9.14429C222.814 9.53343 222.732 11.6152 221.29 11.8421Z" fill="url(#paint21_linear_1_2864)"/>
<path d="M212.946 45.273C212.359 45.3655 209.898 45.3655 209.384 45.2049C208.178 44.8262 208.239 42.8195 209.517 42.535C210.057 42.4129 212.725 42.4181 213.226 42.5752C214.47 42.9643 214.388 45.0479 212.946 45.273Z" fill="url(#paint22_linear_1_2864)"/>
<path d="M221.29 45.273C220.703 45.3655 218.241 45.3655 217.729 45.2049C216.52 44.8262 216.583 42.8195 217.861 42.535C218.401 42.4129 221.069 42.4181 221.571 42.5752C222.814 42.9643 222.732 45.0479 221.29 45.273Z" fill="url(#paint23_linear_1_2864)"/>
<path d="M212.946 11.8421C212.359 11.9328 209.898 11.9346 209.384 11.774C208.178 11.3954 208.239 9.3886 209.517 9.10241C210.057 8.98201 212.725 8.98724 213.226 9.14429C214.47 9.53343 214.388 11.6152 212.946 11.8421Z" fill="url(#paint24_linear_1_2864)"/>
<path d="M204.604 11.8416C204.018 11.9324 201.555 11.9341 201.041 11.7736C199.834 11.3949 199.895 9.38811 201.175 9.10193C201.715 8.98152 204.383 8.98675 204.883 9.14381C206.127 9.53295 206.045 11.6148 204.604 11.8416Z" fill="url(#paint25_linear_1_2864)"/>
<path d="M196.261 11.8416C195.674 11.9324 193.212 11.9341 192.7 11.7736C191.491 11.3949 191.554 9.38811 192.832 9.10193C193.372 8.98152 196.04 8.98675 196.541 9.14381C197.785 9.53295 197.703 11.6148 196.261 11.8416Z" fill="url(#paint26_linear_1_2864)"/>
<path d="M221.29 28.5574C220.703 28.6482 218.241 28.6499 217.729 28.4894C216.52 28.1107 216.583 26.1039 217.861 25.8177C218.401 25.6973 221.069 25.7026 221.571 25.8596C222.814 26.2488 222.732 28.3306 221.29 28.5574Z" fill="url(#paint27_linear_1_2864)"/>
<path d="M222.239 50.3179C222.041 50.4523 218.117 49.1837 217.638 48.9516C216.745 48.5188 217.502 48.1436 218.167 48.0651C219.86 47.8697 223.314 47.6481 222.239 50.3179Z" fill="url(#paint28_linear_1_2864)"/>
<path d="M205.007 44.5538C203.669 44.3741 201.924 43.2572 200.529 43.0164C200.023 42.3585 204.364 42.4475 204.751 42.5348C205.824 42.7756 206.308 44.7265 205.007 44.5538Z" fill="url(#paint29_linear_1_2864)"/>
<path d="M189.756 62.604C189.705 62.166 189.592 61.8397 189.227 61.5674L168.034 54.4146C167.729 54.3116 167.425 54.3029 167.109 54.371C166.488 54.5053 166.179 55.0463 166.11 55.6396C165.582 60.2063 166.517 65.7712 166.11 70.4479C166.219 71.378 166.688 71.6764 167.583 71.7584C174.157 72.3534 181.616 71.2872 188.284 71.7584C189.143 71.7671 189.657 71.2994 189.756 70.4479C189.949 68.7971 189.949 64.253 189.756 62.604ZM176.543 68.9628H168.896V57.6446L176.543 60.3442V68.9628ZM186.971 68.9628H179.324V61.1277L186.971 63.8272V68.9628Z" fill="url(#paint30_linear_1_2864)"/>
<path d="M157.761 69.2143C157.482 71.0065 154.99 70.3538 154.99 69.3993V57.9938L147.34 63.6896L147.343 83.328C147.263 85.0225 145.304 85.6821 144.565 84.0208L144.653 62.3511L155.622 53.8389C156.638 53.3137 157.641 53.7953 157.775 54.9435C158.289 59.3323 157.392 64.7174 157.761 69.2143Z" fill="url(#paint31_linear_1_2864)"/>
</g>
<g clip-path="url(#clip1_1_2864)">
<path d="M350.945 110.935C350.545 110.103 349.745 110.06 348.93 110H288.07C287.194 110.064 286.375 110.12 286 111.057V181.952C286.24 182.631 286.741 182.73 287.301 183H306.607C307.777 182.797 308.677 181.503 307.82 180.437C307.727 180.322 306.921 179.828 306.866 179.828H288.853V175.243H348.147V179.828H318.241C318.191 179.828 317.468 180.264 317.385 180.361C316.475 181.431 317.33 182.707 318.5 183H349.697C350.259 182.73 350.76 182.631 351 181.952L350.945 110.935ZM288.853 125.346H293.334V128.344H288.853V125.346ZM288.853 137.336H291.784V149.501H288.853V137.336ZM291.784 172.245H288.853V160.081H291.784V172.245ZM297.816 172.245H294.713V160.081H297.816V172.245ZM303.677 172.245H300.746V160.081H303.677V172.245ZM309.538 172.245H306.607V160.081H309.538V172.245ZM325.912 172.245H321.429V162.108C321.429 161.221 322.729 160.167 323.612 160.141C324.424 160.118 325.912 161.107 325.912 161.931V172.245ZM333.323 172.245H328.841V162.108C328.841 161.221 330.141 160.167 331.024 160.141C331.836 160.118 333.323 161.107 333.323 161.931V172.245ZM340.735 172.245H336.254V162.108C336.544 160.316 338.785 159.572 340.085 160.784C340.254 160.941 340.735 161.781 340.735 161.931V172.245ZM348.147 172.245H343.666V162.108C343.956 160.316 346.197 159.572 347.497 160.784C347.666 160.941 348.147 161.781 348.147 161.931V172.245ZM348.147 157.612C346.021 156.609 343.961 157.186 342.224 158.656C340.157 156.62 336.969 156.588 334.937 158.653C332.521 156.634 329.818 156.624 327.378 158.612C324.791 156.116 320.527 156.864 318.986 160.137C318.896 160.33 318.5 161.475 318.5 161.579V172.245H312.64V158.582C312.64 158.121 311.8 157.083 311.347 157.083H288.853V152.498H348.147V157.612ZM294.713 149.501V137.336H297.816V149.501H294.713ZM300.746 149.501V137.336H303.677V149.501H300.746ZM306.607 149.501V137.336H309.538V149.501H306.607ZM321.429 149.501V137.336H325.912V149.501H321.429ZM328.841 149.501V137.336H333.323V149.501H328.841ZM336.254 149.501V137.336H340.735V149.501H336.254ZM348.147 149.501H343.666V137.336H348.147V149.501ZM348.147 134.339H319.62C319.4 134.339 318.5 135.259 318.5 135.484V149.501H312.64V137.248C312.64 136.741 312.073 135.59 311.698 135.213C310.561 134.074 308.05 134.24 306.519 134.337C305.159 134.425 305.133 134.422 303.76 134.34C302.177 134.247 300.285 134.74 299.12 134.68C297.717 134.609 296.449 134.234 294.793 134.332C293.386 134.415 293.289 134.425 291.869 134.34C290.868 134.282 289.852 134.379 288.853 134.339V131.341H348.147V134.339ZM299.195 122.174H294.713V119.176H299.195V122.174ZM300.746 125.346V128.344H296.265V125.346H300.746ZM306.607 122.174H302.126V119.176H306.607V122.174ZM308.159 125.346V128.344H303.677V125.346H308.159ZM321.429 128.344V120.763H325.912V128.344H321.429ZM328.841 128.344V120.763H333.323V128.344H328.841ZM336.254 128.344V120.763H340.735V128.344H336.254ZM348.147 128.344H343.666V120.763H348.147V128.344ZM348.147 117.766H319.449C319.247 117.766 318.5 118.528 318.5 118.734V128.344H311.088V123.319C311.088 122.571 309.614 122.234 309.56 122.151C309.012 121.297 310.507 116.677 308.553 116.216L293.244 116.175C292.788 116.05 291.784 116.997 291.784 117.324V122.174H288.853V113.181H348.147V117.766Z" fill="url(#paint32_linear_1_2864)"/>
<path d="M312.557 182.901C313.372 182.901 314.033 182.225 314.033 181.392C314.033 180.558 313.372 179.882 312.557 179.882C311.742 179.882 311.081 180.558 311.081 181.392C311.081 182.225 311.742 182.901 312.557 182.901Z" fill="url(#paint33_linear_1_2864)"/>
</g>
<g clip-path="url(#clip2_1_2864)">
<path d="M88.4341 138.594C88.7125 137.791 88.8013 137.09 88.9996 136.285V130.703L83.1778 119.195C82.6453 116.828 84.3192 110.895 81.022 110.196L20.4092 110.21C19.7237 110.633 19.4018 111.549 19.976 112.208C20.0856 112.334 20.9138 112.736 21.0147 112.736H80.4913V117.708L80.2303 117.968H8.85769L8.59844 117.708V112.736H14.9353C14.9875 112.736 15.8001 112.371 15.8871 112.295C16.6126 111.657 16.1916 110.297 15.2798 110.123C14.2898 109.934 9.43884 109.986 8.35311 110.135C4.6679 110.638 6.46005 116.688 5.91196 119.195L0.098803 130.974C-0.273546 136.195 0.121422 142.024 6.17122 143.343L6.34173 143.695V179.718H3.3003C2.40423 179.718 0.822621 181.268 0.453752 182.09C-0.0264732 183.163 -0.0838914 187.104 0.128382 188.311C0.279757 189.175 0.913098 189.789 1.74653 190L87.6181 189.928C88.3889 189.628 88.6308 189.121 88.9996 188.439V183.03C88.6864 182.282 88.3767 181.438 87.7817 180.852C87.4981 180.573 86.0974 179.718 85.7877 179.718H82.748V143.695L82.9185 143.343C85.4345 142.826 87.5868 141.039 88.4341 138.594ZM80.9245 120.585L85.5267 129.656H76.1501L73.0234 120.585H80.9245ZM70.2447 120.585L73.3714 129.656H63.9931L62.0827 120.585H70.2447ZM74.0657 132.273V136.37C74.0657 140.671 67.6731 142.621 65.138 138.709C64.9275 138.384 64.3411 137.202 64.3411 136.895V132.273H74.0657ZM59.478 120.585L61.3884 129.656H51.8378L51.3176 120.585H59.478ZM61.7364 132.273V136.545C61.7364 139.363 58.3783 141.219 55.7858 140.777C54.3034 140.525 52.0118 138.424 52.0118 136.895V132.273H61.7364ZM40.3768 120.585H48.7112L49.2331 129.656H39.8548L40.3768 120.585ZM39.6826 132.273H49.4071V136.72C49.4071 136.877 48.9722 138.027 48.8538 138.258C47.1104 141.672 42.1324 141.733 40.302 138.365C40.1506 138.089 39.6826 136.938 39.6826 136.72V132.273ZM50.7086 140.298C53.7605 144.588 59.9269 144.483 63.0379 140.298C66.0758 144.613 72.2613 144.453 75.3689 140.298C76.5468 142.039 78.2328 142.824 80.1433 143.523V179.718H31.1725V150.15C31.1725 150.042 30.7445 149.28 30.6279 149.13C30.0067 148.336 29.2707 148.208 28.3155 148.138C23.5585 147.789 18.3682 148.397 13.566 148.165C12.7099 148.077 11.2031 149.359 11.2031 150.15V179.718H8.94469V143.523C10.8569 142.824 12.5412 142.039 13.7208 140.298C16.8266 144.453 23.0104 144.613 26.0501 140.298C29.1559 144.478 35.324 144.593 38.3794 140.298C41.3547 144.532 47.7246 144.541 50.7086 140.298ZM28.5678 150.762V179.718H13.8078V150.762H28.5678ZM15.0223 136.37V132.273H24.7469V136.895C24.7469 137.202 24.1623 138.384 23.95 138.709C21.4149 142.621 15.0223 140.671 15.0223 136.37ZM29.61 120.585H37.7721L37.2501 129.656H27.6996L29.61 120.585ZM27.3516 132.273H37.0779V136.895C37.0779 138.424 34.7864 140.525 33.3022 140.777C30.7114 141.219 27.3516 139.363 27.3516 136.545V132.273ZM27.0053 120.585L25.0949 129.656H15.7183L18.8432 120.585H27.0053ZM8.16346 120.585H16.0646L12.9396 129.656H3.5613L8.16346 120.585ZM2.69306 136.197V132.273H12.4176V137.069C12.4176 137.208 11.826 138.379 11.6886 138.604C9.19698 142.698 2.69306 140.728 2.69306 136.197ZM86.3949 182.326V187.392H2.69306V182.326H86.3949ZM77.3994 138.604C77.2619 138.379 76.6704 137.208 76.6704 137.069V132.273H86.3949V136.197C86.3949 140.728 79.891 142.698 77.3994 138.604Z" fill="url(#paint34_linear_1_2864)"/>
<path d="M76.6707 171.607C76.5611 172.647 76.0148 173.407 75.0613 173.827H35.387C34.0908 173.339 33.8541 171.977 33.7706 170.741C33.3356 164.406 34.1151 157.58 33.7723 151.191C33.9098 149.451 34.4648 148.404 36.2953 148.145C41.2472 148.554 47.0777 147.596 51.9252 148.145C52.9048 148.255 53.6947 148.852 53.3676 149.939C53.3206 150.096 52.6751 150.762 52.6194 150.762H36.5563V171.344H74.066V150.762H57.8288C57.065 150.762 56.2002 148.411 58.5248 148.145C63.4767 148.554 69.3073 147.596 74.153 148.145C75.7694 148.327 76.5367 149.257 76.6777 150.841C77.2675 157.44 76.2218 164.915 76.6707 171.607Z" fill="url(#paint35_linear_1_2864)"/>
<path d="M24.8782 162.303C25.1931 162.258 25.8421 162.56 26.0457 162.803C26.4215 163.253 26.4215 165.899 26.2354 166.471C25.8543 167.639 23.8586 167.633 23.6985 165.857C23.5924 164.679 23.3888 162.518 24.8782 162.303Z" fill="url(#paint36_linear_1_2864)"/>
</g>
<path d="M135.4 114V99.6H136.87V106.09H144.83V99.6H146.29V114H144.83V107.5H136.87V114H135.4ZM153.661 114.3C152.608 114.3 151.695 114.067 150.921 113.6C150.155 113.133 149.558 112.477 149.131 111.63C148.705 110.783 148.491 109.79 148.491 108.65C148.491 107.47 148.701 106.45 149.121 105.59C149.541 104.73 150.131 104.067 150.891 103.6C151.658 103.133 152.561 102.9 153.601 102.9C154.668 102.9 155.578 103.147 156.331 103.64C157.085 104.127 157.655 104.827 158.041 105.74C158.428 106.653 158.605 107.743 158.571 109.01H157.071V108.49C157.045 107.09 156.741 106.033 156.161 105.32C155.588 104.607 154.748 104.25 153.641 104.25C152.481 104.25 151.591 104.627 150.971 105.38C150.358 106.133 150.051 107.207 150.051 108.6C150.051 109.96 150.358 111.017 150.971 111.77C151.591 112.517 152.468 112.89 153.601 112.89C154.375 112.89 155.048 112.713 155.621 112.36C156.201 112 156.658 111.483 156.991 110.81L158.361 111.34C157.935 112.28 157.305 113.01 156.471 113.53C155.645 114.043 154.708 114.3 153.661 114.3ZM149.531 109.01V107.78H157.781V109.01H149.531ZM163.685 114.3C162.872 114.3 162.189 114.153 161.635 113.86C161.089 113.567 160.679 113.177 160.405 112.69C160.132 112.203 159.995 111.673 159.995 111.1C159.995 110.513 160.112 110.013 160.345 109.6C160.585 109.18 160.909 108.837 161.315 108.57C161.729 108.303 162.205 108.1 162.745 107.96C163.292 107.827 163.895 107.71 164.555 107.61C165.222 107.503 165.872 107.413 166.505 107.34C167.145 107.26 167.705 107.183 168.185 107.11L167.665 107.43C167.685 106.363 167.479 105.573 167.045 105.06C166.612 104.547 165.859 104.29 164.785 104.29C164.045 104.29 163.419 104.457 162.905 104.79C162.399 105.123 162.042 105.65 161.835 106.37L160.405 105.95C160.652 104.983 161.149 104.233 161.895 103.7C162.642 103.167 163.612 102.9 164.805 102.9C165.792 102.9 166.629 103.087 167.315 103.46C168.009 103.827 168.499 104.36 168.785 105.06C168.919 105.373 169.005 105.723 169.045 106.11C169.085 106.497 169.105 106.89 169.105 107.29V114H167.795V111.29L168.175 111.45C167.809 112.377 167.239 113.083 166.465 113.57C165.692 114.057 164.765 114.3 163.685 114.3ZM163.855 113.03C164.542 113.03 165.142 112.907 165.655 112.66C166.169 112.413 166.582 112.077 166.895 111.65C167.209 111.217 167.412 110.73 167.505 110.19C167.585 109.843 167.629 109.463 167.635 109.05C167.642 108.63 167.645 108.317 167.645 108.11L168.205 108.4C167.705 108.467 167.162 108.533 166.575 108.6C165.995 108.667 165.422 108.743 164.855 108.83C164.295 108.917 163.789 109.02 163.335 109.14C163.029 109.227 162.732 109.35 162.445 109.51C162.159 109.663 161.922 109.87 161.735 110.13C161.555 110.39 161.465 110.713 161.465 111.1C161.465 111.413 161.542 111.717 161.695 112.01C161.855 112.303 162.109 112.547 162.455 112.74C162.809 112.933 163.275 113.03 163.855 113.03ZM175.899 114.3C174.892 114.3 174.032 114.05 173.319 113.55C172.605 113.043 172.059 112.36 171.679 111.5C171.299 110.64 171.109 109.67 171.109 108.59C171.109 107.517 171.295 106.55 171.669 105.69C172.049 104.83 172.592 104.15 173.299 103.65C174.005 103.15 174.852 102.9 175.839 102.9C176.852 102.9 177.705 103.147 178.399 103.64C179.092 104.133 179.615 104.81 179.969 105.67C180.329 106.523 180.509 107.497 180.509 108.59C180.509 109.663 180.332 110.633 179.979 111.5C179.625 112.36 179.105 113.043 178.419 113.55C177.732 114.05 176.892 114.3 175.899 114.3ZM176.049 112.93C176.815 112.93 177.449 112.743 177.949 112.37C178.449 111.997 178.822 111.483 179.069 110.83C179.315 110.17 179.439 109.423 179.439 108.59C179.439 107.743 179.315 106.997 179.069 106.35C178.822 105.697 178.449 105.187 177.949 104.82C177.455 104.453 176.832 104.27 176.079 104.27C175.305 104.27 174.665 104.46 174.159 104.84C173.652 105.22 173.275 105.737 173.029 106.39C172.789 107.043 172.669 107.777 172.669 108.59C172.669 109.41 172.792 110.15 173.039 110.81C173.292 111.463 173.669 111.98 174.169 112.36C174.669 112.74 175.295 112.93 176.049 112.93ZM179.439 114V105.87H179.279V99.6H180.759V114H179.439ZM193.398 114.3C191.965 114.3 190.755 113.983 189.768 113.35C188.781 112.71 188.035 111.827 187.528 110.7C187.021 109.573 186.768 108.273 186.768 106.8C186.768 105.327 187.021 104.027 187.528 102.9C188.035 101.773 188.781 100.893 189.768 100.26C190.755 99.62 191.965 99.3 193.398 99.3C194.838 99.3 196.048 99.62 197.028 100.26C198.015 100.893 198.761 101.773 199.268 102.9C199.781 104.027 200.038 105.327 200.038 106.8C200.038 108.273 199.781 109.573 199.268 110.7C198.761 111.827 198.015 112.71 197.028 113.35C196.048 113.983 194.838 114.3 193.398 114.3ZM193.398 112.89C194.525 112.89 195.465 112.633 196.218 112.12C196.971 111.607 197.535 110.893 197.908 109.98C198.288 109.06 198.478 108 198.478 106.8C198.478 105.6 198.288 104.543 197.908 103.63C197.535 102.717 196.971 102.003 196.218 101.49C195.465 100.977 194.525 100.717 193.398 100.71C192.271 100.71 191.335 100.967 190.588 101.48C189.841 101.993 189.278 102.71 188.898 103.63C188.525 104.543 188.335 105.6 188.328 106.8C188.321 108 188.505 109.057 188.878 109.97C189.258 110.877 189.825 111.59 190.578 112.11C191.331 112.623 192.271 112.883 193.398 112.89ZM203.111 114V102.4C203.111 102.12 203.124 101.843 203.151 101.57C203.184 101.297 203.247 101.037 203.341 100.79C203.434 100.537 203.581 100.303 203.781 100.09C204.001 99.85 204.241 99.6767 204.501 99.57C204.761 99.4567 205.031 99.3833 205.311 99.35C205.597 99.3167 205.877 99.3 206.151 99.3H207.531V100.54H206.251C205.691 100.54 205.271 100.677 204.991 100.95C204.717 101.223 204.581 101.653 204.581 102.24V114H203.111ZM201.241 104.46V103.2H207.531V104.46H201.241ZM209.271 114V102.4C209.271 102.12 209.284 101.843 209.311 101.57C209.344 101.297 209.407 101.037 209.501 100.79C209.594 100.537 209.741 100.303 209.941 100.09C210.161 99.85 210.401 99.6767 210.661 99.57C210.921 99.4567 211.191 99.3833 211.471 99.35C211.757 99.3167 212.037 99.3 212.311 99.3H213.691V100.54H212.411C211.851 100.54 211.431 100.677 211.151 100.95C210.877 101.223 210.741 101.653 210.741 102.24V114H209.271ZM207.401 104.46V103.2H213.691V104.46H207.401ZM215.776 101.15V99.5H217.246V101.15H215.776ZM215.776 114V103.2H217.246V114H215.776ZM223.164 114L219.244 103.2H220.734L223.924 112.08L227.094 103.2H228.604L224.684 114H223.164ZM234.579 114.3C233.526 114.3 232.613 114.067 231.839 113.6C231.073 113.133 230.476 112.477 230.049 111.63C229.623 110.783 229.409 109.79 229.409 108.65C229.409 107.47 229.619 106.45 230.039 105.59C230.459 104.73 231.049 104.067 231.809 103.6C232.576 103.133 233.479 102.9 234.519 102.9C235.586 102.9 236.496 103.147 237.249 103.64C238.003 104.127 238.573 104.827 238.959 105.74C239.346 106.653 239.523 107.743 239.489 109.01H237.989V108.49C237.963 107.09 237.659 106.033 237.079 105.32C236.506 104.607 235.666 104.25 234.559 104.25C233.399 104.25 232.509 104.627 231.889 105.38C231.276 106.133 230.969 107.207 230.969 108.6C230.969 109.96 231.276 111.017 231.889 111.77C232.509 112.517 233.386 112.89 234.519 112.89C235.293 112.89 235.966 112.713 236.539 112.36C237.119 112 237.576 111.483 237.909 110.81L239.279 111.34C238.853 112.28 238.223 113.01 237.389 113.53C236.563 114.043 235.626 114.3 234.579 114.3ZM230.449 109.01V107.78H238.699V109.01H230.449Z" fill="black"/>
<path d="M24.4 219.3C23.3933 219.3 22.4867 219.133 21.68 218.8C20.88 218.46 20.2167 217.98 19.69 217.36C19.17 216.74 18.83 216.003 18.67 215.15L20.17 214.9C20.41 215.833 20.9167 216.567 21.69 217.1C22.4633 217.627 23.3867 217.89 24.46 217.89C25.1667 217.89 25.8 217.78 26.36 217.56C26.92 217.333 27.36 217.013 27.68 216.6C28 216.187 28.16 215.697 28.16 215.13C28.16 214.757 28.0933 214.44 27.96 214.18C27.8267 213.913 27.65 213.693 27.43 213.52C27.21 213.347 26.97 213.203 26.71 213.09C26.45 212.97 26.1967 212.873 25.95 212.8L22.3 211.71C21.86 211.583 21.4533 211.423 21.08 211.23C20.7067 211.03 20.38 210.793 20.1 210.52C19.8267 210.24 19.6133 209.913 19.46 209.54C19.3067 209.167 19.23 208.74 19.23 208.26C19.23 207.447 19.4433 206.743 19.87 206.15C20.2967 205.557 20.88 205.1 21.62 204.78C22.36 204.46 23.2033 204.303 24.15 204.31C25.11 204.31 25.9667 204.48 26.72 204.82C27.48 205.16 28.1067 205.647 28.6 206.28C29.0933 206.907 29.42 207.65 29.58 208.51L28.04 208.79C27.94 208.163 27.71 207.62 27.35 207.16C26.99 206.7 26.53 206.347 25.97 206.1C25.4167 205.847 24.8067 205.717 24.14 205.71C23.4933 205.71 22.9167 205.82 22.41 206.04C21.91 206.253 21.5133 206.547 21.22 206.92C20.9267 207.293 20.78 207.72 20.78 208.2C20.78 208.687 20.9133 209.077 21.18 209.37C21.4533 209.663 21.7867 209.893 22.18 210.06C22.58 210.227 22.9667 210.363 23.34 210.47L26.16 211.3C26.4533 211.38 26.7967 211.497 27.19 211.65C27.59 211.797 27.9767 212.01 28.35 212.29C28.73 212.563 29.0433 212.923 29.29 213.37C29.5367 213.817 29.66 214.383 29.66 215.07C29.66 215.737 29.5267 216.333 29.26 216.86C29 217.387 28.63 217.83 28.15 218.19C27.6767 218.55 27.12 218.823 26.48 219.01C25.8467 219.203 25.1533 219.3 24.4 219.3ZM37.6042 219C36.9976 219.127 36.3976 219.177 35.8042 219.15C35.2176 219.123 34.6909 218.997 34.2242 218.77C33.7642 218.543 33.4142 218.19 33.1742 217.71C32.9809 217.31 32.8742 216.907 32.8542 216.5C32.8409 216.087 32.8342 215.617 32.8342 215.09V205.2H34.2942V215.03C34.2942 215.483 34.2976 215.863 34.3042 216.17C34.3176 216.47 34.3876 216.737 34.5142 216.97C34.7542 217.417 35.1342 217.683 35.6542 217.77C36.1809 217.857 36.8309 217.837 37.6042 217.71V219ZM30.5242 209.46V208.2H37.6042V209.46H30.5242ZM43.8514 219.3C42.7781 219.3 41.8614 219.057 41.1014 218.57C40.3414 218.083 39.7581 217.41 39.3514 216.55C38.9447 215.69 38.7414 214.703 38.7414 213.59C38.7414 212.457 38.9481 211.463 39.3614 210.61C39.7747 209.757 40.3614 209.093 41.1214 208.62C41.8881 208.14 42.7981 207.9 43.8514 207.9C44.9314 207.9 45.8514 208.143 46.6114 208.63C47.3781 209.11 47.9614 209.78 48.3614 210.64C48.7681 211.493 48.9714 212.477 48.9714 213.59C48.9714 214.723 48.7681 215.72 48.3614 216.58C47.9547 217.433 47.3681 218.1 46.6014 218.58C45.8347 219.06 44.9181 219.3 43.8514 219.3ZM43.8514 217.89C45.0514 217.89 45.9447 217.493 46.5314 216.7C47.1181 215.9 47.4114 214.863 47.4114 213.59C47.4114 212.283 47.1147 211.243 46.5214 210.47C45.9347 209.697 45.0447 209.31 43.8514 209.31C43.0447 209.31 42.3781 209.493 41.8514 209.86C41.3314 210.22 40.9414 210.723 40.6814 211.37C40.4281 212.01 40.3014 212.75 40.3014 213.59C40.3014 214.89 40.6014 215.933 41.2014 216.72C41.8014 217.5 42.6847 217.89 43.8514 217.89ZM51.1773 219V208.2H52.4973V210.8L52.2373 210.46C52.3573 210.14 52.514 209.847 52.7073 209.58C52.9007 209.307 53.1107 209.083 53.3373 208.91C53.6173 208.663 53.944 208.477 54.3173 208.35C54.6907 208.217 55.0673 208.14 55.4473 208.12C55.8273 208.093 56.174 208.12 56.4873 208.2V209.58C56.094 209.48 55.664 209.457 55.1973 209.51C54.7307 209.563 54.3007 209.75 53.9073 210.07C53.5473 210.35 53.2773 210.687 53.0973 211.08C52.9173 211.467 52.7973 211.88 52.7373 212.32C52.6773 212.753 52.6473 213.183 52.6473 213.61V219H51.1773ZM62.7591 219.3C61.7057 219.3 60.7924 219.067 60.0191 218.6C59.2524 218.133 58.6557 217.477 58.2291 216.63C57.8024 215.783 57.5891 214.79 57.5891 213.65C57.5891 212.47 57.7991 211.45 58.2191 210.59C58.6391 209.73 59.2291 209.067 59.9891 208.6C60.7557 208.133 61.6591 207.9 62.6991 207.9C63.7657 207.9 64.6757 208.147 65.4291 208.64C66.1824 209.127 66.7524 209.827 67.1391 210.74C67.5257 211.653 67.7024 212.743 67.6691 214.01H66.1691V213.49C66.1424 212.09 65.8391 211.033 65.2591 210.32C64.6857 209.607 63.8457 209.25 62.7391 209.25C61.5791 209.25 60.6891 209.627 60.0691 210.38C59.4557 211.133 59.1491 212.207 59.1491 213.6C59.1491 214.96 59.4557 216.017 60.0691 216.77C60.6891 217.517 61.5657 217.89 62.6991 217.89C63.4724 217.89 64.1457 217.713 64.7191 217.36C65.2991 217 65.7557 216.483 66.0891 215.81L67.4591 216.34C67.0324 217.28 66.4024 218.01 65.5691 218.53C64.7424 219.043 63.8057 219.3 62.7591 219.3ZM58.6291 214.01V212.78H66.8791V214.01H58.6291Z" fill="black"/>
<path d="M260.23 217.3C258.797 217.3 257.587 216.983 256.6 216.35C255.613 215.71 254.867 214.827 254.36 213.7C253.853 212.573 253.6 211.273 253.6 209.8C253.6 208.327 253.853 207.027 254.36 205.9C254.867 204.773 255.613 203.893 256.6 203.26C257.587 202.62 258.797 202.3 260.23 202.3C261.903 202.3 263.27 202.73 264.33 203.59C265.39 204.443 266.117 205.59 266.51 207.03L265.01 207.42C264.703 206.28 264.153 205.377 263.36 204.71C262.567 204.043 261.523 203.71 260.23 203.71C259.103 203.71 258.167 203.967 257.42 204.48C256.673 204.993 256.11 205.71 255.73 206.63C255.357 207.543 255.163 208.6 255.15 209.8C255.143 211 255.327 212.057 255.7 212.97C256.08 213.883 256.647 214.6 257.4 215.12C258.16 215.633 259.103 215.89 260.23 215.89C261.523 215.89 262.567 215.557 263.36 214.89C264.153 214.217 264.703 213.313 265.01 212.18L266.51 212.57C266.117 214.01 265.39 215.16 264.33 216.02C263.27 216.873 261.903 217.3 260.23 217.3ZM273.226 217.3C272.153 217.3 271.236 217.057 270.476 216.57C269.716 216.083 269.133 215.41 268.726 214.55C268.32 213.69 268.116 212.703 268.116 211.59C268.116 210.457 268.323 209.463 268.736 208.61C269.15 207.757 269.736 207.093 270.496 206.62C271.263 206.14 272.173 205.9 273.226 205.9C274.306 205.9 275.226 206.143 275.986 206.63C276.753 207.11 277.336 207.78 277.736 208.64C278.143 209.493 278.346 210.477 278.346 211.59C278.346 212.723 278.143 213.72 277.736 214.58C277.33 215.433 276.743 216.1 275.976 216.58C275.21 217.06 274.293 217.3 273.226 217.3ZM273.226 215.89C274.426 215.89 275.32 215.493 275.906 214.7C276.493 213.9 276.786 212.863 276.786 211.59C276.786 210.283 276.49 209.243 275.896 208.47C275.31 207.697 274.42 207.31 273.226 207.31C272.42 207.31 271.753 207.493 271.226 207.86C270.706 208.22 270.316 208.723 270.056 209.37C269.803 210.01 269.676 210.75 269.676 211.59C269.676 212.89 269.976 213.933 270.576 214.72C271.176 215.5 272.06 215.89 273.226 215.89ZM293.432 217L293.442 209.91C293.442 209.077 293.209 208.423 292.742 207.95C292.282 207.47 291.696 207.23 290.982 207.23C290.576 207.23 290.179 207.323 289.792 207.51C289.406 207.697 289.086 207.997 288.832 208.41C288.586 208.823 288.462 209.363 288.462 210.03L287.592 209.78C287.572 209.007 287.722 208.33 288.042 207.75C288.369 207.17 288.816 206.72 289.382 206.4C289.956 206.073 290.602 205.91 291.322 205.91C292.409 205.91 293.279 206.247 293.932 206.92C294.586 207.587 294.912 208.49 294.912 209.63L294.902 217H293.432ZM280.542 217V206.2H281.862V208.86H282.022V217H280.542ZM287.002 217L287.012 210.01C287.012 209.15 286.782 208.473 286.322 207.98C285.869 207.48 285.269 207.23 284.522 207.23C283.776 207.23 283.172 207.487 282.712 208C282.252 208.507 282.022 209.183 282.022 210.03L281.142 209.55C281.142 208.857 281.306 208.237 281.632 207.69C281.959 207.137 282.406 206.703 282.972 206.39C283.539 206.07 284.182 205.91 284.902 205.91C285.589 205.91 286.199 206.057 286.732 206.35C287.272 206.643 287.696 207.07 288.002 207.63C288.309 208.19 288.462 208.87 288.462 209.67L288.452 217H287.002ZM310.385 217L310.395 209.91C310.395 209.077 310.162 208.423 309.695 207.95C309.235 207.47 308.649 207.23 307.935 207.23C307.529 207.23 307.132 207.323 306.745 207.51C306.359 207.697 306.039 207.997 305.785 208.41C305.539 208.823 305.415 209.363 305.415 210.03L304.545 209.78C304.525 209.007 304.675 208.33 304.995 207.75C305.322 207.17 305.769 206.72 306.335 206.4C306.909 206.073 307.555 205.91 308.275 205.91C309.362 205.91 310.232 206.247 310.885 206.92C311.539 207.587 311.865 208.49 311.865 209.63L311.855 217H310.385ZM297.495 217V206.2H298.815V208.86H298.975V217H297.495ZM303.955 217L303.965 210.01C303.965 209.15 303.735 208.473 303.275 207.98C302.822 207.48 302.222 207.23 301.475 207.23C300.729 207.23 300.125 207.487 299.665 208C299.205 208.507 298.975 209.183 298.975 210.03L298.095 209.55C298.095 208.857 298.259 208.237 298.585 207.69C298.912 207.137 299.359 206.703 299.925 206.39C300.492 206.07 301.135 205.91 301.855 205.91C302.542 205.91 303.152 206.057 303.685 206.35C304.225 206.643 304.649 207.07 304.955 207.63C305.262 208.19 305.415 208.87 305.415 209.67L305.405 217H303.955ZM314.659 204.15V202.5H316.129V204.15H314.659ZM314.659 217V206.2H316.129V217H314.659ZM323.157 217.29C321.89 217.29 320.847 217.017 320.027 216.47C319.213 215.923 318.713 215.163 318.527 214.19L320.027 213.94C320.187 214.553 320.55 215.043 321.117 215.41C321.69 215.77 322.397 215.95 323.237 215.95C324.057 215.95 324.703 215.78 325.177 215.44C325.65 215.093 325.887 214.623 325.887 214.03C325.887 213.697 325.81 213.427 325.657 213.22C325.51 213.007 325.207 212.81 324.747 212.63C324.287 212.45 323.6 212.237 322.687 211.99C321.707 211.723 320.94 211.457 320.387 211.19C319.833 210.923 319.44 210.617 319.207 210.27C318.973 209.917 318.857 209.487 318.857 208.98C318.857 208.367 319.03 207.83 319.377 207.37C319.723 206.903 320.203 206.543 320.817 206.29C321.43 206.03 322.143 205.9 322.957 205.9C323.77 205.9 324.497 206.033 325.137 206.3C325.783 206.56 326.303 206.927 326.697 207.4C327.09 207.873 327.323 208.423 327.397 209.05L325.897 209.32C325.797 208.687 325.48 208.187 324.947 207.82C324.42 207.447 323.75 207.253 322.937 207.24C322.17 207.22 321.547 207.367 321.067 207.68C320.587 207.987 320.347 208.397 320.347 208.91C320.347 209.197 320.433 209.443 320.607 209.65C320.78 209.85 321.093 210.04 321.547 210.22C322.007 210.4 322.66 210.597 323.507 210.81C324.5 211.063 325.28 211.33 325.847 211.61C326.413 211.89 326.817 212.22 327.057 212.6C327.297 212.98 327.417 213.45 327.417 214.01C327.417 215.03 327.037 215.833 326.277 216.42C325.523 217 324.483 217.29 323.157 217.29ZM333.664 217.29C332.398 217.29 331.354 217.017 330.534 216.47C329.721 215.923 329.221 215.163 329.034 214.19L330.534 213.94C330.694 214.553 331.058 215.043 331.624 215.41C332.198 215.77 332.904 215.95 333.744 215.95C334.564 215.95 335.211 215.78 335.684 215.44C336.158 215.093 336.394 214.623 336.394 214.03C336.394 213.697 336.318 213.427 336.164 213.22C336.018 213.007 335.714 212.81 335.254 212.63C334.794 212.45 334.108 212.237 333.194 211.99C332.214 211.723 331.448 211.457 330.894 211.19C330.341 210.923 329.948 210.617 329.714 210.27C329.481 209.917 329.364 209.487 329.364 208.98C329.364 208.367 329.538 207.83 329.884 207.37C330.231 206.903 330.711 206.543 331.324 206.29C331.938 206.03 332.651 205.9 333.464 205.9C334.278 205.9 335.004 206.033 335.644 206.3C336.291 206.56 336.811 206.927 337.204 207.4C337.598 207.873 337.831 208.423 337.904 209.05L336.404 209.32C336.304 208.687 335.988 208.187 335.454 207.82C334.928 207.447 334.258 207.253 333.444 207.24C332.678 207.22 332.054 207.367 331.574 207.68C331.094 207.987 330.854 208.397 330.854 208.91C330.854 209.197 330.941 209.443 331.114 209.65C331.288 209.85 331.601 210.04 332.054 210.22C332.514 210.4 333.168 210.597 334.014 210.81C335.008 211.063 335.788 211.33 336.354 211.61C336.921 211.89 337.324 212.22 337.564 212.6C337.804 212.98 337.924 213.45 337.924 214.01C337.924 215.03 337.544 215.833 336.784 216.42C336.031 217 334.991 217.29 333.664 217.29ZM343.232 217.3C342.419 217.3 341.736 217.153 341.182 216.86C340.636 216.567 340.226 216.177 339.952 215.69C339.679 215.203 339.542 214.673 339.542 214.1C339.542 213.513 339.659 213.013 339.892 212.6C340.132 212.18 340.456 211.837 340.862 211.57C341.276 211.303 341.752 211.1 342.292 210.96C342.839 210.827 343.442 210.71 344.102 210.61C344.769 210.503 345.419 210.413 346.052 210.34C346.692 210.26 347.252 210.183 347.732 210.11L347.212 210.43C347.232 209.363 347.026 208.573 346.592 208.06C346.159 207.547 345.406 207.29 344.332 207.29C343.592 207.29 342.966 207.457 342.452 207.79C341.946 208.123 341.589 208.65 341.382 209.37L339.952 208.95C340.199 207.983 340.696 207.233 341.442 206.7C342.189 206.167 343.159 205.9 344.352 205.9C345.339 205.9 346.176 206.087 346.862 206.46C347.556 206.827 348.046 207.36 348.332 208.06C348.466 208.373 348.552 208.723 348.592 209.11C348.632 209.497 348.652 209.89 348.652 210.29V217H347.342V214.29L347.722 214.45C347.356 215.377 346.786 216.083 346.012 216.57C345.239 217.057 344.312 217.3 343.232 217.3ZM343.402 216.03C344.089 216.03 344.689 215.907 345.202 215.66C345.716 215.413 346.129 215.077 346.442 214.65C346.756 214.217 346.959 213.73 347.052 213.19C347.132 212.843 347.176 212.463 347.182 212.05C347.189 211.63 347.192 211.317 347.192 211.11L347.752 211.4C347.252 211.467 346.709 211.533 346.122 211.6C345.542 211.667 344.969 211.743 344.402 211.83C343.842 211.917 343.336 212.02 342.882 212.14C342.576 212.227 342.279 212.35 341.992 212.51C341.706 212.663 341.469 212.87 341.282 213.13C341.102 213.39 341.012 213.713 341.012 214.1C341.012 214.413 341.089 214.717 341.242 215.01C341.402 215.303 341.656 215.547 342.002 215.74C342.356 215.933 342.822 216.03 343.402 216.03ZM351.255 217V206.2H352.575V208.8L352.315 208.46C352.435 208.14 352.592 207.847 352.785 207.58C352.979 207.307 353.189 207.083 353.415 206.91C353.695 206.663 354.022 206.477 354.395 206.35C354.769 206.217 355.145 206.14 355.525 206.12C355.905 206.093 356.252 206.12 356.565 206.2V207.58C356.172 207.48 355.742 207.457 355.275 207.51C354.809 207.563 354.379 207.75 353.985 208.07C353.625 208.35 353.355 208.687 353.175 209.08C352.995 209.467 352.875 209.88 352.815 210.32C352.755 210.753 352.725 211.183 352.725 211.61V217H351.255ZM358.663 204.15V202.5H360.133V204.15H358.663ZM358.663 217V206.2H360.133V217H358.663ZM367.7 217.3C366.647 217.3 365.734 217.067 364.96 216.6C364.194 216.133 363.597 215.477 363.17 214.63C362.744 213.783 362.53 212.79 362.53 211.65C362.53 210.47 362.74 209.45 363.16 208.59C363.58 207.73 364.17 207.067 364.93 206.6C365.697 206.133 366.6 205.9 367.64 205.9C368.707 205.9 369.617 206.147 370.37 206.64C371.124 207.127 371.694 207.827 372.08 208.74C372.467 209.653 372.644 210.743 372.61 212.01H371.11V211.49C371.084 210.09 370.78 209.033 370.2 208.32C369.627 207.607 368.787 207.25 367.68 207.25C366.52 207.25 365.63 207.627 365.01 208.38C364.397 209.133 364.09 210.207 364.09 211.6C364.09 212.96 364.397 214.017 365.01 214.77C365.63 215.517 366.507 215.89 367.64 215.89C368.414 215.89 369.087 215.713 369.66 215.36C370.24 215 370.697 214.483 371.03 213.81L372.4 214.34C371.974 215.28 371.344 216.01 370.51 216.53C369.684 217.043 368.747 217.3 367.7 217.3ZM363.57 212.01V210.78H371.82V212.01H363.57ZM378.86 217.29C377.593 217.29 376.55 217.017 375.73 216.47C374.916 215.923 374.416 215.163 374.23 214.19L375.73 213.94C375.89 214.553 376.253 215.043 376.82 215.41C377.393 215.77 378.1 215.95 378.94 215.95C379.76 215.95 380.406 215.78 380.88 215.44C381.353 215.093 381.59 214.623 381.59 214.03C381.59 213.697 381.513 213.427 381.36 213.22C381.213 213.007 380.91 212.81 380.45 212.63C379.99 212.45 379.303 212.237 378.39 211.99C377.41 211.723 376.643 211.457 376.09 211.19C375.536 210.923 375.143 210.617 374.91 210.27C374.676 209.917 374.56 209.487 374.56 208.98C374.56 208.367 374.733 207.83 375.08 207.37C375.426 206.903 375.906 206.543 376.52 206.29C377.133 206.03 377.846 205.9 378.66 205.9C379.473 205.9 380.2 206.033 380.84 206.3C381.486 206.56 382.006 206.927 382.4 207.4C382.793 207.873 383.026 208.423 383.1 209.05L381.6 209.32C381.5 208.687 381.183 208.187 380.65 207.82C380.123 207.447 379.453 207.253 378.64 207.24C377.873 207.22 377.25 207.367 376.77 207.68C376.29 207.987 376.05 208.397 376.05 208.91C376.05 209.197 376.136 209.443 376.31 209.65C376.483 209.85 376.796 210.04 377.25 210.22C377.71 210.4 378.363 210.597 379.21 210.81C380.203 211.063 380.983 211.33 381.55 211.61C382.116 211.89 382.52 212.22 382.76 212.6C383 212.98 383.12 213.45 383.12 214.01C383.12 215.03 382.74 215.833 381.98 216.42C381.226 217 380.186 217.29 378.86 217.29Z" fill="black"/>
<path d="M89.68 291V273.72H95.188C95.332 273.72 95.616 273.724 96.04 273.732C96.472 273.74 96.888 273.768 97.288 273.816C98.656 273.992 99.812 274.48 100.756 275.28C101.708 276.072 102.428 277.084 102.916 278.316C103.404 279.548 103.648 280.896 103.648 282.36C103.648 283.824 103.404 285.172 102.916 286.404C102.428 287.636 101.708 288.652 100.756 289.452C99.812 290.244 98.656 290.728 97.288 290.904C96.896 290.952 96.484 290.98 96.052 290.988C95.62 290.996 95.332 291 95.188 291H89.68ZM92.62 288.276H95.188C95.428 288.276 95.732 288.268 96.1 288.252C96.476 288.236 96.808 288.2 97.096 288.144C97.912 287.992 98.576 287.628 99.088 287.052C99.6 286.476 99.976 285.776 100.216 284.952C100.464 284.128 100.588 283.264 100.588 282.36C100.588 281.424 100.464 280.544 100.216 279.72C99.968 278.896 99.584 278.204 99.064 277.644C98.552 277.084 97.896 276.728 97.096 276.576C96.808 276.512 96.476 276.476 96.1 276.468C95.732 276.452 95.428 276.444 95.188 276.444H92.62V288.276ZM106.725 276.072V273.42H109.617V276.072H106.725ZM106.725 291V278.04H109.617V291H106.725ZM118.659 297.12C117.939 297.12 117.247 297.008 116.583 296.784C115.927 296.56 115.335 296.236 114.807 295.812C114.279 295.396 113.847 294.892 113.511 294.3L116.175 292.98C116.423 293.452 116.771 293.8 117.219 294.024C117.675 294.256 118.159 294.372 118.671 294.372C119.271 294.372 119.807 294.264 120.279 294.048C120.751 293.84 121.115 293.528 121.371 293.112C121.635 292.704 121.759 292.192 121.743 291.576V287.892H122.103V278.04H124.635V291.624C124.635 291.952 124.619 292.264 124.587 292.56C124.563 292.864 124.519 293.16 124.455 293.448C124.263 294.288 123.895 294.976 123.351 295.512C122.807 296.056 122.131 296.46 121.323 296.724C120.523 296.988 119.635 297.12 118.659 297.12ZM118.407 291.36C117.215 291.36 116.175 291.06 115.287 290.46C114.399 289.86 113.711 289.044 113.223 288.012C112.735 286.98 112.491 285.816 112.491 284.52C112.491 283.208 112.735 282.04 113.223 281.016C113.719 279.984 114.419 279.172 115.323 278.58C116.227 277.98 117.291 277.68 118.515 277.68C119.747 277.68 120.779 277.98 121.611 278.58C122.451 279.172 123.087 279.984 123.519 281.016C123.951 282.048 124.167 283.216 124.167 284.52C124.167 285.808 123.951 286.972 123.519 288.012C123.087 289.044 122.443 289.86 121.587 290.46C120.731 291.06 119.671 291.36 118.407 291.36ZM118.851 288.768C119.627 288.768 120.251 288.592 120.723 288.24C121.203 287.88 121.551 287.38 121.767 286.74C121.991 286.1 122.103 285.36 122.103 284.52C122.103 283.672 121.991 282.932 121.767 282.3C121.551 281.66 121.211 281.164 120.747 280.812C120.283 280.452 119.683 280.272 118.947 280.272C118.171 280.272 117.531 280.464 117.027 280.848C116.523 281.224 116.151 281.736 115.911 282.384C115.671 283.024 115.551 283.736 115.551 284.52C115.551 285.312 115.667 286.032 115.899 286.68C116.139 287.32 116.503 287.828 116.991 288.204C117.479 288.58 118.099 288.768 118.851 288.768ZM128.24 276.072V273.42H131.132V276.072H128.24ZM128.24 291V278.04H131.132V291H128.24ZM142.323 291C141.467 291.16 140.627 291.228 139.803 291.204C138.987 291.188 138.255 291.04 137.607 290.76C136.959 290.472 136.467 290.02 136.131 289.404C135.835 288.844 135.679 288.272 135.663 287.688C135.647 287.104 135.639 286.444 135.639 285.708V274.44H138.519V285.54C138.519 286.06 138.523 286.516 138.531 286.908C138.547 287.3 138.631 287.62 138.783 287.868C139.071 288.348 139.531 288.616 140.163 288.672C140.795 288.728 141.515 288.696 142.323 288.576V291ZM133.287 280.308V278.04H142.323V280.308H133.287ZM148.734 291.36C147.798 291.36 147.006 291.184 146.358 290.832C145.71 290.472 145.218 289.996 144.882 289.404C144.554 288.812 144.39 288.16 144.39 287.448C144.39 286.824 144.494 286.264 144.702 285.768C144.91 285.264 145.23 284.832 145.662 284.472C146.094 284.104 146.654 283.804 147.342 283.572C147.862 283.404 148.47 283.252 149.166 283.116C149.87 282.98 150.63 282.856 151.446 282.744C152.27 282.624 153.13 282.496 154.026 282.36L152.994 282.948C153.002 282.052 152.802 281.392 152.394 280.968C151.986 280.544 151.298 280.332 150.33 280.332C149.746 280.332 149.182 280.468 148.638 280.74C148.094 281.012 147.714 281.48 147.498 282.144L144.858 281.316C145.178 280.22 145.786 279.34 146.682 278.676C147.586 278.012 148.802 277.68 150.33 277.68C151.482 277.68 152.494 277.868 153.366 278.244C154.246 278.62 154.898 279.236 155.322 280.092C155.554 280.548 155.694 281.016 155.742 281.496C155.79 281.968 155.814 282.484 155.814 283.044V291H153.282V288.192L153.702 288.648C153.118 289.584 152.434 290.272 151.65 290.712C150.874 291.144 149.902 291.36 148.734 291.36ZM149.31 289.056C149.966 289.056 150.526 288.94 150.99 288.708C151.454 288.476 151.822 288.192 152.094 287.856C152.374 287.52 152.562 287.204 152.658 286.908C152.81 286.54 152.894 286.12 152.91 285.648C152.934 285.168 152.946 284.78 152.946 284.484L153.834 284.748C152.962 284.884 152.214 285.004 151.59 285.108C150.966 285.212 150.43 285.312 149.982 285.408C149.534 285.496 149.138 285.596 148.794 285.708C148.458 285.828 148.174 285.968 147.942 286.128C147.71 286.288 147.53 286.472 147.402 286.68C147.282 286.888 147.222 287.132 147.222 287.412C147.222 287.732 147.302 288.016 147.462 288.264C147.622 288.504 147.854 288.696 148.158 288.84C148.47 288.984 148.854 289.056 149.31 289.056ZM159.178 291V273.36H162.07V291H159.178ZM170.469 291V273.72H181.629V276.432H173.361V280.692H180.189V283.404H173.361V288.288H181.629V291H170.469ZM190.136 291.36C188.8 291.36 187.66 291.064 186.716 290.472C185.772 289.872 185.048 289.056 184.544 288.024C184.048 286.992 183.796 285.824 183.788 284.52C183.796 283.192 184.056 282.016 184.568 280.992C185.088 279.96 185.824 279.152 186.776 278.568C187.728 277.976 188.86 277.68 190.172 277.68C191.644 277.68 192.888 278.052 193.904 278.796C194.928 279.532 195.596 280.54 195.908 281.82L193.028 282.6C192.804 281.904 192.432 281.364 191.912 280.98C191.392 280.588 190.8 280.392 190.136 280.392C189.384 280.392 188.764 280.572 188.276 280.932C187.788 281.284 187.428 281.772 187.196 282.396C186.964 283.02 186.848 283.728 186.848 284.52C186.848 285.752 187.124 286.748 187.676 287.508C188.228 288.268 189.048 288.648 190.136 288.648C190.904 288.648 191.508 288.472 191.948 288.12C192.396 287.768 192.732 287.26 192.956 286.596L195.908 287.256C195.508 288.576 194.808 289.592 193.808 290.304C192.808 291.008 191.584 291.36 190.136 291.36ZM203.685 291.36C202.389 291.36 201.257 291.068 200.289 290.484C199.321 289.9 198.569 289.096 198.033 288.072C197.505 287.04 197.241 285.856 197.241 284.52C197.241 283.16 197.513 281.968 198.057 280.944C198.601 279.92 199.357 279.12 200.325 278.544C201.293 277.968 202.413 277.68 203.685 277.68C204.989 277.68 206.125 277.972 207.093 278.556C208.061 279.14 208.813 279.948 209.349 280.98C209.885 282.004 210.153 283.184 210.153 284.52C210.153 285.864 209.881 287.052 209.337 288.084C208.801 289.108 208.049 289.912 207.081 290.496C206.113 291.072 204.981 291.36 203.685 291.36ZM203.685 288.648C204.837 288.648 205.693 288.264 206.253 287.496C206.813 286.728 207.093 285.736 207.093 284.52C207.093 283.264 206.809 282.264 206.241 281.52C205.673 280.768 204.821 280.392 203.685 280.392C202.909 280.392 202.269 280.568 201.765 280.92C201.269 281.264 200.901 281.748 200.661 282.372C200.421 282.988 200.301 283.704 200.301 284.52C200.301 285.776 200.585 286.78 201.153 287.532C201.729 288.276 202.573 288.648 203.685 288.648ZM217.497 291.36C215.897 291.36 214.597 291 213.597 290.28C212.597 289.56 211.989 288.548 211.773 287.244L214.725 286.788C214.877 287.428 215.213 287.932 215.733 288.3C216.253 288.668 216.909 288.852 217.701 288.852C218.397 288.852 218.933 288.716 219.309 288.444C219.693 288.164 219.885 287.784 219.885 287.304C219.885 287.008 219.813 286.772 219.669 286.596C219.533 286.412 219.229 286.236 218.757 286.068C218.285 285.9 217.561 285.688 216.585 285.432C215.497 285.144 214.633 284.836 213.993 284.508C213.353 284.172 212.893 283.776 212.613 283.32C212.333 282.864 212.193 282.312 212.193 281.664C212.193 280.856 212.405 280.152 212.829 279.552C213.253 278.952 213.845 278.492 214.605 278.172C215.365 277.844 216.261 277.68 217.293 277.68C218.301 277.68 219.193 277.836 219.969 278.148C220.753 278.46 221.385 278.904 221.865 279.48C222.345 280.056 222.641 280.732 222.753 281.508L219.801 282.036C219.729 281.484 219.477 281.048 219.045 280.728C218.621 280.408 218.053 280.228 217.341 280.188C216.661 280.148 216.113 280.252 215.697 280.5C215.281 280.74 215.073 281.08 215.073 281.52C215.073 281.768 215.157 281.98 215.325 282.156C215.493 282.332 215.829 282.508 216.333 282.684C216.845 282.86 217.605 283.076 218.613 283.332C219.645 283.596 220.469 283.9 221.085 284.244C221.709 284.58 222.157 284.984 222.429 285.456C222.709 285.928 222.849 286.5 222.849 287.172C222.849 288.476 222.373 289.5 221.421 290.244C220.477 290.988 219.169 291.36 217.497 291.36ZM226.712 296.76L229.208 289.908L229.256 291.924L223.604 278.04H226.616L230.624 288.312H229.856L233.756 278.04H236.648L229.424 296.76H226.712ZM243.442 291.36C241.842 291.36 240.542 291 239.542 290.28C238.542 289.56 237.934 288.548 237.718 287.244L240.67 286.788C240.822 287.428 241.158 287.932 241.678 288.3C242.198 288.668 242.854 288.852 243.646 288.852C244.342 288.852 244.878 288.716 245.254 288.444C245.638 288.164 245.83 287.784 245.83 287.304C245.83 287.008 245.758 286.772 245.614 286.596C245.478 286.412 245.174 286.236 244.702 286.068C244.23 285.9 243.506 285.688 242.53 285.432C241.442 285.144 240.578 284.836 239.938 284.508C239.298 284.172 238.838 283.776 238.558 283.32C238.278 282.864 238.138 282.312 238.138 281.664C238.138 280.856 238.35 280.152 238.774 279.552C239.198 278.952 239.79 278.492 240.55 278.172C241.31 277.844 242.206 277.68 243.238 277.68C244.246 277.68 245.138 277.836 245.914 278.148C246.698 278.46 247.33 278.904 247.81 279.48C248.29 280.056 248.586 280.732 248.698 281.508L245.746 282.036C245.674 281.484 245.422 281.048 244.99 280.728C244.566 280.408 243.998 280.228 243.286 280.188C242.606 280.148 242.058 280.252 241.642 280.5C241.226 280.74 241.018 281.08 241.018 281.52C241.018 281.768 241.102 281.98 241.27 282.156C241.438 282.332 241.774 282.508 242.278 282.684C242.79 282.86 243.55 283.076 244.558 283.332C245.59 283.596 246.414 283.9 247.03 284.244C247.654 284.58 248.102 284.984 248.374 285.456C248.654 285.928 248.794 286.5 248.794 287.172C248.794 288.476 248.318 289.5 247.366 290.244C246.422 290.988 245.114 291.36 243.442 291.36ZM259.018 291C258.162 291.16 257.322 291.228 256.498 291.204C255.682 291.188 254.95 291.04 254.302 290.76C253.654 290.472 253.162 290.02 252.826 289.404C252.53 288.844 252.374 288.272 252.358 287.688C252.342 287.104 252.334 286.444 252.334 285.708V274.44H255.214V285.54C255.214 286.06 255.218 286.516 255.226 286.908C255.242 287.3 255.326 287.62 255.478 287.868C255.766 288.348 256.226 288.616 256.858 288.672C257.49 288.728 258.21 288.696 259.018 288.576V291ZM249.982 280.308V278.04H259.018V280.308H249.982ZM267.041 291.36C265.729 291.36 264.577 291.076 263.585 290.508C262.593 289.94 261.817 289.152 261.257 288.144C260.705 287.136 260.429 285.976 260.429 284.664C260.429 283.248 260.701 282.02 261.245 280.98C261.789 279.932 262.545 279.12 263.513 278.544C264.481 277.968 265.601 277.68 266.873 277.68C268.217 277.68 269.357 277.996 270.293 278.628C271.237 279.252 271.937 280.136 272.393 281.28C272.849 282.424 273.021 283.772 272.909 285.324H270.041V284.268C270.033 282.86 269.785 281.832 269.297 281.184C268.809 280.536 268.041 280.212 266.993 280.212C265.809 280.212 264.929 280.58 264.353 281.316C263.777 282.044 263.489 283.112 263.489 284.52C263.489 285.832 263.777 286.848 264.353 287.568C264.929 288.288 265.769 288.648 266.873 288.648C267.585 288.648 268.197 288.492 268.709 288.18C269.229 287.86 269.629 287.4 269.909 286.8L272.765 287.664C272.269 288.832 271.501 289.74 270.461 290.388C269.429 291.036 268.289 291.36 267.041 291.36ZM262.577 285.324V283.14H271.493V285.324H262.577ZM290.799 291V283.128C290.799 282.24 290.579 281.548 290.139 281.052C289.699 280.548 289.103 280.296 288.351 280.296C287.887 280.296 287.471 280.404 287.103 280.62C286.735 280.828 286.443 281.14 286.227 281.556C286.011 281.964 285.903 282.452 285.903 283.02L284.619 282.264C284.611 281.368 284.811 280.58 285.219 279.9C285.635 279.212 286.195 278.676 286.899 278.292C287.603 277.908 288.387 277.716 289.251 277.716C290.683 277.716 291.779 278.148 292.539 279.012C293.307 279.868 293.691 280.996 293.691 282.396V291H290.799ZM275.211 291V278.04H277.767V282.06H278.127V291H275.211ZM283.023 291V283.164C283.023 282.26 282.803 281.556 282.363 281.052C281.923 280.548 281.323 280.296 280.563 280.296C279.827 280.296 279.235 280.548 278.787 281.052C278.347 281.556 278.127 282.212 278.127 283.02L276.831 282.156C276.831 281.316 277.039 280.56 277.455 279.888C277.871 279.216 278.431 278.688 279.135 278.304C279.847 277.912 280.643 277.716 281.523 277.716C282.491 277.716 283.299 277.924 283.947 278.34C284.603 278.748 285.091 279.308 285.411 280.02C285.739 280.724 285.903 281.52 285.903 282.408V291H283.023Z" fill="#012A1E"/>
<path d="M49.5 90C56.1667 75.6667 78.3 47.3 113.5 48.5" stroke="black"/>
<path d="M252.218 54.0445C267.979 52.8353 303.551 58.2355 319.748 89.5108" stroke="black"/>
<path d="M107 185.5C127.833 191.5 208 199.9 266 185.5" stroke="black"/>
<defs>
<linearGradient id="paint0_linear_1_2864" x1="183.5" y1="32.7749" x2="183.5" y2="85.0005" gradientUnits="userSpaceOnUse">
<stop stop-color="#2C751D"/>
<stop offset="1" stop-color="#012A1E"/>
</linearGradient>
<linearGradient id="paint1_linear_1_2864" x1="189.058" y1="0" x2="189.058" y2="52.4223" gradientUnits="userSpaceOnUse">
<stop stop-color="#2C751D"/>
<stop offset="1" stop-color="#012A1E"/>
</linearGradient>
<linearGradient id="paint2_linear_1_2864" x1="211.308" y1="14.5898" x2="211.308" y2="17.4753" gradientUnits="userSpaceOnUse">
<stop stop-color="#2C751D"/>
<stop offset="1" stop-color="#012A1E"/>
</linearGradient>
<linearGradient id="paint3_linear_1_2864" x1="219.652" y1="14.5898" x2="219.652" y2="17.4753" gradientUnits="userSpaceOnUse">
<stop stop-color="#2C751D"/>
<stop offset="1" stop-color="#012A1E"/>
</linearGradient>
<linearGradient id="paint4_linear_1_2864" x1="194.622" y1="20.1621" x2="194.622" y2="23.0475" gradientUnits="userSpaceOnUse">
<stop stop-color="#2C751D"/>
<stop offset="1" stop-color="#012A1E"/>
</linearGradient>
<linearGradient id="paint5_linear_1_2864" x1="202.965" y1="20.1621" x2="202.965" y2="23.0475" gradientUnits="userSpaceOnUse">
<stop stop-color="#2C751D"/>
<stop offset="1" stop-color="#012A1E"/>
</linearGradient>
<linearGradient id="paint6_linear_1_2864" x1="211.308" y1="20.1621" x2="211.308" y2="23.0475" gradientUnits="userSpaceOnUse">
<stop stop-color="#2C751D"/>
<stop offset="1" stop-color="#012A1E"/>
</linearGradient>
<linearGradient id="paint7_linear_1_2864" x1="219.652" y1="20.1621" x2="219.652" y2="23.0475" gradientUnits="userSpaceOnUse">
<stop stop-color="#2C751D"/>
<stop offset="1" stop-color="#012A1E"/>
</linearGradient>
<linearGradient id="paint8_linear_1_2864" x1="194.622" y1="25.7339" x2="194.622" y2="28.6193" gradientUnits="userSpaceOnUse">
<stop stop-color="#2C751D"/>
<stop offset="1" stop-color="#012A1E"/>
</linearGradient>
<linearGradient id="paint9_linear_1_2864" x1="202.965" y1="25.7339" x2="202.965" y2="28.6193" gradientUnits="userSpaceOnUse">
<stop stop-color="#2C751D"/>
<stop offset="1" stop-color="#012A1E"/>
</linearGradient>
<linearGradient id="paint10_linear_1_2864" x1="211.308" y1="25.7339" x2="211.308" y2="28.6193" gradientUnits="userSpaceOnUse">
<stop stop-color="#2C751D"/>
<stop offset="1" stop-color="#012A1E"/>
</linearGradient>
<linearGradient id="paint11_linear_1_2864" x1="202.965" y1="14.5903" x2="202.965" y2="17.4757" gradientUnits="userSpaceOnUse">
<stop stop-color="#2C751D"/>
<stop offset="1" stop-color="#012A1E"/>
</linearGradient>
<linearGradient id="paint12_linear_1_2864" x1="194.622" y1="31.3057" x2="194.622" y2="34.1911" gradientUnits="userSpaceOnUse">
<stop stop-color="#2C751D"/>
<stop offset="1" stop-color="#012A1E"/>
</linearGradient>
<linearGradient id="paint13_linear_1_2864" x1="202.965" y1="31.3057" x2="202.965" y2="34.1911" gradientUnits="userSpaceOnUse">
<stop stop-color="#2C751D"/>
<stop offset="1" stop-color="#012A1E"/>
</linearGradient>
<linearGradient id="paint14_linear_1_2864" x1="211.308" y1="31.3057" x2="211.308" y2="34.1911" gradientUnits="userSpaceOnUse">
<stop stop-color="#2C751D"/>
<stop offset="1" stop-color="#012A1E"/>
</linearGradient>
<linearGradient id="paint15_linear_1_2864" x1="219.652" y1="31.3057" x2="219.652" y2="34.1911" gradientUnits="userSpaceOnUse">
<stop stop-color="#2C751D"/>
<stop offset="1" stop-color="#012A1E"/>
</linearGradient>
<linearGradient id="paint16_linear_1_2864" x1="194.622" y1="14.5903" x2="194.622" y2="17.4757" gradientUnits="userSpaceOnUse">
<stop stop-color="#2C751D"/>
<stop offset="1" stop-color="#012A1E"/>
</linearGradient>
<linearGradient id="paint17_linear_1_2864" x1="194.622" y1="36.8779" x2="194.622" y2="39.7638" gradientUnits="userSpaceOnUse">
<stop stop-color="#2C751D"/>
<stop offset="1" stop-color="#012A1E"/>
</linearGradient>
<linearGradient id="paint18_linear_1_2864" x1="202.965" y1="36.8779" x2="202.965" y2="39.7638" gradientUnits="userSpaceOnUse">
<stop stop-color="#2C751D"/>
<stop offset="1" stop-color="#012A1E"/>
</linearGradient>
<linearGradient id="paint19_linear_1_2864" x1="211.308" y1="36.8779" x2="211.308" y2="39.7638" gradientUnits="userSpaceOnUse">
<stop stop-color="#2C751D"/>
<stop offset="1" stop-color="#012A1E"/>
</linearGradient>
<linearGradient id="paint20_linear_1_2864" x1="219.652" y1="36.8779" x2="219.652" y2="39.7638" gradientUnits="userSpaceOnUse">
<stop stop-color="#2C751D"/>
<stop offset="1" stop-color="#012A1E"/>
</linearGradient>
<linearGradient id="paint21_linear_1_2864" x1="219.652" y1="9.01855" x2="219.652" y2="11.904" gradientUnits="userSpaceOnUse">
<stop stop-color="#2C751D"/>
<stop offset="1" stop-color="#012A1E"/>
</linearGradient>
<linearGradient id="paint22_linear_1_2864" x1="211.308" y1="42.4497" x2="211.308" y2="45.3356" gradientUnits="userSpaceOnUse">
<stop stop-color="#2C751D"/>
<stop offset="1" stop-color="#012A1E"/>
</linearGradient>
<linearGradient id="paint23_linear_1_2864" x1="219.652" y1="42.4497" x2="219.652" y2="45.3356" gradientUnits="userSpaceOnUse">
<stop stop-color="#2C751D"/>
<stop offset="1" stop-color="#012A1E"/>
</linearGradient>
<linearGradient id="paint24_linear_1_2864" x1="211.308" y1="9.01855" x2="211.308" y2="11.904" gradientUnits="userSpaceOnUse">
<stop stop-color="#2C751D"/>
<stop offset="1" stop-color="#012A1E"/>
</linearGradient>
<linearGradient id="paint25_linear_1_2864" x1="202.965" y1="9.01807" x2="202.965" y2="11.9035" gradientUnits="userSpaceOnUse">
<stop stop-color="#2C751D"/>
<stop offset="1" stop-color="#012A1E"/>
</linearGradient>
<linearGradient id="paint26_linear_1_2864" x1="194.622" y1="9.01807" x2="194.622" y2="11.9035" gradientUnits="userSpaceOnUse">
<stop stop-color="#2C751D"/>
<stop offset="1" stop-color="#012A1E"/>
</linearGradient>
<linearGradient id="paint27_linear_1_2864" x1="219.652" y1="25.7339" x2="219.652" y2="28.6193" gradientUnits="userSpaceOnUse">
<stop stop-color="#2C751D"/>
<stop offset="1" stop-color="#012A1E"/>
</linearGradient>
<linearGradient id="paint28_linear_1_2864" x1="219.836" y1="47.9585" x2="219.836" y2="50.3279" gradientUnits="userSpaceOnUse">
<stop stop-color="#2C751D"/>
<stop offset="1" stop-color="#012A1E"/>
</linearGradient>
<linearGradient id="paint29_linear_1_2864" x1="203.139" y1="42.4746" x2="203.139" y2="44.5646" gradientUnits="userSpaceOnUse">
<stop stop-color="#2C751D"/>
<stop offset="1" stop-color="#012A1E"/>
</linearGradient>
<linearGradient id="paint30_linear_1_2864" x1="177.922" y1="54.3271" x2="177.922" y2="71.9442" gradientUnits="userSpaceOnUse">
<stop stop-color="#2C751D"/>
<stop offset="1" stop-color="#012A1E"/>
</linearGradient>
<linearGradient id="paint31_linear_1_2864" x1="151.252" y1="53.627" x2="151.252" y2="84.9827" gradientUnits="userSpaceOnUse">
<stop stop-color="#2C751D"/>
<stop offset="1" stop-color="#012A1E"/>
</linearGradient>
<linearGradient id="paint32_linear_1_2864" x1="318.5" y1="110" x2="318.5" y2="183" gradientUnits="userSpaceOnUse">
<stop stop-color="#2C751D"/>
<stop offset="1" stop-color="#012A1E"/>
</linearGradient>
<linearGradient id="paint33_linear_1_2864" x1="312.557" y1="179.882" x2="312.557" y2="182.901" gradientUnits="userSpaceOnUse">
<stop stop-color="#2C751D"/>
<stop offset="1" stop-color="#012A1E"/>
</linearGradient>
<linearGradient id="paint34_linear_1_2864" x1="44.4993" y1="110.001" x2="44.4993" y2="190" gradientUnits="userSpaceOnUse">
<stop stop-color="#2C751D"/>
<stop offset="1" stop-color="#012A1E"/>
</linearGradient>
<linearGradient id="paint35_linear_1_2864" x1="55.249" y1="147.971" x2="55.249" y2="173.827" gradientUnits="userSpaceOnUse">
<stop stop-color="#2C751D"/>
<stop offset="1" stop-color="#012A1E"/>
</linearGradient>
<linearGradient id="paint36_linear_1_2864" x1="24.9912" y1="162.299" x2="24.9912" y2="167.28" gradientUnits="userSpaceOnUse">
<stop stop-color="#2C751D"/>
<stop offset="1" stop-color="#012A1E"/>
</linearGradient>
<clipPath id="clip0_1_2864">
<rect width="89" height="85" fill="white" transform="translate(139)"/>
</clipPath>
<clipPath id="clip1_1_2864">
<rect width="65" height="73" fill="white" transform="translate(286 110)"/>
</clipPath>
<clipPath id="clip2_1_2864">
<rect width="89" height="80" fill="white" transform="translate(0 110)"/>
</clipPath>
</defs>
</svg>
