<svg width="241" height="150" viewBox="0 0 241 150" fill="none" xmlns="http://www.w3.org/2000/svg">
<g clip-path="url(#clip0_1_2268)">
<path d="M198 41.8258V46.0913H167.765V41.8258C168.244 36.7046 162.021 34.7123 161.062 30.4735C159.383 22.0095 172.069 22.7583 176.866 17.7707C177.345 17.2626 177.585 16.7679 177.106 15.9389C176.866 15.3505 176.386 14.7889 175.906 14.2808C173.121 11.6065 169.177 9.3334 168.044 5.50919L171.509 2.03264C174.054 -0.521295 178.185 -0.521295 180.73 2.03264L200.571 21.9426C196.8 23.614 192.136 24.189 189.072 27.2243C188.352 28.2271 188.112 29.4707 189.072 30.4602C192.909 33.442 198.413 36.1831 197.986 41.8125L198 41.8258Z" fill="#F9F9F9"/>
<path d="M200.785 20.7924L199.799 18.332L198.813 20.7924L196.428 21.715L198.773 22.4638L199.799 25.0979L200.825 22.4638L203.17 21.715L200.785 20.7924Z" fill="#D7E7F3"/>
<path d="M190.457 16.4736L189.991 15.2969L189.525 16.4736L188.379 16.9148L189.498 17.2758L189.991 18.5327L190.484 17.2758L191.603 16.9148L190.457 16.4736Z" fill="#D7E7F3"/>
<path d="M169.404 38.2693L169.004 37.2798L168.604 38.2693L167.645 38.6437L168.591 38.9512L169.004 40.0075L169.417 38.9512L170.363 38.6437L169.404 38.2693Z" fill="#D7E7F3"/>
<path d="M184.461 30.4736C185.287 30.4736 185.98 30.7678 186.566 31.3561C186.766 31.5567 186.94 31.7707 187.059 32.0113C187.433 32.6532 186.953 33.4688 186.207 33.4688H186.14C185.794 33.4688 185.487 33.2682 185.314 32.9741C185.274 32.9072 185.221 32.827 185.154 32.7735C184.967 32.5863 184.728 32.4793 184.461 32.4793C184.195 32.4793 183.955 32.5729 183.768 32.7735C183.582 32.9607 183.475 33.2014 183.475 33.4688V35.4612H181.49V33.4688C181.49 32.6532 181.783 31.9579 182.356 31.3695C182.929 30.7812 183.635 30.487 184.461 30.487V30.4736ZM184.461 36.4373C184.728 36.4373 184.967 36.3437 185.154 36.1431C185.221 36.0762 185.274 36.0094 185.314 35.9425C185.487 35.6483 185.794 35.4478 186.14 35.4478H186.207C186.953 35.4478 187.419 36.2501 187.059 36.9053C186.926 37.1459 186.753 37.3599 186.553 37.5605C185.98 38.1354 185.274 38.4296 184.448 38.4296C183.622 38.4296 182.929 38.1354 182.342 37.5605C181.769 36.9721 181.476 36.2768 181.476 35.4478H183.462C183.462 35.7152 183.555 35.9559 183.755 36.1431C183.941 36.3437 184.181 36.4373 184.448 36.4373H184.461Z" fill="#59739B"/>
<path d="M191.35 30.4736C192.176 30.4736 192.869 30.7678 193.456 31.3561C194.029 31.9445 194.322 32.6398 194.322 33.4554V35.4478C194.322 36.2768 194.029 36.9721 193.456 37.5605C192.883 38.1354 192.176 38.4296 191.35 38.4296C190.524 38.4296 189.831 38.1354 189.245 37.5605C188.672 36.9855 188.379 36.2768 188.379 35.4478V33.4554C188.379 32.6398 188.672 31.9445 189.245 31.3561C189.818 30.7678 190.524 30.4736 191.35 30.4736ZM191.35 36.4373C191.617 36.4373 191.857 36.3437 192.043 36.1431C192.23 35.9559 192.336 35.7152 192.336 35.4478V33.4554C192.336 33.188 192.243 32.9473 192.043 32.7601C191.857 32.5729 191.617 32.466 191.35 32.466C191.084 32.466 190.844 32.5596 190.657 32.7601C190.471 32.9473 190.364 33.188 190.364 33.4554V35.4478C190.364 35.7152 190.457 35.9559 190.657 36.1431C190.844 36.3303 191.084 36.4373 191.35 36.4373Z" fill="#59739B"/>
<path d="M196.427 34.98C196.787 34.98 197.093 35.1003 197.333 35.3544C197.586 35.6084 197.706 35.916 197.706 36.2636C197.706 36.745 197.32 37.1328 196.84 37.1328H196.44C196.307 37.1328 196.174 37.1863 196.094 37.2799C196.041 37.3467 196.001 37.4136 196.001 37.4938C196.001 37.5339 196.027 37.5607 196.054 37.5607H197.28C197.52 37.5607 197.706 37.7612 197.706 37.9885C197.706 38.2292 197.52 38.4164 197.28 38.4164H195.574C195.334 38.4164 195.148 38.2159 195.148 37.9885V37.5607C195.148 37.1996 195.268 36.8921 195.521 36.6514C195.774 36.3973 196.081 36.277 196.427 36.277H196.6C196.76 36.277 196.84 36.0898 196.734 35.9828C196.654 35.9026 196.547 35.8625 196.427 35.8625H195.574C195.334 35.8625 195.148 35.6619 195.148 35.4346C195.148 35.1939 195.334 35.0067 195.574 35.0067H196.427V34.98Z" fill="#59739B"/>
<path d="M171.949 18.9473C172.388 18.9473 172.762 19.1077 173.068 19.4153C173.175 19.5222 173.268 19.6426 173.335 19.7629C173.534 20.1106 173.281 20.5385 172.881 20.5385H172.841C172.655 20.5385 172.495 20.4315 172.402 20.271C172.375 20.2309 172.348 20.1908 172.322 20.1641C172.215 20.0571 172.095 20.0036 171.949 20.0036C171.802 20.0036 171.682 20.0571 171.576 20.1641C171.469 20.271 171.416 20.3914 171.416 20.5385V21.5948H170.363V20.5385C170.363 20.1106 170.523 19.7362 170.829 19.4153C171.136 19.1077 171.509 18.9473 171.949 18.9473ZM171.949 22.1163C172.095 22.1163 172.215 22.0628 172.322 21.9558C172.362 21.9157 172.388 21.889 172.402 21.8489C172.495 21.6884 172.655 21.5814 172.841 21.5814H172.881C173.281 21.5814 173.534 22.0093 173.335 22.357C173.268 22.4773 173.175 22.5976 173.068 22.7046C172.762 23.0122 172.388 23.1726 171.949 23.1726C171.509 23.1726 171.136 23.0122 170.829 22.7046C170.523 22.3971 170.363 22.0227 170.363 21.5814H171.416C171.416 21.7285 171.469 21.8489 171.576 21.9558C171.682 22.0628 171.802 22.1163 171.949 22.1163Z" fill="#59739B"/>
<path d="M175.613 18.9473C176.052 18.9473 176.426 19.1077 176.732 19.4153C177.039 19.7228 177.198 20.0972 177.198 20.5385V21.5948C177.198 22.0361 177.039 22.4104 176.732 22.718C176.426 23.0255 176.052 23.186 175.613 23.186C175.173 23.186 174.8 23.0255 174.493 22.718C174.187 22.4104 174.027 22.0361 174.027 21.5948V20.5385C174.027 20.1106 174.187 19.7362 174.493 19.4153C174.8 19.1077 175.173 18.9473 175.613 18.9473ZM175.613 22.1163C175.759 22.1163 175.879 22.0628 175.986 21.9558C176.092 21.8489 176.146 21.7285 176.146 21.5814V20.5251C176.146 20.378 176.092 20.2577 175.986 20.1507C175.879 20.0437 175.759 19.9902 175.613 19.9902C175.466 19.9902 175.346 20.0437 175.24 20.1507C175.133 20.2577 175.08 20.378 175.08 20.5251V21.5814C175.08 21.7285 175.133 21.8489 175.24 21.9558C175.346 22.0628 175.466 22.1163 175.613 22.1163Z" fill="#59739B"/>
<path d="M178.318 21.3408C178.505 21.3408 178.665 21.4077 178.798 21.5414C178.931 21.6751 178.998 21.8356 178.998 22.0228C178.998 22.2768 178.798 22.4774 178.545 22.4774H178.331C178.265 22.4774 178.198 22.5041 178.145 22.5576C178.118 22.5844 178.092 22.6245 178.092 22.678C178.092 22.6913 178.092 22.7181 178.118 22.7181H178.771C178.891 22.7181 178.998 22.825 178.998 22.9454C178.998 23.0657 178.891 23.1727 178.771 23.1727H177.865C177.745 23.1727 177.639 23.0657 177.639 22.9454V22.7181C177.639 22.5309 177.705 22.3704 177.838 22.2367C177.972 22.103 178.132 22.0361 178.318 22.0361H178.411C178.491 22.0361 178.545 21.9292 178.478 21.8757C178.478 21.8757 178.385 21.8088 178.318 21.8088H177.865C177.745 21.8088 177.639 21.7018 177.639 21.5815C177.639 21.4612 177.745 21.3542 177.865 21.3542H178.318V21.3408Z" fill="#59739B"/>
<path d="M88.2658 7.07345L66.7056 0L68.851 7.63505L62.1084 12.2081L84.1883 19.442L88.2658 7.07345Z" fill="#AFC547"/>
<path d="M89.7053 31.9309L81.2838 25.0312C81.2838 25.0312 76.5 33.6023 83.9488 37.0655L89.7053 31.9442V31.9309Z" fill="#F3AE91"/>
<path d="M75.2204 28.441C75.2204 28.441 75.1405 28.4143 75.1138 28.3875C74.5142 28.0666 74.2743 27.3178 74.5941 26.7027C75.5935 24.7906 76.9394 24.2558 77.8855 24.1354C80.7104 23.7744 83.3755 26.6359 83.6686 26.9568C84.1217 27.4649 84.0817 28.2538 83.5753 28.7084C83.069 29.1631 82.2828 29.123 81.8297 28.6148C81.3101 28.0399 79.5112 26.4219 78.192 26.5958C77.9921 26.6225 77.3924 26.7027 76.7795 27.8527C76.4863 28.4276 75.7934 28.6683 75.2204 28.4276V28.441Z" fill="#F3AE91"/>
<path d="M74.1278 29.9117C74.1278 29.9117 74.0478 29.885 74.0212 29.8582C73.4215 29.5373 73.1817 28.7885 73.5015 28.1734C74.5009 26.2613 75.8467 25.7265 76.7928 25.6061C79.6178 25.2451 82.2828 28.1066 82.576 28.4275C83.029 28.9356 82.9891 29.7245 82.4827 30.1791C81.9763 30.6338 81.1901 30.5937 80.7371 30.0855C80.2174 29.5106 78.4185 27.8926 77.0993 28.0665C76.8994 28.0932 76.2998 28.1734 75.6868 29.3234C75.3937 29.8983 74.7008 30.139 74.1278 29.8984V29.9117Z" fill="#F3AE91"/>
<path d="M74.794 32.1046C74.794 32.1046 74.7141 32.0778 74.6874 32.0511C74.0878 31.7302 73.8479 30.9814 74.1678 30.3663C75.1671 28.4542 76.513 27.9194 77.4591 27.799C80.284 27.438 82.9491 30.2995 83.2422 30.6204C83.6953 31.1285 83.6553 31.9174 83.149 32.372C82.6426 32.8266 81.8564 32.7865 81.4034 32.2784C80.8837 31.7034 79.0848 30.0855 77.7656 30.2593C77.5657 30.2861 76.9661 30.3663 76.3531 31.5162C76.0599 32.0912 75.367 32.3319 74.794 32.0912V32.1046Z" fill="#F3AE91"/>
<path d="M75.6864 28.6548C75.5132 28.6548 75.3399 28.6281 75.1667 28.5478C75.1267 28.5345 75.0868 28.5077 75.0468 28.4944C74.727 28.3205 74.4871 28.0397 74.3805 27.6921C74.2739 27.3444 74.3006 26.97 74.4738 26.6491C74.5004 26.5956 74.5804 26.5689 74.6337 26.5956C74.687 26.6224 74.7136 26.7026 74.687 26.7561C74.5537 27.0235 74.5138 27.3311 74.607 27.6118C74.7003 27.8926 74.8869 28.1333 75.1534 28.267C75.18 28.2804 75.22 28.2938 75.26 28.3072C75.793 28.5211 76.406 28.3072 76.6725 27.7857C77.3121 26.5689 77.965 26.4887 78.1782 26.4619C78.2448 26.4619 78.2981 26.502 78.3115 26.5689C78.3115 26.6357 78.2715 26.6892 78.2049 26.7026C78.0183 26.7293 77.4586 26.7962 76.8857 27.906C76.6458 28.374 76.1794 28.6414 75.6864 28.6414V28.6548Z" fill="#5E453B"/>
<path d="M80.7375 30.2195C80.7375 30.2195 80.6709 30.2061 80.6442 30.1794C80.1245 29.6178 78.3789 28.0266 77.113 28.1871C76.9265 28.2138 76.3668 28.2807 75.7938 29.3905C75.4607 30.019 74.7278 30.2864 74.0749 30.019C74.0083 29.9922 73.9816 29.9254 74.0083 29.8585C74.0349 29.7916 74.1015 29.7649 74.1682 29.7916C74.7012 30.0056 75.3141 29.7916 75.5806 29.2702C76.2202 28.0534 76.8732 27.9731 77.0864 27.9464C78.4456 27.7726 80.2844 29.4172 80.8175 30.0056C80.8574 30.0591 80.8574 30.1259 80.8175 30.1794C80.7908 30.2061 80.7641 30.2062 80.7375 30.2062V30.2195Z" fill="#5E453B"/>
<path d="M76.4197 34.4179C76.3264 34.3778 76.2332 34.3377 76.1532 34.2708C75.5935 33.8697 75.4736 33.0942 75.8867 32.5326C76.553 31.6233 77.4324 31.0617 78.4451 30.928C80.324 30.6739 81.9497 31.9041 82.1229 32.0512C82.6559 32.4791 82.7492 33.2546 82.3361 33.8028C81.9097 34.3377 81.1368 34.4313 80.6038 34.0168C80.3373 33.8162 79.4845 33.3081 78.7783 33.4017C78.5651 33.4284 78.2319 33.5354 77.8855 34.0168C77.539 34.4848 76.9261 34.6452 76.4197 34.4313V34.4179Z" fill="#F3AE91"/>
<path d="M75.2604 32.3185C75.0872 32.3185 74.9139 32.2917 74.7407 32.2115C74.6741 32.1848 74.6474 32.1179 74.6741 32.0511C74.7007 31.9842 74.7674 31.9575 74.834 31.9842C75.367 32.1981 75.98 31.9842 76.2465 31.4627C76.8861 30.2459 77.539 30.1657 77.7522 30.1389C78.5917 30.032 79.5778 30.6069 80.2574 31.1151C80.3107 31.1552 80.324 31.2354 80.284 31.2889C80.244 31.3424 80.1641 31.3557 80.1108 31.3156C79.4712 30.8343 78.5384 30.286 77.7789 30.393C77.5923 30.4197 77.0327 30.4866 76.4597 31.5964C76.2198 32.0644 75.7534 32.3319 75.2604 32.3319V32.3185Z" fill="#5E453B"/>
<path d="M78.6583 36.3165C78.6583 36.3165 78.5784 36.3165 78.5384 36.3032C78.3518 36.2363 78.2452 36.0357 78.3119 35.8485L87.9727 6.80592C88.0393 6.61872 88.2392 6.51175 88.4257 6.5786C88.6123 6.64546 88.7189 6.84603 88.6522 7.03323L78.9915 36.0758C78.9382 36.2229 78.8049 36.3165 78.645 36.3165H78.6583Z" fill="#5E453B"/>
<path d="M81.5504 32.0244C81.004 31.5965 80.1246 30.2861 79.7648 28.8554L77.5928 26.4886C77.1264 25.9805 77.1664 25.1916 77.6727 24.737C78.1791 24.269 78.9653 24.3091 79.4183 24.8172L81.8169 27.438C81.9768 27.6118 85.7878 29.0292 85.9877 29.6844C86.1876 30.3396 85.921 32.0244 85.4014 32.4656C84.8817 32.9203 83.829 33.8295 81.5371 32.0244H81.5504Z" fill="#F3AE91"/>
<path d="M83.5091 33.5221H83.4825C80.5376 32.7065 80.0845 30.7409 79.7647 29.2968C79.7381 29.1764 79.7114 29.0427 79.6848 28.9358L77.5394 26.5958C77.2996 26.3283 77.1663 25.9807 77.1796 25.6197C77.1929 25.2586 77.3529 24.9243 77.6194 24.6703C78.1657 24.1622 79.0318 24.2023 79.5382 24.7505L81.9367 27.3713C81.9367 27.3713 81.9767 27.4916 81.9367 27.5451C81.8834 27.5852 81.8168 27.5852 81.7635 27.5451L79.365 24.9243C78.9519 24.4697 78.2323 24.443 77.7793 24.8575C77.5527 25.0581 77.4328 25.3389 77.4195 25.633C77.4195 25.9272 77.5128 26.2214 77.7126 26.4353L79.898 28.8288V28.8555C79.9379 28.9892 79.9646 29.1229 80.0046 29.2567C80.3244 30.6339 80.7508 32.5326 83.5624 33.3082C83.629 33.3216 83.669 33.3884 83.6424 33.4553C83.629 33.5088 83.5757 33.5489 83.5224 33.5489L83.5091 33.5221Z" fill="#5E453B"/>
<path d="M81.363 35.3273C81.363 35.3273 81.2964 35.3273 81.2697 35.2871C79.764 33.6826 79.9772 32.3454 79.9772 32.292C79.9772 32.2251 80.0438 32.185 80.1104 32.1984C80.1771 32.1984 80.217 32.2652 80.2037 32.3321C80.2037 32.3321 80.0038 33.6157 81.4296 35.1267C81.4696 35.1802 81.4696 35.247 81.4296 35.3005C81.403 35.3273 81.3763 35.3273 81.3497 35.3273H81.363Z" fill="#5E453B"/>
<path d="M78.4056 13.612C78.4056 13.612 69.6376 11.9673 73.0888 4.80029C73.0888 4.80029 80.5776 5.4956 78.4056 13.612Z" fill="#7F9922"/>
<path d="M78.9915 15.4708C78.9915 15.4708 78.8849 15.4307 78.8716 15.3772C78.4718 13.9064 77.3525 11.0716 76.4197 9.78797C76.3798 9.73449 76.3931 9.65426 76.4464 9.61414C76.4997 9.57403 76.5796 9.5874 76.6196 9.64089C77.6323 11.0449 78.765 14.0267 79.1114 15.3103C79.1247 15.3772 79.0848 15.4441 79.0315 15.4574H79.0048L78.9915 15.4708Z" fill="#5E453B"/>
<path d="M82.9095 12.208C82.9095 12.208 82.0967 15.0428 79.3917 13.7056C79.3917 13.7056 79.8181 11.0849 82.9095 12.208Z" fill="#7F9922"/>
<path d="M78.699 14.4546C78.699 14.4546 78.6457 14.4546 78.6191 14.4279C78.5658 14.3878 78.5658 14.3075 78.6191 14.2541C79.4452 13.3181 81.0976 12.6094 81.2308 12.6094C81.2974 12.6094 81.3507 12.6762 81.3374 12.7431C81.3374 12.7966 81.2841 12.8501 81.2308 12.8501C81.0443 12.9035 79.5518 13.5587 78.8056 14.4145C78.779 14.4413 78.7523 14.4546 78.7124 14.4546H78.699Z" fill="#5E453B"/>
<path d="M115.023 32.5995C114.53 30.6206 112.544 28.7753 110.532 29.1363C107.867 29.6177 102.297 31.4763 99.2325 32.5327L86.4136 29.2299L83.7352 37.1993C83.7352 37.1993 93.6625 40.7561 98.0598 41.8659C99.0592 42.1199 100.112 42.1333 101.125 41.906C105.682 40.8898 112.571 38.8974 112.571 38.8974C117.395 37.6539 115.036 32.5861 115.036 32.5861L115.023 32.5995Z" fill="#EBDBC4"/>
<path d="M95.0883 31.5964C95.0883 31.5964 95.075 31.5964 95.0616 31.5964L86.4935 29.3902L86.2404 30.1523C86.2404 30.1523 86.1471 30.2459 86.0938 30.2326C86.0272 30.2058 86.0005 30.139 86.0138 30.0855L86.347 29.1094L95.1283 31.3691C95.1283 31.3691 95.2349 31.4494 95.2082 31.5162C95.1949 31.5697 95.1416 31.6098 95.0883 31.6098V31.5964Z" fill="#5E453B"/>
<path d="M107.161 33.6158C107.667 30.2729 110.852 28.0132 114.17 28.6015C119.3 29.5107 126.869 31.3961 130.466 34.8727C135.024 39.2852 134.717 51.266 134.211 57.4837C134.158 58.0854 110.012 54.2077 109.679 53.2449C106.601 44.2861 106.521 37.801 107.147 33.6158H107.161Z" fill="#EBDBC4"/>
<path d="M109.693 53.3651C109.693 53.3651 109.6 53.3384 109.586 53.2849C103.696 36.1695 108.374 29.9117 108.427 29.8181C108.467 29.7646 108.533 29.7513 108.587 29.778C108.64 29.8181 108.653 29.885 108.627 29.9385C108.573 30.0187 103.976 36.1963 109.813 53.1913C109.839 53.2581 109.813 53.325 109.733 53.3384C109.733 53.3384 109.706 53.3384 109.693 53.3384V53.3651Z" fill="#5E453B"/>
<path d="M117.275 30.5001C117.275 30.5001 118.994 31.0751 115.583 39.2718C114.357 42.2135 113.184 46.7865 112.038 46.7731C110.013 46.7597 109.746 35.9557 110.692 33.1076C111.652 30.2595 117.275 30.5001 117.275 30.5001Z" fill="#59739B"/>
<path d="M114.836 27.3716L116.941 30.0057C117.767 31.0487 117.861 32.4928 117.181 33.6294C115.915 35.7287 112.93 35.849 111.505 33.8567L110.958 33.0945L114.849 27.3716H114.836Z" fill="#F3AE91"/>
<path d="M114.262 35.4078C113.13 35.4078 112.064 34.8595 111.397 33.9369L110.984 33.362C110.984 33.362 110.958 33.2282 111.011 33.1881C111.064 33.148 111.144 33.1614 111.184 33.2149L111.597 33.7898C112.25 34.6857 113.29 35.2072 114.396 35.1537C115.502 35.1136 116.501 34.5119 117.074 33.5625C118.18 31.49 116.861 30.0993 116.847 30.086L116.061 29.0965C116.061 29.0965 116.035 28.9628 116.075 28.9227C116.128 28.8825 116.208 28.8959 116.248 28.936L117.021 29.9121C117.021 29.9121 118.473 31.4498 117.274 33.6695C116.661 34.6991 115.582 35.3275 114.396 35.381C114.342 35.381 114.302 35.381 114.249 35.381L114.262 35.4078Z" fill="#5E453B"/>
<path d="M108.52 28.0535C108.56 29.0831 107.773 29.9656 106.734 30.0057C105.708 30.0458 104.829 29.2569 104.789 28.2139C104.749 27.1843 105.535 26.3018 106.574 26.2617C107.614 26.2216 108.48 27.0105 108.52 28.0535Z" fill="#F3AE91"/>
<path d="M104.189 23.4C103.896 25.2586 105.442 27.0638 107.654 27.4114C109.866 27.7591 111.891 26.5289 112.184 24.6703C112.477 22.8117 110.932 21.0065 108.72 20.6589C106.508 20.3112 104.482 21.5414 104.189 23.4Z" fill="#47332A"/>
<path d="M110.599 33.3351C110.359 33.3351 110.133 33.3351 109.919 33.295C107.801 33.0409 106.415 31.3695 105.988 29.1766C105.975 29.1098 105.962 29.0295 105.948 28.9627C105.882 28.5883 105.855 28.2005 105.842 27.8127C105.842 27.7459 105.842 27.679 105.842 27.6122C105.842 27.5052 105.842 27.4116 105.842 27.3046C105.842 27.1843 105.842 27.0506 105.868 26.9169C106.282 22.1834 107.921 20.8195 111.159 20.7527C114.397 20.6858 117.088 23.4403 117.155 26.9169C117.222 30.38 113.837 33.2683 110.586 33.3351H110.599Z" fill="#F3AE91"/>
<path d="M112.624 26.6896C112.624 26.8366 112.517 26.957 112.344 27.064C112.317 27.0773 112.291 27.0907 112.264 27.1041C112.237 27.1041 112.224 27.1174 112.197 27.1308C112.171 27.1308 112.157 27.1442 112.131 27.1576C112.011 27.1977 111.891 27.2244 111.744 27.2244C111.704 27.2244 111.664 27.2244 111.624 27.2244C111.491 27.2244 111.358 27.2244 111.238 27.1843C111.171 27.1843 111.105 27.1576 111.051 27.1442C111.025 27.1442 110.998 27.1174 110.958 27.1174C110.732 27.0238 110.585 26.8901 110.585 26.7297C110.585 26.5692 110.718 26.4221 110.945 26.3285C111.038 26.2751 111.158 26.2483 111.278 26.2216C111.331 26.2216 111.398 26.2082 111.451 26.1948C111.451 26.1948 111.544 26.1948 111.584 26.1948C111.624 26.1948 111.664 26.1948 111.704 26.1948C111.798 26.1948 111.878 26.2082 111.958 26.2216C111.998 26.2216 112.051 26.2349 112.091 26.2483C112.144 26.2617 112.184 26.2751 112.237 26.3018C112.464 26.3954 112.611 26.5291 112.611 26.6896H112.624Z" fill="white"/>
<path d="M106.348 28.9763C106.215 28.9763 106.082 28.9763 105.948 28.9763C105.882 28.6019 105.855 28.2141 105.842 27.8263C105.842 27.7595 105.842 27.6926 105.842 27.6258C105.842 27.5188 105.842 27.4252 105.842 27.3182C105.962 27.2781 106.082 27.2647 106.215 27.2514C106.934 27.1979 107.547 27.5589 107.587 28.0269C107.614 28.5083 107.054 28.9361 106.335 28.9763H106.348Z" fill="#DE704B"/>
<path d="M116.048 27.9866L115.901 29.7115C115.862 30.126 116.434 30.2731 116.594 29.8854L118.073 26.5158L115.568 26.2617L116.035 27.9866H116.048Z" fill="#5E453B"/>
<path d="M109.066 25.5796C109.066 25.9139 106.894 25.9942 106.881 25.6599C106.881 25.3256 107.72 24.9378 108.32 24.9111C108.919 24.8843 109.053 25.2454 109.066 25.5796Z" fill="#47332A"/>
<path d="M109.399 33.3351C109.559 33.3752 109.732 33.4019 109.906 33.4287C110.119 33.4554 110.359 33.4688 110.598 33.4688C111.851 33.442 113.157 33.0008 114.303 32.2252C114.356 32.1851 114.383 32.1049 114.343 32.0514C114.303 31.9979 114.223 31.9712 114.17 32.0113C113.077 32.7601 111.811 33.188 110.612 33.2013C110.385 33.2013 110.159 33.2013 109.945 33.1612C107.627 32.8804 106.028 30.7276 105.975 27.7993C105.975 27.7325 105.921 27.6656 105.841 27.679C105.775 27.679 105.708 27.7325 105.721 27.8127C105.761 30.6608 107.227 32.8136 109.412 33.3351H109.399Z" fill="#5E453B"/>
<path d="M110.598 25.5262C110.598 25.8604 112.797 25.7936 112.784 25.4593C112.784 25.125 111.904 24.7907 111.305 24.8041C110.705 24.8175 110.585 25.1919 110.598 25.5262Z" fill="#47332A"/>
<path d="M107.654 20.8596C107.654 20.8596 108.28 25.3658 115.236 27.6523C115.236 27.6523 117.141 27.7191 117.594 27.3314C119.566 25.6065 119.14 16.6744 107.654 20.8596Z" fill="#5E453B"/>
<path d="M112.37 26.6898C112.37 26.8368 112.33 26.9839 112.264 27.1043C112.237 27.1043 112.224 27.1176 112.197 27.131C112.17 27.131 112.157 27.1444 112.13 27.1577C112.011 27.1979 111.891 27.2246 111.744 27.2246C111.704 27.2246 111.664 27.2246 111.624 27.2246C111.491 27.2246 111.358 27.2246 111.238 27.1845C111.171 27.1845 111.104 27.1577 111.051 27.1444C111.024 27.1444 110.998 27.1176 110.958 27.1176C110.891 27.0107 110.838 26.877 110.838 26.7299C110.838 26.5828 110.865 26.4357 110.944 26.3154C111.038 26.2619 111.158 26.2351 111.278 26.2084C111.331 26.2084 111.398 26.195 111.451 26.1816C111.451 26.1816 111.544 26.1816 111.584 26.1816C111.624 26.1816 111.664 26.1816 111.704 26.1816C111.797 26.1816 111.877 26.195 111.957 26.2084C111.997 26.2084 112.05 26.2218 112.09 26.2351C112.144 26.2485 112.184 26.2619 112.237 26.2886C112.304 26.3956 112.357 26.5293 112.357 26.6764L112.37 26.6898Z" fill="#5E453B"/>
<path d="M115.209 27.7859C115.209 27.7859 115.342 27.7591 115.355 27.7057C115.382 27.6388 115.342 27.5586 115.275 27.5452C108.493 25.3122 107.786 20.8996 107.786 20.8595C107.786 20.7927 107.707 20.7392 107.64 20.7526C107.573 20.7526 107.52 20.8328 107.533 20.8996C107.533 20.9397 108.253 25.5128 115.195 27.7993L115.209 27.7859Z" fill="#47332A"/>
<path d="M109.106 26.7695C109.106 26.9032 109.013 27.0236 108.88 27.1172C108.88 27.1172 108.84 27.1439 108.826 27.1439C108.773 27.1707 108.707 27.1974 108.64 27.2242C108.613 27.2242 108.6 27.2242 108.573 27.2375C108.48 27.2643 108.373 27.2776 108.253 27.291C108.213 27.291 108.174 27.291 108.134 27.291C107.987 27.291 107.854 27.291 107.734 27.2509C107.68 27.2375 107.614 27.2242 107.561 27.1974C107.521 27.184 107.481 27.1707 107.441 27.1439C107.254 27.0503 107.147 26.9166 107.147 26.7829C107.147 26.6224 107.281 26.4754 107.507 26.3684C107.614 26.3149 107.734 26.2882 107.867 26.2614C107.907 26.2614 107.96 26.2614 108 26.248C108.04 26.248 108.08 26.248 108.12 26.248C108.16 26.248 108.2 26.248 108.24 26.248C108.32 26.248 108.413 26.2614 108.48 26.2748C108.52 26.2748 108.573 26.3015 108.613 26.3015C108.667 26.3149 108.707 26.3283 108.746 26.355C108.973 26.4486 109.12 26.5957 109.12 26.7562L109.106 26.7695Z" fill="white"/>
<path d="M113.796 27.8795C113.823 28.9091 114.663 29.7382 115.702 29.7114C116.728 29.6847 117.554 28.8423 117.528 27.7993C117.501 26.7697 116.661 25.9407 115.622 25.9674C114.596 25.9942 113.77 26.8366 113.796 27.8795Z" fill="#F3AE91"/>
<path d="M108.573 28.8956C108.573 28.8956 108.68 28.8822 108.72 28.8287C108.76 28.7619 108.747 28.6683 108.68 28.6148C108.6 28.5613 108.587 28.5212 108.587 28.5212C108.613 28.4008 109.133 28.1602 109.679 28.0398C109.746 28.0264 109.799 27.9596 109.799 27.8927L109.773 26.3951C109.773 26.3149 109.706 26.248 109.613 26.248C109.533 26.248 109.466 26.3149 109.466 26.4085L109.493 27.7858C109.08 27.8927 108.347 28.12 108.294 28.4811C108.28 28.588 108.294 28.7351 108.52 28.8822C108.547 28.8822 108.56 28.909 108.587 28.909L108.573 28.8956Z" fill="#5E453B"/>
<path d="M111.505 28.2942C111.451 28.7756 111.998 29.2168 112.717 29.2971C113.437 29.3773 114.063 29.043 114.116 28.5616C114.17 28.0803 113.623 27.639 112.904 27.5588C112.184 27.4785 111.558 27.8128 111.505 28.2942Z" fill="#DE704B"/>
<path d="M112.358 23.7348C112.838 23.8551 113.344 23.922 113.85 23.9621C115.423 24.0557 116.782 23.708 117.475 23.0261C117.528 22.9726 117.528 22.8924 117.475 22.8389C117.421 22.7854 117.341 22.7854 117.288 22.8389C116.649 23.4673 115.343 23.7882 113.85 23.708C112.291 23.6144 110.212 22.9993 109.053 21.5552C109.013 21.5017 108.933 21.4884 108.867 21.5419C108.813 21.582 108.8 21.6622 108.853 21.7291C109.626 22.6918 110.879 23.4139 112.331 23.7615L112.358 23.7348Z" fill="#47332A"/>
<path d="M116.848 27.4117C116.848 27.4117 116.928 27.4117 116.955 27.3716C117.022 27.3181 117.022 27.2245 116.968 27.1576C116.649 26.7832 116.289 26.5827 115.889 26.5426C115.303 26.5024 114.863 26.8768 114.85 26.8902C114.783 26.9437 114.783 27.0373 114.836 27.1042C114.89 27.171 114.983 27.171 115.049 27.1175C115.049 27.1175 115.409 26.81 115.876 26.8367C116.182 26.8635 116.475 27.0239 116.742 27.3448C116.768 27.3716 116.808 27.3983 116.835 27.3983L116.848 27.4117Z" fill="#5E453B"/>
<path d="M111.465 29.5909C111.558 30.1525 111.038 30.7008 110.292 30.8345C109.546 30.9682 108.866 30.6205 108.76 30.0589C108.666 29.4973 109.346 29.8584 110.092 29.7247C110.838 29.5909 111.371 29.0293 111.465 29.5776V29.5909Z" fill="white"/>
<path d="M108.893 26.7965C108.893 26.9168 108.866 27.0371 108.826 27.1441C108.773 27.1709 108.706 27.1976 108.64 27.2243C108.613 27.2243 108.6 27.2243 108.573 27.2377C108.48 27.2645 108.373 27.2778 108.253 27.2912C108.213 27.2912 108.173 27.2912 108.133 27.2912C107.987 27.2912 107.853 27.2912 107.734 27.2511C107.68 27.2377 107.614 27.2243 107.56 27.1976C107.52 27.1842 107.48 27.1709 107.44 27.1441C107.387 27.0505 107.36 26.9435 107.36 26.8232C107.36 26.6494 107.4 26.4889 107.494 26.3552C107.6 26.3017 107.72 26.275 107.853 26.2482C107.893 26.2482 107.947 26.2482 107.987 26.2349C108.027 26.2349 108.067 26.2349 108.107 26.2349C108.147 26.2349 108.187 26.2349 108.227 26.2349C108.307 26.2349 108.4 26.2482 108.466 26.2616C108.506 26.2616 108.56 26.2883 108.6 26.2883C108.653 26.3017 108.693 26.3151 108.733 26.3418C108.826 26.4622 108.879 26.6093 108.879 26.7831L108.893 26.7965Z" fill="#5E453B"/>
<path d="M223.451 136.602V149.532H142.766V136.602C146.844 136.602 150.695 133.513 153.04 128.245C155.479 122.789 158.25 113.951 160.342 99.8307C160.582 98.2127 160.809 96.5279 161.035 94.7629C161.648 89.8556 162.181 84.4001 162.594 78.3161C162.688 77.0325 162.768 75.7221 162.848 74.3849C163.074 70.4939 163.247 66.3755 163.381 62.003C163.514 57.2428 163.594 52.1751 163.594 46.7998H202.663C202.663 52.1751 202.743 57.2428 202.877 62.003C203.969 100.004 209.073 118.992 213.204 128.245C215.549 133.513 219.4 136.602 223.477 136.602H223.451Z" fill="#97A52F"/>
<path d="M203.996 46.0908H189.552V61.9894H203.996V46.0908Z" fill="#EFBC51"/>
<path d="M189.565 46.7998V149.532H142.78V136.602C146.858 136.602 150.709 133.513 153.054 128.245C155.492 122.789 158.264 113.951 160.356 99.8307C160.596 98.2127 160.823 96.5279 161.049 94.7629C161.662 89.8556 162.195 84.4001 162.608 78.3161C162.701 77.0325 162.781 75.7221 162.861 74.3849C163.088 70.4939 163.261 66.3755 163.394 62.003C163.528 57.2428 163.607 52.1751 163.607 46.7998H189.592H189.565Z" fill="#AFC547"/>
<path d="M189.565 46.0908H162.368V61.9894H189.565V46.0908Z" fill="#F5CC72"/>
<path d="M194.042 62.1098H162.368C162.368 62.1098 162.248 62.0563 162.248 61.9895C162.248 61.9226 162.301 61.8691 162.368 61.8691H194.042C194.042 61.8691 194.162 61.9226 194.162 61.9895C194.162 62.0563 194.109 62.1098 194.042 62.1098Z" fill="#5E453B"/>
<path d="M204.543 89.2004C204.543 89.2004 204.436 89.1602 204.423 89.1068C203.423 84.0658 202.73 62.2303 202.73 62.003V61.8827H203.876V57.216C203.876 57.216 203.93 57.0957 203.996 57.0957C204.063 57.0957 204.116 57.1492 204.116 57.216V62.1233H202.97C203.024 63.9151 203.703 84.2396 204.649 89.0666C204.649 89.1335 204.623 89.2004 204.556 89.2137C204.556 89.2137 204.543 89.2137 204.529 89.2137L204.543 89.2004Z" fill="#5E453B"/>
<path d="M181.223 90.7915C182.369 85.5767 180.49 80.1479 176.293 76.7783L174.107 79.5195C177.199 82.0065 178.625 85.9778 177.852 89.8288L175.973 89.2939L177.119 92.1287L178.265 94.9634L180.717 93.1449L183.169 91.3264L181.236 90.7781L181.223 90.7915Z" fill="#97A52F"/>
<path d="M173.921 100.072C171.842 101.168 169.59 101.716 167.338 101.716C164.9 101.716 162.488 101.074 160.329 99.8309C160.569 98.213 160.795 96.5282 161.022 94.7632L162.581 94.8033L161.342 96.3276C164.553 98.5606 168.764 98.8281 172.255 96.9695L173.894 100.085L173.921 100.072Z" fill="#97A52F"/>
<path d="M171.483 75.3478L166.659 79.1052V77.1529C165.206 77.2599 163.821 77.6744 162.595 78.3296C162.688 77.046 162.768 75.7356 162.848 74.3984C164.047 73.9705 165.34 73.7031 166.659 73.6363V71.6172L169.071 73.4892L171.483 75.3612V75.3478Z" fill="#97A52F"/>
<path d="M204.009 46.2114H174.374C174.374 46.2114 174.254 46.1579 174.254 46.091C174.254 46.0242 174.307 45.9707 174.374 45.9707H204.009C204.009 45.9707 204.129 46.0242 204.129 46.091C204.129 46.1579 204.076 46.2114 204.009 46.2114Z" fill="#5E453B"/>
<path d="M209.566 105.286L205.142 102.598L203.783 101.782L201.278 100.271C202.997 97.2361 198.026 94.8694 198.026 94.8694C202.051 94.5886 204.689 96.1932 206.421 98.2122C206.808 98.6535 207.141 99.1215 207.434 99.6029C209.18 102.357 209.553 105.299 209.553 105.299L209.566 105.286Z" fill="#F4E6D4"/>
<path d="M201.251 79.6396L201.158 84.6004L201.131 86.1782L201.065 89.3473C197.587 89.374 198.026 94.8696 198.026 94.8696C195.721 91.4332 195.841 88.2642 196.774 85.7236C196.987 85.162 197.227 84.6405 197.493 84.1458C198.999 81.3646 201.238 79.653 201.238 79.653L201.251 79.6396Z" fill="#D7E7F3"/>
<path d="M201.251 79.6396L201.158 84.6004L201.131 86.1782L201.065 89.3473C197.587 89.374 198.026 94.8696 198.026 94.8696C195.721 91.4332 195.841 88.2642 196.774 85.7236C196.987 85.162 197.227 84.6405 197.493 84.1458C198.999 81.3646 201.238 79.653 201.238 79.653L201.251 79.6396Z" fill="#F4E6D4"/>
<path d="M198.04 94.8696C196.281 98.4799 193.602 99.9909 191.004 100.486C190.418 100.606 189.845 100.659 189.272 100.686C186.007 100.833 183.275 99.6833 183.275 99.6833L187.739 97.2096L189.125 96.4475L191.75 94.99C193.509 97.9985 198.04 94.8696 198.04 94.8696Z" fill="#F4E6D4"/>
<path d="M203.783 101.903C203.783 101.903 203.743 101.903 203.716 101.889L201.118 100.312L201.171 100.205C201.531 99.5627 201.611 98.9075 201.411 98.2524C200.811 96.3402 198.013 94.9897 197.986 94.9764C197.933 94.9496 197.906 94.8694 197.933 94.8159C197.96 94.7491 198.026 94.7357 198.093 94.7624C198.213 94.8159 201.011 96.1664 201.651 98.1855C201.864 98.8808 201.797 99.5627 201.451 100.231L203.85 101.689C203.85 101.689 203.929 101.796 203.889 101.849C203.863 101.889 203.823 101.903 203.783 101.903Z" fill="#5E453B"/>
<path d="M198.04 94.9902C198.04 94.9902 197.92 94.9367 197.92 94.8832C197.92 94.7495 197.68 91.634 199.092 90.0829C199.585 89.548 200.198 89.2672 200.958 89.2405L201.011 86.1784C201.011 86.1784 201.065 86.0581 201.131 86.0581C201.131 86.0581 201.251 86.1116 201.251 86.1784L201.185 89.4678H201.065C200.332 89.4678 199.732 89.7352 199.266 90.2433C197.92 91.7276 198.146 94.8297 198.146 94.8565C198.146 94.9233 198.106 94.9768 198.04 94.9902Z" fill="#5E453B"/>
<path d="M189.125 96.568C189.125 96.568 189.045 96.5413 189.018 96.5012C188.992 96.4477 189.018 96.3675 189.072 96.3407L191.803 94.8297L191.857 94.9367C192.23 95.5652 192.749 95.9663 193.429 96.1134C195.388 96.5413 197.946 94.7896 197.973 94.7763C198.026 94.7361 198.106 94.7495 198.133 94.803C198.173 94.8565 198.159 94.9367 198.106 94.9635C197.999 95.0437 195.428 96.7953 193.376 96.3407C192.669 96.1803 192.11 95.7791 191.71 95.1507L189.178 96.5546C189.178 96.5546 189.138 96.568 189.125 96.568Z" fill="#5E453B"/>
<path d="M202.091 149.585L198.507 95.8991C198.946 95.7252 199.266 95.284 199.266 94.7759C199.266 94.1073 198.72 93.5591 198.053 93.5591C197.387 93.5591 196.841 94.1073 196.841 94.7759C196.841 95.2706 197.147 95.6985 197.574 95.8857L197.267 100.405L196.441 112.8L193.989 149.585H202.091Z" fill="#F4E6D4"/>
<path d="M193.989 149.519C193.922 149.519 193.869 149.452 193.882 149.385L196.334 112.787L197.16 100.392C197.16 100.392 197.227 100.272 197.293 100.285C197.36 100.285 197.413 100.352 197.4 100.419L196.574 112.814L194.122 149.412C194.122 149.412 194.068 149.519 194.002 149.519H193.989Z" fill="#5E453B"/>
<path d="M202.091 149.705C202.091 149.705 201.971 149.652 201.971 149.599L198.373 95.8322L198.453 95.8055C198.866 95.6451 199.132 95.2439 199.132 94.7893C199.132 94.7224 199.186 94.6689 199.252 94.6689C199.319 94.6689 199.372 94.7224 199.372 94.7893C199.372 95.3108 199.079 95.7654 198.613 95.9927L202.197 149.599C202.197 149.599 202.157 149.719 202.091 149.732V149.705Z" fill="#5E453B"/>
<path d="M198.04 84.1191C197.867 84.1191 197.693 84.1191 197.52 84.1325C197.254 84.6273 197 85.1621 196.801 85.7103C197.214 85.6435 197.627 85.6167 198.053 85.6167C199.132 85.6167 200.185 85.8039 201.145 86.165L201.171 84.5871C200.185 84.2796 199.132 84.1191 198.053 84.1191H198.04ZM206.435 98.2126C205.862 99.6166 204.942 100.847 203.796 101.783L205.155 102.598C206.088 101.743 206.874 100.726 207.461 99.5898C207.168 99.1218 206.821 98.6538 206.448 98.1992L206.435 98.2126ZM187.739 97.2097C188.046 98.4666 188.566 99.6433 189.272 100.686C189.831 100.66 190.418 100.606 191.004 100.486C190.071 99.3358 189.405 97.9585 189.125 96.4475L187.739 97.2097Z" fill="#7F9922"/>
<path d="M198.04 95.538C198.459 95.538 198.799 95.1968 198.799 94.7758C198.799 94.3549 198.459 94.0137 198.04 94.0137C197.62 94.0137 197.28 94.3549 197.28 94.7758C197.28 95.1968 197.62 95.538 198.04 95.538Z" fill="#59739B"/>
<path d="M126.443 149.732C125.151 144.277 128.349 138.728 133.772 137.177C137.383 136.147 141.101 137.15 143.7 139.503C144.539 137.11 146.471 135.158 149.07 134.409C152.734 133.366 156.505 135.051 158.277 138.246C158.944 136.602 160.329 135.265 162.182 134.743C164.74 134.008 167.378 135.064 168.778 137.163C169.764 133.901 172.322 131.186 175.84 130.183C181.317 128.619 187.033 131.801 188.592 137.31C188.779 137.966 188.899 138.621 188.952 139.263C189.458 138.915 190.031 138.634 190.658 138.46C193.749 137.578 196.987 139.383 197.867 142.485C198 142.953 198.066 143.421 198.08 143.889C198.48 143.689 198.893 143.528 199.332 143.394C203.183 142.298 207.181 144.531 208.274 148.395C208.394 148.837 208.473 149.291 208.513 149.732H126.457H126.443Z" fill="#7F9922"/>
<path d="M197.947 144.076V143.889C197.92 143.408 197.854 142.94 197.734 142.512C197.321 141.041 196.348 139.824 195.015 139.075C193.683 138.326 192.137 138.153 190.671 138.567C190.085 138.741 189.525 138.995 189.006 139.356L188.833 139.476V139.276C188.753 138.621 188.646 137.965 188.459 137.337C188.446 137.27 188.473 137.203 188.539 137.19C188.606 137.176 188.673 137.203 188.686 137.27C188.846 137.845 188.966 138.447 189.032 139.048C189.525 138.728 190.045 138.5 190.605 138.34C192.137 137.899 193.736 138.086 195.135 138.861C196.521 139.637 197.534 140.907 197.96 142.445C198.067 142.846 198.147 143.26 198.173 143.702C198.547 143.528 198.906 143.394 199.279 143.287C199.346 143.274 199.413 143.301 199.426 143.367C199.439 143.434 199.413 143.501 199.346 143.515C198.933 143.635 198.533 143.795 198.12 143.996L197.947 144.076Z" fill="#5E453B"/>
<path d="M158.477 90.5772V107.96C158.477 110.246 156.638 112.092 154.359 112.092H148.789C147.67 116.451 145.965 120.583 143.793 124.393L147.857 128.472C149.442 130.063 141.66 147.232 141.407 147.793L132.546 147.807C131.547 147.767 130.561 147.365 129.801 146.603L128.402 145.199L125.857 142.632C119.701 146.282 112.691 148.649 105.189 149.344V135.452H80.6443V145.386C80.4044 145.279 80.1779 145.172 79.938 145.066C78.992 144.638 77.1664 148.248 77.1664 148.248H68.8381C67.7854 148.248 66.7461 147.847 65.9466 147.044L53.7007 134.756C52.0883 133.138 52.0883 130.531 53.7007 128.913L57.6449 124.955C55.4196 121.171 53.674 117.066 52.5014 112.72H46.7582C45.7855 112.72 44.906 112.386 44.1998 111.824C43.2537 111.076 42.6407 109.899 42.6407 108.588V91.2057C42.6407 88.9191 44.4796 87.0739 46.7582 87.0739H52.3282C53.4475 82.7148 55.1531 78.5831 57.3251 74.7722L53.261 70.694C52.4614 69.8917 52.0484 68.822 52.0617 67.7656C52.0617 67.0436 52.2482 66.3215 52.6347 65.6797C52.6347 65.6797 52.6347 65.6797 52.6347 65.6663C52.8079 65.3722 53.0078 65.1047 53.261 64.8641L53.3942 64.7303C53.3942 64.7303 53.4075 64.717 53.4209 64.7036L55.1931 62.9252L55.2198 62.8985L65.5202 52.5624C66.3063 51.7735 67.3191 51.3723 68.3584 51.359H76.74C76.74 51.359 76.5934 51.934 76.3536 52.8031C76.127 53.6321 77.5262 54.5414 78.8587 54.4344C79.1385 54.4076 79.405 54.3408 79.6715 54.2338C80.058 54.06 80.4444 53.8862 80.8308 53.7123C82.9762 52.7763 85.2015 52.0008 87.4935 51.3723V45.6093C87.4935 43.3228 89.3323 41.4775 91.6109 41.4775H108.934C109.427 41.4775 109.906 41.5711 110.346 41.7316C111.919 42.3066 113.051 43.8309 113.051 45.6093V51.1985C113.051 51.1985 113.131 51.2253 113.171 51.2386C113.224 51.252 113.291 51.2654 113.344 51.2787C113.398 51.2921 113.464 51.3055 113.518 51.3322C113.518 51.3322 113.518 51.3322 113.531 51.3322C113.638 51.359 113.744 51.3857 113.851 51.4125C114.344 51.5462 114.837 51.6933 115.33 51.8537C115.796 52.0008 116.263 52.1479 116.716 52.3083C118.435 52.8967 120.114 53.592 121.753 54.3542C121.899 54.421 122.032 54.4879 122.179 54.5547C123.245 55.0628 124.298 55.6244 125.324 56.2128L128.082 53.4449L129.388 52.1345C130.787 50.7305 132.946 50.5433 134.545 51.5997C134.785 51.7467 134.998 51.934 135.211 52.1345L138.636 55.571L147.457 64.4228C149.069 66.0407 149.069 68.6482 147.457 70.2661L143.513 74.224C145.738 78.0081 147.484 82.1131 148.656 86.4588H154.399C156.678 86.4588 158.517 88.3041 158.517 90.5906L158.477 90.5772Z" fill="#ADADAD"/>
<path d="M105.176 135.478V149.371C103.657 149.518 102.111 149.585 100.552 149.585C93.4632 149.585 86.7339 148.087 80.631 145.413V135.478H105.176Z" fill="#999999"/>
<path d="M132.533 147.82C131.533 147.78 130.547 147.379 129.788 146.617L128.389 145.213C131.32 142.953 135.637 139.637 135.637 139.744C135.637 139.851 138.742 144.598 140.861 147.82H132.533Z" fill="#999999"/>
<path d="M67.6385 74.6254L57.2981 74.7859L53.2339 70.7076C52.4344 69.9053 52.0213 68.8356 52.0346 67.7793L60.736 67.8462L67.6518 74.6254H67.6385Z" fill="#999999"/>
<path d="M60.7231 67.9663L51.9151 67.8995V67.7791C51.9151 67.7791 51.8618 66.6025 52.5014 65.613C53.1144 64.6502 55.0199 62.8852 55.0998 62.805C55.1531 62.7649 55.2197 62.7649 55.273 62.805C55.313 62.8585 55.313 62.9253 55.273 62.9788C55.2597 62.9922 53.3142 64.7973 52.7013 65.7333C52.2216 66.4821 52.1549 67.3379 52.1549 67.6454L60.7364 67.7123C60.7364 67.7123 60.8563 67.7658 60.8563 67.8326C60.8563 67.8995 60.803 67.953 60.7364 67.953L60.7231 67.9663Z" fill="#5E453B"/>
<path d="M96.9941 51.3589L81.5101 59.7695L78.5919 55.5575L78.8185 54.4209C79.0983 54.3942 79.3648 54.3273 79.6313 54.2204C82.1364 53.057 84.7482 52.0943 87.4532 51.3589H96.9941Z" fill="#999999"/>
<path d="M79.6182 54.354C79.6182 54.354 79.5249 54.3272 79.5116 54.2871C79.485 54.2203 79.5116 54.1534 79.5649 54.1267C82.0567 52.9634 84.6685 52.014 87.3202 51.2786V45.6091C87.3202 45.6091 87.3735 45.4888 87.4401 45.4888C87.5068 45.4888 87.5601 45.5423 87.5601 45.6091V51.4658L87.4668 51.4925C84.8017 52.2146 82.1767 53.1773 79.6582 54.354C79.6449 54.354 79.6182 54.354 79.6049 54.354H79.6182Z" fill="#5E453B"/>
<path d="M61.6025 110.246L54.7401 111.998L53.4475 111.837H44.1732C44.8794 112.399 45.7589 112.733 46.7316 112.733H52.4748C53.6474 117.079 55.393 121.184 57.6183 124.968H67.932L61.6025 110.233V110.246Z" fill="#999999"/>
<path d="M55.0865 87.0873H60.6564C61.7758 82.7282 63.4814 78.5965 65.6534 74.7856L61.5892 70.7073C59.9768 69.0894 59.9768 66.482 61.5892 64.8641L73.8351 52.5758C75.4474 50.9578 78.0458 50.9578 79.6582 52.5758L83.6025 56.5337C87.3735 54.3007 91.4643 52.549 95.795 51.3723V45.6093C95.795 43.3228 97.6339 41.4775 99.9125 41.4775H117.235C119.514 41.4775 121.353 43.3228 121.353 45.6093V51.1985C125.697 52.3217 129.814 54.0333 133.612 56.2128L137.676 52.1345C139.289 50.5166 141.887 50.5166 143.499 52.1345L155.745 64.4228C157.358 66.0407 157.358 68.6482 155.745 70.2661L151.801 74.224C154.026 78.0081 155.772 82.1131 156.944 86.4588H162.688C164.966 86.4588 166.805 88.3041 166.805 90.5906V107.973C166.805 110.26 164.966 112.105 162.688 112.105H157.118C155.998 116.464 154.293 120.596 152.121 124.407L156.185 128.485C157.797 130.103 157.797 132.71 156.185 134.328L143.939 146.617C142.327 148.235 139.728 148.235 138.116 146.617L134.172 142.659C126.763 147.058 118.115 149.585 108.88 149.585C99.646 149.585 91.451 147.178 84.1621 142.993L80.0979 147.071C78.4856 148.689 75.8872 148.689 74.2748 147.071L62.0289 134.783C60.4166 133.165 60.4166 130.558 62.0289 128.94L65.9732 124.982C63.7479 121.198 62.0023 117.093 60.8297 112.747H55.0865C52.8079 112.747 50.969 110.902 50.969 108.615V91.2324C50.969 88.9459 52.8079 87.1006 55.0865 87.1006V87.0873Z" fill="#F7F7F7"/>
<path d="M141.047 147.954C139.915 147.954 138.849 147.513 138.049 146.71L134.105 142.753C134.105 142.753 134.052 142.632 134.105 142.579C134.158 142.525 134.225 142.525 134.278 142.579L138.223 146.537C138.982 147.299 139.981 147.713 141.047 147.713C142.114 147.713 143.113 147.299 143.872 146.537C143.926 146.483 143.992 146.483 144.046 146.537C144.099 146.59 144.099 146.657 144.046 146.71C143.246 147.513 142.18 147.954 141.047 147.954Z" fill="#5E453B"/>
<path d="M104.416 149.505C97.2604 148.863 90.4645 146.724 84.2017 143.14L80.2041 147.152C78.5518 148.81 75.8601 148.81 74.2211 147.152L61.9752 134.864C61.1757 134.061 60.736 132.992 60.736 131.855C60.736 130.718 61.1757 129.649 61.9752 128.846L65.8529 124.955C63.6275 121.158 61.9219 117.093 60.7626 112.854H55.1127C52.7808 112.854 50.8753 110.942 50.8753 108.602V91.2194C50.8753 88.8794 52.7808 86.9673 55.1127 86.9673C55.1794 86.9673 55.2327 87.0208 55.2327 87.0876C55.2327 87.1545 55.1794 87.208 55.1127 87.208C52.9141 87.208 51.1152 89.0131 51.1152 91.2194V108.602C51.1152 110.808 52.9141 112.614 55.1127 112.614H60.9492L60.9758 112.707C62.1351 116.986 63.8674 121.091 66.1194 124.915L66.1727 124.995L62.1618 129.02C61.4022 129.782 60.9892 130.785 60.9892 131.855C60.9892 132.925 61.4022 133.928 62.1618 134.69L74.4076 146.978C75.9667 148.542 78.4985 148.542 80.0575 146.978L84.1884 142.833L84.2683 142.873C90.5178 146.47 97.3137 148.609 104.456 149.251C104.523 149.251 104.576 149.318 104.563 149.385C104.563 149.452 104.509 149.492 104.443 149.492L104.416 149.505Z" fill="#5E453B"/>
<path d="M152.134 124.527C152.134 124.527 152.094 124.527 152.081 124.514C152.027 124.487 152.001 124.407 152.041 124.354C154.253 120.476 155.932 116.344 157.024 112.079L157.051 111.985H162.714C164.913 111.985 166.712 110.18 166.712 107.974V90.591C166.712 88.3847 164.913 86.5796 162.714 86.5796C162.648 86.5796 162.594 86.5261 162.594 86.4592C162.594 86.3924 162.648 86.3389 162.714 86.3389C165.046 86.3389 166.952 88.251 166.952 90.591V107.974C166.952 110.314 165.046 112.226 162.714 112.226H157.238C156.145 116.478 154.466 120.596 152.241 124.474C152.214 124.514 152.174 124.541 152.134 124.541V124.527Z" fill="#5E453B"/>
<path d="M155.759 70.3733C155.759 70.3733 155.692 70.3733 155.679 70.3332C155.626 70.2797 155.626 70.2128 155.679 70.1593C157.238 68.5949 157.238 66.0543 155.679 64.4899L143.433 52.2016C141.874 50.6372 139.342 50.6372 137.783 52.2016L133.652 56.3467L133.572 56.3066C129.695 54.087 125.591 52.4022 121.34 51.3057L121.247 51.279V45.5961C121.247 43.3899 119.461 41.5847 117.249 41.5847H99.9263C97.7276 41.5847 95.9287 43.3899 95.9287 45.5961V51.4528L95.8355 51.4795C91.5714 52.6429 87.4805 54.3811 83.6695 56.6409L83.5896 56.6944L79.5787 52.6696C79.5787 52.6696 79.5254 52.5493 79.5787 52.4958C79.632 52.4423 79.6986 52.4423 79.7519 52.4958L83.6295 56.3868C87.4139 54.1538 91.4648 52.4423 95.6889 51.279V45.6095C95.6889 43.2695 97.5944 41.3574 99.9263 41.3574H117.249C119.581 41.3574 121.487 43.2695 121.487 45.6095V51.1052C125.684 52.2016 129.761 53.873 133.612 56.0659L137.61 52.0545C138.41 51.2522 139.476 50.811 140.608 50.811C141.741 50.811 142.807 51.2522 143.606 52.0545L155.852 64.3428C157.505 66.0009 157.505 68.7019 155.852 70.3465C155.826 70.3733 155.799 70.3867 155.772 70.3867L155.759 70.3733Z" fill="#5E453B"/>
<path d="M65.6534 74.9063C65.6534 74.9063 65.5867 74.9063 65.5734 74.8662L61.5092 70.7879C60.7097 69.9856 60.27 68.9159 60.27 67.7793C60.27 66.6428 60.7097 65.5731 61.5092 64.7708L69.5443 56.7079C69.5443 56.7079 69.6642 56.6544 69.7175 56.7079C69.7708 56.7613 69.7708 56.8282 69.7175 56.8817L61.6824 64.9446C60.1234 66.5091 60.1234 69.0496 61.6824 70.6141L65.7466 74.6923C65.7466 74.6923 65.7999 74.8127 65.7466 74.8662C65.72 74.8929 65.6933 74.9063 65.6667 74.9063H65.6534Z" fill="#5E453B"/>
<path d="M92.0906 51.4795H87.4534C87.4534 51.4795 87.3335 51.426 87.3335 51.3591C87.3335 51.2923 87.3868 51.2388 87.4534 51.2388H92.0906C92.0906 51.2388 92.2105 51.2923 92.2105 51.3591C92.2105 51.426 92.1572 51.4795 92.0906 51.4795Z" fill="#5E453B"/>
<path d="M52.3948 87.208H46.7316C46.7316 87.208 46.6116 87.1545 46.6116 87.0876C46.6116 87.0208 46.6649 86.9673 46.7316 86.9673H52.2082C53.3009 82.7152 54.9799 78.5968 57.2052 74.7191C57.2318 74.6656 57.3118 74.6389 57.3651 74.679C57.4184 74.7057 57.445 74.786 57.4051 74.8394C55.1931 78.7305 53.5141 82.8489 52.4214 87.1144L52.3948 87.208Z" fill="#5E453B"/>
<path d="M82.8433 110.461C84.7754 114.753 87.747 118.644 91.7179 121.72C93.5035 123.097 95.409 124.247 97.3678 125.156C101.219 126.948 105.336 127.844 109.44 127.87C110.013 127.87 110.6 127.87 111.173 127.844C114.344 127.697 117.489 127.028 120.46 125.865C125.311 123.979 129.708 120.784 133.119 116.344C138.196 109.739 140.062 101.663 138.956 94.0141C138.383 89.9759 136.97 86.0581 134.772 82.5415C132.773 79.3323 130.121 76.4575 126.843 74.1175C125.324 73.0344 123.752 72.1252 122.113 71.3764C115.29 68.2207 107.575 67.8864 100.619 70.1328C95.862 71.6705 91.4647 74.4117 87.9335 78.3027C87.6404 78.6237 87.3605 78.9446 87.094 79.2655C86.108 80.4555 85.2285 81.6991 84.4556 82.9961C83.9759 83.7984 83.5362 84.614 83.1364 85.4431C79.3121 93.4258 79.3254 102.612 82.8566 110.448L82.8433 110.461Z" fill="#59739B"/>
<path d="M82.8433 110.461C83.6828 108.388 85.3485 107.278 87.0408 106.891C90.1722 106.182 93.1704 104.751 94.1697 97.0225C95.1691 89.2938 91.4647 86.1515 87.6137 87.2881C84.7755 88.1305 83.5629 86.4056 83.1231 85.4429C79.2988 93.4122 79.3121 102.598 82.8433 110.447V110.461Z" fill="#AFC547"/>
<path d="M101.725 116.331C101.552 118.283 105.349 123.765 109.453 127.884C110.026 127.884 110.613 127.884 111.186 127.857C114.357 127.71 117.502 127.041 120.473 125.878C120.793 124.782 121.34 123.739 122.379 122.91C125.39 120.516 128.549 113.723 126.736 108.99C128.149 108.335 129.694 107.345 131.067 105.968C133.652 103.401 137.81 99.4027 138.956 94.0274C138.383 89.9892 136.97 86.0714 134.771 82.5547C132.773 79.3456 130.121 76.4708 126.843 74.1308C125.324 73.0477 123.751 72.1384 122.112 71.3896C121.966 72.0047 121.593 72.5396 120.807 72.7268C118.395 73.3018 113.118 69.1433 110.12 75.5883C107.135 82.0199 115.397 77.2998 117.382 76.5911C119.381 75.8824 121.126 80.1746 114.49 83.8919C107.841 87.6091 118.341 95.8994 127.269 94.1745C136.197 92.4629 136.344 101.034 126.656 105.981C126.15 106.235 115.263 105.767 109.707 109.913C104.15 114.058 102.005 113.055 101.725 116.344V116.331Z" fill="#AFC547"/>
<path d="M84.4427 83.0094C84.9491 83.3304 85.5487 83.4507 86.1884 83.3036C89.3198 82.5816 89.4664 86.1651 94.3301 87.3016C99.1938 88.4516 98.1544 80.7229 100.859 75.575C102.538 72.3792 101.699 70.8415 100.62 70.1328C95.8625 71.6705 91.4651 74.4117 87.934 78.3027C87.6408 78.6236 87.361 78.9445 87.0945 79.2655C86.1084 80.4555 85.2289 81.699 84.4561 82.9961L84.4427 83.0094Z" fill="#AFC547"/>
<path d="M91.7179 121.853C91.7179 121.853 91.6646 121.853 91.6513 121.826C87.8003 118.845 84.7221 114.94 82.75 110.541L82.71 110.501V110.474C79.1255 102.451 79.2321 93.3321 83.0165 85.443V85.4163C83.4429 84.5471 83.8826 83.7181 84.349 82.9559C85.1219 81.6589 86.0147 80.402 87.0008 79.2119C87.2939 78.8509 87.5737 78.53 87.8536 78.2358C91.2915 74.4517 95.7021 71.617 100.592 70.0258C100.659 70.0124 100.726 70.0392 100.739 70.106C100.766 70.1729 100.726 70.2397 100.659 70.2531C95.7954 71.8176 91.4247 74.6389 88.0268 78.3963C87.7603 78.6905 87.4805 79.0114 87.1873 79.359C86.2146 80.5357 85.3218 81.7926 84.5489 83.0629C84.0959 83.8117 83.6561 84.6273 83.243 85.4831V85.5098C79.4587 93.3588 79.3654 102.438 82.9499 110.407L83.0298 110.581C84.9886 114.887 88.0268 118.698 91.7978 121.626C91.8511 121.666 91.8645 121.746 91.8245 121.8C91.7978 121.826 91.7712 121.853 91.7312 121.853H91.7179Z" fill="#5E453B"/>
<path d="M109.893 128.018C109.747 128.018 109.587 128.018 109.44 128.018C109.374 128.018 109.32 127.964 109.32 127.897C109.32 127.83 109.374 127.777 109.44 127.777C109.987 127.777 110.573 127.777 111.173 127.75C114.357 127.603 117.476 126.935 120.42 125.771C125.391 123.846 129.748 120.57 133.026 116.291C137.916 109.913 139.982 102.024 138.836 94.041C138.25 89.936 136.85 86.0984 134.678 82.6085C132.613 79.3191 129.961 76.4978 126.79 74.2246C125.311 73.1683 123.725 72.2457 122.073 71.4969C122.006 71.4701 121.993 71.4033 122.019 71.3364C122.046 71.2696 122.113 71.2562 122.179 71.2829C123.832 72.0451 125.431 72.9677 126.936 74.0374C130.134 76.3239 132.813 79.172 134.892 82.5015C137.09 86.0182 138.503 89.8959 139.089 94.0276C140.248 102.064 138.17 110.033 133.239 116.451C129.935 120.757 125.537 124.06 120.54 125.999C117.569 127.162 114.424 127.83 111.213 127.991C110.773 128.018 110.333 128.031 109.92 128.031L109.893 128.018Z" fill="#5E453B"/>
<path d="M107.374 56.133C107.148 56.133 106.908 56.0795 106.708 55.9592C106.095 55.5981 105.895 54.7959 106.255 54.1808C106.375 53.9802 107.508 52.1349 110.253 50.8513C112.345 49.8752 113.89 49.5008 114.477 49.3671C114.517 49.3671 114.557 49.3537 114.583 49.3403C115.183 49.1398 115.849 49.3938 116.156 49.9688C116.475 50.6106 116.236 51.3862 115.596 51.7071C115.436 51.7873 115.303 51.8274 115.076 51.8809C114.57 52.0012 113.211 52.3221 111.359 53.1913C109.333 54.1407 108.507 55.4778 108.494 55.4912C108.254 55.8923 107.827 56.1196 107.401 56.133H107.374ZM106.255 54.1808C106.375 53.9802 107.508 52.1349 110.253 50.8513C112.345 49.8752 113.89 49.5008 114.477 49.3671L106.268 54.1808H106.255Z" fill="#F3AE91"/>
<path d="M105.696 51.1854C105.856 51.0116 107.401 49.5006 110.36 48.8989C111.412 48.6849 112.305 48.578 113.038 48.5111C115.583 48.2571 123.098 48.1367 123.098 48.1367L121.886 56.0793C116.436 57.5368 114.264 53.7928 113.411 51.0784C112.745 51.1319 111.879 51.2255 110.866 51.4261C108.667 51.8673 107.561 52.9638 107.548 52.9772C107.228 53.3114 106.762 53.4318 106.335 53.3382C106.109 53.2847 105.896 53.1777 105.722 53.0039C105.216 52.5092 105.203 51.6801 105.696 51.172V51.1854Z" fill="#F3AE91"/>
<path d="M110.746 59.208C110.4 59.2749 110.04 59.208 109.733 58.9807C109.16 58.5528 109.04 57.7505 109.467 57.1755C109.6 57.0017 110.746 55.4373 111.399 54.742C112.505 53.5519 117.195 53.124 117.235 53.124C117.942 53.124 118.528 53.7124 118.515 54.421C118.515 55.1164 117.955 55.6913 117.249 55.7047C116.596 55.7448 113.851 56.2262 113.211 56.5738C112.731 57.1087 111.839 58.2854 111.519 58.7133C111.319 58.9807 111.039 59.1545 110.733 59.208H110.746ZM117.222 55.7047C117.222 55.7047 117.235 55.7047 117.249 55.7047H117.222Z" fill="#F3AE91"/>
<path d="M106.256 54.3011C106.256 54.3011 106.336 54.2743 106.349 54.2476C106.469 54.047 107.588 52.2419 110.293 50.9716C111.306 50.4902 112.332 50.1025 113.318 49.8083C113.385 49.7949 113.411 49.7281 113.398 49.6612C113.385 49.5943 113.318 49.5676 113.252 49.581C112.252 49.8885 111.226 50.2763 110.187 50.7577C107.428 52.0547 106.269 53.9133 106.149 54.1272C106.123 54.1807 106.136 54.261 106.189 54.2877C106.216 54.2877 106.229 54.3011 106.256 54.3011Z" fill="#5E453B"/>
<path d="M108.708 58.2591C108.481 58.2858 108.241 58.2591 108.015 58.1655C107.362 57.8847 107.055 57.1225 107.322 56.4673C107.415 56.2534 108.294 54.2744 110.826 52.6431C112.772 51.3862 114.251 50.8112 114.811 50.5973C114.85 50.5839 114.89 50.5705 114.917 50.5572C115.477 50.2764 116.183 50.4368 116.556 50.9717C116.969 51.56 116.823 52.3623 116.236 52.7768C116.09 52.8838 115.956 52.9373 115.743 53.0175C115.25 53.2047 113.958 53.7128 112.225 54.8226C110.347 56.0394 109.707 57.4701 109.694 57.4835C109.507 57.9114 109.121 58.1922 108.694 58.2591H108.708ZM107.335 56.4807C107.428 56.2667 108.308 54.2878 110.84 52.6565C112.785 51.3995 114.264 50.8246 114.824 50.6106L107.335 56.4807Z" fill="#F3AE91"/>
<path d="M107.334 56.6011C107.334 56.6011 107.414 56.5743 107.441 56.5342C107.534 56.3203 108.4 54.3814 110.906 52.7635C111.852 52.1484 112.811 51.6269 113.757 51.199C113.81 51.1723 113.837 51.1054 113.81 51.0386C113.784 50.9851 113.717 50.9584 113.651 50.9851C112.691 51.413 111.732 51.9478 110.772 52.5629C108.2 54.221 107.308 56.2267 107.214 56.4406C107.188 56.4941 107.214 56.5743 107.281 56.6011C107.294 56.6011 107.321 56.6011 107.334 56.6011Z" fill="#5E453B"/>
<path d="M109.747 59.0877C109.747 59.0877 109.813 59.0744 109.84 59.0343C109.88 58.9808 109.866 58.9139 109.813 58.8738C109.56 58.6866 109.4 58.4058 109.347 58.0983C109.307 57.7907 109.373 57.4832 109.56 57.2291C109.693 57.0553 110.839 55.4908 111.492 54.8089C112.052 54.2206 113.624 53.552 115.09 53.2846C115.157 53.2846 115.197 53.2177 115.183 53.1508C115.183 53.084 115.103 53.0439 115.05 53.0572C113.744 53.2846 111.999 53.9264 111.319 54.6484C110.666 55.3438 109.507 56.9082 109.373 57.0954C108.907 57.7239 109.04 58.6064 109.667 59.0744C109.693 59.0877 109.72 59.1011 109.747 59.1011V59.0877Z" fill="#5E453B"/>
<path d="M122.059 57.791C122.059 57.791 139.036 57.0155 141.674 53.9802C142.953 52.496 143.313 48.4311 141.501 46.1312C137.717 41.3175 132.64 36.4904 129.175 33.8295C126.603 31.8506 123.059 31.8372 121.446 33.5889C118.022 37.3195 120.46 41.0902 123.219 43.6709C125.324 45.6365 127.603 46.8934 127.603 46.8934L121.033 47.9764L122.073 57.8044L122.059 57.791Z" fill="#EBDBC4"/>
<path d="M127.256 46.8128C127.256 46.8128 127.216 46.8128 127.189 46.7995C126.949 46.6524 121.3 43.2026 120.753 39.0307C120.753 38.9638 120.793 38.9103 120.86 38.897C120.926 38.897 120.98 38.9371 120.993 39.0039C121.539 43.0688 127.269 46.5588 127.323 46.5989C127.376 46.639 127.403 46.7059 127.363 46.7593C127.336 46.7995 127.296 46.8128 127.256 46.8128Z" fill="#5E453B"/>
<path d="M122.059 57.9112C122.059 57.9112 121.953 57.8711 121.94 57.8043L120.887 47.8693L120.993 47.8426C121.073 47.8292 129.362 46.1043 133.466 45.5962C133.532 45.5962 133.586 45.6363 133.599 45.7032C133.599 45.77 133.559 45.8235 133.493 45.8369C129.642 46.3182 122.126 47.856 121.14 48.0565L122.166 57.7641C122.166 57.7641 122.126 57.8845 122.059 57.8979V57.9112Z" fill="#5E453B"/>
<path d="M134.292 38.4826C134.292 38.4826 134.225 38.4692 134.198 38.4425C128.575 31.6765 120.06 30.0987 119.967 30.0853C119.9 30.0853 119.86 30.0051 119.874 29.9516C119.887 29.8981 119.954 29.8447 120.007 29.858C120.087 29.8714 128.695 31.4626 134.372 38.2954C134.412 38.3489 134.412 38.4157 134.358 38.4692C134.332 38.4826 134.305 38.4959 134.278 38.4959L134.292 38.4826Z" fill="#5E453B"/>
<path d="M241.001 90.1632L235.058 86.5663L233.246 85.4698L229.888 83.4374C232.193 79.3725 225.53 76.1901 225.53 76.1901C230.914 75.8157 234.471 77.9551 236.79 80.6695C237.31 81.2712 237.763 81.8997 238.163 82.5281C240.494 86.232 241.014 90.1632 241.014 90.1632H241.001Z" fill="#F4E6D4"/>
<path d="M229.847 55.7451L229.714 62.3907L229.674 64.5167L229.594 68.7688C224.93 68.7956 225.517 76.1766 225.517 76.1766C222.425 71.5768 222.572 67.3247 223.838 63.9017C224.118 63.1529 224.451 62.4442 224.811 61.7756C226.836 58.045 229.834 55.7451 229.834 55.7451H229.847Z" fill="#D7E7F3"/>
<path d="M229.847 55.7451L229.714 62.3907L229.674 64.5167L229.594 68.7688C224.93 68.7956 225.517 76.1766 225.517 76.1766C222.425 71.5768 222.572 67.3247 223.838 63.9017C224.118 63.1529 224.451 62.4442 224.811 61.7756C226.836 58.045 229.834 55.7451 229.834 55.7451H229.847Z" fill="#F4E6D4"/>
<path d="M225.53 76.1899C223.171 81.0304 219.573 83.0495 216.096 83.718C215.309 83.8651 214.536 83.9587 213.777 83.9855C209.406 84.1727 205.729 82.6483 205.729 82.6483L211.725 79.3322L213.577 78.3026L217.095 76.3504C219.453 80.3885 225.53 76.1899 225.53 76.1899Z" fill="#F4E6D4"/>
<path d="M233.245 85.5769C233.245 85.5769 233.205 85.5769 233.179 85.5635L229.728 83.4776L229.781 83.3706C230.274 82.5015 230.381 81.619 230.101 80.7231C229.288 78.1424 225.517 76.3239 225.477 76.2972C225.424 76.2704 225.397 76.2036 225.424 76.1367C225.45 76.0699 225.53 76.0565 225.583 76.0832C225.743 76.1635 229.488 77.9686 230.327 80.6562C230.62 81.5789 230.527 82.5015 230.047 83.3974L233.299 85.363C233.299 85.363 233.379 85.4699 233.339 85.5234C233.312 85.5635 233.272 85.5769 233.232 85.5769H233.245Z" fill="#5E453B"/>
<path d="M225.53 76.3102C225.53 76.3102 225.41 76.2567 225.41 76.2032C225.397 76.0294 225.077 71.8709 226.982 69.7983C227.635 69.0897 228.475 68.7019 229.487 68.6751L229.567 64.53C229.567 64.53 229.621 64.4097 229.687 64.4097C229.687 64.4097 229.807 64.4632 229.807 64.53L229.727 68.9024H229.607C228.621 68.9024 227.795 69.2635 227.155 69.9588C225.33 71.9511 225.65 76.1497 225.65 76.1898C225.65 76.2567 225.61 76.3102 225.543 76.3236L225.53 76.3102Z" fill="#5E453B"/>
<path d="M213.577 78.4232C213.577 78.4232 213.497 78.3964 213.47 78.3563C213.444 78.3028 213.47 78.2226 213.524 78.1959L217.148 76.1902L217.202 76.2971C217.708 77.1529 218.414 77.7011 219.334 77.9017C221.972 78.49 225.423 76.1233 225.463 76.0966C225.516 76.0565 225.596 76.0698 225.623 76.1233C225.663 76.1768 225.65 76.257 225.596 76.2838C225.45 76.3774 222.025 78.7307 219.28 78.129C218.334 77.9151 217.588 77.3802 217.055 76.5111L213.63 78.4098C213.63 78.4098 213.59 78.4232 213.577 78.4232Z" fill="#5E453B"/>
<path d="M230.966 149.586L226.156 77.5674C226.755 77.3267 227.182 76.7517 227.182 76.0564C227.182 75.1605 226.462 74.4385 225.57 74.4385C224.677 74.4385 223.957 75.1605 223.957 76.0564C223.957 76.725 224.357 77.3 224.93 77.5406L224.53 83.5979L223.424 100.218L220.133 149.572H230.993L230.966 149.586Z" fill="#F4E6D4"/>
<path d="M220.107 149.452C220.04 149.452 219.987 149.385 220 149.318L223.291 100.218L224.397 83.5978C224.397 83.5978 224.464 83.4774 224.531 83.4908C224.597 83.4908 224.651 83.5576 224.637 83.6245L223.531 100.245L220.24 149.345C220.24 149.345 220.187 149.452 220.12 149.452H220.107Z" fill="#5E453B"/>
<path d="M230.966 149.705C230.966 149.705 230.847 149.652 230.847 149.599L226.036 77.5001L226.116 77.4734C226.689 77.2461 227.062 76.6978 227.062 76.0827C227.062 76.0159 227.115 75.9624 227.182 75.9624C227.249 75.9624 227.302 76.0159 227.302 76.0827C227.302 76.7647 226.902 77.3798 226.289 77.6606L231.1 149.585C231.1 149.585 231.06 149.705 230.993 149.719L230.966 149.705Z" fill="#5E453B"/>
<path d="M225.53 61.7622C225.29 61.7622 225.063 61.7622 224.823 61.789C224.464 62.4575 224.13 63.1662 223.851 63.915C224.397 63.8348 224.957 63.7947 225.53 63.7947C226.982 63.7947 228.381 64.0487 229.674 64.5301L229.714 62.404C228.381 61.9895 226.982 61.7756 225.53 61.7756V61.7622ZM236.789 80.656C236.016 82.5413 234.791 84.186 233.245 85.4563L235.057 86.5527C236.31 85.4028 237.362 84.0389 238.149 82.5146C237.749 81.8727 237.296 81.2577 236.776 80.656H236.789ZM211.725 79.3322C212.124 81.017 212.831 82.5948 213.777 83.9854C214.536 83.9587 215.309 83.8785 216.095 83.718C214.843 82.1803 213.95 80.335 213.577 78.3026L211.725 79.3322Z" fill="#7F9922"/>
<path d="M226.542 76.0696C226.542 76.6312 226.089 77.0992 225.516 77.0992C224.943 77.0992 224.49 76.6446 224.49 76.0696C224.49 75.4947 224.943 75.04 225.516 75.04C226.089 75.04 226.542 75.4947 226.542 76.0696Z" fill="#59739B"/>
<path d="M40.069 82.0736L33.3131 77.982L31.2477 76.7384L27.4367 74.4252C30.0617 69.7987 22.4797 66.2018 22.4797 66.2018C28.6093 65.7739 32.6335 68.2075 35.2719 71.2963C35.8582 71.9782 36.3646 72.6869 36.8309 73.409C39.4827 77.6076 40.069 82.087 40.069 82.087V82.0736Z" fill="#F4E6D4"/>
<path d="M27.3967 42.9756L27.2501 50.5304L27.2101 52.9373L27.1168 57.7777C21.8134 57.8044 22.493 66.1883 22.493 66.1883C18.9751 60.9601 19.1483 56.133 20.5875 52.2419C20.9073 51.3862 21.2804 50.5839 21.6935 49.8351C23.9987 45.5964 27.3967 42.9756 27.3967 42.9756Z" fill="#D7E7F3"/>
<path d="M27.3967 42.9756L27.2501 50.5304L27.2101 52.9373L27.1168 57.7777C21.8134 57.8044 22.493 66.1883 22.493 66.1883C18.9751 60.9601 19.1483 56.133 20.5875 52.2419C20.9073 51.3862 21.2804 50.5839 21.6935 49.8351C23.9987 45.5964 27.3967 42.9756 27.3967 42.9756Z" fill="#F4E6D4"/>
<path d="M22.493 66.1885C19.8146 71.6841 15.7371 73.984 11.7795 74.7462C10.8867 74.92 10.0072 75.0136 9.1411 75.0537C4.1708 75.2676 0 73.5294 0 73.5294L6.80919 69.7586L8.91457 68.5953L12.9121 66.3757C15.5905 70.9621 22.493 66.1885 22.493 66.1885Z" fill="#F4E6D4"/>
<path d="M31.2474 76.8452C31.2474 76.8452 31.2074 76.8452 31.1807 76.8319L27.2764 74.4651L27.3297 74.3582C27.8894 73.3687 28.0093 72.3525 27.6895 71.3362C26.7701 68.3945 22.466 66.322 22.4261 66.2952C22.3728 66.2685 22.3461 66.2016 22.3728 66.1348C22.3994 66.0813 22.466 66.0545 22.5327 66.0813C22.7192 66.1615 26.9566 68.2207 27.9161 71.256C28.2492 72.3124 28.1426 73.3553 27.5962 74.3715L31.314 76.6179C31.314 76.6179 31.3939 76.7249 31.354 76.7784C31.3273 76.8185 31.2873 76.8319 31.2474 76.8319V76.8452Z" fill="#5E453B"/>
<path d="M22.4932 66.3086C22.4932 66.3086 22.3733 66.2551 22.3733 66.2016C22.36 66.0011 22.0002 61.281 24.1456 58.9276C24.8918 58.112 25.8512 57.6841 26.9972 57.6573L27.0904 52.9372C27.0904 52.9372 27.1437 52.8169 27.2104 52.8169C27.277 52.8169 27.3303 52.8704 27.3303 52.9372L27.237 57.8846H27.1171C25.9844 57.8846 25.0517 58.2992 24.3188 59.0881C22.2401 61.3612 22.5998 66.1214 22.5998 66.1749C22.5998 66.2417 22.5599 66.2952 22.4932 66.3086Z" fill="#5E453B"/>
<path d="M8.91491 68.7154C8.91491 68.7154 8.83496 68.6887 8.80831 68.6485C8.78166 68.5951 8.80831 68.5148 8.86161 68.4881L12.9658 66.215L13.0191 66.3219C13.5921 67.298 14.4049 67.9131 15.4443 68.1538C18.4424 68.8224 22.3867 66.1347 22.4267 66.0946C22.48 66.0545 22.5599 66.0679 22.5866 66.1214C22.6266 66.1748 22.6132 66.2551 22.5599 66.2818C22.4 66.4022 18.4957 69.0631 15.391 68.3677C14.3249 68.1271 13.4721 67.512 12.8725 66.5225L8.96821 68.6887C8.96821 68.6887 8.92823 68.702 8.91491 68.702V68.7154Z" fill="#5E453B"/>
<path d="M28.6626 149.586L23.1992 67.7663C23.8788 67.4988 24.3585 66.8303 24.3585 66.0547C24.3585 65.0385 23.5324 64.2095 22.5197 64.2095C21.5069 64.2095 20.6808 65.0385 20.6808 66.0547C20.6808 66.8169 21.1338 67.4587 21.7868 67.7529L21.3337 74.6391L20.0678 93.5329L16.3234 149.599H28.6626V149.586Z" fill="#F4E6D4"/>
<path d="M16.3234 149.706C16.2568 149.706 16.2035 149.639 16.2168 149.572L21.2271 74.6123C21.2271 74.6123 21.2937 74.5054 21.3603 74.5054C21.4269 74.5054 21.4802 74.5722 21.4669 74.6391L16.4566 149.599C16.4566 149.599 16.4033 149.706 16.3367 149.706H16.3234Z" fill="#5E453B"/>
<path d="M28.663 149.706C28.663 149.706 28.5431 149.653 28.5431 149.599L23.0664 67.6994L23.1464 67.6727C23.7993 67.4052 24.2257 66.7768 24.2257 66.0681C24.2257 66.0012 24.279 65.9478 24.3456 65.9478C24.4123 65.9478 24.4656 66.0012 24.4656 66.0681C24.4656 66.8436 24.0125 67.5389 23.3063 67.8599L28.7696 149.599C28.7696 149.599 28.7296 149.719 28.663 149.733V149.706Z" fill="#5E453B"/>
<path d="M22.4934 49.8086C22.2269 49.8086 21.9604 49.8086 21.6938 49.8353C21.2808 50.5841 20.9077 51.3998 20.5879 52.2422C21.2141 52.1486 21.8537 52.1085 22.4934 52.1085C24.1457 52.1085 25.7314 52.4026 27.2105 52.9375L27.2505 50.5306C25.7447 50.0627 24.1457 49.8086 22.4934 49.8086ZM35.2856 71.283C34.4061 73.4224 33.0203 75.2944 31.2614 76.7252L33.3268 77.9687C34.7526 76.6717 35.9518 75.1206 36.8446 73.3823C36.3916 72.6603 35.8719 71.9516 35.2856 71.2696V71.283ZM6.80957 69.7587C7.26263 71.6841 8.07547 73.4625 9.14148 75.0537C10.0076 75.0136 10.8871 74.92 11.7799 74.7462C10.3541 72.9945 9.34136 70.8952 8.91496 68.5954L6.80957 69.7587Z" fill="#7F9922"/>
<path d="M23.5057 66.0413C23.5057 66.643 23.0127 67.1377 22.413 67.1377C21.8134 67.1377 21.3204 66.643 21.3204 66.0413C21.3204 65.4396 21.8134 64.9448 22.413 64.9448C23.0127 64.9448 23.5057 65.4396 23.5057 66.0413Z" fill="#59739B"/>
<path d="M159.556 123.337C159.556 137.19 163.647 139.262 168.684 139.262C173.721 139.262 177.812 137.19 177.812 123.337C177.812 117.066 176.972 109.444 175.586 102.999C174.894 99.7634 174.054 96.8084 173.121 94.4817C171.802 91.1924 170.296 89.1064 168.671 89.1064C163.62 89.1064 159.543 109.498 159.543 123.351L159.556 123.337Z" fill="#697C16"/>
<path d="M175.599 103.12C175.599 103.12 175.493 103.08 175.48 103.026C174.76 99.6433 173.921 96.7818 173.028 94.5221C171.642 91.0589 170.149 89.227 168.697 89.227C168.63 89.227 168.577 89.1735 168.577 89.1067C168.577 89.0398 168.63 88.9863 168.697 88.9863C170.269 88.9863 171.802 90.8182 173.254 94.4418C174.16 96.715 175 99.5898 175.719 102.986C175.733 103.053 175.693 103.12 175.626 103.133C175.626 103.133 175.613 103.133 175.599 103.133V103.12Z" fill="#5E453B"/>
<path d="M168.51 118.898C167.151 118.898 166.099 118.43 165.392 117.521C163.34 114.873 164.873 109.364 164.939 109.124C164.979 108.99 165.112 108.923 165.232 108.963C165.366 109.003 165.432 109.137 165.392 109.257C165.379 109.311 163.86 114.766 165.765 117.227C166.405 118.056 167.391 118.457 168.684 118.417C168.817 118.417 168.923 118.524 168.937 118.644C168.937 118.778 168.83 118.885 168.71 118.898C168.644 118.898 168.59 118.898 168.524 118.898H168.51Z" fill="#47332A"/>
<path d="M172.428 99.028C172.428 99.028 174.107 98.7739 173.508 97.3833C173.508 97.3833 172.082 97.4635 172.428 99.028Z" fill="#7F9922"/>
<path d="M173.481 99.777C173.481 99.777 175.813 101.141 176.426 98.8142C176.426 98.8142 174.574 97.4905 173.481 99.777Z" fill="#7F9922"/>
<path d="M163.447 101.622C163.447 101.622 163.141 104.47 165.646 104.069C165.646 104.069 166.126 101.702 163.447 101.622Z" fill="#7F9922"/>
<path d="M171.789 117.293C171.789 117.293 173.961 116.879 173.095 115.101C173.095 115.101 171.243 115.274 171.789 117.293Z" fill="#7F9922"/>
<path d="M171.882 130.691C171.882 130.691 172.135 134.475 175.32 133.366C175.32 133.366 175.4 130.17 171.882 130.691Z" fill="#7F9922"/>
<path d="M166.605 95.1641C166.605 95.1641 166.352 96.675 167.697 96.5413C167.697 96.5413 168.031 95.2978 166.605 95.1641Z" fill="#7F9922"/>
<path d="M168.684 149.946C168.551 149.946 168.444 149.839 168.444 149.706V104.417C168.444 104.283 168.551 104.176 168.684 104.176C168.817 104.176 168.924 104.283 168.924 104.417V149.706C168.924 149.839 168.817 149.946 168.684 149.946Z" fill="#47332A"/>
<path d="M169.084 127.416C168.951 127.416 168.804 127.416 168.671 127.416C168.538 127.416 168.431 127.295 168.444 127.162C168.444 127.028 168.564 126.934 168.698 126.934C170.217 127.014 171.336 126.64 172.029 125.798C173.361 124.193 172.708 121.425 172.695 121.398C172.669 121.265 172.748 121.144 172.868 121.104C173.002 121.078 173.122 121.158 173.162 121.278C173.188 121.398 173.868 124.313 172.389 126.105C171.669 126.988 170.55 127.429 169.084 127.429V127.416Z" fill="#47332A"/>
<path d="M168.791 110.675C168.791 110.675 168.711 110.675 168.684 110.675C168.551 110.675 168.444 110.568 168.444 110.434C168.444 110.3 168.551 110.194 168.684 110.194C169.963 110.207 170.869 109.873 171.376 109.191C172.242 108.027 171.682 106.182 171.682 106.169C171.642 106.048 171.709 105.901 171.842 105.861C171.962 105.821 172.109 105.888 172.149 106.022C172.175 106.102 172.788 108.108 171.775 109.471C171.189 110.26 170.19 110.661 168.804 110.661L168.791 110.675Z" fill="#47332A"/>
<path d="M153.24 140.988C160.121 140.988 165.699 133.726 165.699 124.768C165.699 115.811 160.121 108.549 153.24 108.549C146.359 108.549 140.781 115.811 140.781 124.768C140.781 133.726 146.359 140.988 153.24 140.988Z" fill="#697C16"/>
<path d="M157.771 140.012C157.771 140.012 157.691 139.985 157.665 139.945C157.638 139.891 157.665 139.811 157.718 139.784C162.488 137.351 165.58 131.467 165.58 124.782C165.58 120.556 164.327 116.558 162.062 113.523C162.022 113.469 162.035 113.389 162.089 113.349C162.142 113.309 162.222 113.322 162.262 113.376C164.554 116.438 165.82 120.489 165.82 124.782C165.82 131.561 162.688 137.538 157.825 139.998C157.811 139.998 157.785 139.998 157.771 139.998V140.012Z" fill="#5E453B"/>
<path d="M153.24 149.92C153.107 149.92 153 149.813 153 149.679V123.164C153 123.03 153.107 122.923 153.24 122.923C153.373 122.923 153.48 123.03 153.48 123.164V149.679C153.48 149.813 153.373 149.92 153.24 149.92Z" fill="#47332A"/>
<path d="M153.013 133.259C151.947 133.259 151.081 132.911 150.442 132.229C148.936 130.625 149.216 127.723 149.229 127.603C149.242 127.469 149.362 127.376 149.496 127.389C149.629 127.402 149.722 127.523 149.709 127.656C149.709 127.683 149.429 130.464 150.788 131.908C151.374 132.537 152.201 132.831 153.227 132.778C153.36 132.778 153.466 132.871 153.48 133.005C153.48 133.139 153.387 133.246 153.253 133.259C153.173 133.259 153.093 133.259 153.013 133.259Z" fill="#47332A"/>
<path d="M154.053 129.756C153.787 129.756 153.494 129.729 153.2 129.675C153.067 129.649 152.987 129.528 153 129.395C153.027 129.261 153.147 129.181 153.28 129.194C154.413 129.381 155.292 129.181 155.865 128.579C157.225 127.188 156.665 124.113 156.665 124.086C156.638 123.952 156.732 123.832 156.851 123.805C156.985 123.779 157.105 123.872 157.131 123.993C157.158 124.126 157.731 127.349 156.212 128.913C155.679 129.461 154.959 129.742 154.053 129.742V129.756Z" fill="#47332A"/>
<path d="M158.997 120.597C158.997 120.597 160.423 121.024 160.463 119.701C160.463 119.701 159.29 119.219 158.997 120.597Z" fill="#7F9922"/>
<path d="M144.858 122.081C144.858 122.081 145.178 124.434 147.124 123.618C147.124 123.618 147.044 121.613 144.858 122.081Z" fill="#7F9922"/>
<path d="M159.196 121.8C159.196 121.8 160.542 123.766 161.901 122.148C161.901 122.148 160.929 120.396 159.196 121.8Z" fill="#7F9922"/>
<path d="M144.873 110.982C144.873 110.982 144.446 114.151 147.271 113.777C147.271 113.777 147.871 111.143 144.873 110.982Z" fill="#7F9922"/>
<path d="M38.8834 142.432C39.0699 142.432 39.2565 142.432 39.443 142.445C39.443 142.365 39.443 142.298 39.443 142.218C39.443 140.68 39.7095 139.196 40.1892 137.819C39.403 137.257 38.8834 136.321 38.8834 135.278C38.8834 133.553 40.2825 132.149 42.0015 132.149C42.5744 132.149 43.1208 132.31 43.5872 132.577C45.9457 130.344 49.1305 128.98 52.6217 128.98C57.0856 128.98 61.0299 131.213 63.4151 134.623C65.0408 132.551 67.5726 131.227 70.3975 131.227C74.0486 131.227 77.1801 133.433 78.5526 136.575C79.3387 136.174 80.2315 135.934 81.1776 135.934C84.3757 135.934 86.9608 138.528 86.9608 141.737C86.9608 141.777 86.9608 141.83 86.9608 141.87C87.5871 141.59 88.2933 141.443 89.0262 141.443C90.3454 141.443 91.5446 141.951 92.4508 142.766C94.2497 141.229 96.5816 140.306 99.1267 140.306C104.483 140.306 108.894 144.398 109.414 149.639H30.1953C30.9682 145.534 34.566 142.419 38.8834 142.419V142.432Z" fill="#7F9922"/>
<path d="M109.413 149.773C109.413 149.773 109.307 149.733 109.293 149.666C108.76 144.411 104.39 140.44 99.1264 140.44C96.7145 140.44 94.3692 141.309 92.517 142.873L92.4371 142.94L92.3571 142.873C91.4377 142.044 90.2518 141.576 89.0125 141.576C88.9459 141.576 88.8926 141.523 88.8926 141.456C88.8926 141.389 88.9459 141.336 89.0125 141.336C90.2651 141.336 91.4777 141.79 92.4371 142.619C94.3159 141.055 96.6745 140.199 99.113 140.199C104.51 140.199 108.987 144.251 109.52 149.639C109.52 149.706 109.48 149.76 109.413 149.773Z" fill="#5E453B"/>
<path d="M39.909 136.856C50.0281 136.856 58.2312 126.175 58.2312 113.001C58.2312 99.8265 50.0281 89.1465 39.909 89.1465C29.79 89.1465 21.5869 99.8265 21.5869 113.001C21.5869 126.175 29.79 136.856 39.909 136.856Z" fill="#697C16"/>
<path d="M31.4475 134.288C31.4475 134.288 31.4075 134.288 31.3809 134.262C25.2646 130.103 21.4669 121.96 21.4669 113.001C21.4669 99.7769 29.7419 89.0264 39.909 89.0264C39.9757 89.0264 40.029 89.0798 40.029 89.1467C40.029 89.2136 39.9757 89.2671 39.909 89.2671C29.8751 89.2671 21.7068 99.9107 21.7068 113.001C21.7068 121.88 25.4645 129.956 31.5141 134.061C31.5674 134.101 31.5808 134.168 31.5408 134.222C31.5141 134.262 31.4742 134.275 31.4475 134.275V134.288Z" fill="#5E453B"/>
<path d="M39.909 149.879C39.7758 149.879 39.6692 149.772 39.6692 149.639V110.621C39.6692 110.487 39.7758 110.38 39.909 110.38C40.0423 110.38 40.1489 110.487 40.1489 110.621V149.639C40.1489 149.772 40.0423 149.879 39.909 149.879Z" fill="#47332A"/>
<path d="M40.2421 125.37C40.1355 125.37 40.0156 125.37 39.8957 125.37C39.7624 125.37 39.6558 125.249 39.6692 125.116C39.6692 124.982 39.7891 124.875 39.9223 124.888C41.4681 124.955 42.7073 124.514 43.6001 123.578C45.6389 121.412 45.2258 117.28 45.2125 117.24C45.1991 117.106 45.2924 116.986 45.4257 116.972C45.5589 116.959 45.6788 117.053 45.6922 117.186C45.7055 117.36 46.1319 121.586 43.9466 123.912C43.0271 124.888 41.7879 125.383 40.2421 125.383V125.37Z" fill="#47332A"/>
<path d="M38.7097 120.209C37.4172 120.209 36.3912 119.807 35.6183 119.032C33.4063 116.772 34.2458 112.092 34.2858 111.892C34.3124 111.758 34.4323 111.678 34.5656 111.704C34.6988 111.731 34.7788 111.851 34.7521 111.985C34.7521 112.025 33.9127 116.612 35.9514 118.698C36.8309 119.607 38.1501 119.914 39.8557 119.634C39.989 119.607 40.1089 119.7 40.1355 119.834C40.1622 119.968 40.0689 120.088 39.9357 120.115C39.4959 120.182 39.0828 120.222 38.6964 120.222L38.7097 120.209Z" fill="#47332A"/>
<path d="M31.4478 106.503C31.4478 106.503 29.1159 107.211 29.0626 105.032C29.0626 105.032 30.9681 104.256 31.4478 106.503Z" fill="#7F9922"/>
<path d="M52.2349 109.043C52.2349 109.043 51.7685 112.507 48.9036 111.303C48.9036 111.303 49.0235 108.348 52.2349 109.043Z" fill="#7F9922"/>
<path d="M33.4596 127.67C33.4596 127.67 32.8999 131.882 29.4221 130.411C29.4221 130.411 29.5686 126.827 33.4596 127.67Z" fill="#7F9922"/>
<path d="M31.1011 108.455C31.1011 108.455 28.9157 111.651 26.6904 109.017C26.6904 109.017 28.2761 106.168 31.1011 108.455Z" fill="#7F9922"/>
<path d="M52.2079 92.7036C52.2079 92.7036 52.8209 97.3702 48.6901 96.8086C48.6901 96.8086 47.8106 92.9309 52.2079 92.7036Z" fill="#7F9922"/>
<path d="M60.0435 131.694H56.6855V149.572H60.0435V131.694Z" fill="#59739B"/>
<path d="M67.7321 142.138H37.124L48.3039 120.208H78.8986L67.7321 142.138Z" fill="#D7E7F3"/>
<path d="M47.051 142.218H43.4532L54.5398 120.208H58.1376L47.051 142.218Z" fill="#F3FBFF"/>
<path d="M58.5107 142.218H57.1116L68.1982 120.208H69.5973L58.5107 142.218Z" fill="#F3FBFF"/>
<path d="M55.5658 142.218H49.7693L60.8559 120.208H66.6657L55.5658 142.218Z" fill="#F3FBFF"/>
<path d="M67.9316 142.378H37.1237C37.0438 142.378 36.9638 142.338 36.9238 142.258C36.8839 142.191 36.8705 142.098 36.9238 142.017L48.0237 120.088C48.0637 120.008 48.1437 119.955 48.2369 119.955H78.9116C78.9916 119.955 79.0715 119.995 79.1115 120.075C79.1515 120.142 79.1648 120.235 79.1115 120.302L68.1448 142.231C68.1049 142.312 68.0249 142.365 67.9316 142.365V142.378ZM37.5235 141.897H67.7984L78.5252 120.449H48.3835L37.5235 141.897Z" fill="#59739B"/>
<path d="M54.1431 120.094L43.0311 142.025L43.4587 142.244L54.5707 120.312L54.1431 120.094Z" fill="#59739B"/>
<path d="M60.2654 120.093L49.1533 142.025L49.5809 142.243L60.693 120.312L60.2654 120.093Z" fill="#59739B"/>
<path d="M65.9483 121.197L55.3701 142.065L55.5839 142.175L66.1621 121.306L65.9483 121.197Z" fill="#59739B"/>
<path d="M66.3824 120.091L55.2703 142.023L55.6979 142.241L66.81 120.31L66.3824 120.091Z" fill="#59739B"/>
<path d="M72.499 120.09L61.3869 142.021L61.8145 142.239L72.9266 120.308L72.499 120.09Z" fill="#59739B"/>
<path d="M76.713 124.354H46.0117V124.835H76.713V124.354Z" fill="#59739B"/>
<path d="M74.5146 128.739H43.6934V129.221H74.5146V128.739Z" fill="#59739B"/>
<path d="M72.3286 133.125H41.6006V133.606H72.3286V133.125Z" fill="#59739B"/>
<path d="M70.1303 137.511H39.3624V137.992H70.1303V137.511Z" fill="#59739B"/>
<path d="M72.5821 120.088L71.3296 116.946L70.077 120.088L67.0255 121.265L70.0237 122.227L71.3296 125.584L72.6221 122.227L75.6203 121.265L72.5821 120.088Z" fill="#F5CC72"/>
<path d="M71.3298 125.704C71.3298 125.704 71.3032 125.704 71.2899 125.704C71.2232 125.677 71.1966 125.61 71.2232 125.544L72.5424 122.147L75.5939 121.158C75.5939 121.158 75.7272 121.171 75.7405 121.238C75.7671 121.305 75.7271 121.372 75.6605 121.385L72.7156 122.334L71.4364 125.624C71.4364 125.624 71.3698 125.704 71.3298 125.704Z" fill="#47332A"/>
<path d="M44.7591 128.566L44.1728 127.082L43.5865 128.566L42.1473 129.114L43.5598 129.569L44.1728 131.146L44.7857 129.569L46.1982 129.114L44.7591 128.566Z" fill="#F5CC72"/>
<path d="M44.1724 131.267C44.1724 131.267 44.1457 131.267 44.1324 131.267C44.0658 131.24 44.0391 131.173 44.0658 131.106L44.692 129.475L46.1578 129.007C46.1578 129.007 46.2911 129.02 46.3044 129.087C46.331 129.154 46.2911 129.221 46.2244 129.234L44.8653 129.675L44.279 131.2C44.279 131.2 44.2123 131.28 44.1724 131.28V131.267Z" fill="#47332A"/>
<path d="M52.2745 136.388L51.395 134.155L50.5022 136.388L48.3302 137.23L50.4622 137.912L51.395 140.292L52.3144 137.912L54.4465 137.23L52.2745 136.388Z" fill="#F5CC72"/>
<path d="M51.3953 140.413C51.3953 140.413 51.3686 140.413 51.3553 140.413C51.2887 140.386 51.262 140.319 51.2887 140.252L52.2347 137.819L54.4201 137.11C54.4201 137.11 54.5533 137.123 54.5667 137.19C54.5933 137.257 54.5533 137.324 54.4867 137.337L52.408 138.006L51.5019 140.332C51.5019 140.332 51.4352 140.413 51.3953 140.413Z" fill="#47332A"/>
<path d="M65.8532 142.445H54.0604C54.0604 142.445 53.9404 142.391 53.9404 142.324C53.9404 142.258 53.9937 142.204 54.0604 142.204H65.8532C65.8532 142.204 65.9731 142.258 65.9731 142.324C65.9731 142.391 65.9198 142.445 65.8532 142.445Z" fill="#5E453B"/>
<path d="M57.4843 120.115H48.3299C48.3299 120.115 48.21 120.061 48.21 119.994C48.21 119.928 48.2633 119.874 48.3299 119.874H57.4843C57.4843 119.874 57.6042 119.928 57.6042 119.994C57.6042 120.061 57.5509 120.115 57.4843 120.115Z" fill="#5E453B"/>
<path d="M229.714 150H208.82C208.687 150 208.58 149.893 208.58 149.759C208.58 149.626 208.687 149.519 208.82 149.519H229.714C229.847 149.519 229.954 149.626 229.954 149.759C229.954 149.893 229.847 150 229.714 150Z" fill="#47332A"/>
<path d="M4.6108 150H2.05235C1.9191 150 1.8125 149.893 1.8125 149.759C1.8125 149.626 1.9191 149.519 2.05235 149.519H4.6108C4.74405 149.519 4.85065 149.626 4.85065 149.759C4.85065 149.893 4.74405 150 4.6108 150Z" fill="#47332A"/>
<path d="M194.655 150H8.82189C8.68863 150 8.58203 149.893 8.58203 149.759C8.58203 149.626 8.68863 149.519 8.82189 149.519H194.655C194.789 149.519 194.895 149.626 194.895 149.759C194.895 149.893 194.789 150 194.655 150Z" fill="#47332A"/>
</g>
<defs>
<clipPath id="clip0_1_2268">
<rect width="241" height="150" fill="white"/>
</clipPath>
</defs>
</svg>
