<svg width="246" height="143" viewBox="0 0 246 143" fill="none" xmlns="http://www.w3.org/2000/svg">
<g clip-path="url(#clip0_1_2502)">
<path d="M234.523 45.852H231.892C231.661 45.0847 231.372 44.3318 231.025 43.6369L232.991 41.6679C233.396 41.2625 233.396 40.5965 232.991 40.1911L228.828 36.0214C228.423 35.616 227.758 35.616 227.354 36.0214L225.489 37.8891C224.795 37.5127 224.058 37.1941 223.307 36.9335V34.1537C223.307 33.5746 222.844 33.1113 222.266 33.1113H216.383C215.805 33.1113 215.342 33.5746 215.342 34.1537V36.7888C214.576 37.0204 213.824 37.31 213.131 37.6574L211.165 35.6884C210.76 35.283 210.095 35.283 209.69 35.6884L205.528 39.8581C205.123 40.2635 205.123 40.9295 205.528 41.3349L207.392 43.2025C207.016 43.8975 206.698 44.6359 206.438 45.3887H203.663C203.085 45.3887 202.622 45.852 202.622 46.4312V52.3237C202.622 52.9029 203.085 53.3662 203.663 53.3662H206.294C206.525 54.1335 206.814 54.8864 207.161 55.5813L205.195 57.5503C204.79 57.9557 204.79 58.6217 205.195 59.0271L209.358 63.1968C209.763 63.6022 210.428 63.6022 210.832 63.1968L212.697 61.3291C213.391 61.7055 214.128 62.0241 214.88 62.2847V65.0644C214.88 65.6436 215.342 66.1069 215.92 66.1069H221.803C222.381 66.1069 222.844 65.6436 222.844 65.0644V62.4294C223.61 62.1978 224.362 61.9082 225.055 61.5608L227.021 63.5298C227.426 63.9352 228.091 63.9352 228.496 63.5298L232.659 59.3601C233.063 58.9547 233.063 58.2887 232.659 57.8833L230.794 56.0156C231.17 55.3207 231.488 54.5823 231.748 53.8295H234.523C235.101 53.8295 235.564 53.3662 235.564 52.787V46.8945C235.564 46.3153 235.101 45.852 234.523 45.852ZM219.086 58.4624C214.215 58.4624 210.254 54.5099 210.254 49.6163C210.254 44.7227 214.2 40.7702 219.086 40.7702C223.971 40.7702 227.917 44.7227 227.917 49.6163C227.917 54.5099 223.971 58.4624 219.086 58.4624Z" fill="#D7E7F3"/>
<path d="M36.0345 119.937H33.1002C32.8545 119.068 32.522 118.243 32.1173 117.446L34.3144 115.246C34.7769 114.782 34.7769 114.044 34.3144 113.595L29.6601 108.933C29.1975 108.47 28.4604 108.47 28.0123 108.933L25.9308 111.018C25.1503 110.598 24.3408 110.236 23.488 109.947V106.849C23.488 106.197 22.9677 105.676 22.3172 105.676H15.7405C15.09 105.676 14.5696 106.197 14.5696 106.849V109.788C13.7024 110.034 12.8785 110.367 12.0835 110.772L9.88641 108.571C9.42387 108.108 8.68669 108.108 8.23861 108.571L3.58428 113.233C3.12174 113.697 3.12174 114.435 3.58428 114.884L5.66572 116.969C5.24654 117.751 4.88518 118.561 4.59609 119.415H1.50284C0.852391 119.415 0.332031 119.937 0.332031 120.588V127.176C0.332031 127.827 0.852391 128.348 1.50284 128.348H4.43709C4.68282 129.217 5.01527 130.042 5.41999 130.839L3.22292 133.039C2.76038 133.503 2.76038 134.241 3.22292 134.69L7.87724 139.352C8.33979 139.815 9.07696 139.815 9.52505 139.352L11.6065 137.267C12.387 137.687 13.1965 138.049 14.0493 138.338V141.437C14.0493 142.088 14.5696 142.609 15.2201 142.609H21.7969C22.4473 142.609 22.9677 142.088 22.9677 141.437V138.498C23.8349 138.251 24.6588 137.918 25.4538 137.513L27.6509 139.714C28.1134 140.177 28.8506 140.177 29.2987 139.714L33.953 135.052C34.4156 134.589 34.4156 133.85 33.953 133.401L31.8716 131.316C32.2908 130.535 32.6521 129.724 32.9412 128.87H36.0345C36.6849 128.87 37.2053 128.348 37.2053 127.697V121.109C37.2053 120.458 36.6849 119.937 36.0345 119.937ZM18.7614 134.038C13.3121 134.038 8.88906 129.608 8.88906 124.15C8.88906 118.692 13.3121 114.261 18.7614 114.261C24.2108 114.261 28.6338 118.692 28.6338 124.15C28.6338 129.608 24.2108 134.038 18.7614 134.038Z" fill="#D7E7F3"/>
<path d="M178.281 54.901H173.121C171.473 54.901 170.129 53.5546 170.129 51.9041V43.0145C170.129 41.364 171.473 40.0176 173.121 40.0176H178.281C179.929 40.0176 181.273 41.364 181.273 43.0145V51.9041C181.273 53.5546 179.929 54.901 178.281 54.901ZM173.106 42.8987C173.106 42.8987 172.991 42.9566 172.991 43.0145V51.9041C172.991 51.9041 173.049 52.0199 173.106 52.0199H178.267C178.267 52.0199 178.382 51.962 178.382 51.9041V43.0145C178.382 43.0145 178.324 42.8987 178.267 42.8987H173.106Z" fill="#F5CC72"/>
<path d="M112.036 54.901H106.876C105.228 54.901 103.884 53.5546 103.884 51.9041V43.0145C103.884 41.364 105.228 40.0176 106.876 40.0176H112.036C113.684 40.0176 115.028 41.364 115.028 43.0145V51.9041C115.028 53.5546 113.684 54.901 112.036 54.901ZM106.876 42.8987C106.876 42.8987 106.76 42.9566 106.76 43.0145V51.9041C106.76 51.9041 106.818 52.0199 106.876 52.0199H112.036C112.036 52.0199 112.152 51.962 112.152 51.9041V43.0145C112.152 43.0145 112.094 42.8987 112.036 42.8987H106.876Z" fill="#F5CC72"/>
<path d="M177.211 35.2976C176.618 34.8054 176.026 34.3276 175.419 33.8498C174.797 33.401 174.19 32.9232 173.554 32.4889C172.282 31.6057 170.981 30.7805 169.637 29.9987C166.948 28.435 164.13 27.0741 161.181 25.9593C155.298 23.7152 148.953 22.4556 142.549 22.3687C136.16 22.2674 129.743 23.3677 123.773 25.5539C120.795 26.6542 117.919 28.0152 115.216 29.6367C113.872 30.4475 112.556 31.3307 111.299 32.2862C110.663 32.764 110.056 33.2562 109.449 33.7775C109.145 34.0381 108.856 34.3131 108.552 34.5882L108.104 35.0081L107.627 35.4859C106.991 36.0071 106.572 36.8178 106.572 37.7155L106.76 43.0289H112.152L112.282 39.4529C112.527 39.3226 112.773 39.2067 113.033 39.0909C113.64 38.7869 114.262 38.4973 114.898 38.2222C116.155 37.6576 117.413 37.1364 118.699 36.6441C121.258 35.6741 123.86 34.8344 126.49 34.1828C131.737 32.8653 137.085 32.2138 142.434 32.2862C147.782 32.3586 153.13 33.1259 158.42 34.5303C163.291 35.7899 168.061 37.5997 172.889 39.6266L173.005 43.0289H178.396L178.584 37.73V37.6865C178.584 36.731 178.093 35.8044 177.225 35.2687L177.211 35.2976Z" fill="#E5DAD1"/>
<path d="M161.181 26.1039C161.181 26.1039 161.152 26.1039 161.138 26.1039C155.241 23.8454 148.808 22.6147 142.55 22.5279C136.247 22.4265 129.772 23.5269 123.831 25.713C123.759 25.742 123.687 25.713 123.672 25.6406C123.643 25.5683 123.672 25.4959 123.744 25.4814C129.728 23.2952 136.233 22.1804 142.564 22.2817C148.852 22.3686 155.313 23.6137 161.239 25.8868C161.311 25.9157 161.34 25.9881 161.311 26.0605C161.297 26.1184 161.239 26.1474 161.196 26.1474L161.181 26.1039Z" fill="#5E453B"/>
<path d="M172.875 43.188L172.745 39.6699C172.745 39.6699 172.803 39.5396 172.875 39.5396C172.947 39.5396 173.005 39.5975 173.005 39.6699L173.121 42.9419H178.382C178.382 42.9419 178.512 42.9998 178.512 43.0722C178.512 43.1446 178.454 43.2025 178.382 43.2025H172.875V43.188Z" fill="#5E453B"/>
<path d="M112.282 43.1883H106.775C106.775 43.1883 106.644 43.1303 106.644 43.058C106.644 42.9856 106.702 42.9276 106.775 42.9276H112.036L112.152 39.4819C112.152 39.4819 112.224 39.3516 112.282 39.3516C112.354 39.3516 112.412 39.4095 112.412 39.4819L112.282 43.1738V43.1883Z" fill="#5E453B"/>
<path d="M70.2196 47.4448H215.544C219.115 47.4448 222.02 50.3549 222.02 53.931V136.253C222.02 139.829 219.115 142.74 215.544 142.74H70.2196C66.6494 142.74 63.744 139.829 63.744 136.253V53.931C63.744 50.3549 66.6494 47.4448 70.2196 47.4448Z" fill="#E5DAD1"/>
<path d="M224.072 142.725H181.215C179.581 142.725 178.367 141.234 178.7 139.627L184.655 110.482C184.901 109.28 185.956 108.426 187.17 108.426H230.027C231.661 108.426 232.875 109.918 232.543 111.525L226.587 140.669C226.342 141.871 225.286 142.725 224.072 142.725Z" fill="#BCAC9B"/>
<path d="M222.439 142.725H179.582C177.949 142.725 176.734 141.234 177.067 139.627L183.022 110.482C183.268 109.28 184.323 108.426 185.537 108.426H228.394C230.028 108.426 231.242 109.918 230.91 111.525L228.987 120.906L224.94 140.669C224.694 141.871 223.639 142.725 222.425 142.725H222.439Z" fill="#F7F7F7"/>
<path d="M229.001 121.037C229.001 121.037 228.987 121.037 228.972 121.037C228.9 121.037 228.857 120.95 228.871 120.877L230.793 111.496C230.793 111.496 230.88 111.38 230.952 111.394C231.025 111.409 231.068 111.481 231.054 111.554L229.131 120.935C229.131 120.935 229.059 121.037 229.001 121.037Z" fill="#5E453B"/>
<path d="M220.286 140.712H182.444C181.013 140.712 179.929 139.395 180.218 137.976L185.479 112.249C185.696 111.192 186.621 110.424 187.705 110.424H225.547C226.978 110.424 228.062 111.742 227.773 113.161L222.512 138.888C222.295 139.945 221.37 140.712 220.286 140.712Z" fill="#999999"/>
<path d="M212.899 110.438L204.284 137.44H198.459L199.326 134.689H200.41L202.709 124.077L207.074 110.438H212.899Z" fill="#A3A3A3"/>
<path d="M224.491 110.438L215.877 137.44H206.958L207.84 134.689L211.945 121.833L215.573 110.438H224.491Z" fill="#A3A3A3"/>
<path d="M186.636 137.541H183.731L192.345 110.438H195.251L186.636 137.541Z" fill="#A3A3A3"/>
<path d="M185.48 112.393C185.48 112.393 185.465 112.393 185.451 112.393C185.378 112.379 185.335 112.307 185.35 112.234C185.581 111.119 186.564 110.309 187.706 110.309H225.547C225.547 110.309 225.677 110.367 225.677 110.439C225.677 110.511 225.62 110.569 225.547 110.569H187.706C186.694 110.569 185.812 111.293 185.61 112.278C185.61 112.336 185.537 112.379 185.48 112.379V112.393Z" fill="#5E453B"/>
<path d="M224.015 142.725H191.622V137.542H227.252V139.482C227.252 141.277 225.807 142.725 224.015 142.725Z" fill="#BCAC9B"/>
<path d="M194.774 142.725H153.651C151.728 142.725 150.153 141.161 150.153 139.221V137.542H198.257V139.221C198.257 141.147 196.696 142.725 194.759 142.725H194.774Z" fill="#F7F7F7"/>
<path d="M150.153 139.699C150.153 139.699 150.023 139.641 150.023 139.569V137.426H185.349C185.349 137.426 185.479 137.484 185.479 137.556C185.479 137.628 185.421 137.686 185.349 137.686H150.283V139.569C150.283 139.569 150.225 139.699 150.153 139.699Z" fill="#5E453B"/>
<path d="M195.106 142.855C195.106 142.855 194.976 142.797 194.976 142.725C194.976 142.652 195.034 142.594 195.106 142.594C196.768 142.594 198.127 141.234 198.127 139.569V137.556C198.127 137.556 198.185 137.426 198.257 137.426C198.329 137.426 198.387 137.484 198.387 137.556V139.569C198.387 141.378 196.913 142.855 195.106 142.855Z" fill="#5E453B"/>
<path d="M225.605 137.672H198.272C198.272 137.672 198.142 137.614 198.142 137.541C198.142 137.469 198.2 137.411 198.272 137.411H225.605C225.605 137.411 225.735 137.469 225.735 137.541C225.735 137.614 225.677 137.672 225.605 137.672Z" fill="#5E453B"/>
<path d="M191.347 134.69H188.702L189.411 131.461H192.041L191.347 134.69Z" fill="#EFBC51"/>
<path d="M195.872 134.689H193.241L194.542 128.695H197.173L195.872 134.689Z" fill="#EFBC51"/>
<path d="M202.709 124.077L200.41 134.69H199.326L202.709 124.077Z" fill="#F5CC72"/>
<path d="M202.809 123.643L202.708 124.077L199.326 134.689H197.765L200.164 123.643H202.809Z" fill="#EFBC51"/>
<path d="M204.949 134.689H202.304L204.067 126.582H206.713L204.949 134.689Z" fill="#F5CC72"/>
<path d="M211.945 121.833L207.84 134.69H206.843L209.633 121.833H211.945Z" fill="#EFBC51"/>
<path d="M212.277 121.833L209.473 134.69H207.84L211.945 121.833H212.277Z" fill="#F5CC72"/>
<path d="M214.011 134.689H211.366L214.965 118.17H217.596L214.011 134.689Z" fill="#F5CC72"/>
<path d="M191.766 126.364C191.766 126.364 191.68 126.364 191.651 126.336C191.521 126.263 191.477 126.118 191.535 125.988C191.549 125.945 192.055 125.004 193.168 123.874C193.27 123.773 193.429 123.773 193.53 123.874C193.631 123.976 193.631 124.135 193.53 124.236C192.475 125.308 191.983 126.205 191.983 126.22C191.94 126.307 191.853 126.364 191.752 126.364H191.766ZM195.365 122.687C195.279 122.687 195.192 122.644 195.149 122.571C195.076 122.455 195.105 122.296 195.221 122.209C195.958 121.732 196.753 121.341 197.577 121.022C197.707 120.964 197.866 121.037 197.909 121.167C197.967 121.297 197.895 121.456 197.765 121.5C196.97 121.804 196.204 122.195 195.51 122.644C195.467 122.673 195.423 122.687 195.365 122.687ZM200.179 120.848C200.063 120.848 199.947 120.761 199.919 120.631C199.89 120.486 199.991 120.356 200.121 120.327C200.786 120.197 201.509 120.095 202.275 119.994L202.694 119.936C202.838 119.907 202.968 120.009 202.983 120.153C202.997 120.298 202.911 120.428 202.766 120.443L202.347 120.501C201.581 120.617 200.873 120.718 200.208 120.834C200.193 120.834 200.179 120.834 200.164 120.834L200.179 120.848ZM205.296 120.023C205.18 120.023 205.064 119.936 205.035 119.806C205.007 119.661 205.108 119.531 205.238 119.502C206.148 119.328 206.958 119.125 207.738 118.908C207.883 118.865 208.013 118.952 208.056 119.082C208.1 119.212 208.013 119.357 207.883 119.401C207.102 119.632 206.264 119.835 205.339 120.009C205.325 120.009 205.31 120.009 205.296 120.009V120.023ZM210.239 118.546C210.138 118.546 210.051 118.488 210.008 118.387C209.95 118.257 210.008 118.098 210.138 118.04C210.918 117.692 211.684 117.287 212.378 116.838C212.494 116.766 212.653 116.794 212.74 116.91C212.812 117.026 212.783 117.185 212.667 117.272C211.945 117.736 211.164 118.155 210.355 118.517C210.326 118.532 210.282 118.546 210.254 118.546H210.239ZM214.575 115.752C214.575 115.752 214.431 115.723 214.387 115.665C214.286 115.564 214.301 115.39 214.402 115.303C214.807 114.941 215.211 114.536 215.587 114.131C215.688 114.029 215.847 114.015 215.949 114.116C216.05 114.217 216.064 114.377 215.963 114.478C215.573 114.912 215.168 115.318 214.734 115.694C214.691 115.738 214.619 115.767 214.561 115.767L214.575 115.752Z" fill="#AFC547"/>
<path d="M225.388 139.742C225.388 140.09 224.882 140.38 224.261 140.38C223.639 140.38 223.133 140.09 223.133 139.742C223.133 139.395 223.639 139.105 224.261 139.105C224.882 139.105 225.388 139.395 225.388 139.742Z" fill="#5E453B"/>
<path d="M220.531 139.742C220.531 140.09 220.025 140.38 219.404 140.38C218.782 140.38 218.276 140.09 218.276 139.742C218.276 139.395 218.782 139.105 219.404 139.105C220.025 139.105 220.531 139.395 220.531 139.742Z" fill="#5E453B"/>
<path d="M224.709 52.0054C215.791 65.2963 202.044 64.9488 193.43 75.9376C199.515 80.0639 205.542 84.306 211.599 88.4901C220.618 76.8787 235.217 76.5747 243.326 62.6468C239.843 60.6633 236.374 58.6653 232.89 56.6673C230.158 55.1037 227.441 53.5545 224.694 52.0054H224.709Z" fill="#AFC547"/>
<path d="M211.614 88.6201C211.614 88.6201 211.556 88.6201 211.541 88.5912C211.483 88.5477 211.469 88.4609 211.512 88.403C215.632 83.0895 221.009 80.0925 226.213 77.1825C232.385 73.7222 238.773 70.1606 243.168 62.6754C240.812 61.329 238.455 59.9825 236.099 58.636C235.015 58.0135 233.931 57.3909 232.833 56.7684C232.775 56.7394 232.746 56.6525 232.789 56.5946C232.818 56.5367 232.905 56.5078 232.963 56.5512C234.047 57.1737 235.131 57.7963 236.229 58.4189C238.614 59.7943 243.515 62.5885 243.515 62.5885L243.442 62.7044C239.005 70.3198 232.558 73.9249 226.314 77.4141C221.139 80.3097 215.791 83.3067 211.7 88.5622C211.671 88.5912 211.642 88.6057 211.599 88.6057L211.614 88.6201Z" fill="#5E453B"/>
<path d="M222.483 59.7803C217.121 65.9335 208.376 67.7578 201.756 72.1157C203.476 73.8096 203.418 75.1705 201.915 77.0092C203.895 78.3847 205.89 79.7456 207.884 81.121C210.342 79.8469 212.394 79.8759 214.895 81.0197C221.761 76.2274 230.115 73.8096 236.114 67.7867C234.163 66.1072 234.249 64.8187 235.073 62.5167C233.021 61.344 230.968 60.1712 228.945 58.9551C226.849 60.6201 224.955 60.7648 222.498 59.7803H222.483Z" fill="#7F9922"/>
<path d="M162.628 123.353C162.902 124.439 163.986 125.12 165.085 124.888C165.952 125.207 167.658 128.015 168.641 130.752C168.771 131.128 169.002 131.432 169.306 131.664C169.667 131.953 170.13 132.127 170.621 132.127C170.867 132.127 171.098 132.084 171.344 131.997C172.428 131.606 172.991 130.404 172.601 129.304C172.442 128.869 172.211 128.247 171.893 127.537C170.549 124.512 167.846 119.835 164.16 120.776C164.16 120.776 162.367 122.21 162.657 123.324L162.628 123.353Z" fill="#F3AE91"/>
<path d="M158.277 111.858L171.604 118.952C171.604 118.952 160.257 131.606 147.884 118.778L158.277 111.858Z" fill="#F3AE91"/>
<path d="M179.062 130.723C179.279 130.694 179.496 130.621 179.698 130.52C180.638 130.028 180.985 128.869 180.493 127.928C180.305 127.581 175.839 120.154 168.713 117.577C167.716 117.215 166.66 118.156 166.429 119.184C166.183 120.212 166.848 121.167 167.846 121.486C172.818 123.107 176.721 129.622 176.75 129.695C177.14 130.419 178.296 130.824 179.062 130.708V130.723Z" fill="#F3AE91"/>
<path d="M167.599 132.069C167.859 132.04 168.12 131.939 168.351 131.794C168.813 131.504 172.875 128.855 172.282 124.888C171.661 120.747 169.146 119.56 168.857 119.43L167.353 122.948C167.353 122.948 167.325 122.948 167.267 122.904C167.31 122.919 168.192 123.455 168.495 125.453C168.698 126.756 166.819 128.232 166.342 128.536C165.445 129.101 165.171 130.274 165.72 131.171C166.125 131.837 166.876 132.156 167.599 132.055V132.069Z" fill="#F3AE91"/>
<path d="M168.351 131.925C168.351 131.925 168.265 131.91 168.236 131.867C168.192 131.809 168.221 131.722 168.279 131.693C168.742 131.403 172.731 128.812 172.138 124.917C171.762 122.384 170.664 120.965 169.811 120.226C169.753 120.183 169.753 120.096 169.811 120.038C169.855 119.98 169.941 119.98 169.999 120.038C170.881 120.805 172.023 122.268 172.413 124.888C173.02 128.942 168.901 131.635 168.424 131.925C168.409 131.925 168.38 131.939 168.351 131.939V131.925Z" fill="#5E453B"/>
<path d="M162.627 128.638C163.018 130.795 165.793 131.533 167.137 129.796C167.383 129.492 167.614 129.145 167.831 128.754C169.623 125.655 167.73 121.037 167.325 120.154C166.891 119.184 165.764 118.749 164.795 119.184C163.827 119.618 163.393 120.747 163.827 121.717C164.463 123.165 165.128 125.786 164.521 126.843C163.639 128.377 162.613 128.652 162.569 128.667C162.613 128.667 162.627 128.667 162.627 128.667V128.638Z" fill="#F3AE91"/>
<path d="M162.902 128.956C160.994 129.594 159.129 128.681 158.913 128.58C157.973 128.102 157.597 126.944 158.089 126.003C158.566 125.062 159.722 124.685 160.662 125.178C160.777 125.236 161.37 125.438 161.702 125.337C161.746 125.322 161.876 125.279 162.035 124.961C162.439 124.135 161.63 122.977 160.792 121.949C160.546 121.645 160.372 121.428 160.228 121.167C159.722 120.241 160.083 119.068 161.008 118.576C161.919 118.098 163.018 118.402 163.552 119.271C163.596 119.343 163.668 119.415 163.755 119.517C164.651 120.603 167.021 123.498 165.475 126.654C164.998 127.625 164.29 128.348 163.408 128.768C163.249 128.841 163.075 128.913 162.902 128.971V128.956ZM163.596 119.343C163.596 119.343 163.581 119.3 163.567 119.285C163.567 119.3 163.596 119.329 163.596 119.343Z" fill="#F3AE91"/>
<path d="M165.533 130.868C165.533 130.868 165.432 130.839 165.403 130.781C165.374 130.709 165.417 130.636 165.489 130.622C168.207 129.738 169.117 128.03 169.421 126.742C169.898 124.628 169.031 122.456 168.221 121.689C168.163 121.645 168.163 121.558 168.221 121.5C168.265 121.443 168.351 121.443 168.409 121.5C169.262 122.311 170.173 124.599 169.681 126.799C169.378 128.146 168.409 129.956 165.576 130.868C165.576 130.868 165.547 130.868 165.533 130.868Z" fill="#5E453B"/>
<path d="M162.902 129.087C162.902 129.087 162.787 129.043 162.772 128.986C162.758 128.913 162.801 128.841 162.873 128.826C164.68 128.377 165.808 127.581 166.241 126.481C166.877 124.845 165.75 123.05 165.735 123.035C165.692 122.977 165.707 122.89 165.779 122.861C165.837 122.818 165.923 122.832 165.952 122.905C165.996 122.977 167.181 124.83 166.487 126.582C166.025 127.769 164.825 128.609 162.946 129.087C162.946 129.087 162.931 129.087 162.917 129.087H162.902Z" fill="#5E453B"/>
<path d="M157.582 111.453L158.348 112.263L149.575 120.241C148.751 120.994 147.493 120.936 146.727 120.125L144.284 117.504L157.582 111.453Z" fill="#F7F7F7"/>
<path d="M145.383 118.561C144.255 119.111 142.911 118.605 142.405 117.461L135.771 93.3114C135.944 88.2296 156.252 94.4986 156.252 94.4986L158.666 112.104L145.368 118.561H145.383Z" fill="#5E453B"/>
<path d="M145.441 116.592C145.441 117.099 145.022 117.519 144.516 117.519C144.01 117.519 143.591 117.099 143.591 116.592C143.591 116.085 144.01 115.666 144.516 115.666C145.022 115.666 145.441 116.085 145.441 116.592Z" fill="#EFBC51"/>
<path d="M238.917 73.3023C218.797 80.1794 227.021 72.839 211.613 67.5835C209.821 74.8804 207.941 82.1774 206.482 89.5612C222.858 94.1073 223.379 99.4498 237.414 96.1922C239.51 95.7144 241.895 95.0339 244.685 94.1363C244.309 92.8043 243.962 91.4723 243.601 90.1403C242.126 84.5084 240.753 78.804 238.917 73.3023Z" fill="#AFC547"/>
<path d="M237.414 96.3084C237.414 96.3084 237.298 96.265 237.284 96.2071C237.269 96.1347 237.313 96.0623 237.385 96.0478C239.467 95.57 241.794 94.904 244.526 94.0354C244.208 92.8916 243.875 91.661 243.485 90.1552C243.47 90.0828 243.514 90.0104 243.572 89.996C243.644 89.9815 243.716 90.0249 243.731 90.0828C244.135 91.632 244.482 92.9061 244.815 94.0788L244.844 94.1946L244.728 94.238C241.938 95.1357 239.568 95.8017 237.443 96.2939C237.443 96.2939 237.428 96.2939 237.414 96.2939V96.3084Z" fill="#5E453B"/>
<path d="M206.482 89.6773C206.482 89.6773 206.467 89.6773 206.453 89.6773C206.38 89.6773 206.337 89.5904 206.351 89.518C207.58 83.3504 209.112 77.1393 210.601 71.1453C210.905 69.9437 211.194 68.742 211.497 67.5403L211.526 67.3955L211.656 67.4389C217.395 69.3935 219.91 71.681 221.731 73.3315C224.853 76.1547 226.284 77.4578 238.874 73.1578C238.946 73.1288 239.018 73.1578 239.033 73.2447C239.062 73.317 239.033 73.3894 238.946 73.4039C226.212 77.7618 224.752 76.4298 221.543 73.5342C219.736 71.8982 217.279 69.6686 211.685 67.7285C211.396 68.8867 211.121 70.0305 210.832 71.1888C209.343 77.1972 207.811 83.3938 206.583 89.5615C206.583 89.6194 206.51 89.6628 206.453 89.6628L206.482 89.6773Z" fill="#5E453B"/>
<path d="M232.774 78.6162C224.636 81.3091 223.494 78.4569 217.308 74.2148C216.715 76.43 215.298 77.1684 213.246 76.0536C212.682 78.3556 212.422 80.7589 211.916 83.0899C214.055 84.7259 214.908 87.0859 214.749 89.7353C222.844 94.2525 226.616 96.7717 236.026 93.7603C235.65 91.2266 236.648 89.3734 238.989 88.302C238.397 86.0579 237.804 83.8283 237.24 81.5697C234.87 82.033 233.439 80.8458 232.788 78.6162H232.774Z" fill="#7F9922"/>
<path d="M70.2196 47.4448H215.544C219.115 47.4448 222.02 50.3549 222.02 53.931V88.606C222.02 92.1821 219.115 95.0922 215.544 95.0922H70.2196C66.6494 95.0922 63.744 92.1821 63.744 88.606V53.931C63.744 50.3549 66.6494 47.4448 70.2196 47.4448Z" fill="#F9EEE4"/>
<path d="M222.005 88.7362C222.005 88.7362 221.875 88.6783 221.875 88.6059V53.9309C221.875 50.4272 219.028 47.5751 215.53 47.5751H92.6524C92.6524 47.5751 92.5223 47.5171 92.5223 47.4448C92.5223 47.3724 92.5802 47.3145 92.6524 47.3145H215.53C219.172 47.3145 222.135 50.2825 222.135 53.9309V88.6059C222.135 88.6059 222.077 88.7362 222.005 88.7362Z" fill="#5E453B"/>
<path d="M202.897 95.2225H101.817C101.817 95.2225 101.687 95.1646 101.687 95.0922C101.687 95.0198 101.745 94.9619 101.817 94.9619H202.897C202.897 94.9619 203.027 95.0198 203.027 95.0922C203.027 95.1646 202.97 95.2225 202.897 95.2225Z" fill="#5E453B"/>
<path d="M150.76 81.6421H134.383C132.467 81.6421 130.914 83.1978 130.914 85.1168V101.52C130.914 103.44 132.467 104.995 134.383 104.995H150.76C152.676 104.995 154.229 103.44 154.229 101.52V85.1168C154.229 83.1978 152.676 81.6421 150.76 81.6421Z" fill="#F5CC72"/>
<path d="M150.818 105.126H134.34C134.34 105.126 134.21 105.068 134.21 104.995C134.21 104.923 134.268 104.865 134.34 104.865H150.818C152.639 104.865 154.113 103.388 154.113 101.564C154.113 101.492 154.171 101.434 154.244 101.434C154.316 101.434 154.374 101.492 154.374 101.564C154.374 103.533 152.784 105.126 150.818 105.126Z" fill="#5E453B"/>
<path d="M130.914 85.2036C130.914 85.2036 130.784 85.1457 130.784 85.0733C130.784 83.1043 132.374 81.5117 134.34 81.5117H150.818C150.818 81.5117 150.948 81.5696 150.948 81.642C150.948 81.7144 150.89 81.7723 150.818 81.7723H134.34C132.519 81.7723 131.044 83.2491 131.044 85.0733C131.044 85.1457 130.986 85.2036 130.914 85.2036Z" fill="#5E453B"/>
<path d="M147.999 84.3926H137.144C135.22 84.3926 133.66 85.9548 133.66 87.8818V98.7548C133.66 100.682 135.22 102.244 137.144 102.244H147.999C149.923 102.244 151.482 100.682 151.482 98.7548V87.8818C151.482 85.9548 149.923 84.3926 147.999 84.3926Z" fill="#F9EEE4"/>
<path d="M151.482 98.9435C151.482 98.9435 151.352 98.8856 151.352 98.8132V87.8243C151.352 86.0001 149.878 84.5233 148.057 84.5233C147.984 84.5233 147.927 84.4654 147.927 84.393C147.927 84.3206 147.984 84.2627 148.057 84.2627C150.023 84.2627 151.613 85.8553 151.613 87.8243V98.8132C151.613 98.8132 151.555 98.9435 151.482 98.9435Z" fill="#5E453B"/>
<path d="M148.057 102.375H137.086C135.12 102.375 133.53 100.782 133.53 98.813V87.8242C133.53 87.8242 133.588 87.6938 133.66 87.6938C133.733 87.6938 133.791 87.7518 133.791 87.8242V98.813C133.791 100.637 135.265 102.114 137.086 102.114H148.057C148.057 102.114 148.187 102.172 148.187 102.244C148.187 102.317 148.129 102.375 148.057 102.375Z" fill="#5E453B"/>
<path d="M83.9657 51.7734H23.1559C21.6551 51.7734 20.4385 52.9921 20.4385 54.4953V64.1956C20.4385 65.6989 21.6551 66.9175 23.1559 66.9175H83.9657C85.4665 66.9175 86.6831 65.6989 86.6831 64.1956V54.4953C86.6831 52.9921 85.4665 51.7734 83.9657 51.7734Z" fill="#EFBC51"/>
<path d="M50.3733 67.0046H43.8544L47.2222 51.875H53.7412L50.3733 67.0046Z" fill="#F5CC72"/>
<path d="M53.5967 67.0046H52.2958L55.6637 51.875H56.9646L53.5967 67.0046Z" fill="#F5CC72"/>
<path d="M86.6829 54.4811C86.6829 54.4811 86.5528 54.4232 86.5528 54.3508C86.5528 52.9898 85.4543 51.8895 84.0956 51.8895H23.0256C23.0256 51.8895 22.8955 51.8316 22.8955 51.7592C22.8955 51.6868 22.9533 51.6289 23.0256 51.6289H84.11C85.5988 51.6289 86.8275 52.8451 86.8275 54.3508C86.8275 54.4232 86.7696 54.4811 86.6974 54.4811H86.6829Z" fill="#5E453B"/>
<path d="M87.7528 66.9033H26.943C25.4422 66.9033 24.2256 68.1219 24.2256 69.6252V79.3255C24.2256 80.8288 25.4422 82.0474 26.943 82.0474H87.7528C89.2536 82.0474 90.4703 80.8288 90.4703 79.3255V69.6252C90.4703 68.1219 89.2536 66.9033 87.7528 66.9033Z" fill="#EFBC51"/>
<path d="M72.9082 82.1195H80.9738L84.3561 66.9609H76.2905L72.9082 82.1195Z" fill="#F5CC72"/>
<path d="M66.1572 82.1195H68.1086L71.4909 66.9609H69.5396L66.1572 82.1195Z" fill="#F5CC72"/>
<path d="M24.2248 79.5859C24.2248 79.5859 24.0947 79.528 24.0947 79.4556V69.4802C24.0947 67.9889 25.3089 66.7583 26.8122 66.7583H80.9296C80.9296 66.7583 81.0597 66.8162 81.0597 66.8886C81.0597 66.961 81.0018 67.0189 80.9296 67.0189H26.8122C25.4534 67.0189 24.3549 68.1192 24.3549 69.4802V79.4556C24.3549 79.4556 24.2971 79.5859 24.2248 79.5859Z" fill="#5E453B"/>
<path d="M78.1981 82.0474H17.3883C15.8875 82.0474 14.6709 83.266 14.6709 84.7692V94.4696C14.6709 95.9728 15.8875 97.1914 17.3883 97.1914H78.1981C79.6989 97.1914 80.9156 95.9728 80.9156 94.4696V84.7692C80.9156 83.266 79.6989 82.0474 78.1981 82.0474Z" fill="#EFBC51"/>
<path d="M44.7792 97.2492H41.6426L45.0105 82.1196H48.1471L44.7792 97.2492Z" fill="#F5CC72"/>
<path d="M50.9954 97.2492H46.2109L49.5788 82.1196H54.3632L50.9954 97.2492Z" fill="#F5CC72"/>
<path d="M35.8033 97.2492H34.2422L37.6101 82.1196H39.1711L35.8033 97.2492Z" fill="#F5CC72"/>
<path d="M80.9155 84.7692C80.9155 84.7692 80.7854 84.7113 80.7854 84.6389C80.7854 83.2779 79.6869 82.1776 78.3282 82.1776H30.5129C30.5129 82.1776 30.3828 82.1197 30.3828 82.0473C30.3828 81.9749 30.4406 81.917 30.5129 81.917H78.3282C79.817 81.917 81.0456 83.1331 81.0456 84.6389C81.0456 84.7113 80.9878 84.7692 80.9155 84.7692Z" fill="#5E453B"/>
<path d="M88.6483 97.1914H27.8385C26.3377 97.1914 25.1211 98.41 25.1211 99.9133V109.614C25.1211 111.117 26.3377 112.335 27.8385 112.335H88.6483C90.1491 112.335 91.3658 111.117 91.3658 109.614V99.9133C91.3658 98.41 90.1491 97.1914 88.6483 97.1914Z" fill="#EFBC51"/>
<path d="M67.5452 112.364H57.5861L60.9539 97.249H70.913L67.5452 112.364Z" fill="#F5CC72"/>
<path d="M70.8267 112.364H68.9043L72.2722 97.249H74.1946L70.8267 112.364Z" fill="#F5CC72"/>
<path d="M91.3658 109.874C91.3658 109.874 91.2357 109.817 91.2357 109.744V99.7688C91.2357 98.4078 90.1371 97.3075 88.7784 97.3075H27.694C26.3353 97.3075 25.2367 98.4078 25.2367 99.7688C25.2367 99.8412 25.1789 99.8991 25.1067 99.8991C25.0344 99.8991 24.9766 99.8412 24.9766 99.7688C24.9766 98.2775 26.1907 97.0469 27.694 97.0469H88.7784C90.2672 97.0469 91.4959 98.263 91.4959 99.7688V109.744C91.4959 109.744 91.438 109.874 91.3658 109.874Z" fill="#5E453B"/>
<path d="M79.9179 112.335H19.1081C17.6073 112.335 16.3906 113.554 16.3906 115.057V124.758C16.3906 126.261 17.6073 127.48 19.1081 127.48H79.9179C81.4187 127.48 82.6353 126.261 82.6353 124.758V115.057C82.6353 113.554 81.4187 112.335 79.9179 112.335Z" fill="#EFBC51"/>
<path d="M34.2852 127.494H40.3416L43.7094 112.364H37.653L34.2852 127.494Z" fill="#F5CC72"/>
<path d="M30.0071 127.494H33.0281L36.3959 112.364H33.375L30.0071 127.494Z" fill="#F5CC72"/>
<path d="M16.391 125.018C16.391 125.018 16.2609 124.96 16.2609 124.888V114.912C16.2609 113.421 17.475 112.19 18.9783 112.19H69.7856C69.7856 112.19 69.9157 112.248 69.9157 112.321C69.9157 112.393 69.8579 112.451 69.7856 112.451H18.9783C17.6196 112.451 16.521 113.551 16.521 114.912V124.888C16.521 124.888 16.4632 125.018 16.391 125.018Z" fill="#5E453B"/>
<path d="M83.9657 127.465H23.1559C21.6551 127.465 20.4385 128.683 20.4385 130.187V139.887C20.4385 141.39 21.6551 142.609 23.1559 142.609H83.9657C85.4665 142.609 86.6831 141.39 86.6831 139.887V130.187C86.6831 128.683 85.4665 127.465 83.9657 127.465Z" fill="#EFBC51"/>
<path d="M52.4117 142.609H44.3027L47.6562 127.523H55.7796L52.4117 142.609Z" fill="#F5CC72"/>
<path d="M55.8227 142.609H53.5823L56.9357 127.523H59.1906L55.8227 142.609Z" fill="#F5CC72"/>
<path d="M60.2028 142.609H59.0898L62.4433 127.523H63.5707L60.2028 142.609Z" fill="#F5CC72"/>
<path d="M86.6829 130.187C86.6829 130.187 86.5528 130.129 86.5528 130.057C86.5528 128.696 85.4543 127.596 84.0956 127.596H23.0256C23.0256 127.596 22.8955 127.538 22.8955 127.465C22.8955 127.393 22.9533 127.335 23.0256 127.335H84.11C85.5988 127.335 86.8275 128.551 86.8275 130.057C86.8275 130.129 86.7696 130.187 86.6974 130.187H86.6829Z" fill="#5E453B"/>
<path d="M52.1223 33.8063C52.1223 33.8063 18.4435 27.5228 31.6982 0C31.6982 0 60.4625 2.66397 52.1223 33.8063Z" fill="#7F9922"/>
<path d="M54.4057 40.7266C54.29 40.7266 54.1889 40.6542 54.1599 40.5384C52.6278 34.9064 48.3059 23.9899 44.7212 19.0384C44.6345 18.9226 44.6634 18.7634 44.779 18.6765C44.8947 18.5896 45.0537 18.6186 45.1404 18.7344C49.0286 24.1058 53.3505 35.5145 54.6659 40.3936C54.7092 40.5384 54.6225 40.6687 54.4779 40.7121C54.449 40.7121 54.4346 40.7121 54.4057 40.7121V40.7266Z" fill="#5E453B"/>
<path d="M69.4388 28.4204C69.4388 28.4204 66.3311 39.279 55.9384 34.1537C55.9384 34.1537 57.6006 24.077 69.4388 28.4204Z" fill="#AFC547"/>
<path d="M53.2642 36.8323C53.2642 36.8323 53.1486 36.8179 53.0907 36.7599C52.9896 36.6586 52.9751 36.4993 53.0618 36.398C56.1984 32.8509 62.4717 30.129 62.9053 30.1579C63.0498 30.1579 63.151 30.2882 63.1366 30.433C63.1366 30.5633 63.0209 30.6647 62.8908 30.6647C62.5006 30.766 56.5309 33.2273 53.4376 36.731C53.3798 36.7889 53.322 36.8179 53.2497 36.8179L53.2642 36.8323Z" fill="#5E453B"/>
<path d="M73.5297 51.7592C65.4641 51.2959 62.6455 41.7983 56.4879 39.3804C45.199 34.9646 43.0887 51.7592 37.119 51.7592C35.2977 51.7592 75.9725 51.904 73.5297 51.7592Z" fill="#5E453B"/>
<path d="M109.275 108.716H43.0886V142.725H109.275V108.716Z" fill="#BCAC9B"/>
<path d="M67.1405 108.716V109.237C67.1405 110.888 68.4848 112.234 70.1326 112.234H99.7352V142.609H127.979V112.234H129.338C130.986 112.234 132.33 110.888 132.33 109.237V108.716H67.155H67.1405Z" fill="#B2A396"/>
<path d="M70.9999 88.2437L87.29 98.4796L103.58 108.716H70.9999H38.4052L54.7098 98.4796L70.9999 88.2437Z" fill="#F7F7F7"/>
<path d="M67.676 111.104H63.6288V142.609H67.676V111.104Z" fill="#F7F7F7"/>
<path d="M78.3575 111.104H74.3103V142.609H78.3575V111.104Z" fill="#F7F7F7"/>
<path d="M89.0393 111.104H84.9921V142.609H89.0393V111.104Z" fill="#F7F7F7"/>
<path d="M100.083 139.105H99.7356V112.234H100.083C102.019 112.234 103.595 110.656 103.595 108.73H38.4054C38.4054 110.671 39.981 112.234 41.9179 112.234H42.2648V139.105H36.483C34.5461 139.105 32.9706 140.684 32.9706 142.609H103.58C103.58 140.669 102.005 139.105 100.068 139.105H100.083ZM52.9466 139.105H46.312V115.564C46.312 113.725 47.8008 112.249 49.6221 112.249C51.4578 112.249 52.9322 113.74 52.9322 115.564V139.105H52.9466ZM63.6284 139.105H56.9938V115.564C56.9938 113.725 58.4827 112.249 60.3039 112.249C62.1396 112.249 63.614 113.74 63.614 115.564V139.105H63.6284ZM74.3103 139.105H67.6757V115.564C67.6757 113.725 69.1645 112.249 70.9857 112.249C72.8215 112.249 74.2958 113.74 74.2958 115.564V139.105H74.3103ZM84.9921 139.105H78.3575V115.564C78.3575 113.725 79.8463 112.249 81.6676 112.249C83.5033 112.249 84.9776 113.74 84.9776 115.564V139.105H84.9921ZM95.6884 139.105H89.0538V115.564C89.0538 113.725 90.5426 112.249 92.3638 112.249C94.1996 112.249 95.6739 113.74 95.6739 115.564V139.105H95.6884Z" fill="#F7F7F7"/>
<path d="M52.9466 139.235C52.9466 139.235 52.8165 139.178 52.8165 139.105V115.564C52.8165 113.797 51.3855 112.364 49.622 112.364C49.5498 112.364 49.4919 112.306 49.4919 112.234C49.4919 112.161 49.5498 112.104 49.622 112.104C51.5156 112.104 53.0622 113.653 53.0622 115.549V139.091C53.0622 139.091 53.0044 139.221 52.9321 139.221L52.9466 139.235Z" fill="#5E453B"/>
<path d="M63.6284 139.235C63.6284 139.235 63.4983 139.178 63.4983 139.105V115.564C63.4983 113.797 62.0673 112.364 60.3183 112.364C60.2461 112.364 60.1882 112.306 60.1882 112.234C60.1882 112.161 60.2461 112.104 60.3183 112.104C62.2119 112.104 63.7585 113.653 63.7585 115.549V139.091C63.7585 139.091 63.7007 139.221 63.6284 139.221V139.235Z" fill="#5E453B"/>
<path d="M74.3103 139.235C74.3103 139.235 74.1802 139.178 74.1802 139.105V115.564C74.1802 113.797 72.7492 112.364 71.0002 112.364C70.9279 112.364 70.8701 112.306 70.8701 112.234C70.8701 112.161 70.9279 112.104 71.0002 112.104C72.8937 112.104 74.4404 113.653 74.4404 115.549V139.091C74.4404 139.091 74.3825 139.221 74.3103 139.221V139.235Z" fill="#5E453B"/>
<path d="M84.9916 139.235C84.9916 139.235 84.8615 139.178 84.8615 139.105V115.564C84.8615 113.797 83.4305 112.364 81.6671 112.364C81.5948 112.364 81.537 112.306 81.537 112.234C81.537 112.161 81.5948 112.104 81.6671 112.104C83.5606 112.104 85.1072 113.653 85.1072 115.549V139.091C85.1072 139.091 85.0494 139.221 84.9771 139.221L84.9916 139.235Z" fill="#5E453B"/>
<path d="M95.6879 139.235C95.6879 139.235 95.5578 139.178 95.5578 139.105V115.564C95.5578 113.797 94.1268 112.364 92.3634 112.364C92.2911 112.364 92.2333 112.306 92.2333 112.234C92.2333 112.161 92.2911 112.104 92.3634 112.104C94.2569 112.104 95.8035 113.653 95.8035 115.549V139.091C95.8035 139.091 95.7457 139.221 95.6734 139.221L95.6879 139.235Z" fill="#5E453B"/>
<path d="M70.9999 88.2437H99.7353L132.316 108.716H103.58L70.9999 88.2437Z" fill="#B2A396"/>
<path d="M123.036 139.236H70.4796C70.4796 139.236 70.3495 139.178 70.3495 139.105C70.3495 139.033 70.4073 138.975 70.4796 138.975H123.036C123.036 138.975 123.166 139.033 123.166 139.105C123.166 139.178 123.108 139.236 123.036 139.236Z" fill="#5E453B"/>
<path d="M54.8546 139.236H36.0927C36.0927 139.236 35.9626 139.178 35.9626 139.105C35.9626 139.033 36.0205 138.975 36.0927 138.975H54.8546C54.8546 138.975 54.9847 139.033 54.9847 139.105C54.9847 139.178 54.9269 139.236 54.8546 139.236Z" fill="#5E453B"/>
<path d="M132.243 108.528C132.388 108.629 132.33 108.861 132.157 108.861H103.58C103.58 108.861 103.45 108.803 103.45 108.73C103.45 108.658 103.508 108.6 103.58 108.6H131.867L112.947 96.7136C112.947 96.7136 112.874 96.5978 112.903 96.5398C112.947 96.4819 113.019 96.4675 113.077 96.4964L132.243 108.542V108.528Z" fill="#5E453B"/>
<path d="M90.716 100.767C90.716 100.767 90.6726 100.767 90.6437 100.753L70.9279 88.3596C70.9279 88.3596 70.8556 88.2438 70.8845 88.1858C70.9279 88.1279 71.0001 88.1135 71.058 88.1424L90.7738 100.536C90.7738 100.536 90.8461 100.651 90.8172 100.709C90.7883 100.753 90.7449 100.767 90.7015 100.767H90.716Z" fill="#5E453B"/>
<path d="M106.587 136.543V117.475C106.587 115.984 107.787 114.782 109.276 114.782C110.764 114.782 111.964 115.984 111.964 117.475V136.543H106.587Z" fill="#E5DAD1"/>
<path d="M111.964 136.673C111.964 136.673 111.834 136.615 111.834 136.543V117.475C111.834 116.056 110.692 114.912 109.276 114.912C109.203 114.912 109.146 114.855 109.146 114.782C109.146 114.71 109.203 114.652 109.276 114.652C110.822 114.652 112.094 115.911 112.094 117.475V136.543C112.094 136.543 112.036 136.673 111.964 136.673Z" fill="#5E453B"/>
<path d="M106.587 117.605C106.587 117.605 106.457 117.547 106.457 117.475C106.457 115.926 107.714 114.652 109.276 114.652C109.348 114.652 109.406 114.71 109.406 114.782C109.406 114.855 109.348 114.912 109.276 114.912C107.859 114.912 106.717 116.056 106.717 117.475C106.717 117.547 106.659 117.605 106.587 117.605Z" fill="#5E453B"/>
<path d="M115.751 136.543V117.475C115.751 115.984 116.951 114.782 118.439 114.782C119.928 114.782 121.128 115.984 121.128 117.475V136.543H115.751Z" fill="#E5DAD1"/>
<path d="M121.113 136.673C121.113 136.673 120.983 136.615 120.983 136.543V117.475C120.983 116.056 119.841 114.912 118.425 114.912C118.353 114.912 118.295 114.855 118.295 114.782C118.295 114.71 118.353 114.652 118.425 114.652C119.972 114.652 121.244 115.911 121.244 117.475V136.543C121.244 136.543 121.186 136.673 121.113 136.673Z" fill="#5E453B"/>
<path d="M115.751 117.605C115.751 117.605 115.621 117.547 115.621 117.475C115.621 115.926 116.879 114.652 118.44 114.652C118.512 114.652 118.57 114.71 118.57 114.782C118.57 114.855 118.512 114.912 118.44 114.912C117.023 114.912 115.881 116.056 115.881 117.475C115.881 117.547 115.823 117.605 115.751 117.605Z" fill="#5E453B"/>
<path d="M90.7165 108.846H47.4688C47.4688 108.846 47.3387 108.788 47.3387 108.716C47.3387 108.643 47.3966 108.585 47.4688 108.585H90.7165C90.7165 108.585 90.8466 108.643 90.8466 108.716C90.8466 108.788 90.7888 108.846 90.7165 108.846Z" fill="#5E453B"/>
<path d="M245.74 143H0.26018C0.115635 143 0 142.884 0 142.74C0 142.595 0.115635 142.479 0.26018 142.479H245.74C245.884 142.479 246 142.595 246 142.74C246 142.884 245.884 143 245.74 143Z" fill="#47332A"/>
<path d="M25.2668 49.7324L23.0264 44.1294L20.7859 49.7324L15.3221 51.8317L20.6847 53.5546L23.0264 59.5341L25.3535 53.5546L30.7161 51.8317L25.2668 49.7324Z" fill="#F7F7F7"/>
<path d="M23.0263 59.8958L20.598 53.6703L14.9463 51.846L20.6847 49.6454L23.0263 43.7817L25.3679 49.6454L31.1063 51.846L25.4547 53.6703L23.0263 59.8958ZM15.7124 51.8171L20.7859 53.4531L23.0119 59.1864L25.2378 53.4531L30.3114 51.8171L25.1511 49.8336L23.0119 44.4622L20.8726 49.8336L15.7124 51.8171Z" fill="#5E453B"/>
<path d="M180.911 39.004L179.408 35.2397L177.89 39.004L174.233 40.4084L177.832 41.5667L179.408 45.5916L180.969 41.5667L184.568 40.4084L180.911 39.004Z" fill="#F7F7F7"/>
<path d="M179.408 45.939L177.746 41.668L173.857 40.4084L177.818 38.8882L179.422 34.8633L181.027 38.8882L184.987 40.4084L181.099 41.668L179.437 45.939H179.408ZM174.624 40.4084L177.934 41.4798L179.408 45.2441L180.882 41.4798L184.192 40.4084L180.824 39.1198L179.422 35.6017L178.02 39.1198L174.652 40.4084H174.624Z" fill="#5E453B"/>
<path d="M90.2976 80.4689L89.0545 77.3271L87.797 80.4689L84.7471 81.6416L87.7391 82.5972L89.0545 85.9416L90.3554 82.5972L93.3475 81.6416L90.2976 80.4689Z" fill="#F7F7F7"/>
<path d="M89.0541 86.3037L87.6521 82.6987L84.3564 81.6418L87.6954 80.3532L89.0541 76.9653L90.4129 80.3532L93.7518 81.6418L90.4562 82.6987L89.0541 86.3037ZM85.137 81.6273L87.84 82.496L89.0397 85.5943L90.2394 82.496L92.9424 81.6273L90.1816 80.5704L89.0252 77.6748L87.8689 80.5704L85.1081 81.6273H85.137Z" fill="#5E453B"/>
<path d="M18.7767 111.727L18.0974 110.019L17.418 111.727L15.7557 112.364L17.3891 112.885L18.0974 114.709L18.8056 112.885L20.439 112.364L18.7767 111.727Z" fill="#F7F7F7"/>
<path d="M18.097 115.072L17.2876 113.001L15.3651 112.379L17.3165 111.626L18.097 109.671L18.8775 111.626L20.8289 112.379L18.9064 113.001L18.097 115.072ZM16.1457 112.35L17.4899 112.784L18.097 114.348L18.7041 112.784L20.0483 112.35L18.6752 111.829L18.097 110.366L17.5188 111.829L16.1457 112.35Z" fill="#5E453B"/>
<path d="M232.355 107.862L231.315 105.241L230.259 107.862L227.701 108.846L230.216 109.643L231.315 112.451L232.399 109.643L234.914 108.846L232.355 107.862Z" fill="#F7F7F7"/>
<path d="M231.315 112.813L230.129 109.758L227.325 108.861L230.173 107.775L231.315 104.894L232.457 107.775L235.304 108.861L232.5 109.758L231.315 112.813ZM228.091 108.832L230.303 109.541L231.3 112.089L232.298 109.541L234.509 108.832L232.254 107.963L231.3 105.589L230.346 107.963L228.091 108.832Z" fill="#5E453B"/>
<path d="M150.731 137.006L150.152 135.529L149.56 137.006L148.129 137.542L149.545 137.991L150.152 139.569L150.759 137.991L152.162 137.542L150.731 137.006Z" fill="#F7F7F7"/>
<path d="M150.152 139.916L149.444 138.092L147.753 137.542L149.473 136.89L150.152 135.167L150.832 136.89L152.552 137.542L150.861 138.092L150.152 139.916ZM148.519 137.542L149.632 137.904L150.138 139.221L150.644 137.904L151.757 137.542L150.615 137.108L150.123 135.891L149.632 137.108L148.49 137.542H148.519Z" fill="#5E453B"/>
</g>
<defs>
<clipPath id="clip0_1_2502">
<rect width="246" height="143" fill="white"/>
</clipPath>
</defs>
</svg>
