<svg width="66" height="66" viewBox="0 0 66 66" fill="none" xmlns="http://www.w3.org/2000/svg">
<g clip-path="url(#clip0_1_3522)">
<path d="M35.6844 0C51.2275 0.36372 65.4846 14.5632 65.955 30.1231C65.8507 32.0042 66.0963 34.0279 65.955 35.8913C63.9305 62.7458 31.1601 75.6474 10.9433 57.6777C-10.5467 38.5784 1.60712 2.05895 30.0779 0H35.6844ZM54.848 10.9517C45.1651 1.33952 29.866 -0.849215 17.9032 5.84516C17.5179 6.05987 15.3793 7.3385 15.2573 7.52917C15.1481 7.70062 15.1449 7.84162 15.2637 8.00826L20.5427 14.9077C21.042 16.047 19.8989 17.0292 18.9613 16.1703L13.4848 8.98085C1.65529 18.1556 -1.40806 35.1062 5.86658 48.1761C14.1029 62.9733 33.2488 68.5268 48.1257 60.1132C48.4917 59.9065 50.5548 58.6615 50.6672 58.4853C50.7796 58.309 50.7796 58.1728 50.6608 58.0062L45.5359 51.2621C45.1619 50.2142 46.5956 49.3057 47.302 50.304L52.4397 57.032C62.805 49.0349 66.5587 34.7842 62.1564 22.4657C60.6745 18.319 57.9724 14.0489 54.8496 10.9485L54.848 10.9517Z" fill="#010101"/>
<path d="M41.895 13.9848C45.8542 13.5089 49.7653 15.4509 51.3419 19.1858C54.7954 27.3687 45.509 31.8648 41.2191 37.1812C40.8851 37.4215 40.4083 37.4183 40.0791 37.1812L28.8677 25.9667C28.5354 25.6431 28.537 25.1047 28.7891 24.7458L37.6034 15.9396C38.7337 15.0039 40.4211 14.161 41.895 13.9832V13.9848ZM41.1869 28.9454C42.1037 29.8331 43.0927 30.7319 44.0721 31.5539C46.0148 29.4165 49.1664 27.3079 49.868 24.3628C51.0577 19.3637 46.6088 14.8965 41.6044 16.095C38.6245 16.8096 36.5823 19.9293 34.4148 21.8937C34.3924 22.0299 34.813 22.5474 34.9414 22.6965C36.661 24.6977 39.241 27.0627 41.1869 28.947V28.9454ZM32.8816 23.3967C32.5348 23.9142 31.3499 24.6929 31.1107 25.1576C31.0464 25.281 31.0031 25.3547 31.1107 25.4748C32.2923 26.2808 40.2076 35.1655 40.808 34.8595C41.2672 34.6255 42.0539 33.4318 42.5677 33.0873L32.8799 23.3967H32.8816Z" fill="#010101"/>
<path d="M31.6451 38.5015C38.3659 37.7035 39.3404 47.822 32.8653 48.5318C26.1912 49.2641 25.1347 39.2738 31.6451 38.5015ZM32.8011 40.5396C30.51 40.2159 28.8965 42.0281 29.3139 44.2665C29.4102 44.7824 29.7458 45.699 30.213 45.0805C31.1522 43.8371 31.8811 41.8647 32.7995 40.5396H32.8011ZM31.6804 46.4648C34.5062 46.9007 36.253 43.9701 34.641 41.6612L31.6804 46.4648Z" fill="#010101"/>
<path d="M21.8705 29.0432C28.6378 28.1619 29.7713 38.3429 23.2545 39.0783C16.5482 39.8346 15.5592 29.8651 21.8705 29.0432ZM25.5922 34.6095C25.8587 32.8935 24.7171 31.2207 22.9591 31.0765C22.3458 31.0268 20.1462 31.336 21.0533 32.0218C22.2976 32.9624 24.2676 33.6898 25.5922 34.6095ZM24.4731 36.215L19.671 33.4895C19.4045 35.7792 20.9522 37.3414 23.2593 37.0001C23.5194 36.9617 24.7669 36.5323 24.4731 36.215Z" fill="#010101"/>
<path d="M18.1879 42.0217C24.8701 41.1437 26.0084 51.339 19.5718 52.0569C12.7965 52.8115 11.8476 42.8549 18.1879 42.0217ZM19.3471 44.0646C16.47 43.7426 14.9447 46.6652 16.4667 49.0301L19.3471 44.0646ZM18.387 49.9899C21.1228 50.485 23.0285 47.274 21.1886 45.1862L18.387 49.9899Z" fill="#010101"/>
</g>
<defs>
<clipPath id="clip0_1_3522">
<rect width="66" height="66" fill="white"/>
</clipPath>
</defs>
</svg>
