<svg width="65" height="57" viewBox="0 0 65 57" fill="none" xmlns="http://www.w3.org/2000/svg">
<path d="M27.3727 28.8132L27.3727 57L0.597666 57L0.597664 49.6923C0.597662 38.2784 1.39692 29.7875 2.99543 24.2198C4.72715 18.5128 9.18966 10.4396 16.383 -2.95861e-06L27.7723 6.68132C21.7779 17.3993 18.3145 24.7766 17.382 28.8132L27.3727 28.8132ZM63.7389 28.8132L63.7389 57L36.9638 57L36.9638 49.6923C36.9638 38.2784 37.763 29.7875 39.3616 24.2198C41.0933 18.5128 45.5558 10.4396 52.7491 -9.77466e-06L64.1385 6.68131C58.1441 17.3993 54.6806 24.7766 53.7482 28.8132L63.7389 28.8132Z" fill="white"/>
<path d="M27.3727 28.8132L27.3727 57L0.597666 57L0.597664 49.6923C0.597662 38.2784 1.39692 29.7875 2.99543 24.2198C4.72715 18.5128 9.18966 10.4396 16.383 -2.95861e-06L27.7723 6.68132C21.7779 17.3993 18.3145 24.7766 17.382 28.8132L27.3727 28.8132ZM63.7389 28.8132L63.7389 57L36.9638 57L36.9638 49.6923C36.9638 38.2784 37.763 29.7875 39.3616 24.2198C41.0933 18.5128 45.5558 10.4396 52.7491 -9.77466e-06L64.1385 6.68131C58.1441 17.3993 54.6806 24.7766 53.7482 28.8132L63.7389 28.8132Z" stroke="white"/>
</svg>
