<svg width="34" height="30" viewBox="0 0 34 30" fill="none" xmlns="http://www.w3.org/2000/svg">
<path d="M19.681 14.8352L19.681 -4.4327e-06L33.668 -5.72205e-06L33.668 3.84615C33.668 9.85348 33.2504 14.3223 32.4154 17.2527C31.5108 20.2564 29.1796 24.5055 25.4219 30L19.4722 26.4835C22.6036 20.8425 24.4129 16.9597 24.9 14.8352L19.681 14.8352ZM0.68376 14.8352L0.683759 -2.68149e-06L14.6707 -3.97084e-06L14.6707 3.84615C14.6707 9.85348 14.2532 14.3223 13.4182 17.2527C12.5135 20.2564 10.1824 24.5055 6.42468 30L0.475002 26.4835C3.60641 20.8425 5.41567 16.9597 5.90278 14.8352L0.68376 14.8352Z" fill="white"/>
<path d="M19.681 14.8352L19.681 -4.4327e-06L33.668 -5.72205e-06L33.668 3.84615C33.668 9.85348 33.2504 14.3223 32.4154 17.2527C31.5108 20.2564 29.1796 24.5055 25.4219 30L19.4722 26.4835C22.6036 20.8425 24.4129 16.9597 24.9 14.8352L19.681 14.8352ZM0.68376 14.8352L0.683759 -2.68149e-06L14.6707 -3.97084e-06L14.6707 3.84615C14.6707 9.85348 14.2532 14.3223 13.4182 17.2527C12.5135 20.2564 10.1824 24.5055 6.42468 30L0.475002 26.4835C3.60641 20.8425 5.41567 16.9597 5.90278 14.8352L0.68376 14.8352Z" stroke="white"/>
</svg>
