<svg width="20" height="20" viewBox="0 0 20 20" fill="none" xmlns="http://www.w3.org/2000/svg">
<path d="M7.22496 11.6667H3.33329C2.41663 11.6667 1.66663 12.4167 1.66663 13.3334V18.3334H7.22496V11.6667Z" stroke="white" stroke-miterlimit="10" stroke-linecap="round" stroke-linejoin="round"/>
<path d="M11.1083 8.33331H8.88334C7.96667 8.33331 7.21667 9.08331 7.21667 9.99998V18.3333H12.775V9.99998C12.775 9.08331 12.0333 8.33331 11.1083 8.33331Z" stroke="white" stroke-miterlimit="10" stroke-linecap="round" stroke-linejoin="round"/>
<path d="M16.6667 14.1667H12.775V18.3334H18.3334V15.8334C18.3334 14.9167 17.5834 14.1667 16.6667 14.1667Z" stroke="white" stroke-miterlimit="10" stroke-linecap="round" stroke-linejoin="round"/>
<path d="M10.4333 1.72497L10.8749 2.60831C10.9333 2.73331 11.0916 2.84997 11.2249 2.86664L12.0249 2.99997C12.5333 3.08331 12.6583 3.45829 12.2916 3.81662L11.6666 4.44162C11.5583 4.54996 11.4999 4.74996 11.5333 4.89163L11.7083 5.65831C11.8499 6.26664 11.5249 6.49998 10.9916 6.18331L10.2416 5.74165C10.1083 5.65831 9.88328 5.65831 9.74995 5.74165L8.99995 6.18331C8.46661 6.49998 8.14161 6.26664 8.28328 5.65831L8.45828 4.89163C8.49162 4.74996 8.43328 4.54162 8.32495 4.44162L7.70828 3.82497C7.34161 3.4583 7.45828 3.09162 7.97495 3.00829L8.77495 2.87498C8.90828 2.84998 9.06661 2.73331 9.12495 2.61665L9.56661 1.73329C9.80828 1.24996 10.1916 1.24997 10.4333 1.72497Z" stroke="white" stroke-linecap="round" stroke-linejoin="round"/>
</svg>
