<svg width="64" height="64" viewBox="0 0 64 64" fill="none" xmlns="http://www.w3.org/2000/svg">
<g clip-path="url(#clip0_1_3345)">
<path d="M64 0H0V64H64V0Z" fill="#B81E74"/>
<mask id="mask0_1_3345" style="mask-type:luminance" maskUnits="userSpaceOnUse" x="0" y="0" width="64" height="64">
<path d="M64 0H0V64H64V0Z" fill="white"/>
</mask>
<g mask="url(#mask0_1_3345)">
<path d="M38.4973 42.103H25.9215C25.8488 42.103 25.7821 42.1636 25.7821 42.2424V45.0909C25.7821 45.1697 25.8427 45.2303 25.9215 45.2303H38.4973C38.5761 45.2303 38.6367 45.1697 38.6367 45.0909V42.2424C38.6367 42.1697 38.5761 42.103 38.4973 42.103Z" fill="white"/>
<path d="M45.909 38C45.3939 35.9273 44.4545 34.0727 43.2121 32.497L43.1818 32.5152C43.5878 33.1152 43.9454 33.7515 44.2545 34.4243C45.8848 37.4182 46.3878 41.0243 45.3575 44.5576C43.2908 51.6424 35.8787 55.7091 28.7939 53.6424C25.8181 52.7758 23.3757 50.9576 21.6969 48.6182C20.6484 47.2667 19.8545 45.6849 19.4121 43.9212C17.7333 37.1637 21.8424 30.3212 28.606 28.6424C32.7878 27.6 36.9878 28.7879 39.9939 31.4364C40.0242 31.4606 40.0484 31.4849 40.0727 31.5091C40.1515 31.5697 40.2484 31.6121 40.3575 31.6121C40.4787 31.6121 40.5878 31.5636 40.6727 31.4909L40.7211 31.4424L42.3211 29.8606L42.4242 29.7576C42.4848 29.6788 42.5272 29.5818 42.5272 29.4727C42.5272 29.3455 42.4727 29.2364 42.3999 29.1455C42.3818 29.1333 42.3636 29.1152 42.3454 29.103C38.6545 25.8 33.4484 24.3212 28.2787 25.6061C19.9757 27.6727 14.9211 36.0788 16.9878 44.3818C17.8545 47.8606 19.8363 50.7637 22.4545 52.8182C25.0605 54.9576 28.3818 56.1697 31.8605 56.1333C32.9818 56.1212 34.1151 55.9879 35.2484 55.703C43.0787 53.7576 47.8424 45.8303 45.8969 38" fill="white"/>
<path d="M38.6367 36.8848C38.6367 36.8121 38.5761 36.7515 38.4973 36.7515H25.9215C25.8488 36.7515 25.7882 36.8121 25.7882 36.8848V39.7333C25.7882 39.806 25.8488 39.8727 25.9215 39.8727H38.4973C38.5761 39.8727 38.6367 39.8121 38.6367 39.7333V36.8848Z" fill="white"/>
<path d="M6.61243 8.78777V18.509H8.74577V5.81201H7.04274L5.0791 8.11504V10.3393H5.09728L6.59425 8.78777H6.61243Z" fill="white"/>
<path d="M12.364 15.5697V8.75155C12.364 7.98186 12.6427 7.44246 13.3761 7.44246C14.1094 7.44246 14.4064 7.98792 14.4064 8.75155V15.5697C14.4064 16.3394 14.1276 16.8788 13.3761 16.8788C12.6246 16.8788 12.364 16.3394 12.364 15.5697ZM16.5397 15.2303V9.08489C16.5397 7.09701 15.5458 5.66064 13.3761 5.66064C11.2064 5.66064 10.2306 7.10307 10.2306 9.08489V15.2303C10.2306 17.194 11.2246 18.6546 13.3761 18.6546C15.5276 18.6546 16.5397 17.194 16.5397 15.2303Z" fill="white"/>
<path d="M21.7522 6.55755V8.20604H22.0492C22.3522 8.20604 22.4856 8.04846 22.4856 7.76967V6.98786C22.4856 6.69695 22.3522 6.55755 22.0492 6.55755H21.7522ZM21.7522 8.69695V11.1272H20.8613V5.82422H22.1583C23.0553 5.82422 23.3886 6.26664 23.3886 7.0121V7.69089C23.3886 8.26058 23.1825 8.59998 22.6795 8.71513L23.5341 11.1212H22.5947L21.7583 8.69089L21.7522 8.69695Z" fill="white"/>
<path d="M23.867 5.83057H25.9942V6.55784H24.7579V8.07299H25.6427V8.7942H24.7579V10.4063H25.9942V11.1336H23.867V5.83057Z" fill="white"/>
<path d="M27.7393 10.4063C28.109 10.4063 28.2484 10.1881 28.2484 9.86693V7.09117C28.2484 6.77602 28.109 6.55784 27.7393 6.55784H27.3636V10.4063H27.7393ZM29.1393 7.25481V9.70935C29.1393 10.5215 28.7999 11.1336 27.8484 11.1336H26.4727V5.83057H27.8484C28.7999 5.83057 29.1393 6.43663 29.1393 7.25481Z" fill="white"/>
<path d="M32.2363 5.83057V9.84269C32.2363 10.6609 31.8848 11.1942 30.9757 11.1942C30.0666 11.1942 29.6484 10.6609 29.6484 9.84269V5.83057H30.5393V9.92754C30.5393 10.2427 30.6666 10.4487 30.9757 10.4487C31.2848 10.4487 31.4121 10.2366 31.4121 9.92754V5.83057H32.2303H32.2363Z" fill="white"/>
<path d="M32.7461 9.76347V7.19983C32.7461 6.36953 33.134 5.76953 34.0734 5.76953C35.0612 5.76953 35.334 6.31499 35.334 7.0968V7.72105H34.5219V7.02408C34.5219 6.6968 34.4128 6.50892 34.0915 6.50892C33.7703 6.50892 33.637 6.73317 33.637 7.05438V9.90286C33.637 10.2241 33.7703 10.4483 34.0915 10.4483C34.4128 10.4483 34.5219 10.2423 34.5219 9.93317V8.95741H35.334V9.87256C35.334 10.6301 35.0249 11.1938 34.0734 11.1938C33.1219 11.1938 32.7461 10.5817 32.7461 9.76347Z" fill="white"/>
<path d="M35.8185 5.83057H37.9397V6.55784H36.7094V8.07299H37.5943V8.7942H36.7094V10.4063H37.9397V11.1336H35.8185V5.83057Z" fill="white"/>
<path d="M39.6856 10.4063C40.0553 10.4063 40.1947 10.1881 40.1947 9.86693V7.09117C40.1947 6.77602 40.0553 6.55784 39.6856 6.55784H39.3099V10.4063H39.6856ZM41.0856 7.25481V9.70935C41.0856 10.5215 40.7462 11.1336 39.7947 11.1336H38.4189V5.83057H39.7947C40.7462 5.83057 41.0856 6.43663 41.0856 7.25481Z" fill="white"/>
<path d="M21.7522 13.2544H20.8613V18.5574H21.7522V13.2544Z" fill="white"/>
<path d="M23.0181 15.2241V18.5574H22.2666V13.2544H23.1393L24.103 16.2968V13.2544H24.8484V18.5574H24.0666L23.0181 15.2241Z" fill="white"/>
<path d="M25.3516 13.2544H27.4788V13.9817H26.2425V15.5029H27.1273V16.218H26.2425V17.8302H27.4788V18.5574H25.3516V13.2544Z" fill="white"/>
<path d="M29.6852 17.376V14.485C29.6852 14.1638 29.5458 13.9396 29.2246 13.9396C28.9033 13.9396 28.77 14.1638 28.77 14.485V17.376C28.77 17.6911 28.9094 17.9214 29.2246 17.9214C29.5397 17.9214 29.6852 17.685 29.6852 17.376ZM28.8973 18.9214V18.5638C28.1882 18.4366 27.8791 17.9153 27.8791 17.1941V14.6305C27.8791 13.8002 28.2852 13.2002 29.2246 13.2002C30.164 13.2002 30.5761 13.8063 30.5761 14.6305V17.1941C30.5761 17.7699 30.37 18.2244 29.9215 18.4426L30.5761 18.5699V19.2366L28.8973 18.9214Z" fill="white"/>
<path d="M33.673 13.2544V17.2665C33.673 18.0847 33.3215 18.618 32.4124 18.618C31.5033 18.618 31.0852 18.0847 31.0852 17.2665V13.2544H31.9761V17.3514C31.9761 17.6665 32.1033 17.8726 32.4124 17.8726C32.7215 17.8726 32.8488 17.6605 32.8488 17.3514V13.2544H33.673Z" fill="white"/>
<path d="M35.0431 16.8786H35.7522L35.4007 14.7514H35.3946L35.0431 16.8786ZM33.9219 18.5574L34.9219 13.2544H35.9401L36.9461 18.5574H36.031L35.8673 17.5877H34.9219L34.7643 18.5574H33.9219Z" fill="white"/>
<path d="M37.3155 13.2544H38.2064V17.8302H39.273V18.5574H37.3155V13.2544Z" fill="white"/>
<path d="M40.5696 13.2544H39.6787V18.5574H40.5696V13.2544Z" fill="white"/>
<path d="M40.9824 13.2544H43.3521V13.9817H42.6188V18.5574H41.7218V13.9817H40.9824V13.2544Z" fill="white"/>
<path d="M44.6604 13.2544H43.7695V18.5574H44.6604V13.2544Z" fill="white"/>
<path d="M45.1758 13.2544H47.3031V13.9817H46.0667V15.5029H46.9515V16.218H46.0667V17.8302H47.3031V18.5574H45.1758V13.2544Z" fill="white"/>
<path d="M47.6916 17.4184V16.7093H48.5219V17.4366C48.5219 17.7335 48.6552 17.9093 48.9583 17.9093C49.2431 17.9093 49.3643 17.7214 49.3643 17.4366V17.2305C49.3643 16.9275 49.2371 16.7396 48.9643 16.479L48.4371 15.9578C47.928 15.4547 47.6977 15.1517 47.6977 14.5396V14.3638C47.6977 13.7093 48.0795 13.2002 48.9462 13.2002C49.8128 13.2002 50.1886 13.6366 50.1886 14.4063V14.8366H49.3765V14.376C49.3765 14.0729 49.2371 13.9214 48.9522 13.9214C48.7037 13.9214 48.528 14.0608 48.528 14.3578V14.4669C48.528 14.7638 48.6916 14.9335 48.9522 15.1881L49.5219 15.7517C50.0068 16.2426 50.2431 16.5396 50.2431 17.1275V17.382C50.2431 18.1093 49.8552 18.6244 48.9462 18.6244C48.0371 18.6244 47.6855 18.1153 47.6855 17.4184" fill="white"/>
</g>
</g>
<defs>
<clipPath id="clip0_1_3345">
<rect width="64" height="64" rx="5" fill="white"/>
</clipPath>
</defs>
</svg>
