<svg width="65" height="65" viewBox="0 0 65 65" fill="none" xmlns="http://www.w3.org/2000/svg">
<path d="M60 0H5C2.23858 0 0 2.23858 0 5V60C0 62.7614 2.23858 65 5 65H60C62.7614 65 65 62.7614 65 60V5C65 2.23858 62.7614 0 60 0Z" fill="#B9922E"/>
<path d="M6.93043 8.94999H6.94889V18.8108H9.11556V5.92773H7.38592L5.3916 8.26675V10.5257H5.41007L6.93043 8.94999Z" fill="white"/>
<path d="M48.7133 33.7065C45.8942 31.4783 42.1518 31.429 40.7853 31.7553L40.6253 31.7922C39.0434 32.1677 36.532 32.7832 33.5898 36.4333C33.5713 36.4518 33.559 36.4764 33.5405 36.4948L33.5036 36.5379C33.4728 36.581 33.4543 36.6303 33.4543 36.6795C33.4543 36.7226 33.4667 36.7657 33.4851 36.8026L33.5528 36.9134C33.9221 37.5289 34.3838 38.323 34.7777 39.0555C34.7777 39.0616 34.7839 39.0678 34.79 39.0801C34.8331 39.1601 34.9131 39.2155 35.0116 39.2155C35.0793 39.2155 35.1409 39.1847 35.184 39.1416C35.2024 39.117 35.2209 39.0924 35.2394 39.0678C37.8492 35.4608 39.8989 34.9622 41.29 34.6359L41.4562 34.599C42.1764 34.4267 44.9155 34.439 46.8914 35.9963C48.4363 37.215 49.2181 39.1539 49.2181 41.7576C49.2181 46.1279 47.0945 47.8391 45.3095 48.4977C42.5457 49.5318 39.8989 48.153 39.8805 48.1407L39.7635 48.0791C38.2432 47.4205 35.9842 46.0479 33.8483 41.7638C29.5457 33.1217 25.951 32.3092 23.5689 31.7737L23.4397 31.743C22.3563 31.4967 18.5893 31.3244 15.6347 33.688C14.0898 34.9191 12.2432 37.3197 12.2432 41.7392C12.2432 44.429 12.7971 46.2079 14.219 48.0791C14.5329 48.5038 17.7152 52.5971 23.8767 51.4215C24.8615 51.2306 26.1972 50.7628 27.6684 49.661L29.0225 50.8859C29.1087 50.966 29.2503 50.9598 29.3303 50.8675C29.3672 50.8244 29.3857 50.7752 29.3857 50.7198V50.7013L30.3644 44.6876V44.6198C30.3644 44.5583 30.3398 44.5029 30.2905 44.4598C30.2474 44.4229 30.1982 44.4044 30.1489 44.4044H30.1059L30.0443 44.4167L24.2829 46.0294L24.1783 46.0479C24.1352 46.0602 24.0983 46.0787 24.0675 46.1156C23.9813 46.2079 23.9936 46.3433 24.086 46.4295L24.1537 46.4911L25.4463 47.6544C24.6153 48.1961 23.8828 48.4423 23.3289 48.5469C18.8724 49.3964 16.675 46.4788 16.5888 46.3618L16.558 46.3187C15.5239 44.9584 15.1731 43.8012 15.1731 41.7392C15.1731 39.1293 15.9425 37.1904 17.4567 35.9716C19.3833 34.4328 22.0424 34.4267 22.7934 34.599L22.9226 34.6298C24.8738 35.073 27.5452 35.6762 31.2261 43.0749C33.1404 46.9158 35.5348 49.4271 38.5448 50.7505C38.9264 50.9475 40.7607 51.8154 43.1366 51.8154C44.1338 51.8154 45.2171 51.6677 46.3312 51.2491C48.0793 50.5967 52.1418 48.3684 52.1418 41.7638C52.1418 37.3504 50.2706 34.9437 48.701 33.7065" fill="white"/>
<path d="M48.7133 33.7065C45.8942 31.4783 42.1518 31.429 40.7853 31.7553L40.6253 31.7922C39.0434 32.1677 36.532 32.7832 33.5898 36.4333C33.5713 36.4518 33.559 36.4764 33.5405 36.4948L33.5036 36.5379C33.4728 36.581 33.4543 36.6303 33.4543 36.6795C33.4543 36.7226 33.4667 36.7657 33.4851 36.8026L33.5528 36.9134C33.9221 37.5289 34.3838 38.323 34.7777 39.0555C34.7777 39.0616 34.7839 39.0678 34.79 39.0801C34.8331 39.1601 34.9131 39.2155 35.0116 39.2155C35.0793 39.2155 35.1409 39.1847 35.184 39.1416C35.2024 39.117 35.2209 39.0924 35.2394 39.0678C37.8492 35.4608 39.8989 34.9622 41.29 34.6359L41.4562 34.599C42.1764 34.4267 44.9155 34.439 46.8914 35.9963C48.4363 37.215 49.2181 39.1539 49.2181 41.7576C49.2181 46.1279 47.0945 47.8391 45.3095 48.4977C42.5457 49.5318 39.8989 48.153 39.8805 48.1407L39.7635 48.0791C38.2432 47.4205 35.9842 46.0479 33.8483 41.7638C29.5457 33.1217 25.951 32.3092 23.5689 31.7737L23.4397 31.743C22.3563 31.4967 18.5893 31.3244 15.6347 33.688C14.0898 34.9191 12.2432 37.3197 12.2432 41.7392C12.2432 44.429 12.7971 46.2079 14.219 48.0791C14.5329 48.5038 17.7152 52.5971 23.8767 51.4215C24.8615 51.2306 26.1972 50.7628 27.6684 49.661L29.0225 50.8859C29.1087 50.966 29.2503 50.9598 29.3303 50.8675C29.3672 50.8244 29.3857 50.7752 29.3857 50.7198V50.7013L30.3644 44.6876V44.6198C30.3644 44.5583 30.3398 44.5029 30.2905 44.4598C30.2474 44.4229 30.1982 44.4044 30.1489 44.4044H30.1059L30.0443 44.4167L24.2829 46.0294L24.1783 46.0479C24.1352 46.0602 24.0983 46.0787 24.0675 46.1156C23.9813 46.2079 23.9936 46.3433 24.086 46.4295L24.1537 46.4911L25.4463 47.6544C24.6153 48.1961 23.8828 48.4423 23.3289 48.5469C18.8724 49.3964 16.675 46.4788 16.5888 46.3618L16.558 46.3187C15.5239 44.9584 15.1731 43.8012 15.1731 41.7392C15.1731 39.1293 15.9425 37.1904 17.4567 35.9716C19.3833 34.4328 22.0424 34.4267 22.7934 34.599L22.9226 34.6298C24.8738 35.073 27.5452 35.6762 31.2261 43.0749C33.1404 46.9158 35.5348 49.4271 38.5448 50.7505C38.9264 50.9475 40.7607 51.8154 43.1366 51.8154C44.1338 51.8154 45.2171 51.6677 46.3312 51.2491C48.0793 50.5967 52.1418 48.3684 52.1418 41.7638C52.1418 37.3504 50.2706 34.9437 48.701 33.7065" stroke="white" stroke-width="0.68" stroke-miterlimit="10"/>
<path d="M10.409 8.58641V10.1437H12.3849V8.53101C12.3849 7.74929 12.7665 7.52154 13.222 7.52154C13.6405 7.52154 14.0037 7.69389 14.0037 8.48793V9.55279C14.0037 10.6177 13.9114 11.0362 13.2035 11.7749L11.9909 13.0675C10.8153 14.3232 10.3721 15.1603 10.3721 16.4344V18.8104H15.998V17.0438H12.4464V16.4344C12.4464 15.425 12.8096 15.0495 13.3574 14.4586L14.7423 12.9936C15.8626 11.7995 16.1088 11.0362 16.1088 9.74361V8.48793C16.1088 6.64134 15.2163 5.77344 13.2774 5.77344C11.3385 5.77344 10.409 6.78291 10.409 8.58641Z" fill="white"/>
<path d="M21.981 6.65983V8.33407H22.2826C22.5904 8.33407 22.7258 8.17404 22.7258 7.89089V7.09686C22.7258 6.8014 22.5904 6.65983 22.2826 6.65983H21.981ZM21.981 8.83265V11.3009H21.0762V5.91504H22.3934C23.3044 5.91504 23.6429 6.36438 23.6429 7.12148V7.81087C23.6429 8.38947 23.4337 8.73417 22.9228 8.85112L23.7907 11.2948H22.8366L21.9872 8.8265L21.981 8.83265Z" fill="white"/>
<path d="M24.0244 5.9209H26.1849V6.65953H24.9292V8.19836H25.8279V8.93084H24.9292V10.5682H26.1849V11.3068H24.0244V5.9209Z" fill="white"/>
<path d="M26.4681 10.1435V9.4233H27.3113V10.1619C27.3113 10.4635 27.4468 10.642 27.7545 10.642C28.0438 10.642 28.1669 10.4512 28.1669 10.1619V9.95265C28.1669 9.64489 28.0377 9.45407 27.7607 9.18939L27.2252 8.66004C26.7081 8.14915 26.4742 7.84138 26.4742 7.22585V7.04119C26.4742 6.37642 26.862 5.85938 27.7422 5.85938C28.6224 5.85938 29.0041 6.30256 29.0041 7.08428V7.52131H28.1792V7.0535C28.1792 6.74574 28.0377 6.59186 27.7484 6.59186C27.496 6.59186 27.3175 6.73343 27.3175 7.03504V7.14583C27.3175 7.44744 27.4837 7.61979 27.7484 7.87831L28.327 8.45076C28.8194 8.94934 29.0595 9.25095 29.0595 9.84801V10.1065C29.0595 10.8452 28.6655 11.3684 27.7422 11.3684C26.8189 11.3684 26.4619 10.8513 26.4619 10.1435" fill="white"/>
<path d="M30.3335 6.65983V8.78341H30.6659C30.9737 8.78341 31.1091 8.63568 31.1091 8.34023V7.10301C31.1091 6.80756 30.9737 6.66599 30.6659 6.66599H30.3335V6.65983ZM29.4287 5.92119H30.7706C31.6877 5.92119 32.0201 6.37053 32.0201 7.12763V8.26021C32.0201 9.01731 31.6877 9.4728 30.7706 9.4728H30.3335V11.3009H29.4287V5.91504V5.92119Z" fill="white"/>
<path d="M34.2112 10.0573V7.1643C34.2112 6.83807 34.0697 6.61032 33.7434 6.61032C33.4172 6.61032 33.2818 6.83807 33.2818 7.1643V10.0573C33.2818 10.3835 33.4234 10.6113 33.7434 10.6113C34.0635 10.6113 34.2112 10.3835 34.2112 10.0573ZM32.377 9.91572V7.31203C32.377 6.46875 32.7894 5.85938 33.7434 5.85938C34.6975 5.85938 35.1161 6.46875 35.1161 7.31203V9.91572C35.1161 10.7467 34.7037 11.3684 33.7434 11.3684C32.7832 11.3684 32.377 10.7467 32.377 9.91572Z" fill="white"/>
<path d="M36.2857 7.92137V11.3068H35.5225V5.9209H36.4088L37.3875 9.01086V5.9209H38.1446V11.3068H37.3506L36.2857 7.92137Z" fill="white"/>
<path d="M38.5022 10.1435V9.4233H39.3455V10.1619C39.3455 10.4635 39.4809 10.642 39.7887 10.642C40.078 10.642 40.2011 10.4512 40.2011 10.1619V9.95265C40.2011 9.64489 40.0719 9.45407 39.7949 9.18939L39.2594 8.66004C38.7423 8.14915 38.5084 7.84138 38.5084 7.22585V7.04119C38.5084 6.37642 38.8962 5.85938 39.7764 5.85938C40.6566 5.85938 41.0382 6.30256 41.0382 7.08428V7.52131H40.2134V7.0535C40.2134 6.74574 40.0718 6.59186 39.7825 6.59186C39.5302 6.59186 39.3517 6.73343 39.3517 7.03504V7.14583C39.3517 7.44744 39.5179 7.61979 39.7825 7.87831L40.3611 8.45076C40.8536 8.94934 41.0936 9.25095 41.0936 9.84801V10.1065C41.0936 10.8452 40.6997 11.3684 39.7764 11.3684C38.8531 11.3684 38.4961 10.8513 38.4961 10.1435" fill="white"/>
<path d="M42.3677 5.9209H41.4629V11.3068H42.3677V5.9209Z" fill="white"/>
<path d="M43.6841 8.8816V10.5682H44.0842C44.3858 10.5682 44.5274 10.4204 44.5274 10.1311V9.31863C44.5274 9.02933 44.392 8.8816 44.0719 8.8816H43.6841ZM43.6841 8.19221H44.0042C44.2997 8.19221 44.4351 8.04448 44.4351 7.75518V7.09656C44.4351 6.80111 44.2997 6.65953 43.998 6.65953H43.6903V8.19221H43.6841ZM42.7793 5.9209H44.0904C44.9952 5.9209 45.2968 6.34561 45.2968 7.10272V7.65054C45.2968 8.10603 45.1306 8.38917 44.7551 8.51228C45.2045 8.61692 45.4322 8.91853 45.4322 9.41095V10.125C45.4322 10.8882 45.0875 11.3068 44.1827 11.3068H42.7793V5.9209Z" fill="white"/>
<path d="M45.7715 5.9209H46.6763V10.5682H47.7596V11.3068H45.7715V5.9209Z" fill="white"/>
<path d="M48.0605 5.9209H50.2211V6.65953H48.9654V8.19836H49.8641V8.93084H48.9654V10.5682H50.2211V11.3068H48.0605V5.9209Z" fill="white"/>
<path d="M21.0762 17.4562V14.8526C21.0762 14.0093 21.4701 13.3999 22.4242 13.3999C23.4275 13.3999 23.7045 13.9539 23.7045 14.7479V15.3819H22.8797V14.674C22.8797 14.3417 22.7689 14.1508 22.4426 14.1508C22.1164 14.1508 21.981 14.3786 21.981 14.711V17.604C21.981 17.9302 22.1164 18.158 22.4426 18.158C22.7689 18.158 22.8797 17.9487 22.8797 17.6348V16.6437H23.7045V17.5732C23.7045 18.3426 23.3844 18.9151 22.4242 18.9151C21.464 18.9151 21.0762 18.2934 21.0762 17.4624" fill="white"/>
<path d="M25.9202 17.604V14.711C25.9202 14.3848 25.7786 14.1508 25.4524 14.1508C25.1262 14.1508 24.9908 14.3786 24.9908 14.711V17.604C24.9908 17.9302 25.1323 18.158 25.4524 18.158C25.7725 18.158 25.9202 17.9302 25.9202 17.604ZM24.0859 17.4562V14.8526C24.0859 14.0093 24.4983 13.3999 25.4524 13.3999C26.4065 13.3999 26.825 14.0093 26.825 14.8526V17.4562C26.825 18.2872 26.4126 18.9089 25.4524 18.9089C24.4922 18.9089 24.0859 18.2872 24.0859 17.4562Z" fill="white"/>
<path d="M27.9947 15.4681V18.8473H27.2314V13.4614H28.1178L29.0965 16.5514V13.4614H29.8536V18.8473H29.0596L27.9947 15.4681Z" fill="white"/>
<path d="M30.2103 17.6903V16.9702H31.0535V17.7088C31.0535 18.0104 31.1889 18.1889 31.4967 18.1889C31.786 18.1889 31.9091 17.9981 31.9091 17.7088V17.4995C31.9091 17.1918 31.7799 17.0009 31.5029 16.7363L30.9674 16.2069C30.4503 15.696 30.2164 15.3883 30.2164 14.7666V14.5881C30.2164 13.9233 30.6042 13.4062 31.4844 13.4062C32.3646 13.4062 32.7462 13.8494 32.7462 14.6312V15.0682H31.9214V14.6004C31.9214 14.2926 31.7799 14.1387 31.4906 14.1387C31.2382 14.1387 31.0597 14.2803 31.0597 14.5819V14.6927C31.0597 14.9943 31.2259 15.1667 31.4906 15.4252L32.0692 15.9976C32.5616 16.4962 32.8016 16.7978 32.8016 17.3949V17.6534C32.8016 18.392 32.4077 18.9152 31.4844 18.9152C30.5611 18.9152 30.2041 18.3982 30.2041 17.6903" fill="white"/>
<path d="M35.7992 13.4614V17.5362C35.7992 18.3672 35.4422 18.9089 34.5189 18.9089C33.5956 18.9089 33.1709 18.3672 33.1709 17.5362V13.4614H34.0757V17.6224C34.0757 17.9425 34.205 18.1518 34.5189 18.1518C34.8328 18.1518 34.9621 17.9363 34.9621 17.6224V13.4614H35.7992Z" fill="white"/>
<path d="M38.699 15.3511H38.6743L38.065 18.8473H37.6402L36.9693 15.3511H36.9508V18.8473H36.2061V13.4614H37.2586L37.8495 16.496H37.8557L38.3789 13.4614H39.5238V18.8473H38.699V15.3511Z" fill="white"/>
<path d="M40.8345 14.2001V16.3236H41.1669C41.4747 16.3236 41.6101 16.1759 41.6101 15.8805V14.6432C41.6101 14.3478 41.4747 14.2062 41.1669 14.2062H40.8345V14.2001ZM39.9297 13.4614H41.2715C42.1887 13.4614 42.5211 13.9169 42.5211 14.6679V15.8004C42.5211 16.5575 42.1887 17.0192 41.2715 17.0192H40.8345V18.8473H39.9297V13.4614Z" fill="white"/>
<path d="M42.7305 13.4614H45.1372V14.2001H44.3924V18.8473H43.4814V14.2001H42.7305V13.4614Z" fill="white"/>
<path d="M46.356 13.4614H45.4512V18.8473H46.356V13.4614Z" fill="white"/>
<path d="M48.6028 17.604V14.711C48.6028 14.3848 48.4613 14.1508 48.135 14.1508C47.8088 14.1508 47.6734 14.3786 47.6734 14.711V17.604C47.6734 17.9302 47.815 18.158 48.135 18.158C48.4551 18.158 48.6028 17.9302 48.6028 17.604ZM46.7686 17.4562V14.8526C46.7686 14.0093 47.181 13.3999 48.135 13.3999C49.0891 13.3999 49.5077 14.0093 49.5077 14.8526V17.4562C49.5077 18.2872 49.0953 18.9089 48.135 18.9089C47.1748 18.9089 46.7686 18.2872 46.7686 17.4562Z" fill="white"/>
<path d="M50.6712 15.4681V18.8473H49.9141V13.4614H50.8004L51.7791 16.5514V13.4614H52.5301V18.8473H51.736L50.6712 15.4681Z" fill="white"/>
<path d="M22.0671 24.6825H22.7873L22.4303 22.522H22.4242L22.0671 24.6825ZM20.9346 26.3937L21.9502 21.0078H22.9843L24.0061 26.3937H23.0766L22.9104 25.4089H21.9502L21.7902 26.3937H20.9346Z" fill="white"/>
<path d="M25.0338 23.0083V26.3937H24.2705V21.0078H25.1569L26.1356 24.0978V21.0078H26.8865V26.3937H26.0925L25.0338 23.0083Z" fill="white"/>
<path d="M28.5794 25.6551C28.9549 25.6551 29.0965 25.4335 29.0965 25.1072V22.2881C29.0965 21.9742 28.9549 21.7464 28.5794 21.7464H28.1978V25.6551H28.5794ZM30.0013 22.4543V24.9472C30.0013 25.772 29.6566 26.3937 28.6902 26.3937H27.293V21.0078H28.6902C29.6566 21.0078 30.0013 21.6233 30.0013 22.4543Z" fill="white"/>
<path d="M32.0328 21.7464V23.87H32.3651C32.6729 23.87 32.8083 23.7223 32.8083 23.4268V22.1896C32.8083 21.8942 32.6729 21.7526 32.3651 21.7526H32.0328V21.7464ZM31.1279 21.0078H32.4698C33.3869 21.0078 33.7193 21.4571 33.7193 22.2143V23.3468C33.7193 24.1039 33.3869 24.5656 32.4698 24.5656H32.0328V26.3937H31.1279V21.0078Z" fill="white"/>
<path d="M34.981 21.7464V23.4207H35.2826C35.5904 23.4207 35.7258 23.2607 35.7258 22.9775V22.1835C35.7258 21.888 35.5904 21.7464 35.2826 21.7464H34.981ZM34.981 23.9254V26.3937H34.0762V21.0078H35.3934C36.3044 21.0078 36.6429 21.4571 36.6429 22.2143V22.9036C36.6429 23.4822 36.4337 23.8208 35.9228 23.9439L36.7907 26.3875H35.8366L34.9872 23.9193L34.981 23.9254Z" fill="white"/>
<path d="M38.8587 25.1442V22.2512C38.8587 21.925 38.7171 21.6911 38.3909 21.6911C38.0647 21.6911 37.9292 21.9188 37.9292 22.2512V25.1442C37.9292 25.4704 38.0708 25.7043 38.3909 25.7043C38.711 25.7043 38.8587 25.4766 38.8587 25.1442ZM37.0244 25.0026V22.3989C37.0244 21.5557 37.4368 20.9463 38.3909 20.9463C39.345 20.9463 39.7635 21.5557 39.7635 22.3989V25.0026C39.7635 25.8336 39.3511 26.4553 38.3909 26.4553C37.4307 26.4553 37.0244 25.8336 37.0244 25.0026Z" fill="white"/>
<path d="M41.4502 25.6551C41.8257 25.6551 41.9673 25.4335 41.9673 25.1072V22.2881C41.9673 21.9742 41.8257 21.7464 41.4502 21.7464H41.0686V25.6551H41.4502ZM42.8783 22.4543V24.9472C42.8783 25.772 42.5336 26.3937 41.5672 26.3937H40.1699V21.0078H41.5672C42.5336 21.0078 42.8783 21.6233 42.8783 22.4543Z" fill="white"/>
<path d="M45.9066 21.0078V25.0826C45.9066 25.9197 45.5496 26.4553 44.6263 26.4553C43.703 26.4553 43.2783 25.9136 43.2783 25.0826V21.0078H44.1832V25.1688C44.1832 25.4827 44.3124 25.6982 44.6263 25.6982C44.9403 25.6982 45.0695 25.4827 45.0695 25.1688V21.0078H45.9005H45.9066Z" fill="white"/>
<path d="M46.3125 25.0026V22.3989C46.3125 21.5557 46.7064 20.9463 47.6605 20.9463C48.6638 20.9463 48.9408 21.5003 48.9408 22.2943V22.9283H48.116V22.2204C48.116 21.8881 48.0052 21.6972 47.679 21.6972C47.3527 21.6972 47.2173 21.925 47.2173 22.2574V25.1504C47.2173 25.4766 47.3527 25.7105 47.679 25.7105C48.0052 25.7105 48.116 25.5012 48.116 25.1873V24.1963H48.9408V25.1257C48.9408 25.8952 48.6269 26.4676 47.6605 26.4676C46.6941 26.4676 46.3125 25.8459 46.3125 25.0149" fill="white"/>
<path d="M49.1377 21.0078H51.5444V21.7464H50.7996V26.3937H49.8886V21.7464H49.1377V21.0078Z" fill="white"/>
<path d="M52.7574 21.0078H51.8525V26.3937H52.7574V21.0078Z" fill="white"/>
<path d="M55.0101 25.1442V22.2512C55.0101 21.925 54.8685 21.6911 54.5423 21.6911C54.216 21.6911 54.0806 21.9188 54.0806 22.2512V25.1442C54.0806 25.4704 54.2222 25.7043 54.5423 25.7043C54.8623 25.7043 55.0101 25.4766 55.0101 25.1442ZM53.1758 25.0026V22.3989C53.1758 21.5557 53.5882 20.9463 54.5423 20.9463C55.4963 20.9463 55.9149 21.5557 55.9149 22.3989V25.0026C55.9149 25.8336 55.5025 26.4553 54.5423 26.4553C53.582 26.4553 53.1758 25.8336 53.1758 25.0026Z" fill="white"/>
<path d="M57.0784 23.0083V26.3937H56.3213V21.0078H57.2077L58.1863 24.0978V21.0078H58.9373V26.3937H58.1433L57.0784 23.0083Z" fill="white"/>
</svg>
