<svg width="64" height="64" viewBox="0 0 64 64" fill="none" xmlns="http://www.w3.org/2000/svg">
<g clip-path="url(#clip0_1_3403)">
<path d="M64 0H0V64H64V0Z" fill="#BE2031"/>
<mask id="mask0_1_3403" style="mask-type:luminance" maskUnits="userSpaceOnUse" x="0" y="0" width="64" height="64">
<path d="M64 0H0V64H64V0Z" fill="white"/>
</mask>
<g mask="url(#mask0_1_3403)">
<path d="M49 30.7335C49 29.7699 49.7818 28.9941 50.7455 28.9941C51.7091 28.9941 52.4848 29.776 52.4848 30.7335C52.4848 31.6911 51.7091 32.4729 50.7455 32.4729C49.7818 32.4729 49 31.6911 49 30.7335Z" fill="white"/>
<path d="M52.7762 33.1454C53.958 33.2545 54.8852 34.2485 54.8852 35.4606V40.2848C54.8852 40.6545 54.5822 40.9575 54.2125 40.9575C53.8428 40.9575 53.5337 40.6545 53.5337 40.2848V36.1394C53.5337 35.9818 53.4913 35.7757 53.2065 35.7757C53.0125 35.7757 52.9701 35.9818 52.964 36.1151V48.5454C52.964 49.0788 52.5337 49.5151 51.9943 49.5151C51.4549 49.5151 51.0246 49.0788 51.0246 48.5454V41.3818C51.0246 41.303 50.9943 41.0969 50.7519 41.0969C50.5034 41.0969 50.4731 41.303 50.4731 41.3818V48.5454C50.4731 49.0788 50.0428 49.5151 49.5034 49.5151C48.964 49.5151 48.5337 49.0788 48.5337 48.5454V36.1151C48.5277 35.9818 48.4852 35.7757 48.2913 35.7757C48.0065 35.7757 47.964 35.9878 47.964 36.1394V40.2848C47.964 40.6545 47.661 40.9575 47.2852 40.9575C46.9095 40.9575 46.6125 40.6545 46.6125 40.2848V35.4606C46.6125 34.2485 47.5398 33.2545 48.7216 33.1454C48.758 33.1454 48.8004 33.1333 48.8489 33.1333H52.6549C52.7034 33.1333 52.7458 33.1333 52.7883 33.1454" fill="white"/>
<path d="M38.6485 31.6485C38.6485 30.7394 37.9091 30 37 30C36.091 30 35.3516 30.7394 35.3516 31.6485C35.3516 32.5576 36.091 33.297 37 33.297C37.9091 33.297 38.6485 32.5576 38.6485 31.6485Z" fill="white"/>
<path d="M33.6726 35.3817L32.3029 39.8484C32.3029 39.8484 32.0605 40.6666 32.7514 40.8726C33.4423 41.0787 33.6545 40.2787 33.6545 40.2787L34.7575 36.5514C34.7575 36.5514 34.8181 36.2666 35.0302 36.3272C35.2484 36.3878 35.1635 36.6969 35.1635 36.6969L33.2423 43.6787H35.0302V48.6787C35.0302 49.1514 35.4181 49.5393 35.8908 49.5393C36.3636 49.5393 36.7514 49.1514 36.7514 48.6787V43.6787H37.2423V48.6787C37.2423 49.1514 37.6242 49.5393 38.1029 49.5393C38.5817 49.5393 38.9635 49.1514 38.9635 48.6787V43.6787H40.7514L38.8302 36.6969C38.8302 36.6969 38.7514 36.3878 38.9635 36.3272C39.1817 36.2666 39.2363 36.5514 39.2363 36.5514L40.3393 40.2787C40.3393 40.2787 40.5514 41.0787 41.2423 40.8726C41.9393 40.6666 41.6908 39.8484 41.6908 39.8484L40.3211 35.3817C40.3211 35.3817 39.8302 34.0908 38.7454 34.0908H35.2484C34.1635 34.0908 33.6726 35.3817 33.6726 35.3817Z" fill="white"/>
<path d="M28.7696 31.6485C28.7696 30.7394 28.0302 30 27.1211 30C26.2121 30 25.4727 30.7394 25.4727 31.6485C25.4727 32.5576 26.2121 33.297 27.1211 33.297C28.0302 33.297 28.7696 32.5576 28.7696 31.6485Z" fill="white"/>
<path d="M23.7947 35.3817L22.425 39.8484C22.425 39.8484 22.1826 40.6666 22.8735 40.8726C23.5644 41.0787 23.7765 40.2787 23.7765 40.2787L24.8796 36.5514C24.8796 36.5514 24.9402 36.2666 25.1523 36.3272C25.3705 36.3878 25.2856 36.6969 25.2856 36.6969L23.3644 43.6787H25.1523V48.6787C25.1523 49.1514 25.5402 49.5393 26.0129 49.5393C26.4856 49.5393 26.8735 49.1514 26.8735 48.6787V43.6787H27.3644V48.6787C27.3644 49.1514 27.7462 49.5393 28.225 49.5393C28.7038 49.5393 29.0856 49.1514 29.0856 48.6787V43.6787H30.8735L28.9523 36.6969C28.9523 36.6969 28.8735 36.3878 29.0856 36.3272C29.2977 36.2666 29.3583 36.5514 29.3583 36.5514L30.4614 40.2787C30.4614 40.2787 30.6735 41.0787 31.3644 40.8726C32.0614 40.6666 31.8129 39.8484 31.8129 39.8484L30.4432 35.3817C30.4432 35.3817 29.9523 34.0908 28.8674 34.0908H25.3705C24.2856 34.0908 23.7947 35.3817 23.7947 35.3817Z" fill="white"/>
<path d="M44.1822 40.8788C44.9398 40.8788 45.5519 40.2666 45.5519 39.503C45.5519 38.7394 44.9398 38.1333 44.1822 38.1333C43.4246 38.1333 42.8065 38.7454 42.8065 39.503C42.8065 40.2606 43.4186 40.8788 44.1822 40.8788Z" fill="white"/>
<path d="M40.8917 45.1393C40.8251 45.303 40.7705 45.6423 41.0917 45.7878C41.4675 45.9636 41.6796 45.5939 41.6796 45.5939L42.4251 43.212C42.4251 43.212 42.5584 43.0545 42.5584 43.212V48.812C42.5584 49.1999 42.8736 49.5151 43.2614 49.5151C43.6493 49.5151 43.9645 49.1999 43.9645 48.812V46.5999C43.9645 46.5999 43.922 46.2908 44.1766 46.2908C44.4311 46.2908 44.3887 46.5999 44.3887 46.5999V48.812C44.3887 49.1999 44.7039 49.5151 45.0917 49.5151C45.4796 49.5151 45.8008 49.1999 45.8008 48.812V43.212C45.8008 43.0484 45.8857 43.1636 45.8857 43.1636L46.4736 44.7939C46.4736 44.7939 46.7281 45.5211 46.8069 45.5514C47.0736 45.6605 47.3766 45.5393 47.4857 45.2666C47.5584 45.0908 47.5281 44.909 47.4311 44.7636C47.4129 44.703 46.5584 42.5999 46.4554 42.309C46.1463 41.406 45.5826 41.412 45.0372 41.3999C44.4917 41.3878 44.1705 41.3999 44.1705 41.3999C44.1705 41.3999 43.8251 41.3878 43.1099 41.406C42.3948 41.4302 42.1705 41.7939 41.3766 43.8242C41.2614 44.1151 40.8857 45.0605 40.8796 45.1211L40.8917 45.1393Z" fill="white"/>
<path d="M14.0368 30.7335C14.0368 29.7699 13.2549 28.9941 12.2913 28.9941C11.3277 28.9941 10.5519 29.776 10.5519 30.7335C10.5519 31.6911 11.3277 32.4729 12.2913 32.4729C13.2549 32.4729 14.0368 31.6911 14.0368 30.7335Z" fill="white"/>
<path d="M10.2614 33.1454C9.07962 33.2545 8.15234 34.2485 8.15234 35.4606V40.2848C8.15234 40.6545 8.45537 40.9575 8.83113 40.9575C9.20689 40.9575 9.50386 40.6545 9.50386 40.2848V36.1394C9.50386 35.9818 9.54628 35.7757 9.83113 35.7757C10.0251 35.7757 10.0675 35.9818 10.0736 36.1151V48.5454C10.0736 49.0788 10.5039 49.5151 11.0433 49.5151C11.5826 49.5151 12.0129 49.0788 12.0129 48.5454V41.3818C12.0129 41.303 12.0433 41.0969 12.2917 41.0969C12.5402 41.0969 12.5705 41.303 12.5705 41.3818V48.5454C12.5705 49.0788 13.0008 49.5151 13.5402 49.5151C14.0796 49.5151 14.5099 49.0788 14.5099 48.5454V36.1151C14.5099 35.9818 14.5584 35.7757 14.7523 35.7757C15.0372 35.7757 15.0796 35.9878 15.0796 36.1394V40.2848C15.0796 40.6545 15.3826 40.9575 15.7584 40.9575C16.1342 40.9575 16.4311 40.6545 16.4311 40.2848V35.4606C16.4311 34.2485 15.5039 33.2545 14.322 33.1454C14.2857 33.1454 14.2433 33.1333 14.1948 33.1333H10.3887C10.3402 33.1333 10.2978 33.1333 10.2554 33.1454" fill="white"/>
<path d="M8.74585 40.9878L7.19434 49.1878" stroke="white" stroke-width="1.22" stroke-miterlimit="10" stroke-linecap="round"/>
<path d="M17.2671 40.1575C17.1761 40.0181 17.0246 39.9211 16.8428 39.9211C16.564 39.9211 16.3398 40.1453 16.3398 40.4181C16.3398 40.4969 16.3883 40.6363 16.3883 40.6363L17.7701 43.1393C17.7701 43.1393 17.8549 43.309 17.8549 43.4666V48.8423C17.8549 49.2181 18.158 49.5211 18.5337 49.5211C18.9095 49.5211 19.2065 49.2181 19.2065 48.8423V46.7211C19.2065 46.7211 19.1701 46.4241 19.4125 46.4241C19.6549 46.4241 19.6186 46.7211 19.6186 46.7211V48.8423C19.6186 49.2181 19.9216 49.5211 20.2974 49.5211C20.6731 49.5211 20.9761 49.2181 20.9761 48.8423V43.4666C20.9761 43.309 21.061 43.1393 21.061 43.1393L22.3398 40.8241C22.3398 40.8241 22.4974 40.4908 22.4974 40.412C22.4974 40.1393 22.2731 39.915 21.9943 39.915C21.8125 39.915 21.6549 40.012 21.5701 40.1514H21.564C21.5216 40.1817 20.8852 41.3211 20.6731 41.5332C20.4489 41.7575 20.2489 41.7332 20.2489 41.7332H18.5883C18.5883 41.7332 18.3883 41.7575 18.164 41.5332C17.9519 41.3211 17.3095 40.1817 17.2731 40.1453L17.2671 40.1575Z" fill="white"/>
<path d="M19.4186 40.8788C20.1762 40.8788 20.7883 40.2666 20.7883 39.503C20.7883 38.7394 20.1762 38.1333 19.4186 38.1333C18.661 38.1333 18.0489 38.7454 18.0489 39.503C18.0489 40.2606 18.661 40.8788 19.4186 40.8788Z" fill="white"/>
<path d="M19.4188 42.8062L20.9704 43.9334L21.7097 46.6486H19.4188H17.1279L17.8673 43.9334L19.4188 42.8062Z" fill="white"/>
<path d="M9.33372 8.98796H9.35797V18.6971H11.4852V6.01221H9.78221L7.81857 8.31524V10.5395H7.83676L9.33372 8.98796Z" fill="white"/>
<path d="M19.3034 8.103V11.4363H18.5519V6.1333H19.4246L20.3883 9.17573V6.1333H21.1337V11.4363H20.3519L19.3034 8.103Z" fill="white"/>
<path d="M23.4428 10.2121V7.36366C23.4428 7.04245 23.3034 6.81215 22.9822 6.81215C22.661 6.81215 22.5277 7.03639 22.5277 7.36366V10.2121C22.5277 10.5334 22.6671 10.7576 22.9822 10.7576C23.2974 10.7576 23.4428 10.5334 23.4428 10.2121ZM21.6367 10.0667V7.50306C21.6367 6.67275 22.0428 6.07275 22.9822 6.07275C23.9216 6.07275 24.3337 6.67275 24.3337 7.50306V10.0667C24.3337 10.8849 23.9277 11.497 22.9822 11.497C22.0367 11.497 21.6367 10.8849 21.6367 10.0667Z" fill="white"/>
<path d="M19.4428 14.2912V16.3821H19.7701C20.0731 16.3821 20.2065 16.2367 20.2065 15.9458V14.7276C20.2065 14.4367 20.0731 14.2973 19.7701 14.2973H19.4428V14.2912ZM18.5519 13.564H19.8731C20.7701 13.564 21.1034 14.0064 21.1034 14.7518V15.867C21.1034 16.6125 20.7762 17.067 19.8731 17.067H19.4428V18.867H18.5519V13.564Z" fill="white"/>
<path d="M23.3705 17.6363V14.7878C23.3705 14.4666 23.2311 14.2363 22.9099 14.2363C22.5887 14.2363 22.4554 14.4666 22.4554 14.7878V17.6363C22.4554 17.9575 22.5948 18.1817 22.9099 18.1817C23.2251 18.1817 23.3705 17.9575 23.3705 17.6363ZM21.5645 17.4969V14.9332C21.5645 14.1029 21.9705 13.5029 22.9099 13.5029C23.8493 13.5029 24.2614 14.1029 24.2614 14.9332V17.4969C24.2614 18.3151 23.8554 18.9272 22.9099 18.9272C21.9645 18.9272 21.5645 18.3151 21.5645 17.4969Z" fill="white"/>
<path d="M27.4674 13.564L26.4553 18.867H25.4856L24.4795 13.564H25.3825L25.9946 17.2609H26.0007L26.631 13.564H27.4674Z" fill="white"/>
<path d="M27.8311 13.564H29.9583V14.2912H28.722V15.8064H29.6068V16.5276H28.722V18.1397H29.9583V18.867H27.8311V13.564Z" fill="white"/>
<path d="M31.3277 14.291V15.9394H31.6246C31.9277 15.9394 32.061 15.7819 32.061 15.5031V14.7213C32.061 14.4303 31.9277 14.291 31.6246 14.291H31.3277ZM31.3277 16.4303V18.8606H30.4368V13.5576H31.7337C32.6307 13.5576 32.964 14 32.964 14.7455V15.4243C32.964 15.994 32.758 16.3334 32.2549 16.4485L33.1095 18.8546H32.1701L31.3337 16.4243L31.3277 16.4303Z" fill="white"/>
<path d="M33.2666 13.564H35.6363V14.2912H34.903V18.867H33.9999V14.2912H33.2666V13.564Z" fill="white"/>
<path d="M37.7883 16.8488V18.867H36.8913V16.8488L35.9034 13.564H36.8307L37.3701 15.57H37.3762L37.9216 13.564H38.7701L37.7883 16.8488Z" fill="white"/>
</g>
</g>
<defs>
<clipPath id="clip0_1_3403">
<rect width="64" height="64" rx="5" fill="white"/>
</clipPath>
</defs>
</svg>
