<svg width="64" height="64" viewBox="0 0 64 64" fill="none" xmlns="http://www.w3.org/2000/svg">
<g clip-path="url(#clip0_1_3231)">
<path d="M0.0848485 0L0 63.9152L61.1697 64H63.9091L64 0.0848485L0.0848485 0Z" fill="#52763A"/>
<path d="M41.9756 42.2423C41.715 42.1696 40.6241 40.6605 41.4907 39.6726C41.6362 39.509 41.1998 39.0302 41.321 39.0181C41.7938 38.9817 42.0422 39.2726 42.1695 39.6969C42.1816 39.8848 42.1877 40.0666 42.1877 40.2605C42.1877 40.9393 42.115 41.5999 41.9816 42.2423M39.3089 47.1393C39.2119 47.109 39.115 47.0787 39.0059 47.0241C38.4786 46.7575 38.5392 47.1878 38.2786 47.0908C38.018 46.9938 38.5756 46.3878 37.7877 46.8969C37.0059 47.406 37.218 46.8181 36.8786 45.9514C36.5392 45.0847 37.2726 44.1029 37.8847 43.8787C38.7271 43.5757 39.2544 43.5151 39.6483 43.4181C40.8119 43.1272 41.0604 42.4363 41.2725 42.8605C41.315 42.9393 41.3513 43.012 41.3877 43.0847C41.4544 43.212 41.5332 43.4666 41.5392 43.7151C41.0422 45.012 40.2786 46.1757 39.3089 47.1393ZM32.4604 49.9514C31.5089 49.9514 30.5938 49.812 29.7332 49.5575C29.6059 49.4544 29.5392 49.2847 29.618 49.0848C29.921 48.3029 30.8119 47.9999 31.521 47.9272C33.0968 47.7757 35.1635 48.9514 35.4907 48.7635C35.818 48.5757 36.4847 47.709 37.4665 47.7454C38.1332 47.7696 38.1271 47.8848 38.3513 47.9696C36.715 49.212 34.6786 49.9514 32.4604 49.9514ZM31.1513 43.6241C31.018 43.8423 30.6483 45.4726 30.4059 45.2848C30.1574 45.0908 30.5089 43.3878 30.5816 43.2605C30.9635 42.5575 31.7938 42.5938 31.1574 43.6241M35.115 41.7029C34.921 41.8726 34.4301 41.812 34.1877 41.6181C33.9453 41.4302 34.3453 41.1151 34.4907 41.1029C34.818 41.0726 35.3089 41.5332 35.115 41.7029ZM39.3998 41.7211C39.2968 41.6787 39.2059 41.5817 39.121 41.3454C39.0422 41.109 39.2422 40.9696 39.4362 41.0666C39.6362 41.1696 39.8968 41.4666 39.8968 41.6241C39.8968 41.7817 39.5029 41.7635 39.3998 41.7211ZM39.8119 42.0241C40.1392 41.9999 40.6301 42.4544 40.4362 42.6241C40.2422 42.7938 39.7574 42.7332 39.5089 42.5393C39.2665 42.3454 39.6665 42.0363 39.8119 42.0241ZM29.3938 45.8787C29.2059 46.6181 28.9816 46.8908 28.7938 47.1211C28.6059 47.3575 27.9089 47.6605 27.4726 47.6241C27.0301 47.5878 26.9695 46.412 26.9695 45.806C26.9695 45.5999 26.6726 46.2181 26.521 44.9575C26.4241 44.1514 25.9029 45.0423 25.8665 44.5029C25.8301 43.9635 25.5695 44.0726 25.2968 43.7332C25.0241 43.3999 24.6907 43.7635 24.3089 43.9332C23.9332 44.0969 24.0847 44.1878 23.5513 44.0181C23.5392 44.0181 23.5332 44.012 23.515 44.006C23.0241 42.8423 22.7574 41.5635 22.7574 40.2241C22.7574 39.8969 22.7756 39.5757 22.8059 39.2544C22.8241 39.2241 22.8422 39.1938 22.8665 39.1635C23.3816 38.5575 23.3695 38.412 23.3695 38.412L23.9392 38.2181C23.9392 38.2181 24.8483 38.3575 25.5271 38.6181C26.0907 38.8302 26.9756 39.309 27.4907 39.0969C27.8604 38.9454 28.1574 38.7393 28.121 38.4302C28.0786 38.0423 27.7756 37.9454 27.3998 38.212C27.2604 38.309 26.9695 37.6241 26.7453 37.6605C26.515 37.6908 27.0301 38.4605 26.8362 38.4969C26.6422 38.5272 26.2544 37.6969 26.1877 37.5575C26.121 37.4181 25.818 37.0848 25.5513 37.3393C24.9756 37.8848 24.0483 37.8484 23.8604 37.9878C23.2907 38.412 23.1392 37.8484 23.1574 37.5029C23.1816 37.4241 23.1998 37.3454 23.2301 37.2666C23.418 37.0605 24.0847 36.9938 24.3089 37.1454C24.5574 37.3151 24.7392 37.1029 24.8362 36.9999C24.9392 36.8969 24.9029 36.7393 24.8362 36.606C24.7756 36.4726 24.9635 36.3757 25.0907 36.3393C25.2241 36.3029 25.6544 36.006 25.8301 35.9029C26.0059 35.7999 26.9029 35.6969 27.3029 35.9029C27.7029 36.109 28.0726 35.9393 28.2726 35.709C28.521 35.4181 28.8362 35.1938 28.9756 35.1211C29.115 35.0544 28.6301 34.5999 28.2301 35.0969C27.8301 35.5878 27.6241 35.6363 27.4362 35.6363C27.2483 35.6363 26.1271 35.3514 25.9877 34.9999C25.8544 34.6484 26.3392 34.3817 26.7513 34.1817C27.1635 33.9878 28.2968 33.9878 28.5877 33.9272C29.1756 33.7999 29.9271 33.5029 30.3089 33.7635C30.6847 34.0181 28.7271 34.4605 29.3695 34.812C29.5998 34.9393 30.6362 34.2181 30.9877 34.0363C31.8241 33.606 30.1816 33.4605 30.3938 32.5878C30.6362 31.5999 28.3756 31.9757 27.2483 32.0605C28.7574 31.0969 30.5513 30.5332 32.4786 30.5393C37.0604 30.5393 40.8907 33.7211 41.9089 37.9938C41.915 38.206 41.8847 38.3575 41.8604 38.4423C41.7695 38.7938 41.1089 39.0908 40.721 38.5272C40.6241 38.3878 40.2059 37.9938 40.218 38.6666C40.2301 39.3393 40.8726 39.406 40.2483 39.812C39.6241 40.2181 39.515 40.1151 39.2241 40.2181C38.9392 40.3211 38.6604 41.012 38.7271 41.3817C38.7938 41.7514 39.6786 42.7635 39.0241 42.7211C38.8725 42.709 37.7089 41.9151 37.521 41.406C37.321 40.8726 37.0968 40.3454 36.9453 39.9393C36.7877 39.5393 36.3816 39.4302 36.0301 39.6726C35.6847 39.909 36.1271 40.1454 35.8786 40.6484C35.6301 41.1514 35.4544 41.606 35.0907 41.1878C34.1453 40.1029 32.7695 40.6363 32.5513 39.4241C32.4362 38.7696 31.8726 38.8302 31.3998 38.4605C30.9271 38.0908 30.6604 37.8908 30.5816 38.1575C30.5089 38.3938 32.0665 39.6241 32.1756 39.9393C32.3392 40.406 31.7089 40.8241 31.2483 40.9332C30.7877 41.0423 30.5877 40.6726 30.1332 40.1999C29.6847 39.7272 29.4847 39.3938 29.4544 39.7635C29.4059 40.2969 29.8847 41.0847 30.3453 41.3757C30.7392 41.6241 31.1756 41.7393 31.0483 42.1454C30.921 42.5514 31.0483 42.3211 30.6059 42.7575C30.1635 43.1938 30.0786 43.3332 30.1089 43.9393C30.1392 44.5454 29.9816 44.5817 29.8847 45.0847C29.7877 45.5878 29.5695 45.1514 29.3816 45.8908M24.1938 35.1757C24.1938 35.1757 24.2362 35.1272 24.2422 35.1151C24.418 34.9151 24.7635 34.8726 25.0059 34.8363C25.2483 34.7938 25.5695 34.9151 25.6059 35.0787C25.6483 35.2363 24.9998 35.5332 24.8786 35.6423C24.5453 35.9514 24.018 36.5817 23.7089 36.6484C23.6059 36.6726 23.5271 36.6544 23.4544 36.6181C23.6604 36.1151 23.8968 35.6302 24.1816 35.1757M24.6907 34.1817C24.818 33.9999 25.2362 33.4726 25.2847 33.406C25.3938 33.2666 25.6059 33.2423 25.7574 33.212C25.9029 33.1817 26.1029 33.2666 26.1271 33.3757C26.1513 33.4847 26.0665 33.9211 25.9938 33.9938C25.7877 34.206 25.2544 34.5029 24.9635 34.4544C24.7392 34.4181 24.6483 34.2423 24.6907 34.1757M55.5513 39.9635C53.8968 37.6363 46.4119 28.3454 32.4726 28.3272C18.5332 28.309 11.0241 37.5817 9.36346 39.9029C9.29073 39.9999 9.23013 40.0908 9.18164 40.1635C9.23013 40.2363 9.29073 40.3272 9.36346 40.4241C11.0241 42.7514 18.5029 52.0423 32.4422 52.0605C46.3816 52.0787 53.8907 42.806 55.5513 40.4848C55.6241 40.3817 55.6847 40.2969 55.7332 40.2241C55.6847 40.1514 55.6241 40.0666 55.5513 39.9635Z" fill="white"/>
<path d="M8.52136 5.78809L8.50318 18.4669H6.36985L6.38197 8.75778H6.36378L4.86681 10.3093H4.84863V8.08506L6.81833 5.78809H8.52136Z" fill="white"/>
<path d="M15.546 8.55167V9.6547C15.546 10.7214 14.9642 11.4305 14.0854 11.7092C15.1521 11.9517 15.6551 12.7032 15.6551 13.8608V15.7335C15.6551 17.4911 14.7157 18.6305 12.5642 18.6244C10.3945 18.6244 9.63086 17.388 9.63086 15.4608V13.7941H11.5763V15.6062C11.5763 16.3517 11.8309 16.8426 12.5642 16.8426C13.2187 16.8426 13.5157 16.3759 13.5157 15.7032V13.6062C13.5157 12.9335 13.2187 12.5759 12.4733 12.5759H11.5763V10.9456H12.3824C13.0733 10.9456 13.5218 10.5941 13.5218 9.92137V8.55773C13.5218 7.86682 13.2854 7.41834 12.6066 7.41834C11.9339 7.41834 11.6915 7.86682 11.6915 8.64864V9.93955H9.74601V8.81834C9.74601 6.95167 10.5157 5.64258 12.7278 5.64258C14.6915 5.64258 15.5521 6.75167 15.546 8.54561" fill="white"/>
<path d="M19.9824 9.68535V7.12171C19.9824 6.29141 20.3764 5.69141 21.3158 5.69141C22.3036 5.69141 22.5764 6.24292 22.5764 7.02474V7.64898H21.7582V6.95201C21.7582 6.62474 21.6491 6.43686 21.3279 6.43686C21.0067 6.43686 20.8733 6.6611 20.8733 6.98232V9.8308C20.8733 10.152 21.0006 10.3823 21.3218 10.3823C21.643 10.3823 21.7521 10.1823 21.7521 9.86716V8.89141H22.5703V9.80656C22.5703 10.5641 22.2551 11.1278 21.3097 11.1278C20.3703 11.1278 19.9824 10.5156 19.9824 9.69747" fill="white"/>
<path d="M23.0607 5.75195L23.9517 5.75801L23.9456 10.3277L25.0123 10.3338L25.0062 11.061L23.0547 11.055L23.0607 5.75195Z" fill="white"/>
<path d="M25.4204 5.7585L25.4121 11.0615L26.303 11.0629L26.3113 5.7599L25.4204 5.7585Z" fill="white"/>
<path d="M29.279 7.62448H29.2608L28.6487 11.0669L28.2365 11.0608L27.5759 7.61842H27.5578V11.0608H26.8184L26.8305 5.75781H27.8668L28.4426 8.74569H28.4487L28.9699 5.76387H30.0971L30.0911 11.0669H29.279V7.62448Z" fill="white"/>
<path d="M31.5763 9.38791H32.2854L31.9339 7.26064H31.9278L31.5702 9.38791H31.5763ZM30.4551 11.0667L31.4611 5.76367H32.4793L33.4793 11.0667H32.5642L32.4005 10.097H31.4551L31.2975 11.0667H30.4551Z" fill="white"/>
<path d="M33.3643 5.76953H35.734V6.4968H35.0006L34.9946 11.0726H34.0915L34.0976 6.4968H33.3643V5.76953Z" fill="white"/>
<path d="M36.1457 5.76953L38.273 5.77559V6.50286L37.0366 6.4968V8.01802H37.9215V8.73923H37.0366V10.3453L38.2669 10.3513V11.0786L36.1396 11.0726L36.1457 5.76953Z" fill="white"/>
<path d="M20.9513 16.8H21.6604L21.3089 14.6728H21.3028L20.9452 16.8H20.9513ZM19.8301 18.4788L20.8361 13.1758H21.8543L22.8543 18.4788H21.9392L21.7755 17.5091H20.8301L20.6725 18.4788H19.8301Z" fill="white"/>
<path d="M23.1094 17.115V14.5514C23.1094 13.7211 23.5033 13.1211 24.4427 13.1211C25.4306 13.1211 25.7033 13.6726 25.7033 14.4544V15.0787H24.8851V14.3817C24.8851 14.0544 24.776 13.8665 24.4548 13.8665C24.1336 13.8665 24.0003 14.0908 24.0003 14.412V17.2605C24.0003 17.5817 24.1276 17.812 24.4488 17.812C24.77 17.812 24.8791 17.612 24.8791 17.2969V16.3211H25.6973V17.2362C25.6973 17.9938 25.3821 18.5575 24.4366 18.5575C23.4973 18.5575 23.1094 17.9453 23.1094 17.1272" fill="white"/>
<path d="M26.0059 13.188H28.3756V13.9153H27.6362L27.6301 18.491H26.7331L26.7392 13.9153H26.0059V13.188Z" fill="white"/>
<path d="M28.7896 13.1882L28.7812 18.4912L29.6722 18.4926L29.6805 13.1896L28.7896 13.1882Z" fill="white"/>
<path d="M32.0006 17.2671V14.4186C32.0006 14.0974 31.8673 13.8732 31.5461 13.8732C31.2309 13.8732 31.0915 14.0974 31.0915 14.4186V17.2671C31.0915 17.5883 31.2248 17.8186 31.54 17.8186C31.8551 17.8186 32.0006 17.5944 32.0006 17.2732M30.1885 17.1277V14.5641C30.1885 13.7338 30.6006 13.1338 31.54 13.1338C32.4854 13.1338 32.8915 13.7399 32.8915 14.5702V17.1338C32.8915 17.952 32.4794 18.5641 31.5339 18.5641C30.5945 18.5641 30.1885 17.952 30.1885 17.1338" fill="white"/>
<path d="M34.1521 15.1701L34.146 18.4974H33.3945L33.4006 13.1943H34.2794L35.237 16.2428L35.243 13.2004H35.9824L35.9764 18.5034H35.1945L34.1521 15.1701Z" fill="white"/>
</g>
<defs>
<clipPath id="clip0_1_3231">
<rect width="64" height="64" rx="5" fill="white"/>
</clipPath>
</defs>
</svg>
