<svg width="65" height="65" viewBox="0 0 65 65" fill="none" xmlns="http://www.w3.org/2000/svg">
<path d="M60 0H5C2.23858 0 0 2.23858 0 5V60C0 62.7614 2.23858 65 5 65H60C62.7614 65 65 62.7614 65 60V5C65 2.23858 62.7614 0 60 0Z" fill="#C1A52F"/>
<path d="M26.0364 54.8443V55.7429C26.0364 55.7429 26.0364 55.7552 26.0364 55.7614C26.0364 55.7675 26.0364 55.7737 26.0364 55.7799C26.0487 56.0015 26.2272 56.18 26.4488 56.1861C26.4488 56.1861 26.4488 56.1861 26.4549 56.1861C26.4611 56.1861 26.4611 56.1861 26.4672 56.1861H37.0051C37.0051 56.1861 37.0051 56.1861 37.0113 56.1861C37.0113 56.1861 37.0174 56.1861 37.0236 56.1861C37.2513 56.1861 37.436 55.9953 37.4421 55.7614V54.7458C43.3759 52.8007 47.82 47.9934 48.7987 42.1336C48.7987 42.1212 48.7987 42.1089 48.7987 42.0966C48.7987 42.0782 48.7987 42.0597 48.7987 42.0351C48.7987 41.8012 48.6079 41.6104 48.374 41.6104H14.7968C14.5567 41.6104 14.3721 41.8012 14.3721 42.0351L14.3967 42.2259C15.4246 48.1411 19.9919 52.9792 26.0425 54.8443" fill="white"/>
<path d="M37.4361 27.2742C37.3006 27.4712 34.0506 32.1431 37.5099 35.9224C39.0918 37.6582 38.9564 39.1847 38.5071 40.2188H40.723C41.1723 38.6923 40.9877 36.778 39.1842 34.8145C36.6359 32.0323 39.2149 28.2652 39.258 28.2098C39.5596 27.779 39.3996 27.225 38.901 26.9665C38.3963 26.7079 37.7438 26.8495 37.4422 27.2742" fill="white"/>
<path d="M31.823 40.219H34.0389C34.4882 38.6925 34.2974 36.7782 32.5001 34.8147C29.9518 32.0325 32.5308 28.2716 32.5739 28.21C32.8755 27.7853 32.7155 27.2313 32.2108 26.9728C31.7122 26.7143 31.0597 26.8558 30.7519 27.2806C30.6104 27.4775 27.3665 32.1494 30.8258 35.9288C32.4077 37.6646 32.2723 39.1911 31.823 40.2252" fill="white"/>
<path d="M24.0674 27.2744C23.9258 27.4713 20.682 32.1432 24.1412 35.9226C25.7293 37.6584 25.5877 39.1849 25.1384 40.219H27.3543C27.8036 38.6924 27.619 36.7782 25.8155 34.8146C23.2672 32.0324 25.8463 28.2654 25.8893 28.21C26.191 27.7791 26.0309 27.2313 25.5262 26.9728C25.0276 26.7142 24.3751 26.8496 24.0674 27.2805" fill="white"/>
<path d="M12.8213 17.0257H9.26965V16.4164C9.26965 15.4069 9.63281 15.0314 10.1806 14.4405L11.5656 12.9755C12.6858 11.7814 12.9321 11.0182 12.9321 9.72554V8.46986C12.9321 6.62942 12.0395 5.75537 10.1006 5.75537C8.1617 5.75537 7.23224 6.76484 7.23224 8.56834V10.1256H9.2081V8.51295C9.2081 7.73122 9.58973 7.50348 10.0452 7.50348C10.4638 7.50348 10.8269 7.67583 10.8269 8.46986V9.53473C10.8269 10.5996 10.7346 11.0182 10.0268 11.7568L8.808 13.0494C7.63234 14.3051 7.19531 15.1422 7.19531 16.4102V18.7861H12.8213V17.0196V17.0257Z" fill="white"/>
<path d="M19.9983 10.7044H21.371V11.443H19.0566V10.7044L20.4723 6.79577H19.1982V6.05713H21.4264V6.79577L19.9983 10.7044Z" fill="white"/>
<path d="M21.9065 6.05713H24.067V6.79577H22.8113V8.33459H23.71V9.06707H22.8113V10.7044H24.067V11.443H21.9065V6.05713Z" fill="white"/>
<path d="M25.4519 6.79557V8.46982H25.7536C26.0613 8.46982 26.1967 8.30978 26.1967 8.02663V7.2326C26.1967 6.93714 26.0613 6.79557 25.7536 6.79557H25.4519ZM25.4519 8.96839V11.4367H24.5471V6.05078H25.8644C26.7753 6.05078 27.1139 6.50012 27.1139 7.25722V7.94661C27.1139 8.52521 26.9046 8.86991 26.3937 8.98686L27.2616 11.4305H26.3075L25.4581 8.96224L25.4519 8.96839Z" fill="white"/>
<path d="M29.4406 10.1935V7.30053C29.4406 6.9743 29.299 6.7404 28.9728 6.7404C28.6465 6.7404 28.5111 6.96814 28.5111 7.30053V10.1935C28.5111 10.5198 28.6527 10.7475 28.9728 10.7475C29.2928 10.7475 29.4406 10.5198 29.4406 10.1935ZM27.6063 10.052V7.44826C27.6063 6.60498 28.0187 5.99561 28.9728 5.99561C29.9268 5.99561 30.3454 6.60498 30.3454 7.44826V10.052C30.3454 10.8829 29.933 11.5046 28.9728 11.5046C28.0125 11.5046 27.6063 10.8829 27.6063 10.052Z" fill="white"/>
<path d="M20.897 16.6071H20.023V18.9831H19.1181V13.5972H20.023V15.8808H20.897V13.5972H21.808V18.9831H20.897V16.6071Z" fill="white"/>
<path d="M24.9534 13.5972V17.672C24.9534 18.5029 24.5963 19.0446 23.6731 19.0446C22.7498 19.0446 22.325 18.5029 22.325 17.672V13.5972H23.2299V17.7582C23.2299 18.0782 23.3591 18.2875 23.6731 18.2875C23.987 18.2875 24.1162 18.0721 24.1162 17.7582V13.5972H24.9472H24.9534Z" fill="white"/>
<path d="M26.234 15.6038V18.9831H25.4707V13.5972H26.3571L27.3358 16.6871V13.5972H28.0929V18.9831H27.2988L26.234 15.6038Z" fill="white"/>
<path d="M29.9703 16.1088H31.2567V18.9833H30.6043V18.3985C30.4873 18.8048 30.2288 19.051 29.7364 19.051C28.9547 19.051 28.5977 18.4293 28.5977 17.5983V14.9946C28.5977 14.1514 29.0039 13.542 29.958 13.542C30.9613 13.542 31.2567 14.096 31.2567 14.89V15.364H30.4319V14.8161C30.4319 14.4838 30.3027 14.2929 29.9826 14.2929C29.6625 14.2929 29.5148 14.5207 29.5148 14.8469V17.7399C29.5148 18.0661 29.6502 18.2939 29.958 18.2939C30.2534 18.2939 30.4012 18.1277 30.4012 17.7768V16.8228H29.9703V16.1088Z" fill="white"/>
<path d="M31.7734 13.5972H33.934V14.3358H32.6783V15.8808H33.5769V16.6071H32.6783V18.2444H33.934V18.9831H31.7734V13.5972Z" fill="white"/>
<path d="M35.3248 14.3358V16.01H35.6264C35.9341 16.01 36.0695 15.85 36.0695 15.5669V14.7728C36.0695 14.4774 35.9341 14.3358 35.6264 14.3358H35.3248ZM35.3248 16.5148V18.9831H34.4199V13.5972H35.7372C36.6481 13.5972 36.9867 14.0465 36.9867 14.8036V15.493C36.9867 16.0716 36.7774 16.4163 36.2665 16.5332L37.1344 18.9769H36.1803L35.3309 16.5086L35.3248 16.5148Z" fill="white"/>
</svg>
