<svg width="64" height="64" viewBox="0 0 64 64" fill="none" xmlns="http://www.w3.org/2000/svg">
<g clip-path="url(#clip0_1_3433)">
<path d="M64 0H0V64H64V0Z" fill="#539643"/>
<mask id="mask0_1_3433" style="mask-type:luminance" maskUnits="userSpaceOnUse" x="0" y="0" width="64" height="64">
<path d="M64 0H0V64H64V0Z" fill="white"/>
</mask>
<g mask="url(#mask0_1_3433)">
<path d="M53.1266 39.8608C53.1266 38.0911 51.9933 36.6548 50.2721 36.6548C49.4114 36.6548 48.3751 37.6002 47.8114 38.176C47.2478 37.5942 46.2781 36.6548 45.4175 36.6548C43.6963 36.6548 42.4902 38.0911 42.4902 39.8608C42.4902 40.7457 42.8357 41.5457 43.4054 42.1275L47.8175 46.5457L52.2236 42.1336C52.7872 41.5518 53.1387 40.7457 53.1387 39.8608" fill="white"/>
<path d="M34.3512 53.7576C34.3512 53.7576 34.3209 53.7576 34.3087 53.7576C33.9754 53.7394 33.6966 53.4909 33.6421 53.1576L31.3996 40.1091L28.0057 46.4C27.8603 46.6727 27.5451 46.8242 27.2421 46.7697C26.933 46.7151 26.6966 46.4667 26.6542 46.1576L25.2118 36.0909L22.5754 42.0121C22.4603 42.2727 22.1996 42.4424 21.9148 42.4424H11.6724C11.2724 42.4424 10.9451 42.1151 10.9451 41.7151C10.9451 41.3151 11.2724 40.9939 11.6724 40.9939H21.4481L24.9148 33.206C25.0481 32.9091 25.3572 32.7394 25.6784 32.7818C25.9996 32.8242 26.2481 33.0788 26.2966 33.3939L27.7815 43.7757L31.1269 37.5697C31.2724 37.297 31.5754 37.1454 31.8845 37.2C32.1875 37.2485 32.4299 37.4848 32.4784 37.7939L34.5512 49.8788L42.1148 24.7636C42.1996 24.4788 42.4542 24.2727 42.7512 24.2485C43.0481 24.2242 43.333 24.3879 43.4603 24.6545L47.436 32.903C47.6118 33.2606 47.4603 33.6969 47.0966 33.8666C46.739 34.0424 46.3027 33.8909 46.133 33.5273L42.9633 26.9576L35.0542 53.2363C34.9633 53.5454 34.6784 53.7515 34.3633 53.7515" fill="white"/>
<path d="M10.0906 18.6727C12.2421 18.6727 13.1754 17.5333 13.1754 15.7758V13.903C13.1754 12.7455 12.6724 11.9939 11.6057 11.7515C12.4845 11.4727 13.0663 10.7576 13.0663 9.69092V8.58789C13.0663 6.79395 12.2057 5.69092 10.2421 5.69092C8.03601 5.69092 7.26632 7.00001 7.26632 8.87274V9.99395H9.21177V8.70304C9.21177 7.91516 9.4542 7.47274 10.133 7.47274C10.8118 7.47274 11.0481 7.92122 11.0481 8.61213V9.97577C11.0481 10.6485 10.5997 11.0061 9.90874 11.0061H9.10268V12.6364H9.99965C10.7451 12.6364 11.0481 12.9939 11.0481 13.6667V15.7636C11.0481 16.4364 10.7512 16.903 10.0966 16.903C9.36935 16.903 9.10268 16.4121 9.10268 15.6667V13.8546H7.15723V15.5212C7.15723 17.4485 7.92086 18.6849 10.0966 18.6849" fill="white"/>
<path d="M20.5507 8.43645H21.8174V11.2668H21.175V10.691C21.0598 11.091 20.8053 11.3334 20.3204 11.3334C19.5568 11.3334 19.1992 10.7213 19.1992 9.90312V7.33948C19.1992 6.50918 19.5992 5.90918 20.5386 5.90918C21.5265 5.90918 21.8174 6.45463 21.8174 7.23645V7.70312H21.0053V7.16373C21.0053 6.83645 20.878 6.64857 20.5629 6.64857C20.2477 6.64857 20.1022 6.87282 20.1022 7.19403V10.0425C20.1022 10.3637 20.2356 10.588 20.5386 10.588C20.8295 10.588 20.975 10.4243 20.975 10.0789V9.13948H20.5507V8.43645Z" fill="white"/>
<path d="M24.133 10.0362V7.18768C24.133 6.86647 23.9936 6.63617 23.6724 6.63617C23.3512 6.63617 23.2178 6.86041 23.2178 7.18768V10.0362C23.2178 10.3574 23.3572 10.5816 23.6724 10.5816C23.9875 10.5816 24.133 10.3574 24.133 10.0362ZM22.3269 9.89677V7.33314C22.3269 6.50283 22.733 5.90283 23.6724 5.90283C24.6118 5.90283 25.0239 6.50283 25.0239 7.33314V9.89677C25.0239 10.715 24.6178 11.3271 23.6724 11.3271C22.7269 11.3271 22.3269 10.715 22.3269 9.89677Z" fill="white"/>
<path d="M27.339 10.0362V7.18768C27.339 6.86647 27.1997 6.63617 26.8784 6.63617C26.5572 6.63617 26.4239 6.86041 26.4239 7.18768V10.0362C26.4239 10.3574 26.5633 10.5816 26.8784 10.5816C27.1936 10.5816 27.339 10.3574 27.339 10.0362ZM25.533 9.89677V7.33314C25.533 6.50283 25.939 5.90283 26.8784 5.90283C27.8178 5.90283 28.23 6.50283 28.23 7.33314V9.89677C28.23 10.715 27.8239 11.3271 26.8784 11.3271C25.933 11.3271 25.533 10.715 25.533 9.89677Z" fill="white"/>
<path d="M30.0057 10.5396C30.3754 10.5396 30.5148 10.3214 30.5148 10.0002V7.22447C30.5148 6.90932 30.3754 6.69114 30.0057 6.69114H29.63V10.5396H30.0057ZM31.4057 7.38811V9.84265C31.4057 10.6548 31.0663 11.2669 30.1148 11.2669H28.739V5.96387H30.1148C31.0663 5.96387 31.4057 6.56993 31.4057 7.38811Z" fill="white"/>
<path d="M34.4906 8.9275H33.63V11.2669H32.739V5.96387H33.63V8.20629H34.4906V5.96387H35.3875V11.2669H34.4906V8.9275Z" fill="white"/>
<path d="M35.8966 5.96387H38.0239V6.69114H36.7875V8.20629H37.6724V8.9275H36.7875V10.5396H38.0239V11.2669H35.8966V5.96387Z" fill="white"/>
<path d="M39.4724 9.58811H40.1815L39.83 7.46084H39.8239L39.4724 9.58811ZM38.3572 11.2669L39.3572 5.96387H40.3754L41.3815 11.2669H40.4663L40.3027 10.2972H39.3572L39.1997 11.2669H38.3572Z" fill="white"/>
<path d="M41.7512 5.96387H42.6421V10.5396H43.7027V11.2669H41.7512V5.96387Z" fill="white"/>
<path d="M43.5029 5.96387H45.8726V6.69114H45.1393V11.2669H44.2363V6.69114H43.5029V5.96387Z" fill="white"/>
<path d="M48.0357 8.9275H47.1751V11.2669H46.2842V5.96387H47.1751V8.20629H48.0357V5.96387H48.9387V11.2669H48.0357V8.9275Z" fill="white"/>
<path d="M20.1875 17.0122H20.8966L20.5451 14.885H20.539L20.1875 17.0122ZM19.0663 18.6971L20.0663 13.394H21.0845L22.0906 18.6971H21.1754L21.0118 17.7274H20.0663L19.9087 18.6971H19.0663Z" fill="white"/>
<path d="M23.2115 15.3637V18.691H22.46V13.394H23.3387L24.3024 16.4365V13.394H25.0418V18.691H24.26L23.2115 15.3637Z" fill="white"/>
<path d="M26.8174 17.9695C27.1871 17.9695 27.3265 17.7513 27.3265 17.4301V14.6544C27.3265 14.3392 27.1871 14.121 26.8174 14.121H26.4417V17.9695H26.8174ZM28.2174 14.8119V17.2665C28.2174 18.0786 27.8781 18.6907 26.9265 18.6907H25.5508V13.3877H26.9265C27.8781 13.3877 28.2174 13.9938 28.2174 14.8119Z" fill="white"/>
<path d="M31.4724 15.4183L30.9694 18.6971H30.133L29.4178 13.394H30.2785L30.6966 16.7577H30.7027L31.1512 13.394H31.8785L32.3694 16.7577H32.3754L32.7815 13.394H33.533L32.8481 18.6971H31.9997L31.4785 15.4183H31.4724Z" fill="white"/>
<path d="M33.9148 13.394H36.0421V14.1213H34.8057V15.6365H35.6906V16.3577H34.8057V17.9637H36.0421V18.691H33.9148V13.394Z" fill="white"/>
<path d="M36.5205 13.394H37.4114V17.9637H38.472V18.691H36.5205V13.394Z" fill="white"/>
<path d="M38.8789 13.394H39.7759V17.9637H40.8365V18.691H38.8789V13.394Z" fill="white"/>
<path d="M41.9633 15.8726H40.7148V16.5938H41.9633V15.8726Z" fill="white"/>
<path d="M43.3148 16.3092V17.9698H43.7027C43.9996 17.9698 44.139 17.8243 44.139 17.5395V16.7395C44.139 16.4546 44.0057 16.3092 43.6906 16.3092H43.3087H43.3148ZM43.3148 15.6304H43.6239C43.9148 15.6304 44.0481 15.485 44.0481 15.2001V14.5516C44.0481 14.2607 43.9148 14.1213 43.6178 14.1213H43.3148V15.6304ZM42.4239 13.394H43.7148C44.6057 13.394 44.9027 13.8122 44.9027 14.5577V15.0971C44.9027 15.5456 44.739 15.8243 44.3693 15.9456C44.8118 16.0486 45.036 16.3456 45.036 16.8304V17.5334C45.036 18.285 44.7027 18.6971 43.8057 18.6971H42.4239V13.394Z" fill="white"/>
<path d="M45.4785 13.394H47.6057V14.1213H46.3694V15.6365H47.2542V16.3577H46.3694V17.9637H47.6057V18.691H45.4785V13.394Z" fill="white"/>
<path d="M48.9759 13.394H48.085V18.6971H48.9759V13.394Z" fill="white"/>
<path d="M50.2417 15.3637V18.691H49.4902V13.394H50.369L51.3266 16.4365V13.394H52.072V18.691H51.2902L50.2417 15.3637Z" fill="white"/>
<path d="M53.9269 15.8608H55.1936V18.6911H54.5512V18.1153C54.436 18.5153 54.1815 18.7577 53.6966 18.7577C52.9269 18.7577 52.5754 18.1456 52.5754 17.3274V14.7638C52.5754 13.9335 52.9754 13.3335 53.9148 13.3335C54.9027 13.3335 55.1936 13.879 55.1936 14.6608V15.1274H54.3815V14.588C54.3815 14.2608 54.2542 14.0729 53.939 14.0729C53.6239 14.0729 53.4784 14.2971 53.4784 14.6183V17.4668C53.4784 17.788 53.6118 18.0123 53.9148 18.0123C54.2057 18.0123 54.3512 17.8486 54.3512 17.5032V16.5638H53.9269V15.8608Z" fill="white"/>
</g>
</g>
<defs>
<clipPath id="clip0_1_3433">
<rect width="64" height="64" rx="5" fill="white"/>
</clipPath>
</defs>
</svg>
