<svg width="64" height="64" viewBox="0 0 64 64" fill="none" xmlns="http://www.w3.org/2000/svg">
<g clip-path="url(#clip0_1_3375)">
<path d="M64 0H0V64H64V0Z" fill="#9F1C35"/>
<path d="M28.4421 34.2788L17.1572 27.7637V48.8364L28.4421 52.2425V34.2788Z" fill="white"/>
<path d="M29.6788 34.3212V52.2485L41.0364 48.8364V27.7637L29.6788 34.3212Z" fill="white"/>
<path d="M47.5579 48.4668H47.2246L48.5579 53.1335L49.8913 48.4668H49.564H49.8913V29.7153H49.564H49.2307H48.8792H48.2125H47.8852H47.5579H47.2246V48.4668H47.5579Z" fill="white"/>
<path d="M43.4603 28.6666L42.2481 27.709V49.412L29.7148 53.4605H29.133H29.0178H28.4421L15.9572 49.9757V27.709L14.7451 28.6666V50.8241L28.3815 54.5999H29.0178H29.133H29.7694L42.3512 50.606L43.4603 50.2787V28.6666Z" fill="white"/>
<mask id="mask0_1_3375" style="mask-type:luminance" maskUnits="userSpaceOnUse" x="0" y="0" width="64" height="64">
<path d="M64 0H0V64H64V0Z" fill="white"/>
</mask>
<g mask="url(#mask0_1_3375)">
<path d="M49.8973 27.2303C49.8973 26.4909 49.2973 25.897 48.564 25.897C47.8306 25.897 47.2307 26.4909 47.2307 27.2303V28.6667H49.9034V27.2303H49.8973Z" fill="white"/>
<path d="M8.50945 14.7756L10.4185 9.55747H10.4367V14.7756H8.50945ZM10.4004 18.5029H12.4185V16.4423H13.2791V14.7756H12.4185V5.81201H10.3216L6.63672 15.1272V16.4363H10.4004V18.4969V18.5029Z" fill="white"/>
<path d="M20.8852 10.0847V7.19374C20.8852 6.87253 20.7458 6.64829 20.4246 6.64829C20.1034 6.64829 19.97 6.87253 19.97 7.19374V10.0847C19.97 10.3998 20.1094 10.6301 20.4246 10.6301C20.7397 10.6301 20.8852 10.3937 20.8852 10.0847ZM20.0973 11.624V11.2665C19.3882 11.1392 19.0791 10.618 19.0791 9.89677V7.33314C19.0791 6.50283 19.4852 5.90283 20.4246 5.90283C21.364 5.90283 21.7761 6.50889 21.7761 7.33314V9.89677C21.7761 10.4725 21.57 10.9271 21.1216 11.1453L21.7761 11.2725V11.9392L20.0973 11.624Z" fill="white"/>
<path d="M24.8731 5.96338V9.9755C24.8731 10.7937 24.5216 11.327 23.6125 11.327C22.7034 11.327 22.2852 10.7937 22.2852 9.9755V5.96338H23.1761V10.0603C23.1761 10.3755 23.3034 10.5816 23.6125 10.5816C23.9216 10.5816 24.0489 10.3694 24.0489 10.0603V5.96338H24.867H24.8731Z" fill="white"/>
<path d="M26.2423 9.58156H26.9514L26.5999 7.45429H26.5938L26.2423 9.58156ZM25.1211 11.2664L26.1211 5.96338H27.1393L28.1453 11.2664H27.2302L27.0665 10.2967H26.1211L25.9635 11.2664H25.1211Z" fill="white"/>
<path d="M28.5155 5.96338H29.4064V10.5391H30.4731V11.2664H28.5155V5.96338Z" fill="white"/>
<path d="M31.7701 5.96338H30.8792V11.2664H31.7701V5.96338Z" fill="white"/>
<path d="M32.1826 5.96338H34.5523V6.69065H33.819V11.2664H32.916V6.69065H32.1826V5.96338Z" fill="white"/>
<path d="M36.7034 9.24823V11.2664H35.8125V9.24823L34.8185 5.96338H35.7519L36.2852 7.9755H36.2973L36.8367 5.96338H37.6913L36.7034 9.24823Z" fill="white"/>
<path d="M19.0791 13.3877H21.2064V14.115H19.97V15.6362H20.8549V16.3513H19.97V17.9635H21.2064V18.6907H19.0791V13.3877Z" fill="white"/>
<path d="M22.9522 17.9635C23.3219 17.9635 23.4613 17.7453 23.4613 17.4241V14.6483C23.4613 14.3331 23.3219 14.115 22.9522 14.115H22.5765V17.9635H22.9522ZM24.3522 14.8119V17.2665C24.3522 18.0786 24.0128 18.6907 23.0613 18.6907H21.6855V13.3877H23.0613C24.0128 13.3877 24.3522 13.9938 24.3522 14.8119Z" fill="white"/>
<path d="M27.4424 13.3877V17.3998C27.4424 18.218 27.0909 18.7513 26.1818 18.7513C25.2727 18.7513 24.8545 18.218 24.8545 17.3998V13.3877H25.7454V17.4847C25.7454 17.7998 25.8727 18.0059 26.1818 18.0059C26.4909 18.0059 26.6181 17.7938 26.6181 17.4847V13.3877H27.4363H27.4424Z" fill="white"/>
<path d="M27.9521 17.3211V14.7575C27.9521 13.9271 28.34 13.3271 29.2794 13.3271C30.2673 13.3271 30.54 13.8726 30.54 14.6544V15.2787H29.7279V14.5817C29.7279 14.2544 29.6188 14.0665 29.2976 14.0665C28.9764 14.0665 28.8431 14.2908 28.8431 14.6181V17.4665C28.8431 17.7878 28.9764 18.012 29.2976 18.012C29.6188 18.012 29.7279 17.8059 29.7279 17.4968V16.5211H30.54V17.4362C30.54 18.1938 30.2249 18.7575 29.2794 18.7575C28.334 18.7575 27.9521 18.1453 27.9521 17.3271" fill="white"/>
<path d="M31.9276 17.0119H32.6367L32.2852 14.8847H32.2792L31.9276 17.0119ZM30.8064 18.6907L31.8064 13.3877H32.8246L33.8307 18.6907H32.9155L32.7519 17.721H31.8064L31.6489 18.6907H30.8064Z" fill="white"/>
<path d="M33.709 13.3877H36.0787V14.115H35.3393V18.6907H34.4423V14.115H33.709V13.3877Z" fill="white"/>
<path d="M37.3822 13.3877H36.4913V18.6907H37.3822V13.3877Z" fill="white"/>
<path d="M39.7034 17.4665V14.6181C39.7034 14.2968 39.564 14.0665 39.2428 14.0665C38.9216 14.0665 38.7882 14.2908 38.7882 14.6181V17.4665C38.7882 17.7878 38.9276 18.012 39.2428 18.012C39.5579 18.012 39.7034 17.7878 39.7034 17.4665ZM37.8973 17.3211V14.7575C37.8973 13.9271 38.3034 13.3271 39.2428 13.3271C40.1822 13.3271 40.5943 13.9271 40.5943 14.7575V17.3211C40.5943 18.1393 40.1882 18.7514 39.2428 18.7514C38.2973 18.7514 37.8973 18.1393 37.8973 17.3211Z" fill="white"/>
<path d="M41.8549 15.3635V18.6907H41.1034V13.3877H41.9822L42.9458 16.4301V13.3877H43.6852V18.6907H42.9034L41.8549 15.3635Z" fill="white"/>
</g>
</g>
<defs>
<clipPath id="clip0_1_3375">
<rect width="64" height="64" rx="5" fill="white"/>
</clipPath>
</defs>
</svg>
