<svg width="64" height="64" viewBox="0 0 64 64" fill="none" xmlns="http://www.w3.org/2000/svg">
<g clip-path="url(#clip0_1_3321)">
<path d="M64 0H0V64H64V0Z" fill="#C43C2E"/>
<mask id="mask0_1_3321" style="mask-type:luminance" maskUnits="userSpaceOnUse" x="0" y="0" width="64" height="64">
<path d="M64 0H0V64H64V0Z" fill="white"/>
</mask>
<g mask="url(#mask0_1_3321)">
<path d="M31.8936 46.194C27.7357 46.194 24.3535 42.8122 24.3535 38.6546C24.3535 34.497 27.7357 31.1152 31.8936 31.1152C36.0516 31.1152 39.4338 34.497 39.4338 38.6546C39.4338 42.8122 36.0516 46.194 31.8936 46.194ZM46.3677 24.3516H38.5488C38.4943 24.3516 38.4518 24.394 38.4518 24.4546V27.0546C38.4518 27.1091 38.5003 27.1516 38.5488 27.1516H41.6643L38.2094 30.6122C36.4698 29.2425 34.2757 28.4243 31.8936 28.4243C26.2446 28.4243 21.6503 33.0182 21.6503 38.6667C21.6503 43.8667 25.5476 48.1697 30.5723 48.8182V51.8122H27.4872C27.4266 51.8122 27.3841 51.8546 27.3841 51.9091V54.697C27.3841 54.7516 27.4266 54.794 27.4872 54.794H30.5723V57.7394C30.5723 57.794 30.6147 57.8364 30.6693 57.8364H33.4514C33.5059 57.8364 33.5544 57.794 33.5544 57.7394V54.794H36.6396C36.6941 54.794 36.7365 54.7516 36.7365 54.697V51.9091C36.7365 51.8546 36.6941 51.8122 36.6396 51.8122H33.5544V48.7697C38.4155 47.9697 42.137 43.7455 42.137 38.6667C42.137 36.4728 41.44 34.4425 40.2641 32.7758L43.6705 29.3637V32.2728C43.6705 32.3273 43.7129 32.3697 43.7736 32.3697H46.3738C46.4284 32.3697 46.4768 32.3273 46.4768 32.2728V24.4546C46.4768 24.4 46.4344 24.3516 46.3738 24.3516" fill="white"/>
<path d="M36.4941 35.564H27.3478C27.2932 35.564 27.2508 35.6064 27.2508 35.6549V37.867C27.2508 37.9215 27.2932 37.9579 27.3478 37.9579H36.4941C36.5486 37.9579 36.5971 37.9215 36.5971 37.867V35.6549C36.5971 35.6064 36.5547 35.564 36.4941 35.564Z" fill="white"/>
<path d="M36.4941 39.5151H27.3478C27.2932 39.5151 27.2508 39.5576 27.2508 39.606V41.8182C27.2508 41.8667 27.2932 41.9091 27.3478 41.9091H36.4941C36.5486 41.9091 36.5971 41.8667 36.5971 41.8182V39.606C36.5971 39.5576 36.5547 39.5151 36.4941 39.5151Z" fill="white"/>
<path d="M10.9886 9.83039C10.1461 9.83039 9.52789 10.1274 9.19453 10.7092H9.17634V7.54555H12.8434V5.80615H7.2307V12.9516H9.17634V12.6668C9.17634 11.9213 9.51577 11.5092 10.1098 11.5092C10.7644 11.5092 11.0311 11.9577 11.0311 12.6486V15.7152C11.0311 16.388 10.7886 16.8546 10.134 16.8546C9.40667 16.8546 9.13997 16.3698 9.13997 15.6183V14.0304H7.19434V15.4728C7.19434 17.4001 7.96411 18.6365 10.134 18.6365C12.3039 18.6365 13.1646 17.4971 13.1646 15.7395V12.6304C13.1646 10.6304 12.1342 9.82433 10.9947 9.82433" fill="white"/>
<path d="M20.5653 8.52141H21.8321V11.3517H21.1896V10.776C21.0744 11.176 20.8199 11.4184 20.335 11.4184C19.5652 11.4184 19.2137 10.8063 19.2137 9.98808V7.42444C19.2137 6.59414 19.6137 5.99414 20.5532 5.99414C21.5411 5.99414 21.826 6.53959 21.826 7.32141V7.78808H21.0138V7.24869C21.0138 6.92141 20.8865 6.73353 20.5714 6.73353C20.2562 6.73353 20.1107 6.95778 20.1107 7.27899V10.1275C20.1107 10.4487 20.2441 10.6729 20.5471 10.6729C20.8502 10.6729 20.9835 10.5093 20.9835 10.1638V9.22444H20.5592V8.52141H20.5653Z" fill="white"/>
<path d="M22.3352 6.04834H24.4626V6.77561H23.2262V8.29076H24.1111V9.01198H23.2262V10.6241H24.4626V11.3514H22.3352V6.04834Z" fill="white"/>
<path d="M25.6931 8.01804V11.3514H24.9415V6.04834H25.8203L26.778 9.09076V6.04834H27.5235V11.3514H26.7416L25.6931 8.01804Z" fill="white"/>
<path d="M29.299 10.6241C29.6687 10.6241 29.8082 10.4059 29.8082 10.0847V7.30895C29.8082 6.99379 29.6687 6.77561 29.299 6.77561H28.9232V10.6241H29.299ZM30.6991 7.47258V9.92713C30.6991 10.7392 30.3597 11.3514 29.4081 11.3514H28.0322V6.04834H29.4081C30.3597 6.04834 30.6991 6.6544 30.6991 7.47258Z" fill="white"/>
<path d="M31.2031 6.04834H33.3306V6.77561H32.0941V8.29076H32.9791V9.01198H32.0941V10.6241H33.3306V11.3514H31.2031V6.04834Z" fill="white"/>
<path d="M34.6996 6.77581V8.4243H34.9966C35.2996 8.4243 35.433 8.26672 35.433 7.98794V7.20612C35.433 6.91521 35.2996 6.77581 34.9966 6.77581H34.6996ZM34.6996 8.91521V11.3455H33.8086V6.04248H35.1057C36.0027 6.04248 36.3361 6.4849 36.3361 7.23036V7.90915C36.3361 8.47884 36.13 8.81824 35.6269 8.93339L36.4816 11.3394H35.5421L34.7056 8.90915L34.6996 8.91521Z" fill="white"/>
<path d="M19.2197 13.4727H21.3472V14.1999H20.1107V15.7211H20.9956V16.4363H20.1107V18.0484H21.3472V18.7757H19.2197V13.4727Z" fill="white"/>
<path d="M23.5535 17.5942V14.7033C23.5535 14.3821 23.4141 14.1579 23.0928 14.1579C22.7716 14.1579 22.6382 14.3821 22.6382 14.7033V17.5942C22.6382 17.9094 22.7776 18.1397 23.0928 18.1397C23.408 18.1397 23.5535 17.9033 23.5535 17.5942ZM22.7594 19.1397V18.7821C22.0503 18.6548 21.7412 18.1336 21.7412 17.4124V14.8488C21.7412 14.0185 22.1473 13.4185 23.0867 13.4185C24.0262 13.4185 24.4384 14.0245 24.4384 14.8488V17.4124C24.4384 17.9882 24.2323 18.4427 23.7838 18.6609L24.4384 18.7882V19.4548L22.7594 19.1397Z" fill="white"/>
<path d="M27.5412 13.4727V17.4848C27.5412 18.303 27.1897 18.8363 26.2805 18.8363C25.3713 18.8363 24.9531 18.303 24.9531 17.4848V13.4727H25.8441V17.5696C25.8441 17.8848 25.9714 18.0908 26.2805 18.0908C26.5896 18.0908 26.7169 17.8787 26.7169 17.5696V13.4727H27.5412Z" fill="white"/>
<path d="M28.9055 17.0969H29.6146L29.2631 14.9696H29.257L28.9055 17.0969ZM27.7902 18.7757L28.7903 13.4727H29.8086L30.8148 18.7757H29.8995L29.7359 17.806H28.7903L28.6327 18.7757H27.7902Z" fill="white"/>
<path d="M31.1845 13.4727H32.0755V18.0484H33.1362V18.7757H31.1845V13.4727Z" fill="white"/>
<path d="M34.433 13.4727H33.542V18.7757H34.433V13.4727Z" fill="white"/>
<path d="M34.8515 13.4727H37.2214V14.1999H36.488V18.7757H35.5849V14.1999H34.8515V13.4727Z" fill="white"/>
<path d="M39.3731 16.7575V18.7757H38.4821V16.7575L37.4881 13.4727H38.4155L38.9549 15.4848H38.961L39.5065 13.4727H40.3551L39.3731 16.7575Z" fill="white"/>
</g>
</g>
<defs>
<clipPath id="clip0_1_3321">
<rect width="64" height="64" rx="5" fill="white"/>
</clipPath>
</defs>
</svg>
