<svg width="64" height="64" viewBox="0 0 64 64" fill="none" xmlns="http://www.w3.org/2000/svg">
<g clip-path="url(#clip0_1_3140)">
<path d="M64 0H0V64H64V0Z" fill="#E6BE20"/>
<mask id="mask0_1_3140" style="mask-type:luminance" maskUnits="userSpaceOnUse" x="0" y="0" width="64" height="64">
<path d="M64 0H0V64H64V0Z" fill="white"/>
</mask>
<g mask="url(#mask0_1_3140)">
<path d="M21.436 40.1638C21.436 39.7456 21.0663 39.4062 20.7269 39.4062H16.6905C16.3511 39.4062 15.9754 39.7456 15.9754 40.1638C15.9754 40.582 16.3511 40.9214 16.6905 40.9214H20.7269C21.0663 40.9214 21.436 40.582 21.436 40.1638Z" fill="white"/>
<path d="M48.0727 40.1633C48.0727 39.7452 47.703 39.4058 47.3636 39.4058H43.3273C42.9879 39.4058 42.6121 39.7452 42.6121 40.1633C42.6121 40.5815 42.9879 40.9209 43.3273 40.9209H47.3636C47.703 40.9209 48.0727 40.5815 48.0727 40.1633Z" fill="white"/>
<path d="M32.024 56.2121C32.4422 56.2121 32.7816 55.8424 32.7816 55.503V51.4666C32.7816 51.1272 32.4422 50.7515 32.024 50.7515C31.6058 50.7515 31.2664 51.1272 31.2664 51.4666V55.503C31.2664 55.8424 31.6058 56.2121 32.024 56.2121Z" fill="white"/>
<path d="M45.9511 48.1333C46.1572 47.7696 46.0057 47.2908 45.7147 47.1272L42.2117 45.1211C41.9147 44.9514 41.4238 45.0605 41.2178 45.4242C41.0117 45.7878 41.1632 46.2727 41.4602 46.4363L44.9632 48.4424C45.2602 48.612 45.745 48.4969 45.9572 48.1333" fill="white"/>
<path d="M24.0545 54.0968C24.4182 54.3029 24.897 54.1514 25.0606 53.8605L27.0667 50.3574C27.2364 50.0604 27.1273 49.5695 26.7636 49.3635C26.4 49.1574 25.9151 49.3089 25.7515 49.6059L23.7455 53.1089C23.5758 53.3998 23.6909 53.8968 24.0545 54.1029" fill="white"/>
<path d="M40.0242 54.0785C40.3879 53.8724 40.497 53.3815 40.3273 53.0845L38.3151 49.5815C38.1455 49.2845 37.6667 49.133 37.303 49.3391C36.9394 49.5451 36.8303 50.0421 37 50.3391L39.0121 53.8421C39.1818 54.133 39.6606 54.2845 40.0242 54.0785Z" fill="white"/>
<path d="M18.1154 48.1698C18.3215 48.5334 18.8124 48.6425 19.1094 48.4728L22.6124 46.4607C22.9094 46.291 23.0609 45.8122 22.8548 45.4486C22.6488 45.0849 22.1518 44.9759 21.8548 45.1456L18.3518 47.1577C18.0609 47.3274 17.9094 47.8062 18.1154 48.1698Z" fill="white"/>
<path d="M32.024 29.5817C32.4422 29.5817 32.7816 29.212 32.7816 28.8726V24.8362C32.7816 24.4969 32.4422 24.1211 32.024 24.1211C31.6058 24.1211 31.2664 24.4969 31.2664 24.8362V28.8726C31.2664 29.212 31.6058 29.5817 32.024 29.5817Z" fill="white"/>
<path d="M22.8368 34.9086C23.0429 34.545 22.8914 34.0662 22.6005 33.9026L19.0975 31.8965C18.8005 31.7268 18.3096 31.8359 18.1035 32.1996C17.8975 32.5632 18.049 33.042 18.3459 33.2117L21.849 35.2177C22.1399 35.3874 22.6308 35.2723 22.8429 34.9086" fill="white"/>
<path d="M37.2851 30.9816C37.6488 31.1876 38.1275 31.0361 38.2912 30.7452L40.2972 27.2422C40.4669 26.9452 40.3578 26.4543 39.9942 26.2482C39.6306 26.0422 39.1457 26.1937 38.9821 26.4907L36.976 29.9937C36.8063 30.2907 36.9215 30.7816 37.2851 30.9876" fill="white"/>
<path d="M26.7515 30.9876C27.1152 30.7816 27.2242 30.2907 27.0545 29.9937L25.0424 26.4907C24.8727 26.1937 24.3939 26.0422 24.0303 26.2482C23.6667 26.4543 23.5576 26.9513 23.7273 27.2482L25.7394 30.7452C25.9091 31.0422 26.3879 31.1876 26.7515 30.9816" fill="white"/>
<path d="M41.2061 34.891C41.4121 35.2546 41.903 35.3637 42.2 35.194L45.703 33.1819C46 33.0122 46.1515 32.5334 45.9454 32.1698C45.7394 31.8061 45.2424 31.697 44.9454 31.8667L41.4424 33.8789C41.1515 34.0486 41 34.5273 41.2061 34.891Z" fill="white"/>
<path d="M6.99394 7.55727H10.2909L7.44243 18.5027H9.56364L12.3515 7.78151V5.81787H6.99394V7.55727Z" fill="white"/>
<path d="M19.4364 9.44826H20.1455L19.7939 7.32099H19.7879L19.4364 9.44826ZM18.3212 11.1331L19.3212 5.83008H20.3394L21.3455 11.1331H20.4303L20.2667 10.1634H19.3212L19.1636 11.1331H18.3212Z" fill="white"/>
<path d="M21.7156 5.83008H23.8005V6.55735H22.6065V8.0725H23.4974V8.79371H22.6065V11.1331H21.7156V5.83008Z" fill="white"/>
<path d="M24.1939 5.83008H26.2788V6.55735H25.0848V8.0725H25.9758V8.79371H25.0848V11.1331H24.1939V5.83008Z" fill="white"/>
<path d="M28.3996 9.90286V7.05438C28.3996 6.73317 28.2602 6.50892 27.939 6.50892C27.6178 6.50892 27.4845 6.73317 27.4845 7.05438V9.90286C27.4845 10.2241 27.6239 10.4483 27.939 10.4483C28.2542 10.4483 28.3996 10.2241 28.3996 9.90286ZM26.5936 9.76347V7.19983C26.5936 6.36953 26.9996 5.76953 27.939 5.76953C28.8784 5.76953 29.2905 6.36953 29.2905 7.19983V9.76347C29.2905 10.5817 28.8845 11.1938 27.939 11.1938C26.9936 11.1938 26.5936 10.5817 26.5936 9.76347Z" fill="white"/>
<path d="M30.6905 6.55755V8.20604H30.9875C31.2905 8.20604 31.4238 8.04846 31.4238 7.76967V6.98786C31.4238 6.69695 31.2905 6.55755 30.9875 6.55755H30.6905ZM30.6905 8.69695V11.1272H29.7996V5.82422H31.0966C31.9935 5.82422 32.3269 6.26664 32.3269 7.0121V7.69089C32.3269 8.26058 32.1208 8.59998 31.6178 8.71513L32.4723 11.1212H31.5329L30.6966 8.69089L30.6905 8.69695Z" fill="white"/>
<path d="M34.0792 10.4058C34.4489 10.4058 34.5883 10.1877 34.5883 9.86644V7.09068C34.5883 6.77553 34.4489 6.55735 34.0792 6.55735H33.7034V10.4058H34.0792ZM35.4731 7.25432V9.70887C35.4731 10.521 35.1337 11.1331 34.1822 11.1331H32.8064V5.83008H34.1822C35.1337 5.83008 35.4731 6.43614 35.4731 7.25432Z" fill="white"/>
<path d="M36.8424 9.44826H37.5515L37.2 7.32099H37.1939L36.8424 9.44826ZM35.7273 11.1331L36.7273 5.83008H37.7455L38.7515 11.1331H37.8364L37.6727 10.1634H36.7273L36.5697 11.1331H35.7273Z" fill="white"/>
<path d="M40.0118 8.74523V10.4058H40.3997C40.6967 10.4058 40.836 10.2604 40.836 9.97553V9.17553C40.836 8.89068 40.7027 8.74523 40.3876 8.74523H40.0057H40.0118ZM40.0118 8.06644H40.3209C40.6118 8.06644 40.7451 7.92099 40.7451 7.63614V6.98765C40.7451 6.69674 40.6118 6.55735 40.3148 6.55735H40.0118V8.06644ZM39.1209 5.83008H40.4118C41.3027 5.83008 41.5997 6.24826 41.5997 6.99371V7.53311C41.5997 7.98159 41.436 8.26038 41.0663 8.38159C41.5088 8.48462 41.733 8.78159 41.733 9.26644V9.96947C41.733 10.721 41.3997 11.1331 40.5027 11.1331H39.1209V5.83008Z" fill="white"/>
<path d="M42.1758 5.83008H43.0667V10.4058H44.1273V11.1331H42.1758V5.83008Z" fill="white"/>
<path d="M44.5398 5.83008H46.6611V6.55735H45.4308V8.0725H46.3156V8.79371H45.4308V10.4058H46.6611V11.1331H44.5398V5.83008Z" fill="white"/>
<path d="M48.9394 9.44826H49.6485L49.297 7.32099H49.2909L48.9394 9.44826ZM47.8182 11.1331L48.8182 5.83008H49.8364L50.8424 11.1331H49.9273L49.7636 10.1634H48.8182L48.6606 11.1331H47.8182Z" fill="white"/>
<path d="M51.9632 7.79978V11.1331H51.2117V5.83008H52.0905L53.0541 8.8725V5.83008H53.7935V11.1331H53.0117L51.9632 7.79978Z" fill="white"/>
<path d="M55.5702 10.4058C55.9399 10.4058 56.0793 10.1877 56.0793 9.86644V7.09068C56.0793 6.77553 55.9399 6.55735 55.5702 6.55735H55.1944V10.4058H55.5702ZM56.9702 7.25432V9.70887C56.9702 10.521 56.6308 11.1331 55.6793 11.1331H54.3035V5.83008H55.6793C56.6308 5.83008 56.9702 6.43614 56.9702 7.25432Z" fill="white"/>
<path d="M18.4606 17.1878V14.6241C18.4606 13.7938 18.8545 13.1938 19.7879 13.1938C20.7758 13.1938 21.0485 13.7393 21.0485 14.5211V15.1454H20.2364V14.4484C20.2364 14.1211 20.1273 13.9332 19.8061 13.9332C19.4848 13.9332 19.3515 14.1635 19.3515 14.4848V17.3332C19.3515 17.6545 19.4848 17.8787 19.8061 17.8787C20.1273 17.8787 20.2364 17.6726 20.2364 17.3635V16.3878H21.0485V17.3029C21.0485 18.0605 20.7394 18.6242 19.7879 18.6242C18.8364 18.6242 18.4606 18.012 18.4606 17.1938" fill="white"/>
<path d="M21.533 13.2544H22.4239V17.8302H23.4906V18.5574H21.533V13.2544Z" fill="white"/>
<path d="M23.8973 13.2544H26.0245V13.9817H24.7882V15.5029H25.667V16.218H24.7882V17.8302H26.0245V18.5574H23.8973V13.2544Z" fill="white"/>
<path d="M27.4784 16.8786H28.1875L27.836 14.7514H27.8299L27.4784 16.8786ZM26.3572 18.5574L27.3572 13.2544H28.3754L29.3815 18.5574H28.4663L28.3027 17.5877H27.3572L27.1996 18.5574H26.3572Z" fill="white"/>
<path d="M30.503 15.2241V18.5574H29.7515V13.2544H30.6243L31.5879 16.2968V13.2544H32.3333V18.5574H31.5515L30.503 15.2241Z" fill="white"/>
<path d="M33.6609 13.2544H35.7882V13.9817H34.5518V15.5029H35.4367V16.218H34.5518V17.8302H35.7882V18.5574H33.6609V13.2544Z" fill="white"/>
<path d="M37.0179 15.2241V18.5574H36.2664V13.2544H37.1391L38.1028 16.2968V13.2544H38.8422V18.5574H38.0603L37.0179 15.2241Z" fill="white"/>
<path d="M39.3515 13.2544H41.4788V13.9817H40.2424V15.5029H41.1273V16.218H40.2424V17.8302H41.4788V18.5574H39.3515V13.2544Z" fill="white"/>
<path d="M42.8485 13.9817V15.6302H43.1455C43.4485 15.6302 43.5818 15.4726 43.5818 15.1938V14.412C43.5818 14.1211 43.4485 13.9817 43.1455 13.9817H42.8485ZM42.8485 16.1271V18.5574H41.9576V13.2544H43.2545C44.1515 13.2544 44.4849 13.7029 44.4849 14.4423V15.1211C44.4849 15.6908 44.2788 16.0302 43.7758 16.1453L44.6303 18.5514H43.6909L42.8545 16.1211L42.8485 16.1271Z" fill="white"/>
<path d="M46.3091 15.727H47.5758V18.5573H46.9333V17.9815C46.8182 18.3815 46.5636 18.6239 46.0788 18.6239C45.3152 18.6239 44.9576 18.0118 44.9576 17.1936V14.63C44.9576 13.7997 45.3576 13.1997 46.297 13.1997C47.2849 13.1997 47.5758 13.7452 47.5758 14.527V14.9936H46.7636V14.4543C46.7636 14.127 46.6364 13.9391 46.3212 13.9391C46.0061 13.9391 45.8606 14.1633 45.8606 14.4846V17.333C45.8606 17.6543 45.9939 17.8785 46.297 17.8785C46.5879 17.8785 46.7333 17.7149 46.7333 17.3694V16.43H46.3091V15.727Z" fill="white"/>
<path d="M49.6247 16.5392V18.5574H48.7338V16.5392L47.7459 13.2544H48.6732L49.2126 15.2665H49.2186L49.758 13.2544H50.6126L49.6247 16.5392Z" fill="white"/>
<path d="M32.0246 44.9699C29.3761 44.9699 27.2307 42.8244 27.2307 40.1759C27.2307 38.0244 28.6489 36.2002 30.6004 35.5941V37.382C29.5822 37.9032 28.8852 38.9577 28.8852 40.1759C28.8852 41.9093 30.2913 43.3153 32.0246 43.3153C33.758 43.3153 35.164 41.9093 35.164 40.1759C35.164 38.9517 34.461 37.8911 33.4428 37.3759V35.5941C35.4004 36.2002 36.8246 38.0184 36.8246 40.1759C36.8246 42.8244 34.6792 44.9699 32.0307 44.9699M31.3398 34.6668C31.3398 34.3577 31.6489 34.0244 32.0246 34.0244C32.4004 34.0244 32.7095 34.3638 32.7095 34.6668V37.8305C32.7095 38.1396 32.4004 38.4729 32.0246 38.4729C31.6489 38.4729 31.3398 38.1396 31.3398 37.8305V34.6668ZM32.0246 31.0244C26.9337 31.0244 22.8064 35.1517 22.8064 40.2426C22.8064 45.3335 26.9337 49.4668 32.0246 49.4668C37.1155 49.4668 41.2428 45.3396 41.2428 40.2426C41.2428 35.1456 37.1155 31.0244 32.0246 31.0244Z" fill="white"/>
</g>
</g>
<defs>
<clipPath id="clip0_1_3140">
<rect width="64" height="64" rx="5" fill="white"/>
</clipPath>
</defs>
</svg>
