<svg width="64" height="64" viewBox="0 0 64 64" fill="none" xmlns="http://www.w3.org/2000/svg">
<g clip-path="url(#clip0_1_3465)">
<path d="M64 0H0V64H64V0Z" fill="#771336"/>
<mask id="mask0_1_3465" style="mask-type:luminance" maskUnits="userSpaceOnUse" x="0" y="0" width="64" height="64">
<path d="M64 0H0V64H64V0Z" fill="white"/>
</mask>
<g mask="url(#mask0_1_3465)">
<path d="M43.939 31.497L37.545 37.5818C37.3026 37.8242 37.1814 38 37.1814 38.497V55.5455C37.1814 55.7455 37.345 55.9091 37.545 55.9091H44.1511C44.3511 55.9091 44.5147 55.7455 44.5147 55.5455V31.6545C44.5147 31.4545 44.3572 31.0849 43.939 31.503" fill="white"/>
<path d="M25.5144 39.4181L19.1205 45.4969C18.878 45.7393 18.7568 45.915 18.7568 46.412V55.5393C18.7568 55.7393 18.9205 55.9029 19.1205 55.9029H25.7265C25.9265 55.9029 26.0902 55.7393 26.0902 55.5393V39.5696C26.0902 39.3696 25.9326 38.9999 25.5144 39.4181Z" fill="white"/>
<path d="M46.842 24.1212C46.842 24.0727 46.8238 24.0182 46.7875 23.9818C46.7511 23.9515 46.7087 23.9333 46.6663 23.9272H46.6299H46.5754L41.6784 25.0303H41.5875C41.5511 25.0424 41.5208 25.0606 41.4905 25.0909C41.4178 25.1636 41.4178 25.2788 41.4905 25.3515L41.5451 25.406L42.6663 26.5212L31.5693 37.6182L26.4481 32.4909C26.3875 32.4303 26.2966 32.4303 26.242 32.4909L24.8481 33.8788L16.6299 42.0969C16.5754 42.1575 16.5754 42.2485 16.6299 42.303L18.0238 43.6969C18.0784 43.7575 18.1754 43.7575 18.2299 43.6969L26.339 35.5879L30.0602 39.3091C30.0602 39.3091 30.0663 39.3212 30.0723 39.3272L31.4663 40.7151C31.5269 40.7757 31.6178 40.7757 31.6723 40.7151L44.2663 28.1212L45.442 29.2909C45.5147 29.3636 45.6299 29.3636 45.7026 29.2909C45.739 29.2545 45.7572 29.2182 45.7572 29.1697V29.1575L46.836 24.1575V24.103L46.842 24.1212Z" fill="white"/>
<path d="M34.7632 40.4906L31.6663 43.6118C31.6056 43.6603 31.5208 43.6603 31.4663 43.6058L28.6602 40.7452C28.145 40.2361 28.0359 40.6482 28.0359 40.8482V55.5391C28.0359 55.7391 28.1996 55.9027 28.3996 55.9027H35.0056C35.2056 55.9027 35.3693 55.7391 35.3693 55.5391V40.5997C35.3693 40.3997 35.2117 40.03 34.7572 40.4846" fill="white"/>
<path d="M10.6359 15.6241C10.6359 16.3937 10.3572 16.9331 9.58746 16.9331C8.81777 16.9331 8.55716 16.3937 8.55716 15.6241V13.5634C8.55716 12.7937 8.83595 12.2544 9.58746 12.2544C10.339 12.2544 10.6359 12.7937 10.6359 13.5634V15.6241ZM8.62989 8.60587C8.62989 7.83617 8.89049 7.38769 9.58746 7.38769C10.2844 7.38769 10.5572 7.83617 10.5572 8.60587V9.46647C10.5572 10.2362 10.2966 10.6847 9.58746 10.6847C8.87837 10.6847 8.62989 10.2362 8.62989 9.46647V8.60587ZM12.7693 15.3998V14.018C12.7693 12.7998 12.339 11.921 11.345 11.4725C12.1875 11.0604 12.5814 10.315 12.5814 9.26647V8.74526C12.5814 6.76344 11.5511 5.69678 9.58746 5.69678C7.62383 5.69678 6.62989 6.76344 6.62989 8.74526V9.26647C6.62989 10.2968 7.00565 11.0604 7.82989 11.4725C6.83595 11.921 6.42383 12.7998 6.42383 14.018V15.3998C6.42383 17.3271 7.33898 18.6725 9.58746 18.6725C11.8359 18.6725 12.7693 17.3271 12.7693 15.3998Z" fill="white"/>
<path d="M18.6057 10.4058C18.9754 10.4058 19.1147 10.1877 19.1147 9.86644V7.09068C19.1147 6.77553 18.9754 6.55735 18.6057 6.55735H18.2299V10.4058H18.6057ZM20.0057 7.25432V9.70887C20.0057 10.521 19.6723 11.1331 18.7147 11.1331H17.339V5.83008H18.7147C19.6723 5.83008 20.0057 6.43614 20.0057 7.25432Z" fill="white"/>
<path d="M20.5087 5.83008H22.6359V6.55735H21.4056V8.0725H22.2844V8.79371H21.4056V10.4058H22.6359V11.1331H20.5087V5.83008Z" fill="white"/>
<path d="M23.0359 9.76347V7.19983C23.0359 6.36953 23.4299 5.76953 24.3632 5.76953C25.3511 5.76953 25.6238 6.31499 25.6238 7.0968V7.72105H24.8117V7.02408C24.8117 6.6968 24.7026 6.50892 24.3814 6.50892C24.0602 6.50892 23.9269 6.73317 23.9269 7.05438V9.90286C23.9269 10.2241 24.0602 10.4483 24.3814 10.4483C24.7026 10.4483 24.8117 10.2423 24.8117 9.93317V8.95741H25.6238V9.87256C25.6238 10.6301 25.3147 11.1938 24.3632 11.1938C23.4117 11.1938 23.0359 10.5817 23.0359 9.76347Z" fill="white"/>
<path d="M26.1084 5.83008H28.2357V6.55735H26.9993V8.0725H27.8842V8.79371H26.9993V10.4058H28.2357V11.1331H26.1084V5.83008Z" fill="white"/>
<path d="M29.4662 7.79978V11.1331H28.7147V5.83008H29.5874L30.5511 8.8725V5.83008H31.2905V11.1331H30.5087L29.4662 7.79978Z" fill="white"/>
<path d="M31.6963 5.83008H34.072V6.55735H33.3327V11.1331H32.4357V6.55735H31.6963V5.83008Z" fill="white"/>
<path d="M37.2303 7.85432L36.7273 11.1331H35.8909L35.1758 5.83008H36.0364L36.4546 9.19371H36.4606L36.9091 5.83008H37.6364L38.1273 9.19371H38.1334L38.5455 5.83008H39.2909L38.6061 11.1331H37.7576L37.2364 7.85432H37.2303Z" fill="white"/>
<path d="M41.3996 9.90286V7.05438C41.3996 6.73317 41.2602 6.50892 40.939 6.50892C40.6178 6.50892 40.4844 6.73317 40.4844 7.05438V9.90286C40.4844 10.2241 40.6238 10.4483 40.939 10.4483C41.2541 10.4483 41.3996 10.2241 41.3996 9.90286ZM39.5935 9.76347V7.19983C39.5935 6.36953 39.9996 5.76953 40.939 5.76953C41.8784 5.76953 42.2905 6.36953 42.2905 7.19983V9.76347C42.2905 10.5817 41.8844 11.1938 40.939 11.1938C39.9935 11.1938 39.5935 10.5817 39.5935 9.76347Z" fill="white"/>
<path d="M43.6965 6.55755V8.20604H43.9935C44.2965 8.20604 44.4299 8.04846 44.4299 7.76967V6.98786C44.4299 6.69695 44.2965 6.55755 43.9935 6.55755H43.6965ZM43.6965 8.69695V11.1272H42.8056V5.82422H44.1026C44.9996 5.82422 45.3329 6.26664 45.3329 7.0121V7.69089C45.3329 8.26058 45.1268 8.59998 44.6238 8.71513L45.4784 11.1212H44.539L43.7026 8.69089L43.6965 8.69695Z" fill="white"/>
<path d="M46.7026 8.55129V11.1331H45.8117V5.83008H46.7026V8.15735L47.6723 5.83008H48.5511L47.5147 8.2119L48.5753 11.1331H47.636L46.7026 8.55129Z" fill="white"/>
<path d="M50.7091 9.44826H51.4182L51.0667 7.32099H51.0606L50.7091 9.44826ZM49.5879 11.1331L50.5879 5.83008H51.6061L52.6121 11.1331H51.697L51.5333 10.1634H50.5879L50.4303 11.1331H49.5879Z" fill="white"/>
<path d="M53.7329 7.79978V11.1331H52.9814V5.83008H53.8602L54.8178 8.8725V5.83008H55.5632V11.1331H54.7814L53.7329 7.79978Z" fill="white"/>
<path d="M57.339 10.4058C57.7087 10.4058 57.8481 10.1877 57.8481 9.86644V7.09068C57.8481 6.77553 57.7087 6.55735 57.339 6.55735H56.9632V10.4058H57.339ZM58.739 7.25432V9.70887C58.739 10.521 58.3996 11.1331 57.4481 11.1331H56.0723V5.83008H57.4481C58.3996 5.83008 58.739 6.43614 58.739 7.25432Z" fill="white"/>
<path d="M17.339 13.2544H19.4602V13.9817H18.2299V15.5029H19.1087V16.218H18.2299V17.8302H19.4602V18.5574H17.339V13.2544Z" fill="white"/>
<path d="M19.8602 17.1878V14.6241C19.8602 13.7938 20.2541 13.1938 21.1875 13.1938C22.1753 13.1938 22.4481 13.7393 22.4481 14.5211V15.1454H21.636V14.4484C21.636 14.1211 21.5269 13.9332 21.2057 13.9332C20.8844 13.9332 20.7511 14.1635 20.7511 14.4848V17.3332C20.7511 17.6545 20.8844 17.8787 21.2057 17.8787C21.5269 17.8787 21.636 17.6726 21.636 17.3635V16.3878H22.4481V17.3029C22.4481 18.0605 22.139 18.6242 21.1875 18.6242C20.236 18.6242 19.8602 18.012 19.8602 17.1938" fill="white"/>
<path d="M24.7387 17.3332V14.4848C24.7387 14.1635 24.5993 13.9332 24.2781 13.9332C23.9569 13.9332 23.8235 14.1635 23.8235 14.4848V17.3332C23.8235 17.6545 23.9629 17.8787 24.2781 17.8787C24.5932 17.8787 24.7387 17.6545 24.7387 17.3332ZM22.9326 17.1878V14.6241C22.9326 13.7938 23.3387 13.1938 24.2781 13.1938C25.2175 13.1938 25.6296 13.7938 25.6296 14.6241V17.1878C25.6296 18.006 25.2235 18.6181 24.2781 18.6181C23.3326 18.6181 22.9326 18.006 22.9326 17.1878Z" fill="white"/>
<path d="M26.8902 15.2241V18.5574H26.1387V13.2544H27.0175L27.975 16.2968V13.2544H28.7205V18.5574H27.9387L26.8902 15.2241Z" fill="white"/>
<path d="M31.0356 17.3332V14.4848C31.0356 14.1635 30.8962 13.9332 30.5749 13.9332C30.2537 13.9332 30.1204 14.1635 30.1204 14.4848V17.3332C30.1204 17.6545 30.2598 17.8787 30.5749 17.8787C30.8901 17.8787 31.0356 17.6545 31.0356 17.3332ZM29.2295 17.1878V14.6241C29.2295 13.7938 29.6356 13.1938 30.5749 13.1938C31.5143 13.1938 31.9265 13.7938 31.9265 14.6241V17.1878C31.9265 18.006 31.5204 18.6181 30.5749 18.6181C29.6295 18.6181 29.2295 18.006 29.2295 17.1878Z" fill="white"/>
<path d="M34.8901 15.115H34.8658L34.2659 18.5574H33.8477L33.1871 15.115H33.1689V18.5574H32.4355V13.2544H33.4719L34.0537 16.2423H34.0598L34.5749 13.2544H35.7022V18.5574H34.8901V15.115Z" fill="white"/>
<path d="M37.1026 13.2544H36.2117V18.5574H37.1026V13.2544Z" fill="white"/>
<path d="M37.6182 17.1878V14.6241C37.6182 13.7938 38.0121 13.1938 38.9454 13.1938C39.9333 13.1938 40.206 13.7393 40.206 14.5211V15.1454H39.3939V14.4484C39.3939 14.1211 39.2848 13.9332 38.9636 13.9332C38.6424 13.9332 38.5091 14.1635 38.5091 14.4848V17.3332C38.5091 17.6545 38.6424 17.8787 38.9636 17.8787C39.2848 17.8787 39.3939 17.6726 39.3939 17.3635V16.3878H40.206V17.3029C40.206 18.0605 39.8909 18.6242 38.9454 18.6242C38 18.6242 37.6182 18.012 37.6182 17.1938" fill="white"/>
<path d="M42.8602 15.727H44.1268V18.5573H43.4844V17.9815C43.3693 18.3815 43.1147 18.6239 42.6299 18.6239C41.8662 18.6239 41.5087 18.0118 41.5087 17.1936V14.63C41.5087 13.7997 41.9087 13.1997 42.8481 13.1997C43.8359 13.1997 44.1268 13.7452 44.1268 14.527V14.9936H43.3147V14.4543C43.3147 14.127 43.1875 13.9391 42.8723 13.9391C42.5572 13.9391 42.4117 14.1633 42.4117 14.4846V17.333C42.4117 17.6543 42.545 17.8785 42.8481 17.8785C43.139 17.8785 43.2844 17.7149 43.2844 17.3694V16.43H42.8602V15.727Z" fill="white"/>
<path d="M45.5208 13.9817V15.6302H45.8178C46.1208 15.6302 46.2541 15.4726 46.2541 15.1938V14.412C46.2541 14.1211 46.1208 13.9817 45.8178 13.9817H45.5208ZM45.5208 16.1271V18.5574H44.6299V13.2544H45.9269C46.8238 13.2544 47.1572 13.7029 47.1572 14.4423V15.1211C47.1572 15.6908 46.9511 16.0302 46.4481 16.1453L47.3026 18.5514H46.3632L45.5269 16.1211L45.5208 16.1271Z" fill="white"/>
<path d="M49.4477 17.3332V14.4848C49.4477 14.1635 49.3083 13.9332 48.9871 13.9332C48.6658 13.9332 48.5325 14.1635 48.5325 14.4848V17.3332C48.5325 17.6545 48.6719 17.8787 48.9871 17.8787C49.3022 17.8787 49.4477 17.6545 49.4477 17.3332ZM47.6416 17.1878V14.6241C47.6416 13.7938 48.0477 13.1938 48.9871 13.1938C49.9265 13.1938 50.3386 13.7938 50.3386 14.6241V17.1878C50.3386 18.006 49.9325 18.6181 48.9871 18.6181C48.0416 18.6181 47.6416 18.006 47.6416 17.1878Z" fill="white"/>
<path d="M52.6961 15.2847L52.1931 18.5574H51.3568L50.6416 13.2544H51.5022L51.9204 16.618H51.9265L52.3749 13.2544H53.1022L53.5931 16.618H53.5992L54.0052 13.2544H54.7568L54.0719 18.5574H53.2234L52.7022 15.2847H52.6961Z" fill="white"/>
<path d="M55.0359 13.2544H57.4117V13.9817H56.6723V18.5574H55.7753V13.9817H55.0359V13.2544Z" fill="white"/>
<path d="M59.5757 16.218H58.7151V18.5574H57.8242V13.2544H58.7151V15.5029H59.5757V13.2544H60.4727V18.5574H59.5757V16.218Z" fill="white"/>
</g>
</g>
<defs>
<clipPath id="clip0_1_3465">
<rect width="64" height="64" rx="5" fill="white"/>
</clipPath>
</defs>
</svg>
