<svg width="20" height="20" viewBox="0 0 20 20" fill="none" xmlns="http://www.w3.org/2000/svg">
<path d="M14.1338 5.1416C15.8005 6.29993 16.9505 8.1416 17.1838 10.2666" stroke="white" stroke-linecap="round" stroke-linejoin="round"/>
<path d="M2.90834 10.3083C3.12501 8.19168 4.25834 6.35002 5.90834 5.18335" stroke="white" stroke-linecap="round" stroke-linejoin="round"/>
<path d="M6.825 17.45C7.79166 17.9417 8.89166 18.2167 10.05 18.2167C11.1667 18.2167 12.2167 17.9667 13.1583 17.5083" stroke="white" stroke-linecap="round" stroke-linejoin="round"/>
<path d="M10.05 6.41666C11.3295 6.41666 12.3667 5.37945 12.3667 4.09999C12.3667 2.82053 11.3295 1.78333 10.05 1.78333C8.77054 1.78333 7.73334 2.82053 7.73334 4.09999C7.73334 5.37945 8.77054 6.41666 10.05 6.41666Z" stroke="white" stroke-linecap="round" stroke-linejoin="round"/>
<path d="M4.02467 16.5999C5.30413 16.5999 6.34134 15.5627 6.34134 14.2832C6.34134 13.0038 5.30413 11.9666 4.02467 11.9666C2.74521 11.9666 1.70801 13.0038 1.70801 14.2832C1.70801 15.5627 2.74521 16.5999 4.02467 16.5999Z" stroke="white" stroke-linecap="round" stroke-linejoin="round"/>
<path d="M15.6497 16.3001C16.9291 16.3001 17.9663 15.2629 17.9663 13.9834C17.9663 12.704 16.9291 11.6667 15.6497 11.6667C14.3702 11.6667 13.333 12.704 13.333 13.9834C13.333 15.2629 14.3702 16.3001 15.6497 16.3001Z" stroke="white" stroke-linecap="round" stroke-linejoin="round"/>
</svg>
