<svg width="20" height="20" viewBox="0 0 20 20" fill="none" xmlns="http://www.w3.org/2000/svg">
<path d="M10.0003 17.0834H5.83366C3.33366 17.0834 1.66699 15.8334 1.66699 12.9167V7.08341C1.66699 4.16675 3.33366 2.91675 5.83366 2.91675H14.167C16.667 2.91675 18.3337 4.16675 18.3337 7.08341V9.58342" stroke="white" stroke-miterlimit="10" stroke-linecap="round" stroke-linejoin="round"/>
<path d="M14.1663 7.5L11.558 9.58333C10.6997 10.2667 9.29134 10.2667 8.433 9.58333L5.83301 7.5" stroke="white" stroke-miterlimit="10" stroke-linecap="round" stroke-linejoin="round"/>
<path d="M16.0083 12.3083L13.0583 15.2583C12.9417 15.375 12.8333 15.5917 12.8083 15.75L12.65 16.875C12.5917 17.2833 12.875 17.5667 13.2833 17.5083L14.4083 17.35C14.5667 17.325 14.7917 17.2167 14.9 17.1L17.85 14.15C18.3583 13.6417 18.6 13.05 17.85 12.3C17.1083 11.5583 16.5167 11.8 16.0083 12.3083Z" stroke="white" stroke-miterlimit="10" stroke-linecap="round" stroke-linejoin="round"/>
<path d="M15.5838 12.7334C15.8338 13.6334 16.5338 14.3334 17.4338 14.5834" stroke="white" stroke-miterlimit="10" stroke-linecap="round" stroke-linejoin="round"/>
</svg>
