<svg width="246" height="157" viewBox="0 0 246 157" fill="none" xmlns="http://www.w3.org/2000/svg">
<g clip-path="url(#clip0_1_2656)">
<path d="M46.5564 47.4772C46.5564 47.4772 46.4812 47.4772 46.4361 47.447C46.391 47.4167 41.2331 44.9482 35.3384 38.9662C29.8947 33.4537 22.6617 23.7311 19.1278 8.7838C19.0978 8.63236 19.188 8.48092 19.3384 8.45063C19.4887 8.42034 19.6391 8.5112 19.6692 8.66265C23.188 23.4888 30.3459 33.1205 35.7444 38.5876C41.579 44.4938 46.6316 46.9321 46.6917 46.9623C46.8271 47.0229 46.8872 47.1895 46.8271 47.341C46.782 47.447 46.6767 47.5075 46.5714 47.5075L46.5564 47.4772Z" fill="#5E453B"/>
<path d="M31.0978 28.1076C31.0978 28.1076 45.1429 28.8648 41.6391 12.0093C41.6391 12.0093 27.2482 12.2062 31.0978 28.1076Z" fill="#7F9922"/>
<path d="M30.7677 33.4231C30.7677 33.4231 30.6323 33.3776 30.6323 33.3019C29.7902 26.4264 35.7451 20.2779 35.8053 20.2173C35.8654 20.1567 35.9406 20.1567 36.0008 20.2173C36.0609 20.2779 36.0609 20.3536 36.0008 20.4142C35.9406 20.4748 30.076 26.5324 30.903 33.2716C30.903 33.3473 30.8579 33.4231 30.7827 33.4231C30.7827 33.4231 30.7827 33.4231 30.7677 33.4231Z" fill="#47332A"/>
<path d="M22.3913 9.07138C22.3913 9.07138 31.2484 7.23893 27.6093 0C27.6093 0 20.0304 0.848076 22.3913 9.07138Z" fill="#AFC547"/>
<path d="M21.4143 16.0227C21.279 16.0227 21.1436 15.9167 21.1436 15.7653C20.5872 9.66214 24.5271 4.17994 24.6925 3.93763C24.7827 3.81647 24.9632 3.78619 25.0835 3.87705C25.2038 3.96792 25.2339 4.14965 25.1436 4.2708C25.0985 4.33138 21.1587 9.81358 21.7 15.7047C21.7 15.8561 21.5948 15.9924 21.4444 16.0076C21.4444 16.0076 21.4293 16.0076 21.4143 16.0076V16.0227Z" fill="#5E453B"/>
<path d="M19.895 23.125C19.895 23.125 10.1958 26.9716 9.08301 14.7654C9.08301 14.7654 20.0003 10.6916 19.895 23.125Z" fill="#AFC547"/>
<path d="M25.2184 24.8518C25.2184 24.8518 25.2184 24.8518 25.2033 24.8518C19.9552 24.4581 13.8349 19.718 13.5793 19.5211C13.459 19.4302 13.4289 19.2485 13.5341 19.1273C13.6244 19.0062 13.8048 18.9759 13.9251 19.0819C13.9853 19.1273 20.1657 23.928 25.2484 24.2915C25.3988 24.2915 25.5191 24.4429 25.5041 24.5944C25.5041 24.7458 25.3687 24.8518 25.2334 24.8518H25.2184Z" fill="#5E453B"/>
<path d="M30.7825 38.8599C30.7825 38.8599 27.6247 52.7926 14.0908 44.6753C14.0908 44.6753 18.7374 30.9092 30.7825 38.8599Z" fill="#7F9922"/>
<path d="M22.9176 40.8442C22.8123 40.8442 22.7071 40.7836 22.662 40.6776C22.6018 40.5413 22.662 40.3747 22.7973 40.299C23.1131 40.1475 30.677 36.6341 36.9026 39.7538C37.0379 39.8295 37.0981 39.9961 37.0229 40.1324C36.9477 40.2687 36.7823 40.3292 36.6469 40.2535C30.677 37.255 23.1131 40.7684 23.0379 40.7987C22.9928 40.8139 22.9627 40.829 22.9176 40.829V40.8442Z" fill="#5E453B"/>
<path d="M169.158 99.4672H100.617V54.3223H156.872V85.5345C156.872 93.2277 162.376 99.4672 169.158 99.4672Z" fill="#47332A"/>
<path d="M94.3606 154.396H217.097V67.6798C217.097 62.4097 213.203 54.5195 203.894 54.5195L94.3606 54.5801V154.396Z" fill="#F9EEE4"/>
<path d="M193.729 54.5191C186.947 54.5191 181.444 60.7586 181.444 68.4518V85.5193C181.444 89.366 180.075 92.8491 177.85 95.3782C175.624 97.9073 172.556 99.4672 169.158 99.4672C162.376 99.4672 156.872 93.2277 156.872 85.5345V54.3223L193.729 54.5191Z" fill="#BCAC9B"/>
<path d="M94.3609 154.683C94.2105 154.683 94.0902 154.562 94.0902 154.41V54.5949C94.0902 54.4434 94.2105 54.3223 94.3609 54.3223C94.5113 54.3223 94.6316 54.4434 94.6316 54.5949V154.41C94.6316 154.562 94.5113 154.683 94.3609 154.683Z" fill="#5E453B"/>
<path d="M46.3308 99.4674H169.173C169.173 99.4674 169.068 99.4674 168.872 99.4674C162.135 99.0585 156.887 93.3946 156.887 86.5948V17.2949H34.0451V90.9866C34.0451 93.3643 35.1729 95.6359 37.1278 96.9686C38.9474 98.2104 41.8045 99.3008 46.3308 99.4674Z" fill="#F9EEE4"/>
<path d="M168.647 99.7552H104.391C104.241 99.7552 104.12 99.634 104.12 99.4826C104.12 99.3311 104.241 99.1948 104.391 99.1948H168.647C168.797 99.1948 168.917 99.316 168.917 99.4826C168.917 99.6492 168.797 99.7552 168.647 99.7552Z" fill="#5E453B"/>
<path d="M68.4812 99.7548H46.3158C42.3308 99.6033 39.1729 98.7401 36.9173 97.1803C34.9323 95.8021 33.7444 93.5002 33.7444 91.0317V17.2946C33.7444 17.1431 33.8647 17.022 34.015 17.022C34.1654 17.022 34.2857 17.1431 34.2857 17.2946V91.0166C34.2857 93.3033 35.3835 95.4387 37.218 96.7108C39.3835 98.2101 42.4361 99.043 46.3007 99.1793H68.4511C68.6015 99.1793 68.7218 99.3005 68.7218 99.4519C68.7218 99.6033 68.6015 99.7245 68.4511 99.7245L68.4812 99.7548Z" fill="#5E453B"/>
<path d="M156.887 17.5677H48.1801C48.0297 17.5677 47.9094 17.4465 47.9094 17.2951C47.9094 17.1436 48.0297 17.0225 48.1801 17.0225H156.887C157.037 17.0225 157.158 17.1436 157.158 17.2951C157.158 17.4465 157.037 17.5677 156.887 17.5677Z" fill="#5E453B"/>
<path d="M217.113 154.683C216.963 154.683 216.843 154.562 216.843 154.411V68.4673C216.843 60.9407 211.459 54.8073 204.843 54.8073H193.745C187.128 54.8073 181.745 60.9407 181.745 68.4673V85.5349C181.745 93.3796 176.106 99.7553 169.188 99.7553C162.271 99.7553 156.632 93.3796 156.632 85.5349V17.2951C156.632 17.1436 156.752 17.0225 156.903 17.0225C157.053 17.0225 157.173 17.1436 157.173 17.2951V85.5349C157.173 93.0615 162.557 99.1949 169.173 99.1949C175.79 99.1949 181.173 93.0615 181.173 85.5349V68.4673C181.173 60.6226 186.812 54.2469 193.73 54.2469H204.828C211.76 54.2469 217.384 60.6226 217.384 68.4673V154.411C217.384 154.562 217.264 154.683 217.113 154.683Z" fill="#5E453B"/>
<path d="M157.113 63.4542C157.008 63.4542 156.918 63.3936 156.873 63.3027C156.798 63.1664 156.858 62.9999 156.993 62.9241C161.64 60.4102 166.121 57.4419 170.346 54.0951C175.249 50.203 179.88 45.7203 184.091 40.7833C186.692 37.7393 189.189 34.453 191.504 31.0304C191.595 30.9093 191.76 30.8638 191.895 30.9547C192.031 31.0456 192.061 31.2122 191.971 31.3485C189.64 34.7862 187.128 38.0876 184.512 41.1468C180.271 46.1141 175.625 50.6119 170.677 54.5342C166.437 57.8963 161.91 60.8948 157.249 63.4087C157.204 63.4239 157.159 63.439 157.113 63.439V63.4542Z" fill="#5E453B"/>
<path d="M164.06 52.8382C164.06 52.8382 143.639 43.9788 160.466 23.5645C160.466 23.5645 178.391 31.8938 164.06 52.8382Z" fill="#7F9922"/>
<path d="M161.684 60.8039C161.684 60.8039 161.609 60.8039 161.564 60.7736C161.429 60.7131 161.369 60.5465 161.429 60.395C165.534 51.3539 162.857 38.9811 162.827 38.86C162.797 38.7085 162.888 38.5571 163.038 38.5268C163.188 38.4965 163.339 38.5874 163.369 38.7388C163.399 38.86 166.106 51.4145 161.925 60.6222C161.88 60.7282 161.775 60.7888 161.669 60.7888L161.684 60.8039Z" fill="#5E453B"/>
<path d="M184.933 32.651C184.933 32.651 173.068 25.0486 182.331 16.5527C182.331 16.5527 192.872 22.0198 184.933 32.651Z" fill="#AFC547"/>
<path d="M182.752 43.055C182.752 43.055 182.662 43.055 182.632 43.0247C182.497 42.9489 182.436 42.7824 182.512 42.6461C186.557 34.3319 183.775 24.2307 183.745 24.1247C183.7 23.9733 183.79 23.8218 183.94 23.7764C184.091 23.731 184.241 23.8218 184.286 23.9733C184.316 24.0793 187.158 34.3925 183.008 42.9035C182.963 43.0095 182.857 43.055 182.752 43.055Z" fill="#5E453B"/>
<path d="M181.143 50.5664C181.143 50.5664 182.316 66.8313 200.045 60.2133C200.045 60.2133 198.376 42.0554 181.143 50.5664Z" fill="#7F9922"/>
<path d="M190.136 54.6555C190.136 54.6555 190 54.6252 189.955 54.5798C189.895 54.5192 183.775 49.2036 174.617 51.2632C174.466 51.2935 174.316 51.2026 174.286 51.0512C174.256 50.8998 174.346 50.7483 174.497 50.718C183.94 48.5978 190.256 54.1103 190.316 54.1709C190.436 54.2769 190.436 54.4435 190.346 54.5647C190.286 54.6252 190.211 54.6555 190.136 54.6555Z" fill="#5E453B"/>
<path d="M158.602 68.6337C158.602 68.6337 155.519 90.6382 179.639 86.3979C179.639 86.3979 180.466 63.8179 158.602 68.6337Z" fill="#7F9922"/>
<path d="M169.083 75.7666C169.083 75.7666 168.933 75.7363 168.888 75.6757C166.827 73.5707 164.196 71.6171 161.263 70.0421C159.865 69.2849 158.451 68.664 157.053 68.2096C156.903 68.1642 156.827 67.9976 156.872 67.8613C156.918 67.7099 157.083 67.6342 157.218 67.6796C158.632 68.1491 160.076 68.7851 161.519 69.5575C164.497 71.1628 167.173 73.1467 169.279 75.2971C169.384 75.4031 169.384 75.5849 169.279 75.6909C169.218 75.7515 169.158 75.7666 169.083 75.7666Z" fill="#5E453B"/>
<path d="M201.715 31.9542C201.715 31.9542 195.7 27.3201 192.151 34.2864C192.151 34.2864 197.068 39.072 201.715 31.9542Z" fill="#AFC547"/>
<path d="M182.452 68.5733C182.452 68.5733 188.196 57.624 177.459 54.6104C177.459 54.6104 170.677 63.6666 182.452 68.5733Z" fill="#AFC547"/>
<path d="M148.903 54.0045C148.903 54.0045 153.294 62.2278 160.466 54.5345C160.466 54.5345 157.294 45.6903 148.903 54.0045Z" fill="#AFC547"/>
<path d="M179.278 62.2578C179.173 62.2578 179.068 62.1973 179.023 62.0761C178.918 61.7884 176.301 55.034 177.354 50.4756C177.384 50.3242 177.534 50.2333 177.685 50.2636C177.835 50.2939 177.925 50.4453 177.895 50.5968C176.872 54.9886 179.519 61.7884 179.549 61.8641C179.609 62.0155 179.549 62.167 179.399 62.2275C179.369 62.2275 179.324 62.2427 179.294 62.2427L179.278 62.2578Z" fill="#5E453B"/>
<path d="M163.113 56.3061C163.113 56.3061 162.978 56.2758 162.918 56.2304C162.888 56.2001 160.166 53.7619 154.422 53.9739C154.271 53.9739 154.136 53.8527 154.136 53.7013C154.136 53.5499 154.256 53.4136 154.407 53.4136C160.407 53.2015 163.174 55.7155 163.294 55.8215C163.414 55.9275 163.414 56.1092 163.309 56.2152C163.249 56.2758 163.174 56.3061 163.098 56.3061H163.113Z" fill="#5E453B"/>
<path d="M192.015 34.5439C191.203 34.5439 190.406 34.4833 189.684 34.3319C189.534 34.3016 189.444 34.1501 189.474 33.9987C189.504 33.8472 189.654 33.7564 189.805 33.7867C192.662 34.3924 196.827 33.4535 197.263 33.2718C197.368 33.2112 197.519 33.2263 197.609 33.3323C197.714 33.4535 197.699 33.6201 197.579 33.7261C197.399 33.8775 194.692 34.559 192.015 34.559V34.5439Z" fill="#5E453B"/>
<path d="M102.466 55.8672H46.5414V63.1061H102.466V55.8672Z" fill="#D3C3AF"/>
<path d="M141.308 29.6826H46.5414V36.9215H141.308V29.6826Z" fill="#D3C3AF"/>
<path d="M141.308 42.7676H46.5414V50.0065H141.308V42.7676Z" fill="#D3C3AF"/>
<path d="M141.263 72.9347H140.751C140.345 72.9347 140 72.6621 139.894 72.2684C139.759 71.7686 139.578 71.2689 139.383 70.7843C139.233 70.4511 139.308 70.0573 139.563 69.7999L140.225 69.1335C140.571 68.7852 140.571 68.2249 140.225 67.8766L136.977 64.6054C136.631 64.2571 136.075 64.2571 135.729 64.6054L135.368 64.9689C135.082 65.2566 134.646 65.3021 134.3 65.1052C133.849 64.8477 133.383 64.6206 132.902 64.4237C132.571 64.2874 132.345 63.9542 132.345 63.5908V62.6367C132.345 62.1521 131.954 61.7432 131.458 61.7432H126.857C126.36 61.7432 125.969 62.1369 125.969 62.6367V63.1516C125.969 63.5605 125.699 63.9088 125.308 64.0148C124.812 64.1511 124.315 64.3328 123.834 64.5297C123.503 64.6811 123.112 64.6054 122.857 64.348L122.195 63.6816C121.849 63.3333 121.293 63.3333 120.947 63.6816L117.699 66.9528C117.353 67.3011 117.353 67.8614 117.699 68.2097L118.06 68.5732C118.345 68.8609 118.39 69.3001 118.195 69.6484C117.939 70.1028 117.714 70.5722 117.518 71.0568C117.383 71.39 117.052 71.6172 116.691 71.6172H115.744C115.263 71.6172 114.857 72.0109 114.857 72.5107V77.1448C114.857 77.6294 115.248 78.0383 115.744 78.0383H116.255C116.661 78.0383 117.007 78.3109 117.112 78.7047C117.248 79.2044 117.428 79.7042 117.624 80.1888C117.774 80.522 117.699 80.9157 117.443 81.1732L116.781 81.8395C116.436 82.1878 116.436 82.7482 116.781 83.0965L120.03 86.3676C120.375 86.716 120.932 86.716 121.278 86.3676L121.639 86.0042C121.924 85.7164 122.36 85.671 122.706 85.8679C123.157 86.1253 123.624 86.3525 124.105 86.5494C124.436 86.6857 124.661 87.0188 124.661 87.3823V88.3364C124.661 88.8362 125.052 89.2299 125.548 89.2299H130.15C130.631 89.2299 131.037 88.8362 131.037 88.3364V87.8215C131.037 87.4126 131.308 87.0643 131.699 86.9583C132.195 86.822 132.691 86.6402 133.172 86.4434C133.503 86.2919 133.894 86.3676 134.15 86.6251L134.812 87.2914C135.157 87.6398 135.714 87.6398 136.06 87.2914L139.308 84.0203C139.654 83.672 139.654 83.1116 139.308 82.7633L138.947 82.3999C138.661 82.1121 138.616 81.6729 138.812 81.3246C139.067 80.8703 139.293 80.4008 139.488 79.9162C139.624 79.583 139.954 79.3559 140.315 79.3559H141.263C141.759 79.3559 142.15 78.9621 142.15 78.4624V73.8282C142.15 73.3285 141.759 72.9347 141.263 72.9347ZM134.33 71.4203C130.391 75.4032 128.526 80.5674 128.511 80.6128C128.375 80.9763 128.06 81.2338 127.669 81.2792C127.639 81.2792 127.594 81.2792 127.563 81.2792C127.218 81.2792 126.902 81.0975 126.706 80.7946C126.676 80.7491 124.105 76.5088 122.646 74.9792C122.27 74.5855 122.285 73.9494 122.676 73.5556C123.067 73.177 123.699 73.1922 124.09 73.5859C125.082 74.6309 126.451 76.6602 127.383 78.0989C128.315 76.0999 130.105 72.7984 132.902 69.9816C133.293 69.5879 133.924 69.5879 134.315 69.9816C134.706 70.3754 134.706 71.0114 134.315 71.4052L134.33 71.4203Z" fill="#D3C3AF"/>
<path d="M30.4361 117.277C30.4361 117.277 30.3158 117.277 30.2556 117.231C30.0451 117.125 29.9699 116.883 30.0602 116.671L30.6767 115.414C30.782 115.202 31.0226 115.126 31.2331 115.217C31.4436 115.323 31.5188 115.565 31.4286 115.777L30.812 117.034C30.7368 117.186 30.5865 117.261 30.4361 117.261V117.277Z" fill="#ADADAD"/>
<path d="M32.3004 113.475C32.3004 113.475 32.1801 113.475 32.1199 113.43C31.9094 113.324 31.8342 113.082 31.9244 112.87L33.1725 110.325C33.2778 110.113 33.5184 110.038 33.7289 110.129C33.9395 110.235 34.0146 110.477 33.9244 110.689L32.6763 113.233C32.6011 113.385 32.4507 113.475 32.3004 113.475ZM34.7816 108.402C34.7816 108.402 34.6613 108.402 34.6011 108.357C34.3906 108.251 34.3154 108.008 34.4056 107.796L35.6537 105.252C35.759 105.04 35.9996 104.964 36.2101 105.055C36.4207 105.161 36.4958 105.404 36.4056 105.616L35.1575 108.16C35.0823 108.311 34.9319 108.402 34.7816 108.402ZM37.2628 103.314C37.2628 103.314 37.1425 103.314 37.0823 103.268C36.8718 103.162 36.7966 102.92 36.8868 102.708L38.1349 100.164C38.2402 99.9516 38.4808 99.8759 38.6913 99.9667C38.9019 100.073 38.977 100.315 38.8868 100.527L37.6387 103.071C37.5635 103.223 37.4131 103.298 37.2628 103.298V103.314ZM39.744 98.2252C39.744 98.2252 39.6237 98.2252 39.5635 98.1797C39.353 98.0737 39.2778 97.8314 39.368 97.6194L40.6161 95.0752C40.7214 94.8631 40.962 94.7874 41.1725 94.8783C41.3831 94.9843 41.4583 95.2266 41.368 95.4386L40.1199 97.9828C40.0447 98.1343 39.8943 98.21 39.744 98.21V98.2252ZM42.2252 93.1518C42.2252 93.1518 42.1049 93.1518 42.0447 93.1064C41.8342 93.0004 41.759 92.7581 41.8492 92.5461L43.0973 90.0019C43.2026 89.7898 43.4432 89.7141 43.6537 89.805C43.8643 89.911 43.9395 90.1533 43.8492 90.3653L42.6011 92.9095C42.5259 93.061 42.3755 93.1518 42.2252 93.1518ZM44.7214 88.0634C44.7214 88.0634 44.6011 88.0634 44.541 88.018C44.3304 87.9119 44.2552 87.6696 44.3455 87.4576L45.5936 84.9134C45.6989 84.7014 45.9395 84.6257 46.15 84.7165C46.3605 84.8225 46.4357 85.0648 46.3455 85.2769L45.0973 87.8211C45.0222 87.9725 44.8718 88.0482 44.7214 88.0482V88.0634Z" fill="#ADADAD"/>
<path d="M48.4211 82.9901C48.2707 82.9901 48.1203 82.8992 48.0451 82.7629L47.8045 82.2783L47.5639 82.7629C47.4587 82.9749 47.2181 83.0506 47.0075 82.9598C46.797 82.8538 46.7218 82.6115 46.812 82.3994L47.8045 80.3701L48.797 82.3994C48.9023 82.6115 48.812 82.8538 48.6015 82.9598C48.5414 82.9901 48.4812 83.0052 48.4211 83.0052V82.9901Z" fill="#ADADAD"/>
<path d="M63.3383 113.475C63.188 113.475 63.0376 113.384 62.9624 113.233L61.7143 110.689C61.609 110.477 61.6992 110.234 61.9098 110.128C62.1203 110.022 62.3609 110.113 62.4662 110.325L63.7143 112.869C63.8196 113.081 63.7293 113.324 63.5188 113.43C63.4587 113.46 63.3985 113.475 63.3383 113.475ZM60.8421 108.402C60.6917 108.402 60.5414 108.311 60.4662 108.16L59.2181 105.615C59.1128 105.403 59.203 105.161 59.4135 105.055C59.6241 104.949 59.8647 105.04 59.9699 105.252L61.218 107.796C61.3233 108.008 61.2331 108.25 61.0226 108.356C60.9624 108.387 60.9023 108.402 60.8421 108.402ZM58.3609 103.313C58.2105 103.313 58.0602 103.223 57.985 103.086L56.7368 100.542C56.6316 100.33 56.7218 100.088 56.9323 99.9816C57.1429 99.8756 57.3835 99.9665 57.4887 100.179L58.7368 102.723C58.8421 102.935 58.7519 103.177 58.5414 103.283C58.4812 103.313 58.4211 103.329 58.3609 103.329V103.313ZM55.8797 98.2249C55.7293 98.2249 55.579 98.134 55.5038 97.9978L54.2556 95.4535C54.1504 95.2415 54.2406 94.9992 54.4511 94.8932C54.6617 94.7872 54.9023 94.878 55.0075 95.0901L56.2556 97.6343C56.3609 97.8463 56.2707 98.0886 56.0602 98.1946C56 98.2249 55.9399 98.2401 55.8797 98.2401V98.2249ZM53.3985 93.1516C53.2481 93.1516 53.0977 93.0607 53.0226 92.9093L51.7744 90.3651C51.6692 90.1531 51.7594 89.9107 51.9699 89.8047C52.1805 89.6987 52.4211 89.7896 52.5263 90.0016L53.7744 92.5458C53.8797 92.7579 53.7895 93.0002 53.579 93.1062C53.5188 93.1365 53.4586 93.1516 53.3985 93.1516ZM50.9173 88.0632C50.7669 88.0632 50.6165 87.9723 50.5414 87.836L49.2932 85.2918C49.188 85.0797 49.2782 84.8374 49.4887 84.7314C49.6993 84.6254 49.9399 84.7163 50.0451 84.9283L51.2932 87.4725C51.3985 87.6845 51.3083 87.9269 51.0977 88.0329C51.0376 88.0632 50.9774 88.0783 50.9173 88.0783V88.0632Z" fill="#ADADAD"/>
<path d="M65.188 117.276C65.0376 117.276 64.8872 117.186 64.812 117.049L64.1955 115.792C64.0902 115.58 64.1805 115.338 64.391 115.232C64.6015 115.126 64.8421 115.217 64.9474 115.429L65.5639 116.686C65.6692 116.898 65.5789 117.14 65.3684 117.246C65.3083 117.276 65.2481 117.292 65.188 117.292V117.276Z" fill="#ADADAD"/>
<path d="M31.579 102.632C31.9098 101.905 32.3008 101.193 32.7218 100.527C33.1579 99.8606 33.6391 99.2397 34.1654 98.6491C35.579 97.0589 37.2932 95.7717 39.2481 94.863C39.7293 94.6358 40.2105 94.439 40.7068 94.2724C41.7444 93.9089 42.8421 93.6515 43.985 93.5303C44.0902 93.5152 44.1955 93.5 44.3008 93.5C44.6917 93.4546 50.2256 93.4395 50.6165 93.4395V124.879C50.4662 124.879 45.1729 124.879 45.0226 124.864C44.6767 124.849 44.3308 124.818 43.985 124.773C43.5489 124.727 43.1128 124.652 42.6917 124.561C41.9098 124.394 41.1429 124.182 40.406 123.91C34.4511 121.699 30.1955 115.929 30.1955 109.144C30.1955 106.827 30.6917 104.616 31.594 102.632H31.579Z" fill="#F5CC72"/>
<path d="M65.6846 109.144C65.6846 115.913 61.429 121.683 55.4741 123.894C54.7373 124.167 53.9704 124.394 53.1884 124.546C52.7673 124.637 52.3313 124.697 51.8952 124.758C51.5493 124.803 51.2034 124.833 50.8576 124.849C50.6019 124.864 50.3463 124.864 50.0907 124.864C47.6095 124.864 45.2636 124.273 43.1734 123.243C42.0606 122.698 41.038 122.017 40.0907 121.229C38.7072 120.063 37.5343 118.67 36.617 117.095C35.2636 114.762 34.4816 112.052 34.4816 109.159C34.4816 101.814 39.4741 95.6505 46.226 93.9241C47.4591 93.606 48.7523 93.4395 50.0907 93.4395C50.6019 93.4395 51.0982 93.4697 51.5794 93.5152C51.6846 93.5152 51.7899 93.5303 51.8952 93.5455C53.023 93.6666 54.1207 93.9241 55.1583 94.2875C55.6546 94.4693 56.1508 94.651 56.617 94.8782C58.5568 95.7868 60.2861 97.0741 61.6997 98.6642C62.226 99.2548 62.7072 99.8757 63.1433 100.542C63.5794 101.208 63.9553 101.905 64.2861 102.647C65.1884 104.631 65.6846 106.827 65.6846 109.159V109.144Z" fill="#EFBC51"/>
<path d="M41.0075 109.144C41.0075 111.204 41.6842 113.097 42.8271 114.626L40.0902 121.214C38.7068 120.048 37.5338 118.654 36.6165 117.079L41.0075 106.479V109.144Z" fill="#F7D084"/>
<path d="M51.5785 93.5L48.8868 99.9969H45.7139C45.7139 102.359 43.9996 104.313 41.759 104.676L46.2251 93.9089C47.4582 93.5909 48.7515 93.4243 50.0898 93.4243C50.586 93.4243 51.0973 93.4546 51.5785 93.5Z" fill="#F7D084"/>
<path d="M64.301 102.632L55.489 123.894C54.7522 124.167 53.9853 124.394 53.2033 124.546L57.2635 114.747C58.2409 113.49 58.8875 111.976 59.098 110.325L63.1582 100.527C63.5943 101.193 63.9702 101.89 64.301 102.632Z" fill="#F7D084"/>
<path d="M50.0752 118.291C51.4436 118.291 52.7519 117.988 53.9248 117.428L50.8572 124.849C50.6015 124.864 50.3459 124.864 50.0902 124.864C47.609 124.864 45.2481 124.288 43.1729 123.243L45.6993 117.155C47.0075 117.882 48.4963 118.291 50.0902 118.291H50.0752Z" fill="#F7D084"/>
<path d="M59.1584 104.798V104.737C56.5568 104.737 54.4516 102.617 54.4516 99.997H52.7824L55.1584 94.2725C55.6546 94.4542 56.1508 94.6359 56.617 94.8631C58.5569 95.7717 60.2862 97.059 61.6997 98.6491L59.1584 104.798Z" fill="#F7D084"/>
<path d="M48.8722 100.012L42.812 114.642C41.6692 113.112 40.9925 111.219 40.9925 109.159V106.494L41.7444 104.692C43.985 104.328 45.6993 102.375 45.6993 100.012H48.8722Z" fill="#DF3744"/>
<path d="M41.008 104.737C41.2636 104.737 41.5193 104.722 41.7599 104.677L41.008 106.479V104.737Z" fill="#C43041"/>
<path d="M59.1575 104.737V104.798L53.9244 117.428C52.7514 117.973 51.4582 118.291 50.0748 118.291C48.4808 118.291 46.977 117.882 45.6838 117.155L52.7966 100.012H54.4657C54.4657 102.632 56.571 104.752 59.1725 104.752L59.1575 104.737Z" fill="#DF3744"/>
<path d="M48.8722 100.012H52.782L45.6692 117.155C44.5414 116.535 43.5639 115.671 42.797 114.642L48.8572 100.012H48.8722Z" fill="#C43041"/>
<path d="M59.0827 110.34C58.8722 111.991 58.2256 113.505 57.2481 114.762L59.0827 110.34Z" fill="#DF3744"/>
<path d="M59.1579 104.798V109.144C59.1579 109.553 59.1278 109.947 59.0827 110.325L57.2481 114.748C56.3759 115.883 55.2331 116.807 53.9248 117.413L59.1579 104.783V104.798Z" fill="#C43041"/>
<path d="M43.1579 123.379C43.1579 123.379 43.1128 123.379 43.0978 123.379C42 122.834 40.9474 122.138 40 121.335C38.5865 120.154 37.4135 118.745 36.4962 117.17C35.0827 114.747 34.3459 111.976 34.3459 109.159C34.3459 101.905 39.2181 95.5746 46.1955 93.7876C46.2707 93.7724 46.3459 93.8179 46.3609 93.8936C46.3759 93.9693 46.3308 94.045 46.2556 94.0602C39.3985 95.8169 34.6165 102.026 34.6165 109.159C34.6165 111.93 35.3534 114.656 36.7368 117.034C37.6391 118.594 38.797 119.972 40.1805 121.138C41.1128 121.926 42.1504 122.607 43.2331 123.137C43.3083 123.167 43.3233 123.258 43.2932 123.319C43.2632 123.364 43.2181 123.395 43.1729 123.395L43.1579 123.379Z" fill="#5E453B"/>
<path d="M35.0677 104.949H31.6541C31.5789 104.949 31.5188 104.888 31.5188 104.813C31.5188 104.737 31.5789 104.676 31.6541 104.676H35.0677C35.1429 104.676 35.203 104.737 35.203 104.813C35.203 104.888 35.1429 104.949 35.0677 104.949Z" fill="#5E453B"/>
<path d="M34.7519 106.115H32.3008C32.2256 106.115 32.1654 106.055 32.1654 105.979C32.1654 105.903 32.2256 105.843 32.3008 105.843H34.7519C34.8271 105.843 34.8872 105.903 34.8872 105.979C34.8872 106.055 34.8271 106.115 34.7519 106.115Z" fill="#5E453B"/>
<path d="M38.782 98.4371H35.9549C35.8797 98.4371 35.8195 98.3766 35.8195 98.3009C35.8195 98.2251 35.8797 98.1646 35.9549 98.1646H38.782C38.8571 98.1646 38.9173 98.2251 38.9173 98.3009C38.9173 98.3766 38.8571 98.4371 38.782 98.4371Z" fill="#5E453B"/>
<path d="M37.7744 99.6032H34.2256C34.1504 99.6032 34.0902 99.5426 34.0902 99.4669C34.0902 99.3911 34.1504 99.3306 34.2256 99.3306H37.7744C37.8496 99.3306 37.9098 99.3911 37.9098 99.4669C37.9098 99.5426 37.8496 99.6032 37.7744 99.6032Z" fill="#5E453B"/>
<path d="M35.383 114.611H33.3679C33.2928 114.611 33.2326 114.55 33.2326 114.475C33.2326 114.399 33.2928 114.338 33.3679 114.338H35.383C35.4582 114.338 35.5183 114.399 35.5183 114.475C35.5183 114.55 35.4582 114.611 35.383 114.611Z" fill="#5E453B"/>
<path d="M58.6169 125.333H37.0229C33.1582 125.333 30.0304 122.168 30.0304 118.291C30.0304 118.064 30.2109 117.867 30.4515 117.867C30.6921 117.867 30.8725 118.049 30.8725 118.291C30.8725 121.714 33.6394 124.5 37.0379 124.5H58.6319C62.0304 124.5 64.7973 121.714 64.7973 118.291C64.7973 118.064 64.9778 117.867 65.2184 117.867C65.459 117.867 65.6395 118.049 65.6395 118.291C65.6395 122.183 62.4966 125.333 58.647 125.333H58.6169Z" fill="#ADADAD"/>
<path d="M49.1582 81.7332C49.1582 82.5964 48.4515 83.3082 47.5943 83.3082C46.7372 83.3082 46.0304 82.5964 46.0304 81.7332C46.0304 80.87 46.7372 80.1582 47.5943 80.1582C48.4515 80.1582 49.1582 80.87 49.1582 81.7332Z" fill="#D3C3AF"/>
<path d="M225.038 55.5488L226.962 50.7026L228.887 55.5488L233.564 57.3661L228.962 58.8502L226.962 64.0144L224.947 58.8502L220.346 57.3661L225.038 55.5488Z" fill="#D7E7F3"/>
<path d="M241.73 90.9563L242.692 88.5181L243.654 90.9563L246 91.8498L243.7 92.607L242.692 95.1815L241.7 92.607L239.384 91.8498L241.73 90.9563Z" fill="#D7E7F3"/>
<path d="M16.4514 127.544L15.6243 125.455L14.7973 127.544L12.7822 128.317L14.7672 128.953L15.6243 131.164L16.4815 128.953L18.4514 128.317L16.4514 127.544Z" fill="#D7E7F3"/>
<path d="M23.3383 92.1526L21.985 88.73L20.6316 92.1526L17.3233 93.4247L20.5714 94.4848L21.985 98.1194L23.3985 94.4848L26.6466 93.4247L23.3383 92.1526Z" fill="#D7E7F3"/>
<path d="M125.729 133.511L143.534 125.576C145.82 119.246 146.406 110.083 148.932 105.449C150.917 101.815 156.316 101.012 160.045 102.769C160.045 102.769 169.128 104.843 166.812 114.717C166.165 117.474 164.962 122.138 163.474 126.787C161.353 133.375 158.662 139.917 156.135 140.887C146.932 144.37 129.729 150.109 129.729 150.109L125.729 133.527V133.511Z" fill="#AB8051"/>
<path d="M125.729 133.648C125.729 133.648 125.624 133.617 125.609 133.557C125.579 133.481 125.609 133.405 125.684 133.375C125.85 133.299 142.391 125.924 143.429 125.455C144.436 122.668 145.113 119.321 145.759 116.08C146.602 111.901 147.399 107.963 148.812 105.374C148.842 105.298 148.932 105.283 149.008 105.313C149.068 105.343 149.098 105.434 149.068 105.51C147.669 108.069 146.872 111.992 146.045 116.141C145.383 119.412 144.707 122.789 143.684 125.606C143.684 125.606 143.278 125.833 140.827 126.924L125.805 133.617C125.805 133.617 125.774 133.617 125.744 133.617L125.729 133.648Z" fill="#5E453B"/>
<path d="M148.466 109.492C149.684 104.071 155.218 100.754 160.647 102.102C169.038 104.192 178.015 106.342 186.632 114.066C194.421 121.047 192.075 144.294 190.526 154.395C190.421 155.107 151.744 154.698 151.744 154.698C151.744 154.698 150.541 142.31 150.421 141.871C146.346 126.878 146.947 116.247 148.466 109.477V109.492Z" fill="#AB8051"/>
<path d="M150.647 142.401C150.647 142.401 150.526 142.355 150.511 142.295C146.226 126.227 146.842 115.747 148.12 109.795C148.135 109.72 148.211 109.674 148.286 109.689C148.361 109.705 148.406 109.78 148.391 109.856C147.128 115.777 146.511 126.212 150.782 142.219C150.797 142.295 150.752 142.371 150.677 142.386H150.647V142.401Z" fill="#5E453B"/>
<path d="M163.399 110.25C162.181 111.446 160.632 112.007 159.113 112.007C157.88 112.007 156.662 111.643 155.624 110.946C155.534 110.81 155.429 110.674 155.354 110.538L154.512 109.159L161.91 99.7095L164.557 103.571L164.647 103.768C165.624 105.979 165.143 108.569 163.414 110.265L163.399 110.25Z" fill="#F3AE91"/>
<path d="M165.188 110.841C163.985 112.552 162.12 113.642 160.301 113.4C156.015 112.84 155.88 111.219 154.707 109.599C155.759 110.311 156.992 110.598 158.241 110.689C160.165 110.81 162.361 109.584 163.098 108.842C164.211 107.721 165.098 105.661 164.632 103.647L164.541 103.45L165.218 104.419C166.541 106.358 166.541 108.917 165.188 110.841Z" fill="#5E453B"/>
<path d="M160.286 113.536C160.286 113.536 160.166 113.536 160.106 113.536C158.046 113.476 156.166 112.385 155.068 110.613L154.421 109.553C154.421 109.553 154.406 109.402 154.467 109.356C154.527 109.311 154.617 109.341 154.662 109.402L155.309 110.462C156.346 112.158 158.136 113.188 160.106 113.249C162.076 113.309 163.925 112.37 165.068 110.75C167.294 107.206 165.188 104.616 165.098 104.495L163.85 102.663C163.85 102.663 163.82 102.511 163.88 102.466C163.94 102.42 164.03 102.436 164.076 102.496L165.324 104.313C165.324 104.313 167.64 107.161 165.309 110.886C164.151 112.537 162.286 113.506 160.301 113.506L160.286 113.536Z" fill="#47332A"/>
<path d="M158.842 110.81C158.752 110.81 158.662 110.81 158.572 110.81C158.497 110.81 158.436 110.734 158.436 110.659C158.436 110.583 158.497 110.522 158.587 110.522C160.451 110.644 162.512 109.432 163.143 108.781C164.181 107.736 165.023 105.828 164.587 103.919C164.572 103.844 164.617 103.768 164.692 103.753C164.767 103.738 164.842 103.783 164.857 103.859C165.324 105.873 164.436 107.887 163.339 108.978C162.692 109.629 160.707 110.81 158.827 110.81H158.842Z" fill="#47332A"/>
<path d="M151.218 100.391C151.173 102.117 149.759 103.48 148.045 103.435C146.331 103.389 144.977 101.966 145.023 100.239C145.068 98.513 146.481 97.15 148.195 97.1954C149.91 97.2409 151.263 98.6644 151.218 100.391Z" fill="#F3AE91"/>
<path d="M144.602 92.1525C143.895 95.2117 146.256 98.3768 149.865 99.2249C153.474 100.058 156.977 98.2556 157.669 95.1965C158.376 92.1374 156.015 88.9722 152.406 88.1242C148.797 87.2912 145.293 89.0934 144.602 92.1525Z" fill="#47332A"/>
<path d="M154.061 109.402C153.67 109.387 153.294 109.341 152.948 109.265C149.459 108.599 147.369 105.661 146.903 101.981C146.903 101.86 146.873 101.739 146.873 101.618C146.812 100.997 146.797 100.345 146.843 99.6943C146.843 99.5883 146.843 99.4671 146.873 99.3611C146.873 99.1945 146.903 99.0279 146.918 98.8613C146.933 98.6493 146.963 98.4373 147.008 98.2253C148.241 90.3957 151.113 88.3361 156.482 88.6087C161.85 88.8813 165.97 93.7729 165.685 99.5428C165.399 105.313 159.459 109.705 154.076 109.432L154.061 109.402Z" fill="#F3AE91"/>
<path d="M147.519 101.678C147.294 101.678 147.068 101.648 146.873 101.618C146.812 100.997 146.797 100.345 146.843 99.6943C146.843 99.5883 146.843 99.4671 146.873 99.3611C146.873 99.1945 146.903 99.0279 146.918 98.8614C147.113 98.8159 147.324 98.8008 147.549 98.8008C148.752 98.8008 149.73 99.452 149.73 100.255C149.73 101.057 148.752 101.693 147.549 101.693L147.519 101.678Z" fill="#DE704B"/>
<path d="M154.541 109.553C154.376 109.553 154.211 109.553 154.045 109.553C153.669 109.538 153.278 109.492 152.902 109.417C149.549 108.781 147.248 106.009 146.752 102.011C146.752 101.89 146.722 101.769 146.707 101.633C146.647 101.012 146.632 100.361 146.677 99.6942C146.677 99.5882 146.677 99.467 146.707 99.361C146.707 99.1944 146.737 99.0278 146.752 98.8461C146.782 98.6038 146.797 98.3918 146.842 98.1949C146.842 98.1192 146.917 98.0737 147.008 98.0737C147.083 98.0737 147.128 98.1646 147.128 98.2403C147.098 98.4372 147.068 98.6341 147.053 98.8612C147.038 99.0278 147.023 99.1944 147.008 99.361C147.008 99.467 146.992 99.5882 146.977 99.6942C146.947 100.345 146.947 100.997 147.008 101.602C147.008 101.723 147.038 101.845 147.038 101.966C147.519 105.843 149.729 108.523 152.962 109.129C153.323 109.205 153.699 109.25 154.06 109.265C156.301 109.371 158.662 108.69 160.737 107.312C160.797 107.266 160.887 107.281 160.932 107.357C160.977 107.418 160.962 107.509 160.887 107.554C158.917 108.856 156.692 109.568 154.541 109.568V109.553Z" fill="#5E453B"/>
<path d="M163.699 101.179L163.263 104.026C163.158 104.707 164.075 105.01 164.406 104.404L167.248 98.9676L163.128 98.2559L163.699 101.179Z" fill="#5E453B"/>
<path d="M152.421 96.3475C152.406 96.9078 148.767 96.7867 148.797 96.2263C148.827 95.666 150.256 95.1208 151.263 95.1511C152.271 95.1814 152.451 95.7872 152.421 96.3475Z" fill="#5E453B"/>
<path d="M154.977 96.4386C154.962 96.9989 158.586 97.1503 158.601 96.59C158.617 96.0297 157.218 95.3785 156.226 95.333C155.218 95.2876 154.992 95.8782 154.977 96.4386Z" fill="#5E453B"/>
<path d="M150.632 88.3513C150.632 88.3513 151.143 95.9234 162.391 100.527C162.391 100.527 165.549 100.876 166.331 100.27C169.789 97.6347 170.12 82.748 150.632 88.3513Z" fill="#5E453B"/>
<path d="M158.165 98.604C158.165 98.8463 157.955 99.0432 157.654 99.1795C157.609 99.2097 157.564 99.2249 157.519 99.24C157.474 99.2552 157.444 99.2703 157.398 99.2855C157.353 99.2855 157.323 99.3158 157.278 99.3158C157.083 99.3612 156.872 99.3915 156.632 99.3915C156.571 99.3915 156.496 99.3915 156.421 99.3915C156.195 99.3915 155.985 99.346 155.789 99.2855C155.684 99.2703 155.579 99.2249 155.489 99.1946C155.444 99.1795 155.398 99.1492 155.353 99.134C154.992 98.9523 154.767 98.71 154.782 98.4374C154.782 98.1648 155.038 97.9376 155.414 97.8013C155.579 97.7408 155.774 97.6802 155.985 97.665C156.075 97.665 156.18 97.6499 156.286 97.6499C156.286 97.6499 156.436 97.6499 156.496 97.6499C156.571 97.6499 156.632 97.6499 156.707 97.665C156.857 97.6802 156.992 97.7105 157.128 97.7559C157.203 97.7711 157.278 97.8013 157.338 97.8316C157.414 97.8619 157.489 97.8922 157.564 97.9225C157.925 98.0891 158.15 98.3465 158.135 98.6191L158.165 98.604Z" fill="white"/>
<path d="M157.759 98.5737C157.759 98.8311 157.669 99.0583 157.534 99.2552C157.489 99.2703 157.459 99.2855 157.414 99.3006C157.368 99.3006 157.338 99.3309 157.293 99.3309C157.098 99.3763 156.887 99.4066 156.647 99.4066C156.586 99.4066 156.511 99.4066 156.436 99.4066C156.211 99.4066 156 99.3612 155.805 99.3006C155.699 99.2855 155.594 99.24 155.504 99.2097C155.459 99.1946 155.414 99.1643 155.368 99.1492C155.263 98.9523 155.203 98.7251 155.218 98.498C155.218 98.2557 155.308 98.0133 155.429 97.8316C155.594 97.771 155.789 97.7105 156 97.6953C156.09 97.6953 156.195 97.6802 156.301 97.6802C156.301 97.6802 156.451 97.6802 156.511 97.6802C156.586 97.6802 156.647 97.6802 156.722 97.6953C156.872 97.7105 157.008 97.7408 157.143 97.7862C157.218 97.8013 157.293 97.8316 157.353 97.8619C157.429 97.8922 157.504 97.9225 157.579 97.9528C157.684 98.1496 157.744 98.3768 157.729 98.604L157.759 98.5737Z" fill="#5E453B"/>
<path d="M152.346 98.3164C152.346 98.5284 152.18 98.7253 151.925 98.8616C151.925 98.8616 151.865 98.8919 151.835 98.907C151.744 98.9525 151.639 98.9827 151.519 99.013C151.489 99.013 151.444 99.013 151.414 99.0282C151.248 99.0585 151.068 99.0736 150.872 99.0888C150.797 99.0888 150.737 99.0888 150.662 99.0888C150.421 99.0888 150.211 99.0433 150 98.9827C149.91 98.9525 149.804 98.9222 149.729 98.8767C149.654 98.8464 149.594 98.8162 149.534 98.7707C149.248 98.6041 149.068 98.3618 149.083 98.1347C149.083 97.8621 149.338 97.6349 149.714 97.4835C149.88 97.4229 150.09 97.3623 150.316 97.3472C150.391 97.3472 150.466 97.3472 150.541 97.3472C150.617 97.3472 150.677 97.3472 150.737 97.3472C150.812 97.3472 150.872 97.3472 150.932 97.3623C151.068 97.3623 151.203 97.4077 151.338 97.438C151.414 97.4532 151.489 97.4835 151.549 97.4986C151.624 97.5289 151.699 97.5592 151.759 97.5895C152.12 97.7712 152.346 98.0287 152.316 98.3013L152.346 98.3164Z" fill="white"/>
<path d="M159.97 99.5427C159.97 99.5427 159.925 99.5427 159.91 99.5276C151.053 94.9237 150.512 88.4269 150.512 88.3663C150.512 88.2906 150.572 88.23 150.647 88.2148C150.722 88.2148 150.797 88.2603 150.797 88.3511C150.797 88.4117 151.339 94.7723 160.06 99.2853C160.136 99.3155 160.151 99.4064 160.121 99.467C160.091 99.5124 160.045 99.5427 160 99.5427H159.97Z" fill="#47332A"/>
<path d="M159.985 100.724C159.894 102.451 161.218 103.904 162.917 103.995C164.631 104.086 166.075 102.753 166.165 101.042C166.255 99.3157 164.932 97.8619 163.233 97.771C161.534 97.6801 160.075 99.0128 159.985 100.724Z" fill="#F3AE91"/>
<path d="M151.233 101.784C151.323 101.799 151.414 101.769 151.474 101.693C151.549 101.587 151.534 101.421 151.429 101.345C151.293 101.239 151.278 101.179 151.278 101.179C151.323 100.967 152.211 100.649 153.143 100.497C153.263 100.482 153.353 100.376 153.353 100.255L153.474 97.7711C153.474 97.6348 153.383 97.5137 153.233 97.5137C153.098 97.5137 152.977 97.6197 152.977 97.756L152.857 100.043C152.15 100.164 150.932 100.467 150.782 101.057C150.737 101.224 150.767 101.481 151.113 101.754C151.143 101.784 151.188 101.799 151.218 101.799L151.233 101.784Z" fill="#5E453B"/>
<path d="M156.135 101.133C156 101.92 156.857 102.723 158.03 102.935C159.218 103.147 160.285 102.678 160.421 101.89C160.556 101.103 159.699 100.3 158.526 100.088C157.338 99.876 156.27 100.345 156.135 101.133Z" fill="#DE704B"/>
<path d="M165.083 100.3C165.083 100.3 165.218 100.3 165.278 100.255C165.383 100.179 165.414 100.012 165.323 99.9062C164.842 99.2398 164.271 98.8612 163.609 98.7704C162.632 98.6341 161.88 99.2096 161.835 99.2247C161.729 99.3156 161.699 99.467 161.789 99.573C161.88 99.679 162.03 99.7093 162.135 99.6184C162.135 99.6184 162.767 99.149 163.534 99.255C164.045 99.3307 164.511 99.6487 164.917 100.194C164.962 100.255 165.008 100.285 165.083 100.285V100.3Z" fill="#5E453B"/>
<path d="M151.985 98.3462C151.985 98.5582 151.925 98.7399 151.835 98.9065C151.745 98.952 151.64 98.9823 151.519 99.0125C151.489 99.0125 151.444 99.0125 151.414 99.0277C151.249 99.058 151.068 99.0731 150.873 99.0883C150.797 99.0883 150.737 99.0883 150.662 99.0883C150.422 99.0883 150.211 99.0428 150 98.9823C149.91 98.952 149.805 98.9217 149.73 98.8762C149.655 98.846 149.594 98.8157 149.534 98.7702C149.459 98.6037 149.429 98.4219 149.444 98.2402C149.444 97.9525 149.564 97.695 149.73 97.483C149.895 97.4224 150.106 97.3618 150.331 97.3467C150.406 97.3467 150.482 97.3467 150.557 97.3467C150.632 97.3467 150.692 97.3467 150.752 97.3467C150.828 97.3467 150.888 97.3467 150.948 97.3618C151.083 97.3618 151.219 97.4073 151.354 97.4375C151.429 97.4527 151.504 97.483 151.564 97.4981C151.64 97.5284 151.715 97.5587 151.775 97.589C151.91 97.801 151.985 98.0585 151.97 98.3311L151.985 98.3462Z" fill="#5E453B"/>
<path d="M152.586 104.344C151.849 104.344 151.278 104.177 151.158 104.117C151.082 104.086 151.067 103.995 151.097 103.935C151.127 103.859 151.218 103.844 151.278 103.874C151.308 103.874 153.488 104.601 155.112 103.193C155.173 103.147 155.263 103.147 155.308 103.193C155.353 103.253 155.353 103.344 155.308 103.39C154.451 104.147 153.413 104.344 152.601 104.344H152.586Z" fill="#5E453B"/>
<path d="M164.286 96.0599C159.248 96.0599 154.947 92.5919 154.887 92.5616C154.827 92.5162 154.812 92.4253 154.872 92.3647C154.917 92.3042 155.007 92.289 155.068 92.3496C155.128 92.395 160.707 96.8777 166.511 95.545C166.586 95.5299 166.662 95.5753 166.677 95.651C166.692 95.7268 166.647 95.8025 166.571 95.8176C165.804 95.9994 165.038 96.0751 164.286 96.0751V96.0599Z" fill="#47332A"/>
<path d="M84.2406 91.7436C84.2406 91.7436 93.5188 89.3205 97.4737 96.9078C98.7218 99.3157 99.3083 102.435 98.1203 105.782C95.1429 114.293 102.331 145.702 83.9399 141.144L78.1504 115.49L84.2406 91.7285V91.7436Z" fill="#473837"/>
<path d="M89.4439 116.126C89.4289 110.568 84.7372 107.176 79.5943 108.508C71.6545 110.568 62.9327 113.385 56.9928 120.563C50.4966 128.408 48.8575 150.458 53.0079 154.638C53.0079 154.638 69.9402 154.85 76.3612 154.683C77.7447 154.653 78.9778 153.82 79.5492 152.563C81.3988 148.444 85.5642 139.433 87.4439 137.388C93.5492 130.77 89.4891 126.212 89.4439 116.126Z" fill="#DE9669"/>
<path d="M75.5793 113.96C75.5793 113.96 77.4439 122.123 83.1282 125.425C84.1958 126.046 85.5492 125.379 85.6846 124.137C85.8951 122.199 86.0304 119.306 85.4891 116.671L75.5793 113.96Z" fill="#F9EEE4"/>
<path d="M76.4216 107.055L74.7976 112.613C74.2863 114.369 74.9931 116.247 76.5269 117.232C80.2261 119.594 85.1134 117.368 85.7901 113.006L86.0758 111.174L76.4216 107.04V107.055Z" fill="#C17E67"/>
<path d="M79.7743 118.352C78.6164 118.352 77.4585 118.019 76.436 117.368C76.3758 117.323 76.3457 117.247 76.3909 117.171C76.436 117.11 76.5112 117.08 76.5864 117.126C78.2856 118.216 80.3909 118.367 82.2254 117.535C84.06 116.702 85.3382 115.005 85.639 113.006C85.639 112.931 85.7142 112.885 85.8044 112.885C85.8796 112.885 85.9247 112.976 85.9247 113.052C85.5939 115.142 84.2555 116.914 82.3457 117.792C81.5187 118.171 80.6465 118.352 79.7743 118.352Z" fill="#47332A"/>
<path d="M76.5263 117.383C76.5263 117.383 76.4812 117.383 76.4511 117.368C74.8722 116.353 74.1353 114.384 74.6617 112.582C74.6767 112.507 74.7669 112.461 74.8271 112.491C74.9023 112.507 74.9474 112.597 74.9173 112.658C74.4211 114.339 75.1128 116.187 76.5865 117.126C76.6466 117.171 76.6767 117.247 76.6316 117.322C76.6015 117.368 76.5564 117.383 76.5113 117.383H76.5263Z" fill="#47332A"/>
<path d="M86.8879 113.248C85.5195 111.068 85.6699 115.535 82.5721 117.231C76.9782 116.126 75.2639 108.675 74.6173 111.325C74.6173 111.325 72.4819 117.458 78.0609 121.926C78.0609 121.926 80.5721 121.517 82.5721 117.837C84.9932 121.154 86.7225 121.245 86.7225 121.245C88.1661 118.201 86.8729 113.248 86.8729 113.248H86.8879Z" fill="#F9EEE4"/>
<path d="M78.0755 122.062C78.0755 122.062 77.9552 122.017 77.9402 121.941C77.9402 121.865 77.9853 121.79 78.0605 121.775C78.0906 121.775 80.5417 121.32 82.4815 117.761L82.5868 117.564L82.7221 117.746C85.053 120.942 86.7522 121.093 86.7673 121.093C86.8424 121.093 86.9026 121.169 86.9026 121.244C86.9026 121.32 86.8274 121.381 86.7522 121.381C86.677 121.381 84.9928 121.245 82.6319 118.095C80.6319 121.608 78.2259 122.047 78.1206 122.062C78.1206 122.062 78.1056 122.062 78.0906 122.062H78.0755Z" fill="#5E453B"/>
<path d="M92.677 103.132C92.7372 103.617 92.7673 104.086 92.7673 104.541C92.8274 109.054 90.5868 112.84 86.5718 113.43C86.2259 113.491 85.865 113.521 85.5041 113.521C80.3763 113.567 74.8725 109.16 74.8274 103.647C74.7823 98.1348 78.8876 93.6218 84.0154 93.5764C89.1432 93.531 91.8049 95.6057 92.677 103.117V103.132Z" fill="#C17E67"/>
<path d="M84.5421 113.627C81.9707 113.385 79.4143 112.113 77.5045 110.144C77.4444 110.083 77.4594 109.993 77.5045 109.947C77.5647 109.887 77.6549 109.902 77.7 109.947C79.5496 111.87 82.0609 113.112 84.5571 113.355C84.6323 113.355 84.6925 113.43 84.6775 113.506C84.6775 113.582 84.6173 113.627 84.5421 113.627Z" fill="#5E453B"/>
<path d="M86.6921 102.36C86.6921 102.587 86.5116 102.784 86.2109 102.905C86.0605 102.981 85.88 103.041 85.6695 103.071C85.5492 103.102 85.4139 103.102 85.2785 103.102H85.2184C85.2184 103.102 85.1282 103.102 85.0981 103.102C85.068 103.102 85.0379 103.102 85.0079 103.102C84.8424 103.102 84.6921 103.056 84.5567 103.026C84.1206 102.905 83.8349 102.663 83.8349 102.39C83.8349 102.102 84.1357 101.86 84.5868 101.739C84.6319 101.739 84.677 101.709 84.7221 101.709C84.8424 101.678 84.9628 101.648 85.0831 101.648C85.0831 101.648 85.0981 101.648 85.1131 101.648C85.1733 101.648 85.2184 101.648 85.2635 101.648C85.3086 101.648 85.3387 101.648 85.3838 101.648C85.6996 101.648 85.9703 101.709 86.1958 101.815C86.4966 101.951 86.6921 102.148 86.6921 102.375V102.36Z" fill="white"/>
<path d="M90.1507 95.3026C89.85 97.7712 86.9327 101.375 80.3913 103.026L76.7522 105.888L75.6394 109.72C75.6394 109.72 69.2635 99.4522 72.4665 95.0149C75.0079 91.5015 83.4139 89.6387 87.5643 91.0471C89.3237 91.6377 90.3763 93.4399 90.1507 95.2875V95.3026Z" fill="#5A4645"/>
<path d="M80.3913 103.163C80.3913 103.163 80.271 103.117 80.256 103.057C80.2409 102.981 80.2861 102.905 80.3612 102.89C86.5417 101.33 89.6996 97.8622 90.0154 95.2877C90.2409 93.4855 89.1883 91.7591 87.5191 91.1987C87.444 91.1685 87.4139 91.0927 87.4289 91.017C87.459 90.9413 87.5342 90.911 87.6094 90.9261C89.3988 91.5319 90.5267 93.3795 90.2861 95.318C89.9402 98.0742 86.7673 101.557 80.4214 103.163H80.3913Z" fill="#473837"/>
<path d="M88.9477 100.088C88.9026 100.573 91.9101 100.845 91.9552 100.361C92.0003 99.8762 90.8725 99.2704 90.0455 99.1947C89.2184 99.1189 88.9928 99.6187 88.9477 100.088Z" fill="#473837"/>
<path d="M91.7146 102.345C91.7146 102.557 91.5492 102.738 91.2785 102.89C91.0981 102.981 90.8725 103.056 90.6169 103.087C90.5417 103.087 90.4665 103.087 90.3913 103.087C90.3763 103.087 90.3613 103.087 90.3312 103.087C90.271 103.087 90.2109 103.087 90.1507 103.087C90.0906 103.087 90.0455 103.087 90.0003 103.087C89.8349 103.072 89.6695 103.026 89.5342 102.981C89.1733 102.844 88.9477 102.632 88.9327 102.375C88.9327 102.102 89.2034 101.86 89.6244 101.739C89.7146 101.709 89.8199 101.678 89.9252 101.663C90.0003 101.663 90.0605 101.648 90.1357 101.633C90.1357 101.633 90.2409 101.633 90.3011 101.633C90.3312 101.633 90.3763 101.633 90.4064 101.633C90.6921 101.633 90.9477 101.693 91.1582 101.784C91.474 101.921 91.6846 102.117 91.6846 102.36L91.7146 102.345Z" fill="white"/>
<path d="M80.8728 104.616C80.8878 106.252 79.5796 107.6 77.9405 107.615C76.3164 107.63 74.9781 106.312 74.963 104.662C74.948 103.011 76.2563 101.678 77.8954 101.663C79.5194 101.648 80.8578 102.966 80.8728 104.616Z" fill="#C17E67"/>
<path d="M90.1507 105.692C90.1507 105.692 90.2861 105.692 90.3462 105.661C90.6921 105.419 90.7222 105.177 90.6921 105.01C90.5718 104.45 89.4139 104.101 88.7522 103.95V101.769C88.7372 101.633 88.6169 101.527 88.4966 101.527C88.3612 101.527 88.256 101.633 88.256 101.769L88.2861 104.147C88.2861 104.268 88.3612 104.359 88.4815 104.374C89.3537 104.556 90.1958 104.889 90.2409 105.086C90.2409 105.086 90.2259 105.146 90.0906 105.237C89.9853 105.313 89.9552 105.464 90.0304 105.57C90.0605 105.616 90.1206 105.661 90.1658 105.676L90.1507 105.692Z" fill="#5E453B"/>
<path d="M81.7293 105.101C81.6842 105.782 82.4962 106.403 83.5338 106.464C84.5714 106.524 85.4436 106.025 85.4887 105.328C85.5338 104.631 84.7218 104.026 83.6842 103.965C82.6466 103.904 81.7744 104.404 81.7293 105.101Z" fill="#AA5643"/>
<path d="M76.2112 103.586C76.2112 103.586 76.3616 103.586 76.4217 103.541C77.8954 102.345 78.9781 103.647 79.0232 103.692C79.1134 103.798 79.2638 103.814 79.354 103.723C79.4593 103.632 79.4743 103.496 79.3841 103.39C79.3841 103.374 77.9555 101.663 76.1059 103.162C76.0007 103.253 75.9856 103.405 76.0758 103.496C76.1059 103.541 76.151 103.571 76.2112 103.571V103.586Z" fill="#5E453B"/>
<path d="M77.9853 100.088C76.9026 100.088 75.6996 100.028 74.3462 99.861C74.271 99.861 74.2109 99.7853 74.2259 99.7096C74.2259 99.6339 74.3011 99.5733 74.3763 99.5884C85.0981 100.83 86.8424 96.393 86.8575 96.3476C86.8876 96.2719 86.9628 96.2416 87.0379 96.2567C87.1131 96.287 87.1432 96.3627 87.1282 96.4384C87.068 96.605 85.7146 100.088 78.0003 100.088H77.9853Z" fill="#473837"/>
<path d="M85.9251 106.615C85.8349 107.236 86.4965 108.402 88.0304 108.781C88.9627 109.008 89.9251 108.16 90.0003 107.539C90.0755 106.918 89.474 107.16 88.707 107.145C88.1807 107.13 86.0003 106.161 85.9251 106.63V106.615Z" fill="white"/>
<path d="M88.3457 108.947C88.2254 108.947 88.1051 108.947 87.9999 108.902C86.4059 108.523 85.6841 107.281 85.7893 106.585C85.7893 106.509 85.8495 106.433 85.9096 106.403C86.1653 106.237 86.7969 106.418 87.7292 106.721C88.1352 106.842 88.5412 106.979 88.7066 106.979C88.9021 106.979 89.0826 106.979 89.248 106.963C89.5938 106.948 89.8796 106.918 90.0299 107.1C90.1202 107.206 90.1502 107.342 90.1352 107.539C90.0901 107.902 89.7893 108.311 89.3833 108.599C89.0525 108.826 88.6916 108.947 88.3457 108.947ZM86.06 106.63C85.9848 107.16 86.5863 108.266 88.06 108.629C88.5713 108.75 89.0074 108.523 89.2329 108.372C89.5788 108.13 89.8194 107.781 89.8645 107.509C89.8645 107.433 89.8645 107.342 89.8344 107.297C89.7593 107.221 89.5187 107.236 89.263 107.251C89.0976 107.251 88.9021 107.282 88.6916 107.266C88.4811 107.266 88.0901 107.13 87.639 106.994C87.1728 106.842 86.2104 106.539 86.06 106.645V106.63Z" fill="#AA5643"/>
<path d="M86.6921 102.36C86.6921 102.587 86.5116 102.784 86.2109 102.905C86.0605 102.981 85.88 103.041 85.6695 103.072C85.5492 103.102 85.4139 103.102 85.2785 103.102H85.2184C84.8875 102.875 84.662 102.481 84.662 102.042C84.662 101.921 84.677 101.799 84.7221 101.678C84.8424 101.648 84.9627 101.618 85.083 101.618C85.083 101.618 85.0981 101.618 85.1131 101.618C85.1733 101.618 85.2184 101.618 85.2635 101.618C85.3086 101.618 85.3387 101.618 85.3838 101.618C85.6996 101.618 85.9703 101.678 86.1958 101.784C86.4966 101.921 86.6921 102.117 86.6921 102.345V102.36Z" fill="#5E453B"/>
<path d="M91.7146 102.345C91.7146 102.557 91.5492 102.738 91.2785 102.89C91.0981 102.981 90.8725 103.056 90.6169 103.087C90.5417 103.087 90.4665 103.087 90.3913 103.087C90.0755 102.86 89.865 102.481 89.865 102.057C89.865 101.921 89.8951 101.769 89.9402 101.648C90.0154 101.648 90.0755 101.633 90.1507 101.618C90.1507 101.618 90.256 101.618 90.3161 101.618C90.3462 101.618 90.3913 101.618 90.4214 101.618C90.7071 101.618 90.9627 101.678 91.1733 101.769C91.4891 101.905 91.6996 102.102 91.6996 102.345H91.7146Z" fill="#5E453B"/>
<path d="M77.6695 137.494C77.6695 137.494 77.5492 137.449 77.5342 137.373C77.5342 137.298 77.5643 137.222 77.6394 137.207C82.4966 136.313 83.7297 132.8 83.7297 132.754C83.7597 132.679 83.8349 132.648 83.9101 132.663C83.9853 132.694 84.0154 132.769 84.0003 132.845C84.0003 132.875 82.7071 136.556 77.6846 137.479C77.6846 137.479 77.6695 137.479 77.6545 137.479L77.6695 137.494Z" fill="#5E453B"/>
<path d="M82.6021 117.989C82.6021 117.989 82.4668 117.928 82.4668 117.852V117.141L82.5269 117.095C82.5269 117.095 83.4894 116.656 83.9254 115.914C83.9706 115.853 84.0457 115.823 84.1209 115.869C84.1811 115.914 84.2112 115.99 84.166 116.065C83.76 116.762 82.9781 117.186 82.7224 117.322V117.837C82.7375 117.913 82.6773 117.974 82.6021 117.974V117.989Z" fill="#5E453B"/>
<path d="M243.444 154.91H0.270677C0.120301 154.91 0 154.789 0 154.637C0 154.486 0.120301 154.35 0.270677 154.35H243.429C243.579 154.35 243.699 154.471 243.699 154.637C243.699 154.804 243.579 154.91 243.429 154.91H243.444Z" fill="#47332A"/>
<path d="M126.105 135.071L124.617 135.828C123.459 135.965 120.045 135.071 119.053 134.42L109.865 139.902C109.865 139.902 108.331 161.725 127.714 147.535L128.962 146.929L126.105 135.101V135.071Z" fill="#F3AE91"/>
<path d="M108.331 134.314L117.985 138.857C117.985 138.857 117.699 159.377 97.0526 148.928L99.7143 137.857C100.316 135.949 102.977 134.374 104.752 133.935C105.91 133.662 107.158 133.753 108.331 134.298V134.314Z" fill="#C17E67"/>
<path d="M108.812 132.421C106.737 133.163 104.301 134.072 104.301 134.072C104.301 134.072 110.662 138.085 114.361 138.176C116.09 138.221 117.985 135.374 116.586 134.359L113.97 133.148C112.481 132.072 110.556 131.8 108.827 132.421H108.812Z" fill="#C17E67"/>
<path d="M126.361 141.719C126.361 140.796 125.699 139.963 124.767 139.766L113.684 137.449C112.602 137.222 111.534 137.918 111.308 139.024C111.083 140.114 111.774 141.189 112.872 141.416L123.955 143.734C125.038 143.961 126.105 143.264 126.331 142.159C126.361 142.007 126.376 141.871 126.376 141.719H126.361Z" fill="#C17E67"/>
<path d="M126.346 145.142C126.346 144.127 125.594 143.234 124.556 143.128L111.203 141.628C110.105 141.507 109.113 142.31 108.993 143.415C108.872 144.521 109.669 145.52 110.767 145.642L124.12 147.141C125.218 147.262 126.211 146.459 126.331 145.354C126.331 145.278 126.331 145.217 126.331 145.142H126.346Z" fill="#C17E67"/>
<path d="M124.361 143.9C124.211 143.9 124.075 143.9 123.925 143.854L113.128 141.961C113.053 141.961 113.008 141.871 113.008 141.795C113.008 141.719 113.098 141.659 113.173 141.674L123.97 143.567C124.977 143.779 125.97 143.128 126.18 142.113C126.196 142.037 126.271 141.992 126.346 142.007C126.421 142.022 126.466 142.098 126.451 142.173C126.241 143.188 125.353 143.9 124.346 143.9H124.361Z" fill="#5E453B"/>
<path d="M123.985 147.747C123.985 147.747 123.985 147.656 123.985 147.626C124.016 146.505 123.143 145.581 122.046 145.551L110.181 145.202C109.068 145.172 108.151 146.035 108.121 147.156C108.091 148.277 108.963 149.201 110.061 149.231L121.925 149.579C122.993 149.609 123.88 148.807 123.985 147.747Z" fill="#C17E67"/>
<path d="M119.865 150.094C119.865 150.094 119.865 150.018 119.865 149.988C119.91 148.867 119.053 147.928 117.955 147.883L106.286 147.368C105.173 147.322 104.241 148.186 104.196 149.291C104.151 150.412 105.008 151.351 106.106 151.396L117.775 151.911C118.843 151.957 119.76 151.154 119.865 150.094Z" fill="#C17E67"/>
<path d="M124.346 147.292C124.271 147.292 124.181 147.292 124.106 147.292L112.196 145.929C112.121 145.929 112.06 145.854 112.075 145.778C112.075 145.702 112.151 145.642 112.226 145.657L124.136 147.02C125.158 147.141 126.091 146.384 126.196 145.354C126.196 145.278 126.271 145.218 126.346 145.233C126.421 145.233 126.481 145.309 126.466 145.384C126.346 146.49 125.414 147.308 124.331 147.308L124.346 147.292Z" fill="#5E453B"/>
<path d="M122 149.73C122 149.73 121.955 149.73 121.94 149.73L110.436 149.412C110.361 149.412 110.301 149.352 110.301 149.276C110.301 149.2 110.376 149.14 110.436 149.14L121.94 149.458C122.932 149.488 123.759 148.731 123.85 147.747C123.85 147.671 123.925 147.61 124 147.625C124.075 147.625 124.135 147.701 124.12 147.777C124.015 148.882 123.083 149.73 121.985 149.73H122Z" fill="#5E453B"/>
<path d="M110.677 151.76C110.632 152.109 110.511 152.442 110.271 152.73C109.624 153.562 108.421 153.699 107.594 153.048L105.639 151.488C104.812 150.837 104.677 149.625 105.323 148.792C105.97 147.959 107.173 147.823 108 148.474L109.955 150.034C110.496 150.458 110.737 151.124 110.662 151.76H110.677Z" fill="#F3AE91"/>
<path d="M112.903 155.198C112.421 155.425 111.835 155.44 111.309 155.198L108.858 154.062C108.181 153.744 107.745 153.062 107.745 152.32C107.76 146.808 107.775 146.656 107.775 146.596C107.835 145.536 108.722 144.718 109.775 144.779C110.812 144.839 111.609 145.717 111.579 146.762C111.579 147.005 111.579 149.216 111.564 151.094L112.903 151.715C113.865 152.154 114.271 153.305 113.835 154.259C113.64 154.698 113.294 155.016 112.903 155.198Z" fill="#F3AE91"/>
<path d="M111.308 155.334C111.308 155.334 111.263 155.334 111.248 155.334L108.797 154.199C108.075 153.865 107.609 153.123 107.609 152.321C107.624 146.823 107.639 146.657 107.639 146.581C107.639 146.505 107.699 146.445 107.789 146.445C107.865 146.445 107.925 146.521 107.925 146.596C107.925 146.657 107.925 146.823 107.895 152.321C107.895 153.017 108.301 153.653 108.917 153.941L111.368 155.077C111.368 155.077 111.474 155.198 111.444 155.259C111.414 155.304 111.368 155.334 111.323 155.334H111.308Z" fill="#5E453B"/>
<path d="M116.466 153.744C115.985 153.971 115.399 153.986 114.872 153.744L112.421 152.608C111.744 152.29 111.308 151.609 111.308 150.867C111.323 145.354 111.338 145.203 111.338 145.142C111.399 144.082 112.286 143.264 113.338 143.325C114.376 143.386 115.173 144.264 115.143 145.309C115.143 145.551 115.143 147.762 115.128 149.64L116.466 150.261C117.429 150.7 117.835 151.851 117.399 152.805C117.203 153.244 116.857 153.562 116.466 153.744Z" fill="#F3AE91"/>
<path d="M114.872 153.88C114.872 153.88 114.827 153.88 114.812 153.88L112.36 152.745C111.639 152.411 111.173 151.669 111.173 150.867C111.188 145.354 111.203 145.188 111.203 145.127C111.203 145.051 111.278 144.991 111.353 144.991C111.428 144.991 111.488 145.066 111.488 145.142C111.488 145.203 111.488 145.369 111.458 150.867C111.458 151.563 111.864 152.199 112.481 152.487L114.932 153.623C114.932 153.623 115.037 153.744 115.007 153.805C114.977 153.85 114.932 153.88 114.887 153.88H114.872Z" fill="#5E453B"/>
<path d="M121.399 151.139C121.308 151.2 118.376 153.759 118.286 153.805C117.308 154.213 116.196 153.759 115.789 152.775L113.399 147.05C112.992 146.066 113.444 144.945 114.421 144.536C115.399 144.127 116.511 144.582 116.917 145.566L119.308 151.291C119.669 152.169 122.18 150.639 121.414 151.139H121.399Z" fill="#F3AE91"/>
<path d="M115.79 152.911C115.79 152.911 115.685 152.881 115.655 152.82L113.264 147.096C112.827 146.051 113.324 144.839 114.361 144.4C114.436 144.37 114.512 144.4 114.542 144.476C114.572 144.552 114.542 144.627 114.467 144.658C113.564 145.036 113.143 146.081 113.519 146.99L115.91 152.714C115.91 152.714 115.91 152.866 115.835 152.896C115.82 152.896 115.805 152.896 115.775 152.896L115.79 152.911Z" fill="#5E453B"/>
<path d="M119.158 134.329C117.639 133.436 115.519 133.42 113.985 134.299L112.812 134.965C112.556 135.117 112.331 135.313 112.15 135.556L110.211 138.236C109.564 139.145 109.669 140.432 110.526 141.144C110.917 141.462 111.383 141.629 111.85 141.629C112.496 141.629 113.128 141.326 113.534 140.765L115.248 138.388L116.03 137.933C116.18 137.843 121.684 137.419 121.895 137.267C122.496 136.843 119.158 134.314 119.158 134.314V134.329Z" fill="#F3AE91"/>
<path d="M111.85 141.78C111.383 141.78 110.932 141.629 110.541 141.356C110.481 141.311 110.466 141.22 110.511 141.159C110.556 141.099 110.647 141.084 110.707 141.129C111.038 141.371 111.429 141.508 111.85 141.508C112.466 141.508 113.053 141.205 113.414 140.705L115.173 138.282L115.955 137.828C115.955 137.828 116.105 137.828 116.15 137.873C116.195 137.934 116.15 138.025 116.105 138.07L115.338 138.509L113.639 140.872C113.218 141.447 112.556 141.795 111.85 141.795V141.78Z" fill="#5E453B"/>
<path d="M227.007 102.692C226.857 102.692 226.706 102.602 226.631 102.45L226.015 101.193C225.909 100.981 226 100.739 226.21 100.633C226.421 100.527 226.661 100.618 226.767 100.83L227.383 102.087C227.488 102.299 227.398 102.541 227.188 102.647C227.128 102.677 227.067 102.692 227.007 102.692Z" fill="#ADADAD"/>
<path d="M225.188 98.9669C225.038 98.9669 224.887 98.876 224.812 98.7397L223.609 96.2864C223.504 96.0743 223.594 95.832 223.805 95.726C224.015 95.62 224.256 95.7109 224.361 95.9229L225.564 98.3762C225.669 98.5883 225.579 98.8306 225.368 98.9366C225.308 98.9669 225.248 98.982 225.188 98.982V98.9669ZM222.782 94.0602C222.632 94.0602 222.481 93.9693 222.406 93.833L221.203 91.3796C221.098 91.1676 221.188 90.9253 221.399 90.8193C221.609 90.7133 221.85 90.8041 221.955 91.0162L223.158 93.4695C223.263 93.6815 223.173 93.9239 222.962 94.0299C222.902 94.0601 222.842 94.0753 222.782 94.0753V94.0602ZM220.376 89.1383C220.226 89.1383 220.075 89.0474 220 88.9111L218.797 86.4578C218.692 86.2457 218.782 86.0034 218.993 85.8974C219.203 85.7914 219.444 85.8823 219.549 86.0943L220.752 88.5477C220.857 88.7597 220.767 89.002 220.556 89.108C220.496 89.1383 220.436 89.1534 220.376 89.1534V89.1383ZM217.97 84.2164C217.82 84.2164 217.669 84.1256 217.594 83.9741L216.391 81.5207C216.286 81.3087 216.376 81.0664 216.586 80.9604C216.797 80.8544 217.038 80.9453 217.143 81.1573L218.346 83.6106C218.451 83.8227 218.361 84.065 218.15 84.171C218.09 84.2013 218.03 84.2164 217.97 84.2164ZM215.564 79.2945C215.414 79.2945 215.263 79.2037 215.188 79.0522L213.985 76.5989C213.88 76.3869 213.97 76.1446 214.18 76.0385C214.391 75.9325 214.632 76.0234 214.737 76.2354L215.94 78.6888C216.045 78.9008 215.955 79.1431 215.744 79.2491C215.684 79.2794 215.624 79.2945 215.564 79.2945ZM213.158 74.3727C213.008 74.3727 212.857 74.2818 212.782 74.1304L211.579 71.677C211.474 71.465 211.564 71.2227 211.774 71.1167C211.985 71.0107 212.226 71.1015 212.331 71.3136L213.534 73.7669C213.639 73.9789 213.549 74.2212 213.338 74.3273C213.278 74.3575 213.218 74.3727 213.158 74.3727ZM210.752 69.4508C210.602 69.4508 210.451 69.3599 210.376 69.2085L209.173 66.7551C209.068 66.5431 209.158 66.3008 209.368 66.1948C209.579 66.0888 209.82 66.1797 209.925 66.3917L211.128 68.845C211.233 69.0571 211.143 69.2994 210.932 69.4054C210.872 69.4357 210.812 69.4508 210.752 69.4508Z" fill="#ADADAD"/>
<path d="M208.346 64.5291C208.195 64.5291 208.045 64.4383 207.97 64.2868L207.729 63.8022L207.489 64.2868C207.383 64.4988 207.143 64.5746 206.932 64.4837C206.722 64.3777 206.647 64.1354 206.737 63.9234L207.729 61.894L208.722 63.9234C208.827 64.1354 208.737 64.3777 208.526 64.4837C208.466 64.514 208.406 64.5291 208.346 64.5291Z" fill="#ADADAD"/>
<path d="M190.286 98.9671C190.286 98.9671 190.165 98.9671 190.105 98.9217C189.895 98.8157 189.82 98.5733 189.91 98.3613L191.113 95.908C191.218 95.696 191.459 95.6202 191.669 95.7111C191.88 95.8171 191.955 96.0594 191.865 96.2714L190.662 98.7248C190.586 98.8762 190.436 98.952 190.286 98.952V98.9671ZM192.692 94.0604C192.692 94.0604 192.571 94.0604 192.511 94.0149C192.301 93.9089 192.226 93.6666 192.316 93.4546L193.519 91.0013C193.624 90.7892 193.865 90.7135 194.075 90.8044C194.286 90.9104 194.361 91.1527 194.271 91.3647L193.068 93.8181C192.992 93.9695 192.842 94.0452 192.692 94.0452V94.0604ZM195.098 89.1385C195.098 89.1385 194.977 89.1385 194.917 89.0931C194.707 88.9871 194.632 88.7448 194.722 88.5327L195.925 86.0794C196.03 85.8674 196.271 85.7916 196.481 85.8825C196.692 85.9885 196.767 86.2308 196.677 86.4428L195.474 88.8962C195.398 89.0476 195.248 89.1234 195.098 89.1234V89.1385ZM197.504 84.2166C197.504 84.2166 197.383 84.2166 197.323 84.1712C197.113 84.0652 197.038 83.8229 197.128 83.6109L198.331 81.1575C198.436 80.9455 198.677 80.8698 198.887 80.9606C199.098 81.0666 199.173 81.309 199.083 81.521L197.88 83.9743C197.804 84.1258 197.654 84.2166 197.504 84.2166ZM199.91 79.2948C199.91 79.2948 199.789 79.2948 199.729 79.2493C199.519 79.1433 199.444 78.901 199.534 78.689L200.737 76.2356C200.842 76.0236 201.083 75.9479 201.293 76.0388C201.504 76.1448 201.579 76.3871 201.489 76.5991L200.286 79.0525C200.211 79.2039 200.06 79.2796 199.91 79.2796V79.2948ZM202.316 74.3729C202.316 74.3729 202.195 74.3729 202.135 74.3275C201.925 74.2215 201.85 73.9792 201.94 73.7671L203.143 71.3138C203.248 71.1018 203.489 71.026 203.699 71.1169C203.91 71.2229 203.985 71.4652 203.895 71.6772L202.692 74.1306C202.617 74.282 202.466 74.3578 202.316 74.3578V74.3729ZM204.722 69.451C204.722 69.451 204.602 69.451 204.541 69.4056C204.331 69.2996 204.256 69.0573 204.346 68.8453L205.549 66.3919C205.654 66.1799 205.895 66.1042 206.105 66.195C206.316 66.301 206.391 66.5434 206.301 66.7554L205.098 69.2087C205.023 69.3602 204.872 69.4359 204.722 69.4359V69.451Z" fill="#ADADAD"/>
<path d="M188.466 102.693C188.466 102.693 188.346 102.693 188.286 102.647C188.075 102.541 188 102.299 188.09 102.087L188.707 100.83C188.812 100.618 189.053 100.542 189.263 100.633C189.474 100.739 189.549 100.981 189.459 101.193L188.842 102.45C188.767 102.602 188.617 102.693 188.466 102.693Z" fill="#ADADAD"/>
<path d="M225.278 86.6852C224.917 85.8825 224.496 85.1102 224.015 84.3833C223.534 83.6563 223.007 82.9597 222.436 82.3236C220.887 80.5821 218.992 79.1585 216.842 78.159C216.316 77.9167 215.774 77.7047 215.233 77.5078C214.09 77.114 212.872 76.8263 211.639 76.69C211.519 76.6749 211.398 76.6597 211.278 76.6446C210.842 76.5991 204.767 76.584 204.331 76.5688V111.158C204.496 111.158 210.316 111.158 210.496 111.143C210.887 111.128 211.263 111.098 211.639 111.052C212.12 110.992 212.601 110.931 213.068 110.825C213.94 110.643 214.782 110.401 215.594 110.098C222.15 107.66 226.827 101.314 226.827 93.8635C226.827 91.3042 226.286 88.8811 225.293 86.7003L225.278 86.6852Z" fill="#F5CC72"/>
<path d="M222.857 93.8484C222.857 101.299 218.18 107.645 211.624 110.083C210.812 110.386 209.97 110.628 209.098 110.81C208.632 110.901 208.15 110.976 207.669 111.037C207.293 111.082 206.917 111.113 206.526 111.128C206.241 111.143 205.955 111.158 205.684 111.158C202.947 111.158 200.361 110.522 198.075 109.371C196.857 108.765 195.729 108.008 194.692 107.145C193.173 105.873 191.865 104.328 190.872 102.602C189.383 100.042 188.526 97.059 188.526 93.8635C188.526 85.7917 194.015 79.0071 201.444 77.0989C202.797 76.7506 204.226 76.5688 205.699 76.5688C206.256 76.5688 206.797 76.5991 207.338 76.6446C207.459 76.6446 207.579 76.6749 207.699 76.69C208.947 76.8263 210.15 77.114 211.293 77.5078C211.835 77.7047 212.376 77.9167 212.902 78.159C215.038 79.1585 216.932 80.5821 218.496 82.3236C219.068 82.9748 219.609 83.6563 220.075 84.3833C220.556 85.1102 220.977 85.8825 221.338 86.6852C222.331 88.8659 222.872 91.289 222.872 93.8484H222.857Z" fill="#EFBC51"/>
<path d="M195.97 98.3312H198.315L194.661 107.145C193.142 105.858 191.834 104.328 190.842 102.587L195.97 90.2139V98.316V98.3312Z" fill="#F7D084"/>
<path d="M207.308 76.6446L204.225 84.0955H201.233V89.396H196.315L201.413 77.0989C202.766 76.7506 204.195 76.5688 205.669 76.5688C206.225 76.5688 206.766 76.5991 207.308 76.6446Z" fill="#F7D084"/>
<path d="M221.308 86.6852L211.609 110.083C210.797 110.386 209.955 110.628 209.098 110.81L214.271 98.3311H215.383V95.6657L220.06 84.3833C220.526 85.1102 220.962 85.8826 221.323 86.7004L221.308 86.6852Z" fill="#F7D084"/>
<path d="M201.233 103.631H209.639L206.527 111.143C206.241 111.158 205.97 111.158 205.685 111.158C202.948 111.158 200.361 110.522 198.06 109.371L201.233 101.708V103.631Z" fill="#F7D084"/>
<path d="M210.12 98.3311H211.82L210.12 102.465V98.3311Z" fill="#F5CC72"/>
<path d="M215.368 89.7746V89.3809H210.105V84.0804H208.526L211.263 77.4927C211.805 77.6896 212.346 77.9016 212.872 78.1439C215.008 79.1434 216.917 80.567 218.466 82.3085L215.368 89.7746Z" fill="#F7D084"/>
<path d="M204.225 84.0957L198.316 98.3313H195.97V90.2291L196.316 89.381H201.233V84.0957H204.225Z" fill="#DF3744"/>
<path d="M195.97 89.3809H196.316L195.97 90.2289V89.3809Z" fill="#C43041"/>
<path d="M215.369 89.381V89.7748L211.82 98.3313H210.121V102.466L209.624 103.632H201.233V101.708L208.527 84.0957H210.121V89.381H215.369Z" fill="#DF3744"/>
<path d="M204.225 84.0957H208.526L201.233 101.708V98.3313H198.315L204.225 84.0957Z" fill="#C43041"/>
<path d="M209.624 103.631L210.12 102.465V103.631H209.624Z" fill="#C43041"/>
<path d="M215.368 95.6655V98.3309H214.271L215.368 95.6655Z" fill="#DF3744"/>
<path d="M215.368 89.7744V95.6655L214.27 98.3309H211.819L215.368 89.7744Z" fill="#C43041"/>
<path d="M211.609 110.235C211.609 110.235 211.503 110.204 211.473 110.144C211.443 110.068 211.473 109.992 211.549 109.962C218.21 107.478 222.691 101.012 222.691 93.8485C222.691 91.3649 222.18 88.9721 221.173 86.7459C220.827 85.9584 220.391 85.2012 219.925 84.4591C219.458 83.7322 218.917 83.0507 218.361 82.4147C216.797 80.6579 214.932 79.2647 212.812 78.2803C212.737 78.25 212.706 78.1591 212.737 78.0986C212.767 78.0228 212.857 77.9925 212.917 78.0228C215.067 79.0224 216.962 80.4459 218.556 82.2178C219.128 82.869 219.669 83.5656 220.15 84.3077C220.631 85.0649 221.067 85.8372 221.428 86.6399C222.451 88.9115 222.977 91.3346 222.977 93.8637C222.977 101.133 218.421 107.721 211.654 110.235C211.639 110.235 211.624 110.235 211.609 110.235Z" fill="#5E453B"/>
<path d="M219.729 81.0968H217.127C217.052 81.0968 216.992 81.0362 216.992 80.9605C216.992 80.8848 217.052 80.8242 217.127 80.8242H219.729C219.804 80.8242 219.864 80.8848 219.864 80.9605C219.864 81.0362 219.804 81.0968 219.729 81.0968Z" fill="#5E453B"/>
<path d="M222.527 83.111H219.023C218.948 83.111 218.888 83.0504 218.888 82.9747C218.888 82.899 218.948 82.8384 219.023 82.8384H222.527C222.602 82.8384 222.662 82.899 222.662 82.9747C222.662 83.0504 222.602 83.111 222.527 83.111Z" fill="#5E453B"/>
<path d="M220.902 84.1256H219.865C219.789 84.1256 219.729 84.065 219.729 83.9893C219.729 83.9136 219.789 83.853 219.865 83.853H220.902C220.977 83.853 221.038 83.9136 221.038 83.9893C221.038 84.065 220.977 84.1256 220.902 84.1256Z" fill="#5E453B"/>
<path d="M225.94 92.8639H222.857C222.782 92.8639 222.722 92.8033 222.722 92.7276C222.722 92.6519 222.782 92.5913 222.857 92.5913H225.94C226.015 92.5913 226.075 92.6519 226.075 92.7276C226.075 92.8033 226.015 92.8639 225.94 92.8639Z" fill="#5E453B"/>
<path d="M226.556 90.986H222.601C222.526 90.986 222.466 90.9254 222.466 90.8497C222.466 90.774 222.526 90.7134 222.601 90.7134H226.556C226.631 90.7134 226.691 90.774 226.691 90.8497C226.691 90.9254 226.631 90.986 226.556 90.986Z" fill="#5E453B"/>
<path d="M224.842 94.1969H222.842C222.767 94.1969 222.707 94.1363 222.707 94.0606C222.707 93.9849 222.767 93.9243 222.842 93.9243H224.842C224.917 93.9243 224.977 93.9849 224.977 94.0606C224.977 94.1363 224.917 94.1969 224.842 94.1969Z" fill="#5E453B"/>
<path d="M220.602 111.628H194.873C191.113 111.628 188.06 108.553 188.06 104.767C188.06 104.54 188.241 104.343 188.482 104.343C188.722 104.343 188.903 104.525 188.903 104.767C188.903 108.084 191.579 110.795 194.888 110.795H220.617C223.91 110.795 226.602 108.099 226.602 104.767C226.602 104.54 226.782 104.343 227.023 104.343C227.264 104.343 227.444 104.525 227.444 104.767C227.444 108.553 224.391 111.628 220.632 111.628H220.602Z" fill="#ADADAD"/>
<path d="M207.729 65.1653C208.701 65.1653 209.488 64.372 209.488 63.3935C209.488 62.4149 208.701 61.6216 207.729 61.6216C206.757 61.6216 205.97 62.4149 205.97 63.3935C205.97 64.372 206.757 65.1653 207.729 65.1653Z" fill="#D3C3AF"/>
<path d="M31.098 28.1076C31.098 28.1076 45.1431 28.8648 41.6394 12.0093C41.6394 12.0093 27.2484 12.2062 31.098 28.1076Z" fill="#7F9922"/>
<path d="M30.7672 33.5593C30.6318 33.5593 30.5115 33.4533 30.4965 33.317C29.6544 26.3658 35.4589 20.3687 35.7146 20.1112C35.8198 20.0052 36.0003 20.0052 36.1055 20.1112C36.2108 20.2173 36.2108 20.399 36.1055 20.505C36.0454 20.5656 30.2409 26.5778 31.0529 33.2413C31.0679 33.3927 30.9627 33.529 30.8123 33.5593H30.7822H30.7672Z" fill="#5E453B"/>
<path d="M100.421 135.571L81.4135 136.888C77.5489 131.391 74.5714 122.713 70.9173 118.912C68.0601 115.944 62.6316 116.61 59.4887 119.276C59.4887 119.276 51.2782 123.698 56.0902 132.587C57.4286 135.071 59.8195 139.251 62.4812 143.34C66.2556 149.14 70.5714 154.728 73.2631 154.986C83.0526 155.894 100.917 151.911 100.917 151.911L100.421 135.571Z" fill="#DE9669"/>
<path d="M76.5266 155.273C75.3236 155.273 74.2409 155.228 73.2484 155.137C70.9326 154.925 67.2785 150.987 62.3612 143.43C62.316 143.37 62.3311 143.279 62.4063 143.234C62.4664 143.188 62.5566 143.203 62.6018 143.279C67.3988 150.654 71.083 154.652 73.2785 154.849C77.1431 155.213 82.6769 154.849 89.7296 153.804C89.8048 153.804 89.88 153.85 89.88 153.925C89.88 154.001 89.8348 154.077 89.7597 154.092C84.4815 154.879 80.0454 155.273 76.5266 155.273Z" fill="#5E453B"/>
<path d="M81.5033 136.994C81.3078 136.994 81.3078 136.979 81.2928 136.934C79.5785 134.511 78.0296 131.421 76.5409 128.453C74.6462 124.667 72.8417 121.093 70.8266 119.003C70.7665 118.942 70.7815 118.852 70.8266 118.806C70.8868 118.745 70.977 118.761 71.0221 118.806C73.0672 120.926 74.8717 124.531 76.7815 128.332C78.2552 131.27 79.789 134.314 81.4883 136.737C82.7815 136.646 100.24 135.45 100.421 135.434C100.496 135.434 100.571 135.48 100.571 135.571C100.571 135.646 100.511 135.722 100.436 135.722L84.4056 136.828C82.5409 136.949 81.8041 137.009 81.5184 137.009L81.5033 136.994Z" fill="#5E453B"/>
<path d="M147.082 152.669C146.706 152.729 146.315 152.699 145.939 152.532C144.842 152.093 144.315 150.836 144.752 149.731C144.902 149.367 146.315 146.051 150.481 143.264C153.669 141.129 156.12 140.129 157.037 139.766C157.112 139.735 157.173 139.705 157.218 139.69C158.15 139.205 159.308 139.463 159.939 140.341C160.631 141.31 160.421 142.658 159.458 143.355C159.218 143.537 158.992 143.627 158.631 143.764C157.819 144.097 155.684 144.96 152.842 146.853C149.744 148.928 148.721 151.321 148.721 151.351C148.436 152.078 147.789 152.563 147.082 152.669ZM144.767 149.731C144.917 149.367 146.33 146.051 150.496 143.264C153.684 141.129 156.135 140.129 157.052 139.766L144.767 149.746V149.731Z" fill="#F3AE91"/>
<path d="M143.112 144.93C143.338 144.612 145.488 141.734 150.195 140.008C151.864 139.402 153.308 138.993 154.496 138.706C158.601 137.661 170.917 135.571 170.917 135.571V148.958C162.315 152.714 157.819 147.096 155.759 142.84C154.676 143.082 153.293 143.461 151.669 144.067C148.18 145.354 146.616 147.429 146.601 147.459C146.15 148.095 145.413 148.413 144.691 148.353C144.315 148.322 143.939 148.201 143.609 147.959C142.646 147.262 142.421 145.914 143.112 144.945V144.93Z" fill="#F3AE91"/>
<path d="M153.383 156.879C152.841 157.076 152.21 157.045 151.668 156.758C150.631 156.197 150.225 154.895 150.781 153.85C150.947 153.532 152.465 150.67 153.353 149.367C154.886 147.141 162.45 145.248 162.526 145.248C163.698 145.082 164.781 145.899 164.947 147.065C165.112 148.216 164.33 149.292 163.202 149.504C162.135 149.746 157.744 151.2 156.796 151.942C156.135 152.941 154.962 155.107 154.556 155.879C154.3 156.379 153.864 156.727 153.383 156.894V156.879ZM163.142 149.504C163.142 149.504 163.172 149.504 163.187 149.504C163.172 149.504 163.157 149.504 163.142 149.504Z" fill="#F3AE91"/>
<path d="M144.797 149.927C144.797 149.927 144.917 149.867 144.932 149.806C145.082 149.443 146.466 146.187 150.586 143.43C152.135 142.386 153.714 141.492 155.263 140.75C155.353 140.705 155.398 140.583 155.353 140.492C155.308 140.402 155.188 140.356 155.097 140.402C153.533 141.144 151.939 142.067 150.376 143.112C146.165 145.929 144.721 149.291 144.571 149.67C144.526 149.776 144.571 149.882 144.676 149.927C144.706 149.927 144.752 149.942 144.782 149.927H144.797Z" fill="#5E453B"/>
<path d="M149.804 155.834C149.443 155.94 149.052 155.955 148.646 155.864C147.503 155.576 146.812 154.395 147.097 153.244C147.188 152.865 148.15 149.397 151.909 146.066C154.797 143.506 157.082 142.204 157.939 141.704C158.015 141.659 158.06 141.628 158.105 141.613C158.962 141.008 160.15 141.098 160.887 141.886C161.699 142.749 161.669 144.112 160.812 144.93C160.586 145.142 160.391 145.263 160.06 145.445C159.308 145.884 157.293 147.035 154.736 149.291C151.939 151.76 151.248 154.274 151.248 154.304C151.052 155.061 150.496 155.622 149.804 155.834ZM147.097 153.244C147.188 152.865 148.15 149.397 151.909 146.066C154.797 143.506 157.082 142.204 157.939 141.704L147.097 153.244Z" fill="#F3AE91"/>
<path d="M147.142 153.426C147.142 153.426 147.278 153.35 147.293 153.29C147.383 152.911 148.33 149.504 152.045 146.202C153.443 144.96 154.887 143.855 156.33 142.916C156.421 142.855 156.451 142.734 156.391 142.643C156.33 142.552 156.21 142.522 156.12 142.583C154.661 143.537 153.203 144.658 151.789 145.899C147.985 149.261 147.007 152.79 146.917 153.184C146.887 153.29 146.947 153.396 147.052 153.426C147.082 153.426 147.112 153.426 147.142 153.426Z" fill="#5E453B"/>
<path d="M151.699 156.939C151.699 156.939 151.804 156.894 151.834 156.833C151.879 156.742 151.834 156.621 151.759 156.576C151.293 156.333 150.962 155.924 150.812 155.425C150.661 154.925 150.706 154.395 150.947 153.925C151.112 153.607 152.631 150.745 153.518 149.458C154.285 148.352 156.706 146.853 159.052 146.05C159.158 146.02 159.203 145.899 159.173 145.808C159.142 145.702 159.022 145.657 158.932 145.687C156.857 146.399 154.135 147.883 153.203 149.246C152.3 150.548 150.782 153.426 150.616 153.759C150.015 154.91 150.451 156.333 151.579 156.939C151.624 156.954 151.669 156.969 151.714 156.954L151.699 156.939Z" fill="#5E453B"/>
<path d="M170.21 151.382C170.21 151.382 198.406 152.078 203.112 147.338C205.413 145.021 206.451 138.327 203.729 134.269C198.03 125.833 190.18 117.216 184.752 112.4C180.721 108.826 174.857 108.372 172 111.098C165.894 116.883 169.503 123.456 173.774 128.06C177.022 131.558 180.661 133.92 180.661 133.92L169.654 134.95L170.225 151.382H170.21Z" fill="#AB8051"/>
<path d="M170.21 151.518C170.21 151.518 170.075 151.457 170.075 151.381L169.488 134.814L180.195 133.814C178.556 132.572 170.661 126.318 170.27 120.048C170.27 119.972 170.33 119.912 170.406 119.896C170.496 119.896 170.541 119.957 170.556 120.033C170.992 126.863 180.571 133.738 180.661 133.814L180.962 134.026L169.774 135.071L170.345 151.381C170.345 151.457 170.285 151.518 170.21 151.533V151.518Z" fill="#5E453B"/>
<path d="M192.541 120.351C192.541 120.351 192.465 120.336 192.435 120.306C182.691 108.16 170.255 105.101 170.135 105.07C170.059 105.055 170.014 104.98 170.029 104.904C170.044 104.828 170.119 104.783 170.195 104.798C170.315 104.828 182.841 107.918 192.646 120.139C192.691 120.199 192.691 120.29 192.631 120.336C192.601 120.351 192.571 120.366 192.541 120.366V120.351Z" fill="#5E453B"/>
</g>
<defs>
<clipPath id="clip0_1_2656">
<rect width="246" height="157" fill="white"/>
</clipPath>
</defs>
</svg>
