<svg width="510" height="378" viewBox="0 0 510 378" fill="none" xmlns="http://www.w3.org/2000/svg">
<path d="M245.995 137.37H442.273C465.041 137.37 483.67 155.868 483.67 178.476V259.266C483.67 281.875 465.041 300.372 442.273 300.372H235.626L204.598 331.182V178.476C204.598 155.868 223.226 137.37 245.995 137.37Z" fill="#00B2A9"/>
<path d="M262.155 192.191H276.027L268.305 220.551L277.64 254.167H263.33L255.807 224.128V254.167H242.094V192.191H255.727V216.974L262.155 192.191Z" fill="#FFF7DF"/>
<path d="M280.466 254.167V195.769H294.497V202.468C295.074 199.959 296.129 198.101 297.681 196.915C299.234 195.729 301.125 195.117 303.334 195.117C307.016 195.117 309.882 196.263 311.912 198.555C313.942 200.848 314.977 204.385 314.977 209.148V254.167H301.144V210.591C301.144 209.366 300.906 208.298 300.408 207.37C299.911 206.441 299.114 205.966 298.02 205.966C297.343 205.966 296.766 206.164 296.288 206.54C295.811 206.915 295.472 207.35 295.253 207.824C295.034 208.298 294.855 208.931 294.716 209.721C294.577 210.492 294.517 211.105 294.497 211.52C294.497 211.935 294.497 212.488 294.497 213.16V254.207H280.466V254.167Z" fill="#FFF7DF"/>
<path d="M338.064 254.879C326.361 254.879 320.51 248.831 320.51 236.717V213.298C320.51 207.725 322.082 203.298 325.207 200.037C328.331 196.777 332.63 195.136 338.064 195.136C343.497 195.136 347.816 196.777 350.961 200.037C354.105 203.298 355.657 207.725 355.657 213.298V236.717C355.657 242.804 354.165 247.369 351.179 250.373C348.194 253.377 343.816 254.879 338.064 254.879ZM334.76 211.065V239.582C334.76 241.144 335.058 242.27 335.675 242.982C336.292 243.693 337.089 244.049 338.044 244.049C338.999 244.049 339.795 243.693 340.412 242.982C341.029 242.27 341.328 241.124 341.328 239.582V211.065C341.328 207.666 340.233 205.966 338.044 205.966C335.855 205.966 334.76 207.666 334.76 211.065Z" fill="#FFF7DF"/>
<path d="M393.074 195.808L396.358 231.48L399.96 195.808H413.952L405.493 254.167H389.591L385.949 218.338L382.466 254.167H366.564L358.105 195.808H372.097L375.58 231.48L378.983 195.808H393.094H393.074Z" fill="#FFF7DF"/>
<path d="M434.789 188.417C437.038 188.417 439.068 188.634 440.879 189.03C442.69 189.445 444.243 189.998 445.497 190.709C446.77 191.401 447.865 192.29 448.8 193.377C449.736 194.464 450.492 195.571 451.03 196.737C451.587 197.903 452.025 199.247 452.343 200.769C452.662 202.29 452.9 203.753 453 205.136C453.119 206.539 453.179 208.101 453.179 209.8C453.179 212.942 452.801 215.788 452.045 218.357C451.288 220.927 450.134 223.219 448.562 225.235C446.989 227.251 444.88 228.832 442.233 229.938C439.586 231.045 436.461 231.618 432.879 231.618V238.239H419.823V222.053C421.992 222.053 423.903 221.994 425.535 221.895C427.186 221.796 428.659 221.598 429.933 221.302C431.227 221.025 432.321 220.689 433.197 220.353C434.093 219.998 434.849 219.504 435.486 218.851C436.123 218.199 436.62 217.547 436.998 216.895C437.357 216.243 437.655 215.353 437.854 214.266C438.073 213.18 438.193 212.112 438.272 211.085C438.352 210.057 438.372 208.733 438.372 207.152C438.372 205.176 438.113 203.634 437.615 202.508C437.118 201.381 436.143 200.808 434.729 200.808C434.371 200.808 434.053 200.808 433.794 200.867C433.535 200.907 433.217 201.065 432.839 201.342C432.461 201.618 432.162 201.994 431.923 202.468C431.684 202.943 431.485 203.654 431.326 204.603C431.147 205.551 431.067 206.697 431.067 208.041V213.713H416.718V203.832C416.718 198.694 418.35 194.84 421.634 192.251C424.918 189.662 429.276 188.377 434.749 188.377L434.789 188.417ZM419.444 254.128V242.527H433.476V254.128H419.444Z" fill="#FFF7DF"/>
<path d="M302.716 22.8457H45.8755C27.0279 22.8457 11.6035 38.1618 11.6035 56.877V123.754C11.6035 142.469 27.0279 157.785 45.8755 157.785H311.294L336.988 183.299V56.877C336.988 38.1618 321.564 22.8457 302.716 22.8457Z" fill="#F15922"/>
<path d="M57.8564 126.106V60.7505H77.8982C83.3316 60.7505 87.2922 62.1339 89.78 64.8809C92.2678 67.6279 93.5216 71.4025 93.5614 76.1851L93.7206 106.718C93.7206 113.26 92.427 118.121 89.8596 121.323C87.2922 124.525 83.1325 126.125 77.4006 126.125H57.8564V126.106ZM72.4847 72.3116V114.149C72.4847 114.149 72.7236 114.11 72.9823 114.11C73.1415 114.11 73.46 114.11 73.9177 114.149C74.3755 114.169 74.7337 114.189 75.0123 114.189C77.7987 114.189 79.1919 113.023 79.1919 110.71V78.4578C79.1919 76.0863 78.8137 74.446 78.0574 73.5567C77.3011 72.6674 75.9876 72.2326 74.1167 72.2326C73.8182 72.2326 73.2808 72.2523 72.5046 72.3116H72.4847Z" fill="#FFF7DF"/>
<path d="M99.8701 60.7505V53.5371H114.658V60.7505H99.8701ZM99.8701 126.106V64.5251H114.658V126.106H99.8701Z" fill="#FFF7DF"/>
<path d="M120.788 106.541L120.947 78.8136C120.947 76.8373 121.206 74.9796 121.723 73.2208C122.241 71.4619 123.017 69.8611 124.032 68.458C125.047 67.0548 126.4 65.9284 128.052 65.0983C129.724 64.2683 131.595 63.8533 133.685 63.8533C137.625 63.8533 140.611 65.2169 142.641 67.9244V53.6558H157.428V126.145H142.641V119.623C141.586 122.39 140.292 124.287 138.74 125.335C137.187 126.382 135.416 126.896 133.426 126.896C131.993 126.896 130.699 126.758 129.525 126.501C128.351 126.244 127.356 125.829 126.5 125.276C125.664 124.722 124.908 124.11 124.271 123.438C123.614 122.766 123.097 121.936 122.679 120.908C122.261 119.9 121.922 118.912 121.664 117.944C121.405 116.975 121.206 115.809 121.066 114.465C120.927 113.102 120.828 111.857 120.808 110.691C120.768 109.525 120.748 108.161 120.748 106.6L120.788 106.541ZM135.575 81.6792V107.568C135.575 112.707 136.75 115.276 139.138 115.276C139.576 115.276 139.974 115.197 140.312 115.039C140.65 114.88 140.949 114.624 141.208 114.288C141.447 113.952 141.666 113.616 141.845 113.28C142.024 112.944 142.163 112.509 142.282 111.916C142.382 111.343 142.482 110.849 142.541 110.454C142.601 110.058 142.641 109.525 142.661 108.853C142.661 108.181 142.681 107.687 142.7 107.371C142.7 107.054 142.7 106.58 142.7 105.928C142.7 105.276 142.681 104.9 142.681 104.762V81.6594C142.681 81.027 142.641 80.4144 142.581 79.8215C142.521 79.2286 142.362 78.5369 142.143 77.7859C141.924 77.035 141.566 76.4223 141.068 75.9678C140.571 75.4935 139.954 75.2761 139.218 75.2761C138.481 75.2761 137.804 75.4737 137.287 75.8492C136.77 76.2247 136.391 76.7781 136.172 77.4697C135.954 78.1614 135.794 78.8334 135.715 79.4658C135.635 80.0982 135.595 80.8294 135.595 81.6792H135.575Z" fill="#FFF7DF"/>
<path d="M205.393 126.106H191.68V104.604L180.077 60.7505H194.506L198.547 82.9044L202.587 60.7505H216.956L205.393 104.604V126.106Z" fill="#FFF7DF"/>
<path d="M235.883 126.837C223.544 126.837 217.374 120.453 217.374 107.687V82.9832C217.374 77.094 219.026 72.43 222.33 68.9913C225.634 65.5526 230.151 63.8135 235.883 63.8135C241.615 63.8135 246.173 65.5328 249.477 68.9913C252.78 72.43 254.432 77.094 254.432 82.9832V107.687C254.432 114.109 252.86 118.912 249.696 122.093C246.551 125.275 241.934 126.856 235.883 126.856V126.837ZM232.42 80.6512V110.73C232.42 112.37 232.739 113.576 233.395 114.327C234.032 115.078 234.868 115.453 235.903 115.453C236.938 115.453 237.754 115.078 238.411 114.327C239.048 113.576 239.386 112.37 239.386 110.73V80.6512C239.386 77.0742 238.232 75.2758 235.923 75.2758C233.614 75.2758 232.46 77.0742 232.46 80.6512H232.42Z" fill="#FFF7DF"/>
<path d="M281.958 64.5645H296.666V126.105H281.878V119.544C280.724 122.449 279.391 124.386 277.898 125.374C276.405 126.362 274.554 126.856 272.345 126.856C270.136 126.856 268.444 126.54 266.932 125.927C265.419 125.315 264.225 124.524 263.369 123.595C262.513 122.647 261.857 121.422 261.359 119.9C260.862 118.378 260.563 116.916 260.424 115.493C260.284 114.07 260.225 112.37 260.225 110.414V64.5842H275.092V107.449C275.092 110.572 275.271 112.647 275.649 113.714C276.027 114.762 276.943 115.295 278.396 115.295C278.953 115.295 279.43 115.196 279.868 114.979C280.286 114.781 280.625 114.445 280.863 114.011C281.102 113.576 281.281 113.141 281.441 112.746C281.6 112.331 281.699 111.797 281.759 111.125C281.819 110.453 281.839 109.92 281.859 109.544C281.859 109.169 281.878 108.635 281.878 107.943V107.449L281.958 64.5842V64.5645Z" fill="#FFF7DF"/>
<path d="M204.239 13.1818H67.1309C66.5736 13.1818 66.1357 12.7471 66.1357 12.1937C66.1357 11.6403 66.5736 11.2056 67.1309 11.2056H204.219C204.776 11.2056 205.214 11.6403 205.214 12.1937C205.214 12.7471 204.776 13.1818 204.219 13.1818H204.239Z" fill="#F15922"/>
<path d="M168.156 168.358H77.8584C77.3011 168.358 76.8633 167.923 76.8633 167.37C76.8633 166.817 77.3011 166.382 77.8584 166.382H168.156C168.713 166.382 169.151 166.817 169.151 167.37C169.151 167.923 168.713 168.358 168.156 168.358Z" fill="#F15922"/>
<path d="M303.552 1.97626H165.31C164.752 1.97626 164.314 1.54149 164.314 0.988132C164.314 0.434778 164.752 0 165.31 0H303.552C304.109 0 304.547 0.434778 304.547 0.988132C304.547 1.54149 304.109 1.97626 303.552 1.97626Z" fill="#F15922"/>
<path d="M432.719 127.469H357.687C357.129 127.469 356.691 127.034 356.691 126.481C356.691 125.927 357.129 125.493 357.687 125.493H432.719C433.276 125.493 433.714 125.927 433.714 126.481C433.714 127.034 433.276 127.469 432.719 127.469Z" fill="#00B2A9"/>
<path d="M431.744 313.752H251.069C250.512 313.752 250.074 313.317 250.074 312.764C250.074 312.21 250.512 311.775 251.069 311.775H431.744C432.301 311.775 432.739 312.21 432.739 312.764C432.739 313.317 432.301 313.752 431.744 313.752Z" fill="#00B2A9"/>
</svg>
