<svg width="462" height="131" viewBox="0 0 462 131" fill="none" xmlns="http://www.w3.org/2000/svg">
<g filter="url(#filter0_d_48_1510)">
<path d="M237.51 44.0302C243.411 44.0302 247.886 47.4288 248.292 53.6256L225.915 53.6274V53.6256C227.339 47.8273 231.204 44.0302 237.51 44.0302ZM346.141 44.0302C352.243 44.0302 356.515 47.4288 357.124 53.6256L334.747 53.6274V53.6256C336.173 47.8273 339.834 44.0302 346.141 44.0302ZM52.5975 44.0302C64.3961 44.6298 67.2441 49.4279 67.2441 53.4249C67.2441 59.2213 63.3787 63.6177 52.5975 63.8179V44.0302ZM172.618 44.4291C184.213 45.0303 187.062 49.8268 187.062 53.8238C187.062 59.4205 183.197 63.8179 172.618 64.0181V44.4291ZM118.914 45.8296C127.051 45.8296 132.34 52.0249 132.34 59.6202C132.34 67.4156 127.051 73.6109 118.914 73.6109C110.574 73.6109 105.284 67.4156 105.284 59.6202C105.284 52.0249 110.574 45.8296 118.914 45.8296ZM49.5204 29C42.5869 29 33.2153 29.4949 29 29.8394L29.407 44.2308L34.0858 44.0302V89.2013L52.5975 89.2046V77.8086C79.6534 76.6083 85.959 62.6181 85.959 52.8244C85.959 38.8334 74.1604 30.0401 52.5975 29.0397C51.653 29.0125 50.6172 29 49.5204 29ZM169.539 29.601C162.648 29.601 153.437 30.0947 149.224 30.4388L149.631 44.8299L154.31 44.4291V89.2013L172.618 89.2046V78.0083C199.47 76.8084 205.573 62.8182 205.573 53.2252C205.573 39.2342 193.978 30.6385 172.618 29.6412C171.67 29.6133 170.634 29.601 169.539 29.601ZM280.23 32.0375L260.091 32.0408L281.449 73.4108V89.2013L300.776 89.2046V73.4108L323.355 32.0375L302.809 32.0408L291.215 56.2221L280.23 32.0375ZM118.71 30.2398C101.623 30.2398 87.5867 42.4317 87.5867 59.8204C87.5867 77.2096 101.623 89.401 118.71 89.401C135.798 89.401 149.835 77.2096 149.835 59.8204C149.835 42.4317 135.595 30.2398 118.71 30.2398ZM399.436 29.6412C386.416 29.6412 376.246 35.6358 376.246 47.8273C376.246 57.2218 380.925 61.82 390.079 65.817C392.725 66.8158 396.182 67.8145 398.828 68.8143C401.065 69.8145 402.489 70.8118 402.489 72.6121C402.489 74.2109 401.065 75.6109 396.588 75.6109C392.521 75.6109 386.621 74.0121 382.351 71.4131L376.246 83.8047C382.147 88.0025 389.266 89.6011 396.588 89.6011C407.98 89.6011 420.187 84.8035 420.187 72.0121C420.187 62.4193 413.88 57.8208 407.167 55.2229C403.708 53.8238 399.843 52.4257 397.199 51.2257C394.758 50.2255 393.74 49.0276 393.74 47.4288C393.74 45.0303 396.182 43.8307 399.234 43.8307C403.912 43.8307 407.573 46.0298 410.828 49.4279L421 39.0338C416.728 33.2376 408.997 29.6412 399.436 29.6412ZM237.307 29.8394C219.609 29.8394 207.2 42.4317 207.2 59.8204C207.2 77.0095 218.795 90 239.341 90C248.495 90 256.43 87.8022 262.939 83.006L255.615 70.2134C250.936 73.4108 245.851 75.0095 239.951 75.2096C232.425 75.2096 227.746 71.6134 226.119 65.817H226.121L265.38 65.8189C265.786 63.0179 265.99 60.4197 265.99 57.6226C265.99 45.4292 259.277 29.8394 237.307 29.8394ZM346.141 29.8394C328.238 29.8394 315.829 42.4317 315.829 59.8204C315.829 77.0095 327.832 90 347.972 90C356.311 90 363.431 88.2011 369.533 84.2036L362.82 71.012C358.548 73.812 353.869 75.2096 348.58 75.2096C341.258 75.2096 336.577 71.812 334.951 65.817H334.954L374.211 65.8189C374.62 63.0179 374.822 60.4197 374.822 57.8208C374.62 45.4292 367.907 29.8394 346.141 29.8394Z" fill="#FF7C00"/>
</g>
<defs>
<filter id="filter0_d_48_1510" x="0" y="0" width="462" height="131" filterUnits="userSpaceOnUse" color-interpolation-filters="sRGB">
<feFlood flood-opacity="0" result="BackgroundImageFix"/>
<feColorMatrix in="SourceAlpha" type="matrix" values="0 0 0 0 0 0 0 0 0 0 0 0 0 0 0 0 0 0 127 0" result="hardAlpha"/>
<feOffset dx="6" dy="6"/>
<feGaussianBlur stdDeviation="17.5"/>
<feComposite in2="hardAlpha" operator="out"/>
<feColorMatrix type="matrix" values="0 0 0 0 0 0 0 0 0 0 0 0 0 0 0 0 0 0 0.35 0"/>
<feBlend mode="normal" in2="BackgroundImageFix" result="effect1_dropShadow_48_1510"/>
<feBlend mode="normal" in="SourceGraphic" in2="effect1_dropShadow_48_1510" result="shape"/>
</filter>
</defs>
</svg>
