<svg width="20" height="22" viewBox="0 0 20 22" fill="none" xmlns="http://www.w3.org/2000/svg">
<path d="M3.5498 12.1835V16.3252C3.5498 17.8419 3.5498 17.8419 4.98314 18.8085L8.9248 21.0835C9.51647 21.4252 10.4831 21.4252 11.0748 21.0835L15.0165 18.8085C16.4498 17.8419 16.4498 17.8419 16.4498 16.3252V12.1835C16.4498 10.6669 16.4498 10.6669 15.0165 9.7002L11.0748 7.4252C10.4831 7.08353 9.51647 7.08353 8.9248 7.4252L4.98314 9.7002C3.5498 10.6669 3.5498 10.6669 3.5498 12.1835Z" stroke="white" stroke-linecap="round" stroke-linejoin="round"/>
<path d="M14.5832 9.35817V7.1665C14.5832 5.49984 13.7498 4.6665 12.0832 4.6665H7.9165C6.24984 4.6665 5.4165 5.49984 5.4165 7.1665V9.29984" stroke="white" stroke-linecap="round" stroke-linejoin="round"/>
<path d="M10.525 12.1583L11 12.9C11.075 13.0166 11.2416 13.1333 11.3666 13.1666L12.2166 13.3833C12.7416 13.5166 12.8833 13.9666 12.5416 14.3833L11.9833 15.0583C11.9 15.1666 11.8333 15.3583 11.8416 15.4916L11.8916 16.3666C11.925 16.9083 11.5416 17.1833 11.0416 16.9833L10.225 16.6583C10.1 16.6083 9.89165 16.6083 9.76665 16.6583L8.94998 16.9833C8.44998 17.1833 8.06665 16.9 8.09998 16.3666L8.14998 15.4916C8.15831 15.3583 8.09165 15.1583 8.00831 15.0583L7.44998 14.3833C7.10831 13.9666 7.24998 13.5166 7.77498 13.3833L8.62498 13.1666C8.75831 13.1333 8.92498 13.0083 8.99165 12.9L9.46665 12.1583C9.76665 11.7083 10.2333 11.7083 10.525 12.1583Z" stroke="white" stroke-linecap="round" stroke-linejoin="round"/>
</svg>
