<svg width="18" height="18" viewBox="0 0 18 18" fill="none" xmlns="http://www.w3.org/2000/svg">
<path d="M9.37504 16.5003H3.06004C2.19004 16.5003 1.47754 15.8028 1.47754 14.9478V3.81776C1.47754 1.85276 2.94004 0.960262 4.73254 1.83776L8.06254 3.47276C8.78254 3.82526 9.37504 4.76276 9.37504 5.55776V16.5003Z" stroke="white" stroke-linecap="round" stroke-linejoin="round"/>
<path d="M16.4775 11.2949V14.1299C16.4775 15.7499 15.7275 16.4999 14.1075 16.4999H9.375V7.81494L9.7275 7.88994L13.1025 8.64744L14.625 8.98494C15.615 9.20244 16.425 9.71244 16.47 11.1524C16.4775 11.1974 16.4775 11.2424 16.4775 11.2949Z" stroke="white" stroke-linecap="round" stroke-linejoin="round"/>
<path d="M4.125 6.75H6.7275" stroke="white" stroke-linecap="round" stroke-linejoin="round"/>
<path d="M4.125 9.75H6.7275" stroke="white" stroke-linecap="round" stroke-linejoin="round"/>
<path d="M13.1025 8.64764V11.0626C13.1025 11.9926 12.345 12.7501 11.415 12.7501C10.485 12.7501 9.72754 11.9926 9.72754 11.0626V7.89014L13.1025 8.64764Z" stroke="white" stroke-linecap="round" stroke-linejoin="round"/>
<path d="M16.47 11.1525C16.425 12.0375 15.69 12.75 14.79 12.75C13.86 12.75 13.1025 11.9925 13.1025 11.0625V8.64746L14.625 8.98496C15.615 9.20246 16.425 9.71246 16.47 11.1525Z" stroke="white" stroke-linecap="round" stroke-linejoin="round"/>
</svg>
