<svg width="20" height="20" viewBox="0 0 20 20" fill="none" xmlns="http://www.w3.org/2000/svg">
<path d="M5.58269 15.0003H3.4577C2.26604 15.0003 1.66602 14.4003 1.66602 13.2086V3.45868C1.66602 2.26701 2.26604 1.66699 3.4577 1.66699H7.04103C8.23269 1.66699 8.83266 2.26701 8.83266 3.45868V5.00033" stroke="white" stroke-miterlimit="10" stroke-linecap="round" stroke-linejoin="round"/>
<path d="M14.4756 7.01665V16.3167C14.4756 17.6583 13.809 18.3333 12.4673 18.3333H7.60064C6.25897 18.3333 5.58398 17.6583 5.58398 16.3167V7.01665C5.58398 5.67499 6.25897 5 7.60064 5H12.4673C13.809 5 14.4756 5.67499 14.4756 7.01665Z" stroke="white" stroke-miterlimit="10" stroke-linecap="round" stroke-linejoin="round"/>
<path d="M11.166 5.00033V3.45868C11.166 2.26701 11.766 1.66699 12.9577 1.66699H16.541C17.7326 1.66699 18.3327 2.26701 18.3327 3.45868V13.2086C18.3327 14.4003 17.7326 15.0003 16.541 15.0003H14.4743" stroke="white" stroke-miterlimit="10" stroke-linecap="round" stroke-linejoin="round"/>
<path d="M8.33398 9.16699H11.6673" stroke="white" stroke-miterlimit="10" stroke-linecap="round" stroke-linejoin="round"/>
<path d="M8.33398 11.667H11.6673" stroke="white" stroke-miterlimit="10" stroke-linecap="round" stroke-linejoin="round"/>
<path d="M10 18.3335V15.8335" stroke="white" stroke-miterlimit="10" stroke-linecap="round" stroke-linejoin="round"/>
</svg>
