<svg width="145" height="67" viewBox="0 0 145 67" fill="none" xmlns="http://www.w3.org/2000/svg">
<path d="M62.6233 34.793C62.5501 34.9019 62.5867 35.0289 62.5867 35.1378V40.4C62.5867 40.8899 62.5318 41.3617 62.3853 41.8335C61.9459 43.3396 60.6642 44.2469 59.0712 44.138C57.112 44.011 55.9951 42.8315 55.867 40.7811C55.8486 40.5815 55.8486 40.3637 55.8486 40.1641V26.6275C55.8486 25.2121 56.3796 24.1052 57.7346 23.5608C59.1261 22.9983 60.4445 23.1979 61.5797 24.2141C62.2022 24.7585 62.6417 25.4843 63.136 26.1375C64.6558 28.188 66.267 30.184 67.6952 32.3071C67.8417 32.5248 67.9699 32.7425 68.1896 32.9421V32.5974V26.9722C68.1896 26.192 68.3178 25.448 68.7206 24.7766C69.453 23.5427 70.6065 23.1435 71.9614 23.2887C73.5544 23.4338 74.6164 24.5044 74.8361 26.1012C74.891 26.4642 74.9094 26.8271 74.9094 27.19V40.7629C74.9094 42.1601 74.415 43.267 73.0967 43.8477C71.6868 44.4465 70.3319 44.2287 69.1783 43.1944C68.4642 42.5593 67.9332 41.7428 67.329 40.9807C65.736 38.9665 64.0332 37.0249 62.6783 34.8293C62.6783 34.8112 62.66 34.8112 62.6233 34.793ZM112.005 34.8293V35.2104C112.005 37.1156 111.987 39.0028 111.969 40.9081C111.969 41.4525 111.804 41.9605 111.566 42.4323C110.998 43.5755 109.79 44.2287 108.453 44.1199C106.549 43.9747 105.414 42.7952 105.286 40.8718C105.286 40.7629 105.267 40.6541 105.267 40.5452C105.267 35.791 105.249 31.0369 105.267 26.2827C105.267 25.0669 105.853 24.1415 106.952 23.6153C108.197 23.0346 109.405 23.1254 110.577 23.8693C110.925 24.0871 111.218 24.3774 111.456 24.6859C113.305 27.1537 115.21 29.5671 116.967 32.1074C117.169 32.3978 117.352 32.6881 117.59 33.0692V32.5974V26.8634C117.59 25.9561 117.791 25.0851 118.396 24.3593C119.293 23.2887 120.501 23.1072 121.783 23.3431C122.991 23.579 123.742 24.3774 124.09 25.5206C124.255 26.0649 124.291 26.6093 124.291 27.1718V40.7811C124.291 42.1601 123.779 43.267 122.479 43.8295C121.124 44.4102 119.824 44.2287 118.67 43.2852C118.487 43.14 118.304 42.9585 118.158 42.7771C116.327 40.4363 114.367 38.1862 112.665 35.7547C112.445 35.4462 112.243 35.1378 112.042 34.8293C112.06 34.8112 112.042 34.8112 112.005 34.8293ZM21.7005 23.6697C22.8906 23.6879 24.2456 23.579 25.5822 23.833C29.2991 24.5226 32.1555 26.3734 33.4555 29.9844C34.7921 33.7043 34.3527 37.2427 31.6978 40.3274C30.0682 42.2327 27.871 43.2307 25.4174 43.5755C23.147 43.9021 20.8582 43.6844 18.5878 43.7207C18.4779 43.7207 18.3681 43.6844 18.2582 43.6662C16.4638 43.3578 15.2188 41.9061 15.2188 40.1097V27.2989C15.2188 25.2847 16.7751 23.706 18.8258 23.6697C19.723 23.6516 20.6385 23.6697 21.7005 23.6697ZM21.9385 33.7043V37.0068C21.9385 37.1701 21.9202 37.3153 22.1766 37.3153C22.8906 37.2971 23.5864 37.3515 24.3005 37.2608C26.1681 37.0431 27.4132 35.6459 27.4315 33.7224C27.4498 31.8353 26.2048 30.3836 24.3371 30.1477C23.6414 30.057 22.9456 30.1296 22.2498 30.0933C21.9935 30.0751 21.9202 30.1659 21.9202 30.4199C21.9385 31.5086 21.9385 32.6155 21.9385 33.7043ZM83.9362 29.5126C85.1446 27.9702 86.3897 26.5004 87.5616 24.9762C88.239 24.1052 89.0447 23.4883 90.1799 23.3612C92.1574 23.1616 94.0616 24.9762 93.9151 26.9359C93.8419 27.8432 93.4757 28.6053 92.9081 29.2949C91.7546 30.6558 90.5827 31.9986 89.4109 33.3414C89.2461 33.541 89.2461 33.6498 89.4109 33.8313C90.6743 35.2104 91.901 36.6257 93.1461 38.0048C93.8236 38.7669 94.2081 39.6197 94.1715 40.6359C94.0982 42.8134 91.8827 44.5009 89.8503 43.9021C89.1545 43.7025 88.5869 43.2852 88.1292 42.7227C86.8109 41.1258 85.4559 39.5472 84.1742 37.9141C84.1193 37.8415 84.0644 37.7689 83.9911 37.6782C83.8629 37.7507 83.9179 37.8596 83.9179 37.9322C83.9179 38.8939 83.9362 39.8375 83.8996 40.7992C83.8446 42.7408 82.4531 44.1017 80.5488 44.0836C78.6263 44.0836 77.1981 42.7227 77.1981 40.7992C77.1798 36.0269 77.1798 31.2365 77.1981 26.4642C77.2164 24.5407 78.6629 23.1798 80.5671 23.1979C82.4714 23.2161 83.8446 24.5407 83.8996 26.4642C83.9545 27.5166 83.9362 28.5146 83.9362 29.5126ZM53.5782 31.7808C53.5599 33.0873 53.6331 34.7204 53.5416 36.3354C53.3219 40.3456 50.3007 43.5211 46.2725 44.0291C44.4781 44.2469 42.7387 44.1562 41.0542 43.4666C38.0513 42.2509 36.4034 39.9827 35.9457 36.8435C35.8907 36.4443 35.8724 36.0269 35.8541 35.6096C35.8541 32.6155 35.8358 29.6396 35.8541 26.6456C35.8724 24.6496 37.2823 23.2342 39.2232 23.2524C41.1823 23.2705 42.5739 24.6859 42.5739 26.7182V35.1741C42.5739 36.1176 42.9035 36.8798 43.7824 37.3153C45.1556 38.0048 46.6936 37.0431 46.8401 35.4644C46.8584 35.2648 46.8584 35.047 46.8584 34.8474V26.6093C46.8584 24.8129 48.0852 23.452 49.8613 23.2705C51.619 23.0891 53.1205 24.1597 53.4867 25.8835C53.5416 26.1557 53.5599 26.4279 53.5599 26.7182C53.5782 28.2969 53.5782 29.8755 53.5782 31.7808ZM96.2771 33.668C96.2771 31.2909 96.2588 28.932 96.2771 26.5549C96.2954 25.1758 96.8814 24.1052 98.1814 23.5608C99.518 22.9983 100.818 23.1435 101.935 24.1234C102.612 24.704 102.96 25.5024 102.96 26.3734C102.979 31.2546 102.997 36.1176 102.96 40.9988C102.942 42.8315 101.422 44.1925 99.5912 44.138C97.6687 44.0836 96.2954 42.7589 96.2771 40.8899C96.2588 38.4766 96.2771 36.0813 96.2771 33.668Z" fill="#FE6D01"/>
<path d="M125.9 28.3305C125.882 27.4575 125.9 26.6038 126.087 25.7502C126.461 23.9652 127.9 22.9564 129.676 23.2474C131.377 23.519 132.462 24.9741 132.293 26.759C132.144 28.2335 131.751 29.6498 131.191 31.0079C130.854 31.8034 130.349 32.4436 129.527 32.7346C128.181 33.2003 126.779 32.5212 126.274 31.1243C125.938 30.2319 125.919 29.2812 125.9 28.3305Z" fill="#F40290"/>
</svg>
