<svg width="29" height="24" viewBox="0 0 29 24" fill="none" xmlns="http://www.w3.org/2000/svg">
<path d="M17.6336 12.0582C17.5503 12.0498 17.4503 12.0498 17.3586 12.0582C15.3753 11.9915 13.8003 10.3665 13.8003 8.3665C13.8003 6.32484 15.4503 4.6665 17.5003 4.6665C19.542 4.6665 21.2003 6.32484 21.2003 8.3665C21.192 10.3665 19.617 11.9915 17.6336 12.0582Z" stroke="white" stroke-linecap="round" stroke-linejoin="round"/>
<path d="M23.6743 6.3335C25.2909 6.3335 26.5909 7.64183 26.5909 9.25016C26.5909 10.8252 25.3409 12.1085 23.7826 12.1668C23.7159 12.1585 23.6409 12.1585 23.5659 12.1668" stroke="white" stroke-linecap="round" stroke-linejoin="round"/>
<path d="M13.4671 15.1335C11.4504 16.4835 11.4504 18.6835 13.4671 20.0252C15.7588 21.5585 19.5171 21.5585 21.8088 20.0252C23.8254 18.6752 23.8254 16.4752 21.8088 15.1335C19.5254 13.6085 15.7671 13.6085 13.4671 15.1335Z" stroke="white" stroke-linecap="round" stroke-linejoin="round"/>
<path d="M25.2832 19.6665C25.8832 19.5415 26.4499 19.2998 26.9165 18.9415C28.2165 17.9665 28.2165 16.3582 26.9165 15.3832C26.4582 15.0332 25.8999 14.7998 25.3082 14.6665" stroke="white" stroke-linecap="round" stroke-linejoin="round"/>
</svg>
