<svg width="24" height="24" viewBox="0 0 24 24" fill="none" xmlns="http://www.w3.org/2000/svg">
<path d="M1.72537 3.8334C2.39204 0.950065 6.7337 0.950065 7.39204 3.8334C7.7837 5.52506 6.7087 6.9584 5.77537 7.85006C5.09204 8.50006 4.01704 8.49173 3.3337 7.85006C2.40871 6.9584 1.33371 5.52506 1.72537 3.8334Z" stroke="white"/>
<path d="M12.5613 13.8334C13.2279 10.9501 17.5946 10.9501 18.2613 13.8334C18.6529 15.5251 17.5779 16.9584 16.6363 17.8501C15.9529 18.5001 14.8696 18.4917 14.1863 17.8501C13.2446 16.9584 12.1696 15.5251 12.5613 13.8334Z" stroke="white"/>
<path d="M10.0014 4.16699H12.2347C13.7764 4.16699 14.493 6.07533 13.3347 7.09199L6.67638 12.917C5.51805 13.9253 6.23471 15.8337 7.76804 15.8337H10.0014" stroke="white" stroke-linecap="round" stroke-linejoin="round"/>
<path d="M4.57111 4.58366H4.58074" stroke="white" stroke-width="2" stroke-linecap="round" stroke-linejoin="round"/>
<path d="M15.4031 14.5837H15.4128" stroke="white" stroke-width="2" stroke-linecap="round" stroke-linejoin="round"/>
</svg>
