<svg width="424" height="115" viewBox="0 0 424 115" fill="none" xmlns="http://www.w3.org/2000/svg">
<g filter="url(#filter0_d_48_2338)">
<path d="M187.107 53.6376C186.85 54.0194 186.979 54.4648 186.979 54.8465V73.2978C186.979 75.0157 186.786 76.67 186.272 78.3242C184.728 83.6051 180.227 86.7864 174.632 86.4046C167.752 85.9593 163.829 81.8236 163.379 74.634C163.315 73.9341 163.315 73.1706 163.315 72.4707V25.0063C163.315 20.0435 165.179 16.1624 169.938 14.2536C174.825 12.2812 179.455 12.9811 183.442 16.5441C185.628 18.4529 187.172 20.9979 188.908 23.2884C194.245 30.478 199.904 37.4768 204.92 44.921C205.435 45.6845 205.885 46.448 206.656 47.1479V45.939V26.2152C206.656 23.4793 207.106 20.8706 208.521 18.5165C211.093 14.19 215.145 12.7902 219.903 13.2992C225.498 13.8082 229.227 17.5621 229.999 23.1611C230.192 24.4336 230.256 25.7062 230.256 26.9787V74.5704C230.256 79.4695 228.52 83.3506 223.89 85.3867C218.939 87.4863 214.18 86.7228 210.129 83.0961C207.621 80.8693 205.756 78.0061 203.634 75.3339C198.039 68.2714 192.059 61.4635 187.3 53.7649C187.3 53.7013 187.236 53.7013 187.107 53.6376ZM360.539 53.7649V55.101C360.539 61.7817 360.475 68.3987 360.41 75.0794C360.41 76.9881 359.832 78.7696 358.996 80.4239C357.002 84.4323 352.758 86.7228 348.064 86.341C341.376 85.832 337.389 81.6964 336.939 74.9521C336.939 74.5704 336.875 74.1886 336.875 73.8068C336.875 57.137 336.81 40.4672 336.875 23.7974C336.875 19.5345 338.932 16.2896 342.791 14.4445C347.163 12.4085 351.408 12.7266 355.523 15.3352C356.745 16.0987 357.774 17.1167 358.61 18.1984C365.105 26.8514 371.792 35.3136 377.966 44.2211C378.673 45.2391 379.316 46.2571 380.152 47.5932V45.939V25.8334C380.152 22.6521 380.859 19.5981 382.981 17.0531C386.132 13.2992 390.377 12.663 394.878 13.4901C399.122 14.3172 401.759 17.1167 402.98 21.1251C403.559 23.0339 403.688 24.9426 403.688 26.915V74.634C403.688 79.4695 401.887 83.3506 397.322 85.323C392.563 87.359 387.997 86.7228 383.946 83.4143C383.303 82.9053 382.66 82.269 382.145 81.6328C375.715 73.4251 368.834 65.5356 362.854 57.0098C362.082 55.9281 361.375 54.8465 360.667 53.7649C360.732 53.7013 360.667 53.7013 360.539 53.7649ZM43.3852 14.6354C47.565 14.699 52.3236 14.3172 57.0179 15.208C70.0719 17.6257 80.1035 24.1155 84.6692 36.7769C89.3635 49.8201 87.8201 62.2271 78.4959 73.0433C72.7727 79.724 65.0561 83.2234 56.4391 84.4323C48.4653 85.5775 40.4271 84.814 32.4533 84.9413C32.0674 84.9413 31.6816 84.814 31.2958 84.7504C24.9939 83.6688 20.6211 78.5787 20.6211 72.2798V27.3604C20.6211 20.298 26.087 14.7626 33.2892 14.6354C36.4402 14.5717 39.6555 14.6354 43.3852 14.6354ZM44.2211 49.8201V61.3999C44.2211 61.9725 44.1568 62.4816 45.0571 62.4816C47.565 62.4179 50.0086 62.6088 52.5165 62.2907C59.0757 61.5272 63.4484 56.628 63.5127 49.8838C63.577 43.2667 59.2043 38.1767 52.6451 37.3496C50.2015 37.0314 47.7579 37.2859 45.3143 37.1587C44.4141 37.0951 44.1568 37.4132 44.1568 38.304C44.2211 42.1215 44.2211 46.0026 44.2211 49.8201ZM261.959 35.1227C266.203 29.7145 270.576 24.5609 274.691 19.2164C277.071 16.1624 279.9 13.9991 283.887 13.5537C290.832 12.8538 297.52 19.2164 297.005 26.0879C296.748 29.2692 295.462 31.9414 293.468 34.3592C289.417 39.1311 285.302 43.8394 281.186 48.5476C280.607 49.2475 280.607 49.6293 281.186 50.2655C285.623 55.101 289.932 60.0638 294.304 64.8993C296.684 67.5716 298.034 70.562 297.906 74.125C297.648 81.76 289.867 87.6772 282.729 85.5775C280.286 84.8776 278.292 83.4143 276.685 81.4419C272.055 75.8429 267.296 70.3075 262.795 64.5812C262.602 64.3267 262.409 64.0722 262.152 63.7541C261.702 64.0086 261.895 64.3903 261.895 64.6448C261.895 68.0169 261.959 71.3255 261.83 74.6976C261.637 81.5055 256.75 86.2774 250.062 86.2138C243.31 86.2138 238.295 81.4419 238.295 74.6976C238.23 57.9642 238.23 41.1671 238.295 24.4336C238.359 17.6894 243.439 12.9175 250.127 12.9811C256.814 13.0447 261.637 17.6894 261.83 24.4336C262.023 28.1239 261.959 31.6233 261.959 35.1227ZM155.341 43.0758C155.276 47.6569 155.534 53.3831 155.212 59.0458C154.44 73.107 143.83 84.2414 129.683 86.0229C123.381 86.7864 117.272 86.4683 111.356 84.0505C100.81 79.7876 95.0223 71.8345 93.4147 60.8273C93.2218 59.4275 93.1575 57.9642 93.0932 56.5008C93.0932 46.0026 93.0288 35.5681 93.0932 25.0699C93.1575 18.0711 98.109 13.1083 104.925 13.172C111.806 13.2356 116.693 18.1984 116.693 25.3244V54.9738C116.693 58.2823 117.851 60.9545 120.937 62.4816C125.76 64.8993 131.162 61.5272 131.676 55.9918C131.741 55.2919 131.741 54.5284 131.741 53.8285V24.9426C131.741 18.6437 136.049 13.8719 142.287 13.2356C148.46 12.5993 153.733 16.3532 155.019 22.3976C155.212 23.352 155.276 24.3064 155.276 25.3244C155.341 30.8598 155.341 36.3952 155.341 43.0758ZM305.301 49.6929C305.301 41.358 305.236 33.0867 305.301 24.7518C305.365 19.9163 307.423 16.1624 311.988 14.2536C316.683 12.2812 321.248 12.7902 325.171 16.226C327.55 18.262 328.772 21.0615 328.772 24.1155C328.836 41.2307 328.901 58.2823 328.772 75.3975C328.708 81.8236 323.37 86.5955 316.94 86.4046C310.188 86.2138 305.365 81.5691 305.301 75.0157C305.236 66.5536 305.301 58.155 305.301 49.6929Z" fill="#FE6D01"/>
</g>
<defs>
<filter id="filter0_d_48_2338" x="0.621094" y="0.980469" width="423.066" height="113.561" filterUnits="userSpaceOnUse" color-interpolation-filters="sRGB">
<feFlood flood-opacity="0" result="BackgroundImageFix"/>
<feColorMatrix in="SourceAlpha" type="matrix" values="0 0 0 0 0 0 0 0 0 0 0 0 0 0 0 0 0 0 127 0" result="hardAlpha"/>
<feOffset dy="8"/>
<feGaussianBlur stdDeviation="10"/>
<feComposite in2="hardAlpha" operator="out"/>
<feColorMatrix type="matrix" values="0 0 0 0 0 0 0 0 0 0 0 0 0 0 0 0 0 0 0.5 0"/>
<feBlend mode="normal" in2="BackgroundImageFix" result="effect1_dropShadow_48_2338"/>
<feBlend mode="normal" in="SourceGraphic" in2="effect1_dropShadow_48_2338" result="shape"/>
</filter>
</defs>
</svg>
